G04 #@! TF.GenerationSoftware,KiCad,Pcbnew,(6.0.9)*
G04 #@! TF.CreationDate,2022-12-10T11:28:18+09:00*
G04 #@! TF.ProjectId,kidoairaku-swallowtail,6b69646f-6169-4726-916b-752d7377616c,rev?*
G04 #@! TF.SameCoordinates,Original*
G04 #@! TF.FileFunction,Soldermask,Top*
G04 #@! TF.FilePolarity,Negative*
%FSLAX46Y46*%
G04 Gerber Fmt 4.6, Leading zero omitted, Abs format (unit mm)*
G04 Created by KiCad (PCBNEW (6.0.9)) date 2022-12-10 11:28:18*
%MOMM*%
%LPD*%
G01*
G04 APERTURE LIST*
%ADD10C,1.600000*%
%ADD11C,2.200000*%
%ADD12C,4.300000*%
%ADD13C,1.900000*%
%ADD14C,3.400000*%
G04 APERTURE END LIST*
D10*
G04 #@! TO.C,C1*
X150500000Y-112750000D03*
X145500000Y-112750000D03*
G04 #@! TD*
D11*
G04 #@! TO.C,H12*
X144145000Y-99695000D03*
G04 #@! TD*
G04 #@! TO.C,H11*
X151765000Y-99695000D03*
G04 #@! TD*
D12*
G04 #@! TO.C,D260*
X193355000Y-142800000D03*
G04 #@! TD*
G04 #@! TO.C,D259*
X176000000Y-146750000D03*
G04 #@! TD*
G04 #@! TO.C,D258*
X112500000Y-146250000D03*
G04 #@! TD*
G04 #@! TO.C,D257*
X94500000Y-142250000D03*
G04 #@! TD*
G04 #@! TO.C,D256*
X208500000Y-131250000D03*
G04 #@! TD*
G04 #@! TO.C,D255*
X200500000Y-132750000D03*
G04 #@! TD*
G04 #@! TO.C,D254*
X191000000Y-134750000D03*
G04 #@! TD*
G04 #@! TO.C,D253*
X183000000Y-136750000D03*
G04 #@! TD*
G04 #@! TO.C,D252*
X173500000Y-138500000D03*
G04 #@! TD*
G04 #@! TO.C,D251*
X166000000Y-140250000D03*
G04 #@! TD*
G04 #@! TO.C,D250*
X131000000Y-140250000D03*
G04 #@! TD*
G04 #@! TO.C,D249*
X122000000Y-138000000D03*
G04 #@! TD*
G04 #@! TO.C,D248*
X113200000Y-136250000D03*
G04 #@! TD*
G04 #@! TO.C,D247*
X104500000Y-134750000D03*
G04 #@! TD*
G04 #@! TO.C,D246*
X95500000Y-132250000D03*
G04 #@! TD*
G04 #@! TO.C,D245*
X87500000Y-131250000D03*
G04 #@! TD*
G04 #@! TO.C,D244*
X189500000Y-125750000D03*
G04 #@! TD*
G04 #@! TO.C,D243*
X172500000Y-130100000D03*
G04 #@! TD*
G04 #@! TO.C,D242*
X133500000Y-132250000D03*
G04 #@! TD*
G04 #@! TO.C,D241*
X115500000Y-128400000D03*
G04 #@! TD*
G04 #@! TO.C,D240*
X205500000Y-114250000D03*
G04 #@! TD*
G04 #@! TO.C,D239*
X187000000Y-117250000D03*
G04 #@! TD*
G04 #@! TO.C,D238*
X179000000Y-119250000D03*
G04 #@! TD*
G04 #@! TO.C,D237*
X170000000Y-120750000D03*
G04 #@! TD*
G04 #@! TO.C,D236*
X161500000Y-122750000D03*
G04 #@! TD*
G04 #@! TO.C,D235*
X134000000Y-122250000D03*
G04 #@! TD*
G04 #@! TO.C,D234*
X126000000Y-121250000D03*
G04 #@! TD*
G04 #@! TO.C,D233*
X117000000Y-118750000D03*
G04 #@! TD*
G04 #@! TO.C,D232*
X109000000Y-117750000D03*
G04 #@! TD*
G04 #@! TO.C,D231*
X100000000Y-116750000D03*
G04 #@! TD*
G04 #@! TO.C,D230*
X276000000Y-99250000D03*
G04 #@! TD*
G04 #@! TO.C,D229*
X259000000Y-103250000D03*
G04 #@! TD*
G04 #@! TO.C,D228*
X240000000Y-102750000D03*
G04 #@! TD*
G04 #@! TO.C,D227*
X221500000Y-102250000D03*
G04 #@! TD*
G04 #@! TO.C,D226*
X203000000Y-105750000D03*
G04 #@! TD*
G04 #@! TO.C,D225*
X195000000Y-107750000D03*
G04 #@! TD*
G04 #@! TO.C,D224*
X186500000Y-109750000D03*
G04 #@! TD*
G04 #@! TO.C,D223*
X119000000Y-112250000D03*
G04 #@! TD*
G04 #@! TO.C,D222*
X101500000Y-107750000D03*
G04 #@! TD*
G04 #@! TO.C,D221*
X92500000Y-105750000D03*
G04 #@! TD*
G04 #@! TO.C,D220*
X84000000Y-104750000D03*
G04 #@! TD*
G04 #@! TO.C,D219*
X65500000Y-104750000D03*
G04 #@! TD*
G04 #@! TO.C,D218*
X47000000Y-105250000D03*
G04 #@! TD*
G04 #@! TO.C,D217*
X29500000Y-101750000D03*
G04 #@! TD*
G04 #@! TO.C,D216*
X274000000Y-90750000D03*
G04 #@! TD*
G04 #@! TO.C,D215*
X265500000Y-92750000D03*
G04 #@! TD*
G04 #@! TO.C,D214*
X256000000Y-94750000D03*
G04 #@! TD*
G04 #@! TO.C,D213*
X248000000Y-96250000D03*
G04 #@! TD*
G04 #@! TO.C,D212*
X237500000Y-94250000D03*
G04 #@! TD*
G04 #@! TO.C,D211*
X229500000Y-95250000D03*
G04 #@! TD*
G04 #@! TO.C,D210*
X220000000Y-93750000D03*
G04 #@! TD*
G04 #@! TO.C,D209*
X211000000Y-95750000D03*
G04 #@! TD*
G04 #@! TO.C,D208*
X202500000Y-97750000D03*
G04 #@! TD*
G04 #@! TO.C,D207*
X184000000Y-101250000D03*
G04 #@! TD*
G04 #@! TO.C,D206*
X176000000Y-103250000D03*
G04 #@! TD*
G04 #@! TO.C,D205*
X120500000Y-102750000D03*
G04 #@! TD*
G04 #@! TO.C,D204*
X112000000Y-101250000D03*
G04 #@! TD*
G04 #@! TO.C,D203*
X104000000Y-99750000D03*
G04 #@! TD*
G04 #@! TO.C,D202*
X85000000Y-94750000D03*
G04 #@! TD*
G04 #@! TO.C,D201*
X76000000Y-93750000D03*
G04 #@! TD*
G04 #@! TO.C,D200*
X66000000Y-95250000D03*
G04 #@! TD*
G04 #@! TO.C,D199*
X58000000Y-94250000D03*
G04 #@! TD*
G04 #@! TO.C,D198*
X48500000Y-96250000D03*
G04 #@! TD*
G04 #@! TO.C,D197*
X39500000Y-94250000D03*
G04 #@! TD*
G04 #@! TO.C,D196*
X30500000Y-92250000D03*
G04 #@! TD*
G04 #@! TO.C,D195*
X22000000Y-90750000D03*
G04 #@! TD*
G04 #@! TO.C,D194*
X272000000Y-82250000D03*
G04 #@! TD*
G04 #@! TO.C,D193*
X254500000Y-86250000D03*
G04 #@! TD*
G04 #@! TO.C,D192*
X237000000Y-86250000D03*
G04 #@! TD*
G04 #@! TO.C,D191*
X218500000Y-85750000D03*
G04 #@! TD*
G04 #@! TO.C,D190*
X199500000Y-89250000D03*
G04 #@! TD*
G04 #@! TO.C,D189*
X192000000Y-90750000D03*
G04 #@! TD*
G04 #@! TO.C,D188*
X183000000Y-93250000D03*
G04 #@! TD*
G04 #@! TO.C,D187*
X123000000Y-95250000D03*
G04 #@! TD*
G04 #@! TO.C,D186*
X105500000Y-91250000D03*
G04 #@! TD*
G04 #@! TO.C,D185*
X97000000Y-89250000D03*
G04 #@! TD*
G04 #@! TO.C,D184*
X87500000Y-87750000D03*
G04 #@! TD*
G04 #@! TO.C,D183*
X69000000Y-88250000D03*
G04 #@! TD*
G04 #@! TO.C,D182*
X50500000Y-88750000D03*
G04 #@! TD*
G04 #@! TO.C,D181*
X33000000Y-85250000D03*
G04 #@! TD*
G04 #@! TO.C,D180*
X270500000Y-74250000D03*
G04 #@! TD*
G04 #@! TO.C,D179*
X262500000Y-76250000D03*
G04 #@! TD*
G04 #@! TO.C,D178*
X252500000Y-78250000D03*
G04 #@! TD*
G04 #@! TO.C,D177*
X245000000Y-79250000D03*
G04 #@! TD*
G04 #@! TO.C,D176*
X234000000Y-77750000D03*
G04 #@! TD*
G04 #@! TO.C,D175*
X226000000Y-78750000D03*
G04 #@! TD*
G04 #@! TO.C,D174*
X215500000Y-76750000D03*
G04 #@! TD*
G04 #@! TO.C,D173*
X207500000Y-79250000D03*
G04 #@! TD*
G04 #@! TO.C,D172*
X199000000Y-81250000D03*
G04 #@! TD*
G04 #@! TO.C,D171*
X180500000Y-84750000D03*
G04 #@! TD*
G04 #@! TO.C,D170*
X172000000Y-86500000D03*
G04 #@! TD*
G04 #@! TO.C,D169*
X124000000Y-86250000D03*
G04 #@! TD*
G04 #@! TO.C,D168*
X115500000Y-84250000D03*
G04 #@! TD*
G04 #@! TO.C,D167*
X107300000Y-83750000D03*
G04 #@! TD*
G04 #@! TO.C,D166*
X88500000Y-78750000D03*
G04 #@! TD*
G04 #@! TO.C,D165*
X79500000Y-76750000D03*
G04 #@! TD*
G04 #@! TO.C,D164*
X70500000Y-78750000D03*
G04 #@! TD*
G04 #@! TO.C,D163*
X61500000Y-77750000D03*
G04 #@! TD*
G04 #@! TO.C,D162*
X51500000Y-79250000D03*
G04 #@! TD*
G04 #@! TO.C,D161*
X43000000Y-77750000D03*
G04 #@! TD*
G04 #@! TO.C,D160*
X34500000Y-75250000D03*
G04 #@! TD*
G04 #@! TO.C,D159*
X25500000Y-74250000D03*
G04 #@! TD*
G04 #@! TO.C,D158*
X269000000Y-65750000D03*
G04 #@! TD*
G04 #@! TO.C,D157*
X251000000Y-69750000D03*
G04 #@! TD*
G04 #@! TO.C,D156*
X232500000Y-69250000D03*
G04 #@! TD*
G04 #@! TO.C,D155*
X214000000Y-68750000D03*
G04 #@! TD*
G04 #@! TO.C,D154*
X196500000Y-72750000D03*
G04 #@! TD*
G04 #@! TO.C,D153*
X187800000Y-74250000D03*
G04 #@! TD*
G04 #@! TO.C,D152*
X179000000Y-76250000D03*
G04 #@! TD*
G04 #@! TO.C,D151*
X126500000Y-78750000D03*
G04 #@! TD*
G04 #@! TO.C,D150*
X108000000Y-73250000D03*
G04 #@! TD*
G04 #@! TO.C,D149*
X100000000Y-72250000D03*
G04 #@! TD*
G04 #@! TO.C,D148*
X91000000Y-71250000D03*
G04 #@! TD*
G04 #@! TO.C,D147*
X72500000Y-71750000D03*
G04 #@! TD*
G04 #@! TO.C,D146*
X54500000Y-72750000D03*
G04 #@! TD*
G04 #@! TO.C,D145*
X36500000Y-68750000D03*
G04 #@! TD*
G04 #@! TO.C,D144*
X266500000Y-57750000D03*
G04 #@! TD*
G04 #@! TO.C,D143*
X259000000Y-59750000D03*
G04 #@! TD*
G04 #@! TO.C,D142*
X249000000Y-61250000D03*
G04 #@! TD*
G04 #@! TO.C,D141*
X241500000Y-63250000D03*
G04 #@! TD*
G04 #@! TO.C,D140*
X231000000Y-60750000D03*
G04 #@! TD*
G04 #@! TO.C,D139*
X222500000Y-62750000D03*
G04 #@! TD*
G04 #@! TO.C,D138*
X212500000Y-60250000D03*
G04 #@! TD*
G04 #@! TO.C,D137*
X204000000Y-62250000D03*
G04 #@! TD*
G04 #@! TO.C,D136*
X196000000Y-64750000D03*
G04 #@! TD*
G04 #@! TO.C,D135*
X177000000Y-68250000D03*
G04 #@! TD*
G04 #@! TO.C,D134*
X168500000Y-70250000D03*
G04 #@! TD*
G04 #@! TO.C,D133*
X128000000Y-69750000D03*
G04 #@! TD*
G04 #@! TO.C,D132*
X119000000Y-67750000D03*
G04 #@! TD*
G04 #@! TO.C,D131*
X110500000Y-65750000D03*
G04 #@! TD*
G04 #@! TO.C,D130*
X92000000Y-61750000D03*
G04 #@! TD*
G04 #@! TO.C,D129*
X83500000Y-60250000D03*
G04 #@! TD*
G04 #@! TO.C,D128*
X73500000Y-62250000D03*
G04 #@! TD*
G04 #@! TO.C,D127*
X65000000Y-60750000D03*
G04 #@! TD*
G04 #@! TO.C,D126*
X55000000Y-62750000D03*
G04 #@! TD*
G04 #@! TO.C,D125*
X47000000Y-61750000D03*
G04 #@! TD*
G04 #@! TO.C,D124*
X37500000Y-59250000D03*
G04 #@! TD*
G04 #@! TO.C,D123*
X29000000Y-57750000D03*
G04 #@! TD*
G04 #@! TO.C,D122*
X249000000Y-53250000D03*
G04 #@! TD*
G04 #@! TO.C,D121*
X229500000Y-52750000D03*
G04 #@! TD*
G04 #@! TO.C,D120*
X210000000Y-52250000D03*
G04 #@! TD*
G04 #@! TO.C,D119*
X193000000Y-55750000D03*
G04 #@! TD*
G04 #@! TO.C,D118*
X185000000Y-57750000D03*
G04 #@! TD*
G04 #@! TO.C,D117*
X111500000Y-57250000D03*
G04 #@! TD*
G04 #@! TO.C,D116*
X103000000Y-55750000D03*
G04 #@! TD*
G04 #@! TO.C,D115*
X95000000Y-54750000D03*
G04 #@! TD*
G04 #@! TO.C,D114*
X76500000Y-55250000D03*
G04 #@! TD*
G04 #@! TO.C,D113*
X58000000Y-55750000D03*
G04 #@! TD*
G04 #@! TO.C,D112*
X245500000Y-44750000D03*
G04 #@! TD*
G04 #@! TO.C,D111*
X237500000Y-46750000D03*
G04 #@! TD*
G04 #@! TO.C,D110*
X227000000Y-44250000D03*
G04 #@! TD*
G04 #@! TO.C,D109*
X219000000Y-46250000D03*
G04 #@! TD*
G04 #@! TO.C,D108*
X208500000Y-44250000D03*
G04 #@! TD*
G04 #@! TO.C,D107*
X200500000Y-45750000D03*
G04 #@! TD*
G04 #@! TO.C,D106*
X96000000Y-45250000D03*
G04 #@! TD*
G04 #@! TO.C,D105*
X87000000Y-43750000D03*
G04 #@! TD*
G04 #@! TO.C,D104*
X77000000Y-45750000D03*
G04 #@! TD*
G04 #@! TO.C,D103*
X68500000Y-44250000D03*
G04 #@! TD*
G04 #@! TO.C,D102*
X58500000Y-46250000D03*
G04 #@! TD*
G04 #@! TO.C,D101*
X50000000Y-44750000D03*
G04 #@! TD*
G04 #@! TO.C,D99*
X163500000Y-111250000D03*
G04 #@! TD*
G04 #@! TO.C,D97*
X132500000Y-110750000D03*
G04 #@! TD*
D13*
G04 #@! TO.C,SW52*
X214457832Y-64626145D03*
X203698208Y-66913173D03*
D14*
X209078020Y-65769659D03*
D13*
X204977346Y-70526178D03*
X210304699Y-71540730D03*
G04 #@! TD*
G04 #@! TO.C,SW76*
X55321229Y-67742606D03*
X44561605Y-65455578D03*
D14*
X49941417Y-66599092D03*
D13*
X44260615Y-69276494D03*
X48714738Y-72370163D03*
G04 #@! TD*
G04 #@! TO.C,SW86*
X37714573Y-64000195D03*
X26954949Y-61713167D03*
D14*
X32334761Y-62856681D03*
D13*
X26653959Y-65534083D03*
X31108082Y-68627752D03*
G04 #@! TD*
G04 #@! TO.C,SW67*
X51786731Y-84371115D03*
D14*
X46406919Y-83227601D03*
D13*
X41027107Y-82084087D03*
X40726117Y-85905003D03*
X45180240Y-88998672D03*
G04 #@! TD*
D14*
G04 #@! TO.C,SW24*
X184450000Y-123150000D03*
D13*
X179070188Y-124293514D03*
X189829812Y-122006486D03*
X180349326Y-127906519D03*
X185676679Y-128921071D03*
G04 #@! TD*
D14*
G04 #@! TO.C,SW14*
X205500000Y-136100000D03*
D13*
X200120188Y-137243514D03*
X210879812Y-134956486D03*
X201399326Y-140856519D03*
X206726679Y-141871071D03*
G04 #@! TD*
G04 #@! TO.C,SW74*
X247747768Y-100999624D03*
D14*
X253127580Y-99856110D03*
D13*
X258507392Y-98712596D03*
X249026906Y-104612629D03*
X254354259Y-105627181D03*
G04 #@! TD*
G04 #@! TO.C,SW17*
X102620188Y-138624996D03*
D14*
X108000000Y-139768510D03*
D13*
X113379812Y-140912024D03*
X102319198Y-142445912D03*
X106773321Y-145539581D03*
G04 #@! TD*
G04 #@! TO.C,SW71*
X237144272Y-51114097D03*
D14*
X242524084Y-49970583D03*
D13*
X247903896Y-48827069D03*
X238423410Y-54727102D03*
X243750763Y-55741654D03*
G04 #@! TD*
D14*
G04 #@! TO.C,SW31*
X173864706Y-73254479D03*
D13*
X168484894Y-74397993D03*
X179244518Y-72110965D03*
X169764032Y-78010998D03*
X175091385Y-79025550D03*
G04 #@! TD*
D11*
G04 #@! TO.C,H6*
X184250000Y-79500000D03*
G04 #@! TD*
D14*
G04 #@! TO.C,SW21*
X166750000Y-126900000D03*
D13*
X172129812Y-125756486D03*
X161370188Y-128043514D03*
X162649326Y-131656519D03*
X167976679Y-132671071D03*
G04 #@! TD*
D11*
G04 #@! TO.C,H4*
X101250000Y-129750000D03*
G04 #@! TD*
D13*
G04 #@! TO.C,SW57*
X70277012Y-83956399D03*
X59517388Y-81669371D03*
D14*
X64897200Y-82812885D03*
D13*
X59216398Y-85490287D03*
X63670521Y-88583956D03*
G04 #@! TD*
G04 #@! TO.C,SW72*
X240678771Y-67742606D03*
X251438395Y-65455578D03*
D14*
X246058583Y-66599092D03*
D13*
X241957909Y-71355611D03*
X247285262Y-72370163D03*
G04 #@! TD*
G04 #@! TO.C,SW45*
X95836291Y-50284663D03*
D14*
X90456479Y-49141149D03*
D13*
X85076667Y-47997635D03*
X84775677Y-51818551D03*
X89229800Y-54912220D03*
G04 #@! TD*
G04 #@! TO.C,SW46*
X81542168Y-64626145D03*
D14*
X86921980Y-65769659D03*
D13*
X92301792Y-66913173D03*
X81241178Y-68447061D03*
X85695301Y-71540730D03*
G04 #@! TD*
D14*
G04 #@! TO.C,SW23*
X180933703Y-106511498D03*
D13*
X186313515Y-105367984D03*
X175553891Y-107655012D03*
X176833029Y-111268017D03*
X182160382Y-112282569D03*
G04 #@! TD*
D14*
G04 #@! TO.C,SW51*
X205543521Y-49141149D03*
D13*
X210923333Y-47997635D03*
X200163709Y-50284663D03*
X201442847Y-53897668D03*
X206770200Y-54912220D03*
G04 #@! TD*
G04 #@! TO.C,SW15*
X123758645Y-125738896D03*
X134518269Y-128025924D03*
D14*
X129138457Y-126882410D03*
D13*
X123457655Y-129559812D03*
X127911778Y-132653481D03*
G04 #@! TD*
G04 #@! TO.C,SW53*
X207232707Y-83541682D03*
D14*
X212612519Y-82398168D03*
D13*
X217992331Y-81254654D03*
X208511845Y-87154687D03*
X213839198Y-88169239D03*
G04 #@! TD*
D14*
G04 #@! TO.C,SW43*
X196773111Y-94454833D03*
D13*
X202152923Y-93311319D03*
X191393299Y-95598347D03*
X192672437Y-99211352D03*
X197999790Y-100225904D03*
G04 #@! TD*
G04 #@! TO.C,SW36*
X108141200Y-78969838D03*
D14*
X102761388Y-77826324D03*
D13*
X97381576Y-76682810D03*
X97080586Y-80503726D03*
X101534709Y-83597395D03*
G04 #@! TD*
D14*
G04 #@! TO.C,SW12*
X170300000Y-143600000D03*
D13*
X164920188Y-144743514D03*
X175679812Y-142456486D03*
X166199326Y-148356519D03*
X171526679Y-149371071D03*
G04 #@! TD*
D11*
G04 #@! TO.C,H3*
X111500000Y-78750000D03*
G04 #@! TD*
D14*
G04 #@! TO.C,SW83*
X267199739Y-79485191D03*
D13*
X261819927Y-80628705D03*
X272579551Y-78341677D03*
X263099065Y-84241710D03*
X268426418Y-85256262D03*
G04 #@! TD*
G04 #@! TO.C,SW87*
X34180073Y-80628705D03*
D14*
X28800261Y-79485191D03*
D13*
X23420449Y-78341677D03*
X23119459Y-82162593D03*
X27573582Y-85256262D03*
G04 #@! TD*
D11*
G04 #@! TO.C,H2*
X43000000Y-56250000D03*
G04 #@! TD*
D13*
G04 #@! TO.C,SW32*
X182779017Y-88739474D03*
D14*
X177399205Y-89882988D03*
D13*
X172019393Y-91026502D03*
X173298531Y-94639507D03*
X178625884Y-95654059D03*
G04 #@! TD*
G04 #@! TO.C,SW84*
X276114049Y-94970186D03*
D14*
X270734237Y-96113700D03*
D13*
X265354425Y-97257214D03*
X266633563Y-100870219D03*
X271960916Y-101884771D03*
G04 #@! TD*
G04 #@! TO.C,SW34*
X194987798Y-112226855D03*
X205747422Y-109939827D03*
D14*
X200367610Y-111083341D03*
D13*
X196266936Y-115839860D03*
X201594289Y-116854412D03*
G04 #@! TD*
D14*
G04 #@! TO.C,SW75*
X53475916Y-49970583D03*
D13*
X48096104Y-48827069D03*
X58855728Y-51114097D03*
X47795114Y-52647985D03*
X52249237Y-55741654D03*
G04 #@! TD*
G04 #@! TO.C,SW37*
X104606701Y-95598347D03*
D14*
X99226889Y-94454833D03*
D13*
X93847077Y-93311319D03*
X93546087Y-97132235D03*
X98000210Y-100225904D03*
G04 #@! TD*
G04 #@! TO.C,SW64*
X240017111Y-98297880D03*
X229257487Y-100584908D03*
D14*
X234637299Y-99441394D03*
D13*
X230536625Y-104197913D03*
X235863978Y-105212465D03*
G04 #@! TD*
G04 #@! TO.C,SW16*
X120224146Y-142367406D03*
D14*
X125603958Y-143510920D03*
D13*
X130983770Y-144654434D03*
X119923156Y-146188322D03*
X124377279Y-149281991D03*
G04 #@! TD*
D11*
G04 #@! TO.C,H5*
X195250000Y-129500000D03*
G04 #@! TD*
D13*
G04 #@! TO.C,SW62*
X222188490Y-67327889D03*
D14*
X227568302Y-66184375D03*
D13*
X232948114Y-65040861D03*
X223467628Y-70940894D03*
X228794981Y-71955446D03*
G04 #@! TD*
D14*
G04 #@! TO.C,SW42*
X193238612Y-77826324D03*
D13*
X187858800Y-78969838D03*
X198618424Y-76682810D03*
X189137938Y-82582843D03*
X194465291Y-83597395D03*
G04 #@! TD*
G04 #@! TO.C,SW27*
X109686485Y-105367984D03*
D14*
X115066297Y-106511498D03*
D13*
X120446109Y-107655012D03*
X109385495Y-109188900D03*
X113839618Y-112282569D03*
G04 #@! TD*
G04 #@! TO.C,SW38*
X90312578Y-109939827D03*
D14*
X95692390Y-111083341D03*
D13*
X101072202Y-112226855D03*
X90011588Y-113760743D03*
X94465711Y-116854412D03*
G04 #@! TD*
D14*
G04 #@! TO.C,SW47*
X83387481Y-82398168D03*
D13*
X78007669Y-81254654D03*
X88767293Y-83541682D03*
X77706679Y-85075570D03*
X82160802Y-88169239D03*
G04 #@! TD*
G04 #@! TO.C,SW28*
X116911612Y-124283514D03*
D14*
X111531800Y-123140000D03*
D13*
X106151988Y-121996486D03*
X105850998Y-125817402D03*
X110305121Y-128911071D03*
G04 #@! TD*
D14*
G04 #@! TO.C,SW58*
X61362701Y-99441394D03*
D13*
X55982889Y-98297880D03*
X66742513Y-100584908D03*
X55681899Y-102118796D03*
X60136022Y-105212465D03*
G04 #@! TD*
D14*
G04 #@! TO.C,SW18*
X90393343Y-136026090D03*
D13*
X95773155Y-137169604D03*
X85013531Y-134882576D03*
X84712541Y-138703492D03*
X89166664Y-141797161D03*
G04 #@! TD*
G04 #@! TO.C,SW78*
X19885951Y-94970186D03*
X30645575Y-97257214D03*
D14*
X25265763Y-96113700D03*
D13*
X19584961Y-98791102D03*
X24039084Y-101884771D03*
G04 #@! TD*
G04 #@! TO.C,SW48*
X85232795Y-100170191D03*
X74473171Y-97883163D03*
D14*
X79852983Y-99026677D03*
D13*
X74172181Y-101704079D03*
X78626304Y-104797748D03*
G04 #@! TD*
D14*
G04 #@! TO.C,SW41*
X189704114Y-61197815D03*
D13*
X195083926Y-60054301D03*
X184324302Y-62341329D03*
X185603440Y-65954334D03*
X190930793Y-66968886D03*
G04 #@! TD*
G04 #@! TO.C,SW13*
X182570188Y-140993514D03*
D14*
X187950000Y-139850000D03*
D13*
X193329812Y-138706486D03*
X183849326Y-144606519D03*
X189176679Y-145621071D03*
G04 #@! TD*
G04 #@! TO.C,SW26*
X113220983Y-88739474D03*
D14*
X118600795Y-89882988D03*
D13*
X123980607Y-91026502D03*
X112919993Y-92560390D03*
X117374116Y-95654059D03*
G04 #@! TD*
G04 #@! TO.C,SW63*
X225722988Y-83956399D03*
D14*
X231102800Y-82812885D03*
D13*
X236482612Y-81669371D03*
X227002126Y-87569404D03*
X232329479Y-88583956D03*
G04 #@! TD*
D14*
G04 #@! TO.C,SW54*
X216147017Y-99026677D03*
D13*
X221526829Y-97883163D03*
X210767205Y-100170191D03*
X212046343Y-103783196D03*
X217373696Y-104797748D03*
G04 #@! TD*
G04 #@! TO.C,SW68*
X37492608Y-98712596D03*
D14*
X42872420Y-99856110D03*
D13*
X48252232Y-100999624D03*
X37191618Y-102533512D03*
X41645741Y-105627181D03*
G04 #@! TD*
G04 #@! TO.C,SW56*
X63051886Y-65040861D03*
D14*
X68431698Y-66184375D03*
D13*
X73811510Y-67327889D03*
X62750896Y-68861777D03*
X67205019Y-71955446D03*
G04 #@! TD*
D11*
G04 #@! TO.C,H1*
X253250000Y-56750000D03*
G04 #@! TD*
D13*
G04 #@! TO.C,SW65*
X77346010Y-50699380D03*
D14*
X71966198Y-49555866D03*
D13*
X66586386Y-48412352D03*
X66285396Y-52233268D03*
X70739519Y-55326937D03*
G04 #@! TD*
G04 #@! TO.C,SW35*
X111675698Y-62341329D03*
D14*
X106295886Y-61197815D03*
D13*
X100916074Y-60054301D03*
X100615084Y-63875217D03*
X105069207Y-66968886D03*
G04 #@! TD*
D14*
G04 #@! TO.C,SW82*
X263665239Y-62856681D03*
D13*
X258285427Y-64000195D03*
X269045051Y-61713167D03*
X259564565Y-67613200D03*
X264891918Y-68627752D03*
G04 #@! TD*
D14*
G04 #@! TO.C,SW61*
X224033802Y-49555866D03*
D13*
X218653990Y-50699380D03*
X229413614Y-48412352D03*
X219933128Y-54312385D03*
X225260481Y-55326937D03*
G04 #@! TD*
G04 #@! TO.C,SW25*
X116755482Y-72110965D03*
D14*
X122135294Y-73254479D03*
D13*
X127515106Y-74397993D03*
X116454492Y-75931881D03*
X120908615Y-79025550D03*
G04 #@! TD*
D14*
G04 #@! TO.C,SW73*
X249593081Y-83227601D03*
D13*
X254972893Y-82084087D03*
X244213269Y-84371115D03*
X245492407Y-87984120D03*
X250819760Y-88998672D03*
G04 #@! TD*
M02*
