M48
; DRILL file {KiCad (6.0.9)} date 2022年12月10日 11時28分27秒
; FORMAT={-:-/ absolute / metric / decimal}
; #@! TF.CreationDate,2022-12-10T11:28:27+09:00
; #@! TF.GenerationSoftware,Kicad,Pcbnew,(6.0.9)
; #@! TF.FileFunction,MixedPlating,1,2
FMAT,2
METRIC
; #@! TA.AperFunction,Plated,PTH,ViaDrill
T1C0.400
; #@! TA.AperFunction,Plated,PTH,ComponentDrill
T2C0.800
; #@! TA.AperFunction,Plated,PTH,ComponentDrill
T3C1.200
; #@! TA.AperFunction,NonPlated,NPTH,ComponentDrill
T4C1.900
; #@! TA.AperFunction,NonPlated,NPTH,ComponentDrill
T5C2.200
; #@! TA.AperFunction,NonPlated,NPTH,ComponentDrill
T6C3.400
; #@! TA.AperFunction,NonPlated,NPTH,ComponentDrill
T7C4.300
%
G90
G05
T1
X24.5Y-87.75
X25.5Y-83.25
X26.0Y-70.75
X27.5Y-89.25
X29.0Y-96.75
X30.25Y-88.108
X32.5Y-98.75
X33.5Y-54.25
X33.5Y-95.25
X33.75Y-89.0
X35.552Y-62.698
X36.0Y-65.75
X36.0Y-91.25
X36.0Y-97.25
X36.5Y-79.25
X37.25Y-89.5
X38.0Y-105.25
X39.5Y-98.75
X40.0Y-80.75
X42.0Y-45.75
X42.0Y-96.75
X42.501Y-81.403
X43.0Y-88.25
X44.404Y-93.236
X44.5Y-72.75
X45.5Y-80.25
X46.28Y-93.0
X46.5Y-67.25
X46.5Y-100.75
X47.6Y-58.7
X49.25Y-75.031
X50.0Y-83.0
X51.5Y-102.25
X53.119Y-91.369
X53.5Y-86.0
X60.0Y-62.75
X61.25Y-89.75
X64.5Y-48.25
X65.0Y-69.75
X66.25Y-91.188
X68.0Y-55.25
X68.5Y-84.25
X68.75Y-92.0
X69.0Y-48.75
X69.0Y-57.25
X72.25Y-90.5
X72.76Y-58.49
X77.5Y-73.25
X78.0Y-66.75
X79.5Y-83.25
X80.0Y-52.25
X80.0Y-66.25
X80.75Y-84.5
X82.0Y-47.75
X82.5Y-73.25
X82.5Y-98.25
X82.5Y-99.75
X83.5Y-66.25
X83.5Y-100.75
X86.25Y-82.0
X87.0Y-83.75
X87.0Y-108.25
X87.175Y-127.075
X87.5Y-99.75
X87.5Y-135.25
X88.0Y-57.75
X89.0Y-101.75
X89.0Y-121.25
X89.052Y-52.302
X90.5Y-66.75
X91.0Y-91.75
X91.25Y-82.5
X91.5Y-126.75
X92.25Y-138.75
X93.0Y-48.75
X93.5Y-137.75
X93.75Y-123.75
X94.0Y-86.25
X94.5Y-128.25
X95.0Y-67.25
X95.5Y-93.75
X98.0Y-57.75
X98.0Y-67.75
X98.25Y-84.219
X99.0Y-77.25
X99.0Y-112.75
X99.5Y-137.25
X100.0Y-103.688
X100.25Y-77.75
X100.7Y-122.2
X103.0Y-113.75
X103.5Y-127.3
X104.0Y-110.75
X104.0Y-119.75
X104.5Y-123.75
X104.5Y-144.75
X105.0Y-103.75
X105.0Y-138.75
X105.25Y-77.0
X105.5Y-112.5
X105.5Y-129.25
X106.0Y-79.25
X106.75Y-95.003
X107.0Y-103.75
X107.5Y-130.25
X108.5Y-94.75
X109.0Y-122.75
X109.5Y-97.25
X110.25Y-113.469
X110.5Y-86.5
X111.5Y-89.75
X111.5Y-105.25
X111.5Y-106.75
X112.0Y-70.25
X112.5Y-81.75
X113.5Y-70.25
X114.5Y-123.25
X115.0Y-97.838
X115.5Y-62.25
X115.5Y-88.0
X115.5Y-140.75
X116.0Y-115.196
X117.5Y-79.462
X117.75Y-99.169
X118.552Y-107.302
X119.0Y-74.0
X119.0Y-124.25
X119.3Y-134.4
X119.5Y-125.25
X120.1Y-132.2
X120.825Y-116.425
X121.5Y-59.5
X121.5Y-83.25
X121.95Y-144.25
X122.0Y-125.25
X122.25Y-107.25
X122.5Y-60.75
X123.403Y-111.5
X123.5Y-108.0
X123.75Y-113.0
X124.0Y-104.75
X125.0Y-101.25
X125.5Y-92.25
X126.5Y-102.25
X126.558Y-98.358
X126.75Y-108.25
X127.0Y-115.25
X128.0Y-91.5
X128.25Y-102.25
X128.5Y-90.0
X128.5Y-104.879
X128.75Y-85.5
X128.78Y-107.25
X129.0Y-137.75
X129.25Y-93.75
X130.0Y-87.5
X130.249Y-91.942
X130.249Y-100.501
X130.25Y-74.5
X130.25Y-117.75
X131.0Y-77.0
X131.0Y-78.75
X131.5Y-105.421
X132.369Y-82.869
X132.5Y-72.25
X132.5Y-115.5
X133.0Y-81.25
X133.01Y-90.0
X133.012Y-75.988
X133.25Y-85.25
X133.25Y-92.75
X133.5Y-91.5
X133.802Y-105.622
X134.0Y-73.25
X134.0Y-80.5
X134.0Y-100.75
X134.0Y-137.75
X134.5Y-95.5
X134.6Y-98.6
X135.0Y-99.75
X135.25Y-93.75
X135.3Y-108.6
X136.25Y-88.25
X136.5Y-126.25
X136.55Y-96.95
X136.75Y-112.5
X137.8Y-107.5
X137.85Y-100.75
X138.0Y-119.75
X139.5Y-121.75
X146.05Y-96.52
X147.32Y-97.155
X147.955Y-113.03
X149.225Y-96.52
X149.86Y-109.22
X151.0Y-96.5
X151.75Y-109.5
X154.5Y-100.0
X155.0Y-107.75
X155.5Y-114.0
X157.272Y-123.75
X158.0Y-100.1
X158.0Y-102.6
X159.0Y-109.25
X159.5Y-135.25
X159.75Y-96.5
X160.25Y-86.25
X160.25Y-93.75
X160.5Y-132.25
X160.5Y-136.25
X160.6Y-98.6
X160.75Y-88.25
X161.25Y-91.75
X161.25Y-96.5
X161.25Y-119.25
X161.5Y-99.75
X161.5Y-138.25
X161.75Y-93.75
X162.5Y-90.0
X162.75Y-74.5
X162.75Y-84.25
X163.0Y-85.5
X163.0Y-145.25
X163.25Y-105.5
X163.977Y-100.75
X164.25Y-75.25
X164.25Y-104.75
X165.0Y-93.75
X165.0Y-95.75
X165.0Y-101.75
X165.0Y-117.75
X165.0Y-131.75
X165.5Y-107.5
X165.5Y-135.25
X165.75Y-75.75
X165.78Y-87.75
X166.25Y-109.25
X166.5Y-79.75
X166.5Y-84.75
X166.5Y-106.5
X167.439Y-102.561
X167.5Y-135.25
X167.75Y-87.25
X168.0Y-96.75
X168.0Y-114.75
X168.25Y-90.75
X168.5Y-94.25
X169.0Y-125.25
X169.5Y-98.75
X169.5Y-101.5
X170.027Y-89.027
X170.25Y-74.75
X170.698Y-111.052
X171.0Y-136.25
X171.25Y-72.5
X171.5Y-147.25
X173.0Y-99.5
X173.5Y-92.0
X173.5Y-106.75
X173.5Y-143.25
X174.0Y-117.5
X174.0Y-123.25
X174.5Y-125.25
X175.0Y-97.0
X175.0Y-132.25
X176.0Y-114.75
X176.5Y-92.25
X177.0Y-59.25
X177.052Y-108.397
X177.3Y-121.9
X178.0Y-92.75
X178.0Y-143.75
X179.25Y-80.25
X180.0Y-56.5
X180.0Y-60.75
X181.0Y-147.25
X181.5Y-71.5
X182.5Y-117.25
X183.0Y-71.5
X183.0Y-129.75
X183.5Y-106.25
X184.5Y-140.25
X184.6Y-132.469
X185.0Y-112.25
X185.25Y-95.469
X186.0Y-88.25
X186.25Y-134.0
X186.8Y-122.1
X188.25Y-106.0
X188.5Y-96.25
X188.5Y-104.25
X188.5Y-113.25
X190.5Y-114.25
X190.5Y-138.75
X191.5Y-103.75
X193.0Y-46.75
X193.5Y-61.5
X195.0Y-101.0
X195.15Y-119.9
X195.33Y-96.338
X195.75Y-76.5
X196.25Y-77.75
X197.0Y-60.5
X197.0Y-112.75
X197.0Y-121.53
X197.175Y-110.853
X197.25Y-119.25
X198.0Y-59.25
X199.75Y-60.25
X199.75Y-75.25
X200.0Y-94.75
X200.5Y-77.5
X201.0Y-64.5
X201.0Y-75.75
X201.302Y-66.302
X201.75Y-67.5
X202.0Y-84.75
X202.5Y-136.75
X203.75Y-56.5
X203.75Y-92.25
X203.85Y-81.9
X204.0Y-93.75
X205.0Y-127.6
X205.5Y-92.75
X206.0Y-100.75
X206.5Y-108.25
X207.5Y-72.0
X207.5Y-119.75
X207.75Y-98.5
X208.5Y-47.75
X208.653Y-101.25
X209.0Y-58.25
X209.3Y-137.7
X211.25Y-89.5
X211.5Y-108.25
X212.5Y-100.5
X214.75Y-102.25
X215.75Y-101.5
X223.25Y-98.5
X225.0Y-106.25
X234.5Y-63.5
X237.0Y-60.5
X237.0Y-68.25
X237.198Y-59.198
X237.25Y-100.0
X238.5Y-82.25
X238.75Y-66.75
X239.0Y-76.75
X239.25Y-61.0
X240.0Y-43.25
X240.5Y-52.75
X241.75Y-57.75
X241.75Y-99.25
X242.0Y-92.75
X245.0Y-50.5
X245.0Y-103.0
X248.0Y-108.25
X251.845Y-102.014
X253.25Y-64.25
X256.0Y-64.25
X260.75Y-98.619
X262.5Y-96.25
X264.0Y-100.75
T2
X145.5Y-112.75
X150.5Y-112.75
T3
X19.585Y-98.791
X23.119Y-82.163
X24.039Y-101.885
X26.654Y-65.534
X27.574Y-85.256
X31.108Y-68.628
X37.192Y-102.534
X40.726Y-85.905
X41.646Y-105.627
X44.261Y-69.276
X45.18Y-88.999
X47.795Y-52.648
X48.715Y-72.37
X52.249Y-55.742
X55.682Y-102.119
X59.216Y-85.49
X60.136Y-105.212
X62.751Y-68.862
X63.671Y-88.584
X66.285Y-52.233
X67.205Y-71.955
X70.74Y-55.327
X74.172Y-101.704
X77.707Y-85.076
X78.626Y-104.798
X81.241Y-68.447
X82.161Y-88.169
X84.713Y-138.703
X84.776Y-51.819
X85.695Y-71.541
X89.167Y-141.797
X89.23Y-54.912
X90.012Y-113.761
X93.546Y-97.132
X94.466Y-116.854
X97.081Y-80.504
X98.0Y-100.226
X100.615Y-63.875
X101.535Y-83.597
X102.319Y-142.446
X105.069Y-66.969
X105.851Y-125.817
X106.773Y-145.54
X109.385Y-109.189
X110.305Y-128.911
X112.92Y-92.56
X113.84Y-112.283
X116.454Y-75.932
X117.374Y-95.654
X119.923Y-146.188
X120.909Y-79.026
X123.458Y-129.56
X124.377Y-149.282
X127.912Y-132.653
X162.649Y-131.657
X166.199Y-148.357
X167.977Y-132.671
X169.764Y-78.011
X171.527Y-149.371
X173.299Y-94.64
X175.091Y-79.026
X176.833Y-111.268
X178.626Y-95.654
X180.349Y-127.907
X182.16Y-112.283
X183.849Y-144.607
X185.603Y-65.954
X185.677Y-128.921
X189.138Y-82.583
X189.177Y-145.621
X190.931Y-66.969
X192.672Y-99.211
X194.465Y-83.597
X196.267Y-115.84
X198.0Y-100.226
X201.399Y-140.857
X201.443Y-53.898
X201.594Y-116.854
X204.977Y-70.526
X206.727Y-141.871
X206.77Y-54.912
X208.512Y-87.155
X210.305Y-71.541
X212.046Y-103.783
X213.839Y-88.169
X217.374Y-104.798
X219.933Y-54.312
X223.468Y-70.941
X225.26Y-55.327
X227.002Y-87.569
X228.795Y-71.955
X230.537Y-104.198
X232.329Y-88.584
X235.864Y-105.212
X238.423Y-54.727
X241.958Y-71.356
X243.751Y-55.742
X245.492Y-87.984
X247.285Y-72.37
X249.027Y-104.613
X250.82Y-88.999
X254.354Y-105.627
X259.565Y-67.613
X263.099Y-84.242
X264.892Y-68.628
X266.634Y-100.87
X268.426Y-85.256
X271.961Y-101.885
T4
X19.886Y-94.97
X23.42Y-78.342
X26.955Y-61.713
X30.646Y-97.257
X34.18Y-80.629
X37.493Y-98.713
X37.715Y-64.0
X41.027Y-82.084
X44.562Y-65.456
X48.096Y-48.827
X48.252Y-101.0
X51.787Y-84.371
X55.321Y-67.743
X55.983Y-98.298
X58.856Y-51.114
X59.517Y-81.669
X63.052Y-65.041
X66.586Y-48.412
X66.743Y-100.585
X70.277Y-83.956
X73.812Y-67.328
X74.473Y-97.883
X77.346Y-50.699
X78.008Y-81.255
X81.542Y-64.626
X85.014Y-134.883
X85.077Y-47.998
X85.233Y-100.17
X88.767Y-83.542
X90.313Y-109.94
X92.302Y-66.913
X93.847Y-93.311
X95.773Y-137.17
X95.836Y-50.285
X97.382Y-76.683
X100.916Y-60.054
X101.072Y-112.227
X102.62Y-138.625
X104.607Y-95.598
X106.152Y-121.996
X108.141Y-78.97
X109.686Y-105.368
X111.676Y-62.341
X113.221Y-88.739
X113.38Y-140.912
X116.755Y-72.111
X116.912Y-124.284
X120.224Y-142.367
X120.446Y-107.655
X123.759Y-125.739
X123.981Y-91.027
X127.515Y-74.398
X130.984Y-144.654
X134.518Y-128.026
X161.37Y-128.044
X164.92Y-144.744
X168.485Y-74.398
X172.019Y-91.027
X172.13Y-125.756
X175.554Y-107.655
X175.68Y-142.456
X179.07Y-124.294
X179.245Y-72.111
X182.57Y-140.994
X182.779Y-88.739
X184.324Y-62.341
X186.314Y-105.368
X187.859Y-78.97
X189.83Y-122.006
X191.393Y-95.598
X193.33Y-138.706
X194.988Y-112.227
X195.084Y-60.054
X198.618Y-76.683
X200.12Y-137.244
X200.164Y-50.285
X202.153Y-93.311
X203.698Y-66.913
X205.747Y-109.94
X207.233Y-83.542
X210.767Y-100.17
X210.88Y-134.956
X210.923Y-47.998
X214.458Y-64.626
X217.992Y-81.255
X218.654Y-50.699
X221.527Y-97.883
X222.188Y-67.328
X225.723Y-83.956
X229.257Y-100.585
X229.414Y-48.412
X232.948Y-65.041
X236.483Y-81.669
X237.144Y-51.114
X240.017Y-98.298
X240.679Y-67.743
X244.213Y-84.371
X247.748Y-101.0
X247.904Y-48.827
X251.438Y-65.456
X254.973Y-82.084
X258.285Y-64.0
X258.507Y-98.713
X261.82Y-80.629
X265.354Y-97.257
X269.045Y-61.713
X272.58Y-78.342
X276.114Y-94.97
T5
X43.0Y-56.25
X101.25Y-129.75
X111.5Y-78.75
X144.145Y-99.695
X151.765Y-99.695
X184.25Y-79.5
X195.25Y-129.5
X253.25Y-56.75
T6
X25.266Y-96.114
X28.8Y-79.485
X32.335Y-62.857
X42.872Y-99.856
X46.407Y-83.228
X49.941Y-66.599
X53.476Y-49.971
X61.363Y-99.441
X64.897Y-82.813
X68.432Y-66.184
X71.966Y-49.556
X79.853Y-99.027
X83.387Y-82.398
X86.922Y-65.77
X90.393Y-136.026
X90.456Y-49.141
X95.692Y-111.083
X99.227Y-94.455
X102.761Y-77.826
X106.296Y-61.198
X108.0Y-139.769
X111.532Y-123.14
X115.066Y-106.511
X118.601Y-89.883
X122.135Y-73.254
X125.604Y-143.511
X129.138Y-126.882
X166.75Y-126.9
X170.3Y-143.6
X173.865Y-73.254
X177.399Y-89.883
X180.934Y-106.511
X184.45Y-123.15
X187.95Y-139.85
X189.704Y-61.198
X193.239Y-77.826
X196.773Y-94.455
X200.368Y-111.083
X205.5Y-136.1
X205.544Y-49.141
X209.078Y-65.77
X212.613Y-82.398
X216.147Y-99.027
X224.034Y-49.556
X227.568Y-66.184
X231.103Y-82.813
X234.637Y-99.441
X242.524Y-49.971
X246.059Y-66.599
X249.593Y-83.228
X253.128Y-99.856
X263.665Y-62.857
X267.2Y-79.485
X270.734Y-96.114
T7
X22.0Y-90.75
X25.5Y-74.25
X29.0Y-57.75
X29.5Y-101.75
X30.5Y-92.25
X33.0Y-85.25
X34.5Y-75.25
X36.5Y-68.75
X37.5Y-59.25
X39.5Y-94.25
X43.0Y-77.75
X47.0Y-61.75
X47.0Y-105.25
X48.5Y-96.25
X50.0Y-44.75
X50.5Y-88.75
X51.5Y-79.25
X54.5Y-72.75
X55.0Y-62.75
X58.0Y-55.75
X58.0Y-94.25
X58.5Y-46.25
X61.5Y-77.75
X65.0Y-60.75
X65.5Y-104.75
X66.0Y-95.25
X68.5Y-44.25
X69.0Y-88.25
X70.5Y-78.75
X72.5Y-71.75
X73.5Y-62.25
X76.0Y-93.75
X76.5Y-55.25
X77.0Y-45.75
X79.5Y-76.75
X83.5Y-60.25
X84.0Y-104.75
X85.0Y-94.75
X87.0Y-43.75
X87.5Y-87.75
X87.5Y-131.25
X88.5Y-78.75
X91.0Y-71.25
X92.0Y-61.75
X92.5Y-105.75
X94.5Y-142.25
X95.0Y-54.75
X95.5Y-132.25
X96.0Y-45.25
X97.0Y-89.25
X100.0Y-72.25
X100.0Y-116.75
X101.5Y-107.75
X103.0Y-55.75
X104.0Y-99.75
X104.5Y-134.75
X105.5Y-91.25
X107.3Y-83.75
X108.0Y-73.25
X109.0Y-117.75
X110.5Y-65.75
X111.5Y-57.25
X112.0Y-101.25
X112.5Y-146.25
X113.2Y-136.25
X115.5Y-84.25
X115.5Y-128.4
X117.0Y-118.75
X119.0Y-67.75
X119.0Y-112.25
X120.5Y-102.75
X122.0Y-138.0
X123.0Y-95.25
X124.0Y-86.25
X126.0Y-121.25
X126.5Y-78.75
X128.0Y-69.75
X131.0Y-140.25
X132.5Y-110.75
X133.5Y-132.25
X134.0Y-122.25
X161.5Y-122.75
X163.5Y-111.25
X166.0Y-140.25
X168.5Y-70.25
X170.0Y-120.75
X172.0Y-86.5
X172.5Y-130.1
X173.5Y-138.5
X176.0Y-103.25
X176.0Y-146.75
X177.0Y-68.25
X179.0Y-76.25
X179.0Y-119.25
X180.5Y-84.75
X183.0Y-93.25
X183.0Y-136.75
X184.0Y-101.25
X185.0Y-57.75
X186.5Y-109.75
X187.0Y-117.25
X187.8Y-74.25
X189.5Y-125.75
X191.0Y-134.75
X192.0Y-90.75
X193.0Y-55.75
X193.355Y-142.8
X195.0Y-107.75
X196.0Y-64.75
X196.5Y-72.75
X199.0Y-81.25
X199.5Y-89.25
X200.5Y-45.75
X200.5Y-132.75
X202.5Y-97.75
X203.0Y-105.75
X204.0Y-62.25
X205.5Y-114.25
X207.5Y-79.25
X208.5Y-44.25
X208.5Y-131.25
X210.0Y-52.25
X211.0Y-95.75
X212.5Y-60.25
X214.0Y-68.75
X215.5Y-76.75
X218.5Y-85.75
X219.0Y-46.25
X220.0Y-93.75
X221.5Y-102.25
X222.5Y-62.75
X226.0Y-78.75
X227.0Y-44.25
X229.5Y-52.75
X229.5Y-95.25
X231.0Y-60.75
X232.5Y-69.25
X234.0Y-77.75
X237.0Y-86.25
X237.5Y-46.75
X237.5Y-94.25
X240.0Y-102.75
X241.5Y-63.25
X245.0Y-79.25
X245.5Y-44.75
X248.0Y-96.25
X249.0Y-53.25
X249.0Y-61.25
X251.0Y-69.75
X252.5Y-78.25
X254.5Y-86.25
X256.0Y-94.75
X259.0Y-59.75
X259.0Y-103.25
X262.5Y-76.25
X265.5Y-92.75
X266.5Y-57.75
X269.0Y-65.75
X270.5Y-74.25
X272.0Y-82.25
X274.0Y-90.75
X276.0Y-99.25
T0
M30
