G04 #@! TF.GenerationSoftware,KiCad,Pcbnew,(6.0.9)*
G04 #@! TF.CreationDate,2022-12-10T11:28:18+09:00*
G04 #@! TF.ProjectId,kidoairaku-swallowtail,6b69646f-6169-4726-916b-752d7377616c,rev?*
G04 #@! TF.SameCoordinates,Original*
G04 #@! TF.FileFunction,Legend,Top*
G04 #@! TF.FilePolarity,Positive*
%FSLAX46Y46*%
G04 Gerber Fmt 4.6, Leading zero omitted, Abs format (unit mm)*
G04 Created by KiCad (PCBNEW (6.0.9)) date 2022-12-10 11:28:18*
%MOMM*%
%LPD*%
G01*
G04 APERTURE LIST*
%ADD10C,0.250000*%
%ADD11C,0.150000*%
%ADD12C,0.760000*%
%ADD13C,1.600000*%
%ADD14C,2.200000*%
%ADD15C,4.300000*%
%ADD16C,1.900000*%
%ADD17C,3.400000*%
G04 APERTURE END LIST*
D10*
X86985714Y-122794761D02*
X86985714Y-120794761D01*
X87157142Y-122032857D02*
X87671428Y-122794761D01*
X87671428Y-121461428D02*
X86985714Y-122223333D01*
X88442857Y-122794761D02*
X88442857Y-121461428D01*
X88442857Y-120794761D02*
X88357142Y-120890000D01*
X88442857Y-120985238D01*
X88528571Y-120890000D01*
X88442857Y-120794761D01*
X88442857Y-120985238D01*
X90071428Y-122794761D02*
X90071428Y-120794761D01*
X90071428Y-122699523D02*
X89900000Y-122794761D01*
X89557142Y-122794761D01*
X89385714Y-122699523D01*
X89300000Y-122604285D01*
X89214285Y-122413809D01*
X89214285Y-121842380D01*
X89300000Y-121651904D01*
X89385714Y-121556666D01*
X89557142Y-121461428D01*
X89900000Y-121461428D01*
X90071428Y-121556666D01*
X91185714Y-122794761D02*
X91014285Y-122699523D01*
X90928571Y-122604285D01*
X90842857Y-122413809D01*
X90842857Y-121842380D01*
X90928571Y-121651904D01*
X91014285Y-121556666D01*
X91185714Y-121461428D01*
X91442857Y-121461428D01*
X91614285Y-121556666D01*
X91700000Y-121651904D01*
X91785714Y-121842380D01*
X91785714Y-122413809D01*
X91700000Y-122604285D01*
X91614285Y-122699523D01*
X91442857Y-122794761D01*
X91185714Y-122794761D01*
X93328571Y-122794761D02*
X93328571Y-121747142D01*
X93242857Y-121556666D01*
X93071428Y-121461428D01*
X92728571Y-121461428D01*
X92557142Y-121556666D01*
X93328571Y-122699523D02*
X93157142Y-122794761D01*
X92728571Y-122794761D01*
X92557142Y-122699523D01*
X92471428Y-122509047D01*
X92471428Y-122318571D01*
X92557142Y-122128095D01*
X92728571Y-122032857D01*
X93157142Y-122032857D01*
X93328571Y-121937619D01*
X94185714Y-122794761D02*
X94185714Y-121461428D01*
X94185714Y-120794761D02*
X94100000Y-120890000D01*
X94185714Y-120985238D01*
X94271428Y-120890000D01*
X94185714Y-120794761D01*
X94185714Y-120985238D01*
X95042857Y-122794761D02*
X95042857Y-121461428D01*
X95042857Y-121842380D02*
X95128571Y-121651904D01*
X95214285Y-121556666D01*
X95385714Y-121461428D01*
X95557142Y-121461428D01*
X96928571Y-122794761D02*
X96928571Y-121747142D01*
X96842857Y-121556666D01*
X96671428Y-121461428D01*
X96328571Y-121461428D01*
X96157142Y-121556666D01*
X96928571Y-122699523D02*
X96757142Y-122794761D01*
X96328571Y-122794761D01*
X96157142Y-122699523D01*
X96071428Y-122509047D01*
X96071428Y-122318571D01*
X96157142Y-122128095D01*
X96328571Y-122032857D01*
X96757142Y-122032857D01*
X96928571Y-121937619D01*
X97785714Y-122794761D02*
X97785714Y-120794761D01*
X97957142Y-122032857D02*
X98471428Y-122794761D01*
X98471428Y-121461428D02*
X97785714Y-122223333D01*
X100014285Y-121461428D02*
X100014285Y-122794761D01*
X99242857Y-121461428D02*
X99242857Y-122509047D01*
X99328571Y-122699523D01*
X99500000Y-122794761D01*
X99757142Y-122794761D01*
X99928571Y-122699523D01*
X100014285Y-122604285D01*
X86428571Y-125919523D02*
X86600000Y-126014761D01*
X86942857Y-126014761D01*
X87114285Y-125919523D01*
X87200000Y-125729047D01*
X87200000Y-125633809D01*
X87114285Y-125443333D01*
X86942857Y-125348095D01*
X86685714Y-125348095D01*
X86514285Y-125252857D01*
X86428571Y-125062380D01*
X86428571Y-124967142D01*
X86514285Y-124776666D01*
X86685714Y-124681428D01*
X86942857Y-124681428D01*
X87114285Y-124776666D01*
X87800000Y-124681428D02*
X88142857Y-126014761D01*
X88485714Y-125062380D01*
X88828571Y-126014761D01*
X89171428Y-124681428D01*
X90628571Y-126014761D02*
X90628571Y-124967142D01*
X90542857Y-124776666D01*
X90371428Y-124681428D01*
X90028571Y-124681428D01*
X89857142Y-124776666D01*
X90628571Y-125919523D02*
X90457142Y-126014761D01*
X90028571Y-126014761D01*
X89857142Y-125919523D01*
X89771428Y-125729047D01*
X89771428Y-125538571D01*
X89857142Y-125348095D01*
X90028571Y-125252857D01*
X90457142Y-125252857D01*
X90628571Y-125157619D01*
X91742857Y-126014761D02*
X91571428Y-125919523D01*
X91485714Y-125729047D01*
X91485714Y-124014761D01*
X92685714Y-126014761D02*
X92514285Y-125919523D01*
X92428571Y-125729047D01*
X92428571Y-124014761D01*
X93628571Y-126014761D02*
X93457142Y-125919523D01*
X93371428Y-125824285D01*
X93285714Y-125633809D01*
X93285714Y-125062380D01*
X93371428Y-124871904D01*
X93457142Y-124776666D01*
X93628571Y-124681428D01*
X93885714Y-124681428D01*
X94057142Y-124776666D01*
X94142857Y-124871904D01*
X94228571Y-125062380D01*
X94228571Y-125633809D01*
X94142857Y-125824285D01*
X94057142Y-125919523D01*
X93885714Y-126014761D01*
X93628571Y-126014761D01*
X94828571Y-124681428D02*
X95171428Y-126014761D01*
X95514285Y-125062380D01*
X95857142Y-126014761D01*
X96200000Y-124681428D01*
X96628571Y-124681428D02*
X97314285Y-124681428D01*
X96885714Y-124014761D02*
X96885714Y-125729047D01*
X96971428Y-125919523D01*
X97142857Y-126014761D01*
X97314285Y-126014761D01*
X98685714Y-126014761D02*
X98685714Y-124967142D01*
X98600000Y-124776666D01*
X98428571Y-124681428D01*
X98085714Y-124681428D01*
X97914285Y-124776666D01*
X98685714Y-125919523D02*
X98514285Y-126014761D01*
X98085714Y-126014761D01*
X97914285Y-125919523D01*
X97828571Y-125729047D01*
X97828571Y-125538571D01*
X97914285Y-125348095D01*
X98085714Y-125252857D01*
X98514285Y-125252857D01*
X98685714Y-125157619D01*
X99542857Y-126014761D02*
X99542857Y-124681428D01*
X99542857Y-124014761D02*
X99457142Y-124110000D01*
X99542857Y-124205238D01*
X99628571Y-124110000D01*
X99542857Y-124014761D01*
X99542857Y-124205238D01*
X100657142Y-126014761D02*
X100485714Y-125919523D01*
X100400000Y-125729047D01*
X100400000Y-124014761D01*
X194308928Y-123294761D02*
X194308928Y-121294761D01*
X194737500Y-121294761D01*
X194994642Y-121390000D01*
X195166071Y-121580476D01*
X195251785Y-121770952D01*
X195337500Y-122151904D01*
X195337500Y-122437619D01*
X195251785Y-122818571D01*
X195166071Y-123009047D01*
X194994642Y-123199523D01*
X194737500Y-123294761D01*
X194308928Y-123294761D01*
X196794642Y-123199523D02*
X196623214Y-123294761D01*
X196280357Y-123294761D01*
X196108928Y-123199523D01*
X196023214Y-123009047D01*
X196023214Y-122247142D01*
X196108928Y-122056666D01*
X196280357Y-121961428D01*
X196623214Y-121961428D01*
X196794642Y-122056666D01*
X196880357Y-122247142D01*
X196880357Y-122437619D01*
X196023214Y-122628095D01*
X197566071Y-123199523D02*
X197737500Y-123294761D01*
X198080357Y-123294761D01*
X198251785Y-123199523D01*
X198337500Y-123009047D01*
X198337500Y-122913809D01*
X198251785Y-122723333D01*
X198080357Y-122628095D01*
X197823214Y-122628095D01*
X197651785Y-122532857D01*
X197566071Y-122342380D01*
X197566071Y-122247142D01*
X197651785Y-122056666D01*
X197823214Y-121961428D01*
X198080357Y-121961428D01*
X198251785Y-122056666D01*
X199108928Y-123294761D02*
X199108928Y-121961428D01*
X199108928Y-121294761D02*
X199023214Y-121390000D01*
X199108928Y-121485238D01*
X199194642Y-121390000D01*
X199108928Y-121294761D01*
X199108928Y-121485238D01*
X200737500Y-121961428D02*
X200737500Y-123580476D01*
X200651785Y-123770952D01*
X200566071Y-123866190D01*
X200394642Y-123961428D01*
X200137500Y-123961428D01*
X199966071Y-123866190D01*
X200737500Y-123199523D02*
X200566071Y-123294761D01*
X200223214Y-123294761D01*
X200051785Y-123199523D01*
X199966071Y-123104285D01*
X199880357Y-122913809D01*
X199880357Y-122342380D01*
X199966071Y-122151904D01*
X200051785Y-122056666D01*
X200223214Y-121961428D01*
X200566071Y-121961428D01*
X200737500Y-122056666D01*
X201594642Y-121961428D02*
X201594642Y-123294761D01*
X201594642Y-122151904D02*
X201680357Y-122056666D01*
X201851785Y-121961428D01*
X202108928Y-121961428D01*
X202280357Y-122056666D01*
X202366071Y-122247142D01*
X202366071Y-123294761D01*
X203908928Y-123199523D02*
X203737500Y-123294761D01*
X203394642Y-123294761D01*
X203223214Y-123199523D01*
X203137500Y-123009047D01*
X203137500Y-122247142D01*
X203223214Y-122056666D01*
X203394642Y-121961428D01*
X203737500Y-121961428D01*
X203908928Y-122056666D01*
X203994642Y-122247142D01*
X203994642Y-122437619D01*
X203137500Y-122628095D01*
X205537500Y-123294761D02*
X205537500Y-121294761D01*
X205537500Y-123199523D02*
X205366071Y-123294761D01*
X205023214Y-123294761D01*
X204851785Y-123199523D01*
X204766071Y-123104285D01*
X204680357Y-122913809D01*
X204680357Y-122342380D01*
X204766071Y-122151904D01*
X204851785Y-122056666D01*
X205023214Y-121961428D01*
X205366071Y-121961428D01*
X205537500Y-122056666D01*
X207766071Y-123294761D02*
X207766071Y-121294761D01*
X207766071Y-122056666D02*
X207937500Y-121961428D01*
X208280357Y-121961428D01*
X208451785Y-122056666D01*
X208537500Y-122151904D01*
X208623214Y-122342380D01*
X208623214Y-122913809D01*
X208537500Y-123104285D01*
X208451785Y-123199523D01*
X208280357Y-123294761D01*
X207937500Y-123294761D01*
X207766071Y-123199523D01*
X209223214Y-121961428D02*
X209651785Y-123294761D01*
X210080357Y-121961428D02*
X209651785Y-123294761D01*
X209480357Y-123770952D01*
X209394642Y-123866190D01*
X209223214Y-123961428D01*
X197823214Y-125562380D02*
X197737500Y-125467142D01*
X197566071Y-125371904D01*
X197394642Y-125371904D01*
X197223214Y-125467142D01*
X197137500Y-125562380D01*
X197051785Y-125752857D01*
X197051785Y-125943333D01*
X197137500Y-126133809D01*
X197223214Y-126229047D01*
X197394642Y-126324285D01*
X197566071Y-126324285D01*
X197737500Y-126229047D01*
X197823214Y-126133809D01*
X197823214Y-125371904D02*
X197823214Y-126133809D01*
X197908928Y-126229047D01*
X197994642Y-126229047D01*
X198166071Y-126133809D01*
X198251785Y-125943333D01*
X198251785Y-125467142D01*
X198080357Y-125181428D01*
X197823214Y-124990952D01*
X197480357Y-124895714D01*
X197137500Y-124990952D01*
X196880357Y-125181428D01*
X196708928Y-125467142D01*
X196623214Y-125848095D01*
X196708928Y-126229047D01*
X196880357Y-126514761D01*
X197137500Y-126705238D01*
X197480357Y-126800476D01*
X197823214Y-126705238D01*
X198080357Y-126514761D01*
X198851785Y-125181428D02*
X199280357Y-126514761D01*
X199708928Y-125181428D02*
X199280357Y-126514761D01*
X199108928Y-126990952D01*
X199023214Y-127086190D01*
X198851785Y-127181428D01*
X200308928Y-126419523D02*
X200480357Y-126514761D01*
X200823214Y-126514761D01*
X200994642Y-126419523D01*
X201080357Y-126229047D01*
X201080357Y-126133809D01*
X200994642Y-125943333D01*
X200823214Y-125848095D01*
X200566071Y-125848095D01*
X200394642Y-125752857D01*
X200308928Y-125562380D01*
X200308928Y-125467142D01*
X200394642Y-125276666D01*
X200566071Y-125181428D01*
X200823214Y-125181428D01*
X200994642Y-125276666D01*
X201680357Y-125181428D02*
X202023214Y-126514761D01*
X202366071Y-125562380D01*
X202708928Y-126514761D01*
X203051785Y-125181428D01*
X204508928Y-126514761D02*
X204508928Y-125467142D01*
X204423214Y-125276666D01*
X204251785Y-125181428D01*
X203908928Y-125181428D01*
X203737500Y-125276666D01*
X204508928Y-126419523D02*
X204337500Y-126514761D01*
X203908928Y-126514761D01*
X203737500Y-126419523D01*
X203651785Y-126229047D01*
X203651785Y-126038571D01*
X203737500Y-125848095D01*
X203908928Y-125752857D01*
X204337500Y-125752857D01*
X204508928Y-125657619D01*
X205623214Y-126514761D02*
X205451785Y-126419523D01*
X205366071Y-126229047D01*
X205366071Y-124514761D01*
X206566071Y-126514761D02*
X206394642Y-126419523D01*
X206308928Y-126229047D01*
X206308928Y-124514761D01*
X207508928Y-126514761D02*
X207337500Y-126419523D01*
X207251785Y-126324285D01*
X207166071Y-126133809D01*
X207166071Y-125562380D01*
X207251785Y-125371904D01*
X207337500Y-125276666D01*
X207508928Y-125181428D01*
X207766071Y-125181428D01*
X207937500Y-125276666D01*
X208023214Y-125371904D01*
X208108928Y-125562380D01*
X208108928Y-126133809D01*
X208023214Y-126324285D01*
X207937500Y-126419523D01*
X207766071Y-126514761D01*
X207508928Y-126514761D01*
X208708928Y-125181428D02*
X209051785Y-126514761D01*
X209394642Y-125562380D01*
X209737500Y-126514761D01*
X210080357Y-125181428D01*
D11*
G04 #@! TO.C,SW52*
X208015928Y-69476240D02*
X208165564Y-69493116D01*
X208398456Y-69443614D01*
X208481712Y-69377234D01*
X208518390Y-69320755D01*
X208545168Y-69217697D01*
X208525367Y-69124541D01*
X208458987Y-69041284D01*
X208402508Y-69004606D01*
X208299451Y-68977829D01*
X208103236Y-68970853D01*
X208000179Y-68944075D01*
X207943700Y-68907397D01*
X207877320Y-68824141D01*
X207857519Y-68730984D01*
X207884296Y-68627927D01*
X207920974Y-68571448D01*
X208004231Y-68505068D01*
X208237123Y-68455565D01*
X208386759Y-68472442D01*
X208702907Y-68356560D02*
X209143711Y-69285205D01*
X209181517Y-68546926D01*
X209516339Y-69206000D01*
X209541320Y-68178350D01*
X210379732Y-68000140D02*
X209913947Y-68099145D01*
X209966374Y-68574830D01*
X210003052Y-68518351D01*
X210086309Y-68451972D01*
X210319201Y-68402469D01*
X210422258Y-68429246D01*
X210478737Y-68465924D01*
X210545117Y-68549181D01*
X210594620Y-68782073D01*
X210567842Y-68885130D01*
X210531165Y-68941609D01*
X210447908Y-69007989D01*
X210215016Y-69057492D01*
X210111958Y-69030714D01*
X210055479Y-68994037D01*
X210818739Y-68004192D02*
X210855417Y-67947713D01*
X210938673Y-67881333D01*
X211171566Y-67831830D01*
X211274623Y-67858608D01*
X211331102Y-67895286D01*
X211397482Y-67978542D01*
X211417283Y-68071699D01*
X211400406Y-68221335D01*
X210960271Y-68899083D01*
X211565791Y-68770376D01*
G04 #@! TO.C,SW76*
X47463545Y-69553230D02*
X47593380Y-69629510D01*
X47826272Y-69679013D01*
X47929330Y-69652236D01*
X47985809Y-69615558D01*
X48052189Y-69532302D01*
X48071990Y-69439145D01*
X48045212Y-69336087D01*
X48008534Y-69279608D01*
X47925278Y-69213229D01*
X47748865Y-69127048D01*
X47665608Y-69060668D01*
X47628931Y-69004189D01*
X47602153Y-68901132D01*
X47621954Y-68807975D01*
X47688334Y-68724719D01*
X47744813Y-68688041D01*
X47847870Y-68661263D01*
X48080763Y-68710766D01*
X48210597Y-68787046D01*
X48546547Y-68809772D02*
X48571528Y-69837422D01*
X48906350Y-69178347D01*
X48944155Y-69916627D01*
X49384959Y-68987982D01*
X49664430Y-69047385D02*
X50316529Y-69185993D01*
X49689411Y-70075035D01*
X51108362Y-69354302D02*
X50922049Y-69314700D01*
X50818991Y-69341477D01*
X50762512Y-69378155D01*
X50639653Y-69498090D01*
X50553473Y-69674503D01*
X50474268Y-70047130D01*
X50501046Y-70150188D01*
X50537724Y-70206667D01*
X50620980Y-70273047D01*
X50807294Y-70312649D01*
X50910351Y-70285871D01*
X50966830Y-70249194D01*
X51033210Y-70165937D01*
X51082713Y-69933045D01*
X51055935Y-69829987D01*
X51019257Y-69773508D01*
X50936001Y-69707129D01*
X50749687Y-69667527D01*
X50646630Y-69694304D01*
X50590151Y-69730982D01*
X50523771Y-69814238D01*
G04 #@! TO.C,SW86*
X29856889Y-65810819D02*
X29986724Y-65887099D01*
X30219616Y-65936602D01*
X30322674Y-65909825D01*
X30379153Y-65873147D01*
X30445533Y-65789891D01*
X30465334Y-65696734D01*
X30438556Y-65593676D01*
X30401878Y-65537197D01*
X30318622Y-65470818D01*
X30142209Y-65384637D01*
X30058952Y-65318257D01*
X30022275Y-65261778D01*
X29995497Y-65158721D01*
X30015298Y-65065564D01*
X30081678Y-64982308D01*
X30138157Y-64945630D01*
X30241214Y-64918852D01*
X30474107Y-64968355D01*
X30603941Y-65044635D01*
X30939891Y-65067361D02*
X30964872Y-66095011D01*
X31299694Y-65435936D01*
X31337499Y-66174216D01*
X31778303Y-65245571D01*
X32201561Y-65773683D02*
X32118305Y-65707303D01*
X32081627Y-65650824D01*
X32054850Y-65547767D01*
X32064750Y-65501188D01*
X32131130Y-65417932D01*
X32187609Y-65381254D01*
X32290666Y-65354477D01*
X32476980Y-65394079D01*
X32560237Y-65460459D01*
X32596915Y-65516938D01*
X32623692Y-65619995D01*
X32613791Y-65666574D01*
X32547412Y-65749830D01*
X32490933Y-65786508D01*
X32387875Y-65813285D01*
X32201561Y-65773683D01*
X32098504Y-65800460D01*
X32042025Y-65837138D01*
X31975645Y-65920395D01*
X31936043Y-66106708D01*
X31962821Y-66209766D01*
X31999498Y-66266245D01*
X32082755Y-66332624D01*
X32269069Y-66372227D01*
X32372126Y-66345449D01*
X32428605Y-66308771D01*
X32494985Y-66225515D01*
X32534587Y-66039201D01*
X32507810Y-65936144D01*
X32471132Y-65879665D01*
X32387875Y-65813285D01*
X33501706Y-65611891D02*
X33315393Y-65572289D01*
X33212335Y-65599066D01*
X33155856Y-65635744D01*
X33032997Y-65755679D01*
X32946817Y-65932092D01*
X32867612Y-66304719D01*
X32894390Y-66407777D01*
X32931068Y-66464256D01*
X33014324Y-66530636D01*
X33200638Y-66570238D01*
X33303695Y-66543460D01*
X33360174Y-66506783D01*
X33426554Y-66423526D01*
X33476057Y-66190634D01*
X33449279Y-66087576D01*
X33412601Y-66031097D01*
X33329345Y-65964718D01*
X33143031Y-65925116D01*
X33039974Y-65951893D01*
X32983495Y-65988571D01*
X32917115Y-66071827D01*
G04 #@! TO.C,SW67*
X43929047Y-86181739D02*
X44058882Y-86258019D01*
X44291774Y-86307522D01*
X44394832Y-86280745D01*
X44451311Y-86244067D01*
X44517691Y-86160811D01*
X44537492Y-86067654D01*
X44510714Y-85964596D01*
X44474036Y-85908117D01*
X44390780Y-85841738D01*
X44214367Y-85755557D01*
X44131110Y-85689177D01*
X44094433Y-85632698D01*
X44067655Y-85529641D01*
X44087456Y-85436484D01*
X44153836Y-85353228D01*
X44210315Y-85316550D01*
X44313372Y-85289772D01*
X44546265Y-85339275D01*
X44676099Y-85415555D01*
X45012049Y-85438281D02*
X45037030Y-86465931D01*
X45371852Y-85806856D01*
X45409657Y-86545136D01*
X45850461Y-85616491D01*
X46642295Y-85784800D02*
X46455981Y-85745198D01*
X46352924Y-85771975D01*
X46296445Y-85808653D01*
X46173586Y-85928587D01*
X46087406Y-86105001D01*
X46008201Y-86477628D01*
X46034979Y-86580686D01*
X46071656Y-86637165D01*
X46154913Y-86703544D01*
X46341227Y-86743147D01*
X46444284Y-86716369D01*
X46500763Y-86679691D01*
X46567143Y-86596435D01*
X46616645Y-86363543D01*
X46589868Y-86260485D01*
X46553190Y-86204006D01*
X46469934Y-86137627D01*
X46283620Y-86098024D01*
X46180563Y-86124802D01*
X46124084Y-86161480D01*
X46057704Y-86244736D01*
X47061501Y-85873905D02*
X47713600Y-86012513D01*
X47086482Y-86901556D01*
G04 #@! TO.C,SW24*
X183387908Y-126856581D02*
X183537544Y-126873457D01*
X183770436Y-126823955D01*
X183853692Y-126757575D01*
X183890370Y-126701096D01*
X183917148Y-126598038D01*
X183897347Y-126504882D01*
X183830967Y-126421625D01*
X183774488Y-126384947D01*
X183671431Y-126358170D01*
X183475216Y-126351194D01*
X183372159Y-126324416D01*
X183315680Y-126287738D01*
X183249300Y-126204482D01*
X183229499Y-126111325D01*
X183256276Y-126008268D01*
X183292954Y-125951789D01*
X183376211Y-125885409D01*
X183609103Y-125835906D01*
X183758739Y-125852783D01*
X184074887Y-125736901D02*
X184515691Y-126665546D01*
X184553497Y-125927267D01*
X184888319Y-126586341D01*
X184913300Y-125558691D01*
X185259150Y-125582544D02*
X185295828Y-125526065D01*
X185379084Y-125459685D01*
X185611976Y-125410182D01*
X185715034Y-125436960D01*
X185771513Y-125473638D01*
X185837893Y-125556894D01*
X185857694Y-125650051D01*
X185840817Y-125799687D01*
X185400682Y-126477435D01*
X186006202Y-126348728D01*
X186706006Y-125518419D02*
X186844614Y-126170518D01*
X186393910Y-125195295D02*
X186309526Y-125943474D01*
X186915046Y-125814767D01*
G04 #@! TO.C,SW14*
X204437908Y-139806581D02*
X204587544Y-139823457D01*
X204820436Y-139773955D01*
X204903692Y-139707575D01*
X204940370Y-139651096D01*
X204967148Y-139548038D01*
X204947347Y-139454882D01*
X204880967Y-139371625D01*
X204824488Y-139334947D01*
X204721431Y-139308170D01*
X204525216Y-139301194D01*
X204422159Y-139274416D01*
X204365680Y-139237738D01*
X204299300Y-139154482D01*
X204279499Y-139061325D01*
X204306276Y-138958268D01*
X204342954Y-138901789D01*
X204426211Y-138835409D01*
X204659103Y-138785906D01*
X204808739Y-138802783D01*
X205124887Y-138686901D02*
X205565691Y-139615546D01*
X205603497Y-138877267D01*
X205938319Y-139536341D01*
X205963300Y-138508691D01*
X207056202Y-139298728D02*
X206497261Y-139417535D01*
X206776731Y-139358131D02*
X206568820Y-138379984D01*
X206505364Y-138539520D01*
X206432009Y-138652478D01*
X206348752Y-138718858D01*
X207756006Y-138468419D02*
X207894614Y-139120518D01*
X207443910Y-138145295D02*
X207359526Y-138893474D01*
X207965046Y-138764767D01*
G04 #@! TO.C,SW74*
X252065488Y-103562691D02*
X252215124Y-103579567D01*
X252448016Y-103530065D01*
X252531272Y-103463685D01*
X252567950Y-103407206D01*
X252594728Y-103304148D01*
X252574927Y-103210992D01*
X252508547Y-103127735D01*
X252452068Y-103091057D01*
X252349011Y-103064280D01*
X252152796Y-103057304D01*
X252049739Y-103030526D01*
X251993260Y-102993848D01*
X251926880Y-102910592D01*
X251907079Y-102817435D01*
X251933856Y-102714378D01*
X251970534Y-102657899D01*
X252053791Y-102591519D01*
X252286683Y-102542016D01*
X252436319Y-102558893D01*
X252752467Y-102443011D02*
X253193271Y-103371656D01*
X253231077Y-102633377D01*
X253565899Y-103292451D01*
X253590880Y-102264801D01*
X253870350Y-102205397D02*
X254522449Y-102066790D01*
X254311154Y-103134042D01*
X255383586Y-102224529D02*
X255522194Y-102876628D01*
X255071490Y-101901405D02*
X254987106Y-102649584D01*
X255592626Y-102520877D01*
G04 #@! TO.C,SW17*
X105522128Y-142722648D02*
X105651963Y-142798928D01*
X105884855Y-142848431D01*
X105987913Y-142821654D01*
X106044392Y-142784976D01*
X106110772Y-142701720D01*
X106130573Y-142608563D01*
X106103795Y-142505505D01*
X106067117Y-142449026D01*
X105983861Y-142382647D01*
X105807448Y-142296466D01*
X105724191Y-142230086D01*
X105687514Y-142173607D01*
X105660736Y-142070550D01*
X105680537Y-141977393D01*
X105746917Y-141894137D01*
X105803396Y-141857459D01*
X105906453Y-141830681D01*
X106139346Y-141880184D01*
X106269180Y-141956464D01*
X106605130Y-141979190D02*
X106630111Y-143006840D01*
X106964933Y-142347765D01*
X107002738Y-143086045D01*
X107443542Y-142157400D01*
X108120621Y-143323658D02*
X107561680Y-143204851D01*
X107841151Y-143264255D02*
X108049062Y-142286107D01*
X107926204Y-142406041D01*
X107813246Y-142479397D01*
X107710188Y-142506174D01*
X108654582Y-142414814D02*
X109306681Y-142553422D01*
X108679563Y-143442465D01*
G04 #@! TO.C,SW71*
X241461992Y-53677164D02*
X241611628Y-53694040D01*
X241844520Y-53644538D01*
X241927776Y-53578158D01*
X241964454Y-53521679D01*
X241991232Y-53418621D01*
X241971431Y-53325465D01*
X241905051Y-53242208D01*
X241848572Y-53205530D01*
X241745515Y-53178753D01*
X241549300Y-53171777D01*
X241446243Y-53144999D01*
X241389764Y-53108321D01*
X241323384Y-53025065D01*
X241303583Y-52931908D01*
X241330360Y-52828851D01*
X241367038Y-52772372D01*
X241450295Y-52705992D01*
X241683187Y-52656489D01*
X241832823Y-52673366D01*
X242148971Y-52557484D02*
X242589775Y-53486129D01*
X242627581Y-52747850D01*
X242962403Y-53406924D01*
X242987384Y-52379274D01*
X243266854Y-52319870D02*
X243918953Y-52181263D01*
X243707658Y-53248515D01*
X245011855Y-52971300D02*
X244452914Y-53090106D01*
X244732384Y-53030703D02*
X244524473Y-52052555D01*
X244461017Y-52212092D01*
X244387662Y-52325050D01*
X244304405Y-52391430D01*
G04 #@! TO.C,SW31*
X172802614Y-76961060D02*
X172952250Y-76977936D01*
X173185142Y-76928434D01*
X173268398Y-76862054D01*
X173305076Y-76805575D01*
X173331854Y-76702517D01*
X173312053Y-76609361D01*
X173245673Y-76526104D01*
X173189194Y-76489426D01*
X173086137Y-76462649D01*
X172889922Y-76455673D01*
X172786865Y-76428895D01*
X172730386Y-76392217D01*
X172664006Y-76308961D01*
X172644205Y-76215804D01*
X172670982Y-76112747D01*
X172707660Y-76056268D01*
X172790917Y-75989888D01*
X173023809Y-75940385D01*
X173173445Y-75957262D01*
X173489593Y-75841380D02*
X173930397Y-76770025D01*
X173968203Y-76031746D01*
X174303025Y-76690820D01*
X174328006Y-75663170D01*
X174607476Y-75603766D02*
X175212996Y-75475059D01*
X174966152Y-75916991D01*
X175105887Y-75887289D01*
X175208944Y-75914066D01*
X175265423Y-75950744D01*
X175331803Y-76034001D01*
X175381306Y-76266893D01*
X175354528Y-76369950D01*
X175317851Y-76426429D01*
X175234594Y-76492809D01*
X174955123Y-76552212D01*
X174852066Y-76525435D01*
X174795587Y-76488757D01*
X176352477Y-76255196D02*
X175793536Y-76374002D01*
X176073006Y-76314599D02*
X175865095Y-75336451D01*
X175801639Y-75495988D01*
X175728284Y-75608946D01*
X175645027Y-75675326D01*
G04 #@! TO.C,SW21*
X165687908Y-130606581D02*
X165837544Y-130623457D01*
X166070436Y-130573955D01*
X166153692Y-130507575D01*
X166190370Y-130451096D01*
X166217148Y-130348038D01*
X166197347Y-130254882D01*
X166130967Y-130171625D01*
X166074488Y-130134947D01*
X165971431Y-130108170D01*
X165775216Y-130101194D01*
X165672159Y-130074416D01*
X165615680Y-130037738D01*
X165549300Y-129954482D01*
X165529499Y-129861325D01*
X165556276Y-129758268D01*
X165592954Y-129701789D01*
X165676211Y-129635409D01*
X165909103Y-129585906D01*
X166058739Y-129602783D01*
X166374887Y-129486901D02*
X166815691Y-130415546D01*
X166853497Y-129677267D01*
X167188319Y-130336341D01*
X167213300Y-129308691D01*
X167559150Y-129332544D02*
X167595828Y-129276065D01*
X167679084Y-129209685D01*
X167911976Y-129160182D01*
X168015034Y-129186960D01*
X168071513Y-129223638D01*
X168137893Y-129306894D01*
X168157694Y-129400051D01*
X168140817Y-129549687D01*
X167700682Y-130227435D01*
X168306202Y-130098728D01*
X169237771Y-129900717D02*
X168678830Y-130019523D01*
X168958300Y-129960120D02*
X168750389Y-128981972D01*
X168686933Y-129141509D01*
X168613578Y-129254467D01*
X168530321Y-129320847D01*
G04 #@! TO.C,SW57*
X62419328Y-85767023D02*
X62549163Y-85843303D01*
X62782055Y-85892806D01*
X62885113Y-85866029D01*
X62941592Y-85829351D01*
X63007972Y-85746095D01*
X63027773Y-85652938D01*
X63000995Y-85549880D01*
X62964317Y-85493401D01*
X62881061Y-85427022D01*
X62704648Y-85340841D01*
X62621391Y-85274461D01*
X62584714Y-85217982D01*
X62557936Y-85114925D01*
X62577737Y-85021768D01*
X62644117Y-84938512D01*
X62700596Y-84901834D01*
X62803653Y-84875056D01*
X63036546Y-84924559D01*
X63166380Y-85000839D01*
X63502330Y-85023565D02*
X63527311Y-86051215D01*
X63862133Y-85392140D01*
X63899938Y-86130420D01*
X64340742Y-85201775D01*
X65179155Y-85379985D02*
X64713370Y-85280979D01*
X64567786Y-85736863D01*
X64624265Y-85700185D01*
X64727323Y-85673408D01*
X64960215Y-85722911D01*
X65043471Y-85789290D01*
X65080149Y-85845769D01*
X65106926Y-85948827D01*
X65057424Y-86181719D01*
X64991044Y-86264975D01*
X64934565Y-86301653D01*
X64831508Y-86328431D01*
X64598615Y-86278928D01*
X64515359Y-86212548D01*
X64478681Y-86156069D01*
X65551782Y-85459189D02*
X66203881Y-85597797D01*
X65576763Y-86486840D01*
G04 #@! TO.C,SW72*
X244996491Y-70305673D02*
X245146127Y-70322549D01*
X245379019Y-70273047D01*
X245462275Y-70206667D01*
X245498953Y-70150188D01*
X245525731Y-70047130D01*
X245505930Y-69953974D01*
X245439550Y-69870717D01*
X245383071Y-69834039D01*
X245280014Y-69807262D01*
X245083799Y-69800286D01*
X244980742Y-69773508D01*
X244924263Y-69736830D01*
X244857883Y-69653574D01*
X244838082Y-69560417D01*
X244864859Y-69457360D01*
X244901537Y-69400881D01*
X244984794Y-69334501D01*
X245217686Y-69284998D01*
X245367322Y-69301875D01*
X245683470Y-69185993D02*
X246124274Y-70114638D01*
X246162080Y-69376359D01*
X246496902Y-70035433D01*
X246521883Y-69007783D01*
X246801353Y-68948379D02*
X247453452Y-68809772D01*
X247242157Y-69877024D01*
X247799302Y-68833625D02*
X247835980Y-68777146D01*
X247919236Y-68710766D01*
X248152129Y-68661263D01*
X248255186Y-68688041D01*
X248311665Y-68724719D01*
X248378045Y-68807975D01*
X248397846Y-68901132D01*
X248380969Y-69050768D01*
X247940834Y-69728516D01*
X248546354Y-69599809D01*
G04 #@! TO.C,SW45*
X87978607Y-52095287D02*
X88108442Y-52171567D01*
X88341334Y-52221070D01*
X88444392Y-52194293D01*
X88500871Y-52157615D01*
X88567251Y-52074359D01*
X88587052Y-51981202D01*
X88560274Y-51878144D01*
X88523596Y-51821665D01*
X88440340Y-51755286D01*
X88263927Y-51669105D01*
X88180670Y-51602725D01*
X88143993Y-51546246D01*
X88117215Y-51443189D01*
X88137016Y-51350032D01*
X88203396Y-51266776D01*
X88259875Y-51230098D01*
X88362932Y-51203320D01*
X88595825Y-51252823D01*
X88725659Y-51329103D01*
X89061609Y-51351829D02*
X89086590Y-52379479D01*
X89421412Y-51720404D01*
X89459217Y-52458684D01*
X89900021Y-51530039D01*
X90622551Y-52024397D02*
X90483944Y-52676496D01*
X90468863Y-51602267D02*
X90087463Y-52251441D01*
X90692983Y-52380148D01*
X91670003Y-51906260D02*
X91204218Y-51807254D01*
X91058634Y-52263138D01*
X91115113Y-52226460D01*
X91218171Y-52199683D01*
X91451063Y-52249186D01*
X91534319Y-52315565D01*
X91570997Y-52372044D01*
X91597775Y-52475102D01*
X91548272Y-52707994D01*
X91481892Y-52791251D01*
X91425413Y-52827928D01*
X91322356Y-52854706D01*
X91089463Y-52805203D01*
X91006207Y-52738823D01*
X90969529Y-52682344D01*
G04 #@! TO.C,SW46*
X84444108Y-68723797D02*
X84573943Y-68800077D01*
X84806835Y-68849580D01*
X84909893Y-68822803D01*
X84966372Y-68786125D01*
X85032752Y-68702869D01*
X85052553Y-68609712D01*
X85025775Y-68506654D01*
X84989097Y-68450175D01*
X84905841Y-68383796D01*
X84729428Y-68297615D01*
X84646171Y-68231235D01*
X84609494Y-68174756D01*
X84582716Y-68071699D01*
X84602517Y-67978542D01*
X84668897Y-67895286D01*
X84725376Y-67858608D01*
X84828433Y-67831830D01*
X85061326Y-67881333D01*
X85191160Y-67957613D01*
X85527110Y-67980339D02*
X85552091Y-69007989D01*
X85886913Y-68348914D01*
X85924718Y-69087194D01*
X86365522Y-68158549D01*
X87088052Y-68652907D02*
X86949445Y-69305006D01*
X86934364Y-68230777D02*
X86552964Y-68879951D01*
X87158484Y-69008658D01*
X88088925Y-68524869D02*
X87902612Y-68485267D01*
X87799554Y-68512044D01*
X87743075Y-68548722D01*
X87620216Y-68668657D01*
X87534036Y-68845070D01*
X87454831Y-69217697D01*
X87481609Y-69320755D01*
X87518287Y-69377234D01*
X87601543Y-69443614D01*
X87787857Y-69483216D01*
X87890914Y-69456438D01*
X87947393Y-69419761D01*
X88013773Y-69336504D01*
X88063276Y-69103612D01*
X88036498Y-69000554D01*
X87999820Y-68944075D01*
X87916564Y-68877696D01*
X87730250Y-68838094D01*
X87627193Y-68864871D01*
X87570714Y-68901549D01*
X87504334Y-68984805D01*
G04 #@! TO.C,SW23*
X179871611Y-110218079D02*
X180021247Y-110234955D01*
X180254139Y-110185453D01*
X180337395Y-110119073D01*
X180374073Y-110062594D01*
X180400851Y-109959536D01*
X180381050Y-109866380D01*
X180314670Y-109783123D01*
X180258191Y-109746445D01*
X180155134Y-109719668D01*
X179958919Y-109712692D01*
X179855862Y-109685914D01*
X179799383Y-109649236D01*
X179733003Y-109565980D01*
X179713202Y-109472823D01*
X179739979Y-109369766D01*
X179776657Y-109313287D01*
X179859914Y-109246907D01*
X180092806Y-109197404D01*
X180242442Y-109214281D01*
X180558590Y-109098399D02*
X180999394Y-110027044D01*
X181037200Y-109288765D01*
X181372022Y-109947839D01*
X181397003Y-108920189D01*
X181742853Y-108944042D02*
X181779531Y-108887563D01*
X181862787Y-108821183D01*
X182095679Y-108771680D01*
X182198737Y-108798458D01*
X182255216Y-108835136D01*
X182321596Y-108918392D01*
X182341397Y-109011549D01*
X182324520Y-109161185D01*
X181884385Y-109838933D01*
X182489905Y-109710226D01*
X182608043Y-108662774D02*
X183213562Y-108534067D01*
X182966718Y-108975999D01*
X183106453Y-108946297D01*
X183209511Y-108973074D01*
X183265990Y-109009752D01*
X183332369Y-109093009D01*
X183381872Y-109325901D01*
X183355095Y-109428958D01*
X183318417Y-109485437D01*
X183235160Y-109551817D01*
X182955690Y-109611220D01*
X182852632Y-109584443D01*
X182796153Y-109547765D01*
G04 #@! TO.C,SW51*
X204481429Y-52847730D02*
X204631065Y-52864606D01*
X204863957Y-52815104D01*
X204947213Y-52748724D01*
X204983891Y-52692245D01*
X205010669Y-52589187D01*
X204990868Y-52496031D01*
X204924488Y-52412774D01*
X204868009Y-52376096D01*
X204764952Y-52349319D01*
X204568737Y-52342343D01*
X204465680Y-52315565D01*
X204409201Y-52278887D01*
X204342821Y-52195631D01*
X204323020Y-52102474D01*
X204349797Y-51999417D01*
X204386475Y-51942938D01*
X204469732Y-51876558D01*
X204702624Y-51827055D01*
X204852260Y-51843932D01*
X205168408Y-51728050D02*
X205609212Y-52656695D01*
X205647018Y-51918416D01*
X205981840Y-52577490D01*
X206006821Y-51549840D01*
X206845233Y-51371630D02*
X206379448Y-51470635D01*
X206431875Y-51946320D01*
X206468553Y-51889841D01*
X206551810Y-51823462D01*
X206784702Y-51773959D01*
X206887759Y-51800736D01*
X206944238Y-51837414D01*
X207010618Y-51920671D01*
X207060121Y-52153563D01*
X207033343Y-52256620D01*
X206996666Y-52313099D01*
X206913409Y-52379479D01*
X206680517Y-52428982D01*
X206577459Y-52402204D01*
X206520980Y-52365527D01*
X208031292Y-52141866D02*
X207472351Y-52260672D01*
X207751821Y-52201269D02*
X207543910Y-51223121D01*
X207480454Y-51382658D01*
X207407099Y-51495616D01*
X207323842Y-51561996D01*
G04 #@! TO.C,SW15*
X126660585Y-129836548D02*
X126790420Y-129912828D01*
X127023312Y-129962331D01*
X127126370Y-129935554D01*
X127182849Y-129898876D01*
X127249229Y-129815620D01*
X127269030Y-129722463D01*
X127242252Y-129619405D01*
X127205574Y-129562926D01*
X127122318Y-129496547D01*
X126945905Y-129410366D01*
X126862648Y-129343986D01*
X126825971Y-129287507D01*
X126799193Y-129184450D01*
X126818994Y-129091293D01*
X126885374Y-129008037D01*
X126941853Y-128971359D01*
X127044910Y-128944581D01*
X127277803Y-128994084D01*
X127407637Y-129070364D01*
X127743587Y-129093090D02*
X127768568Y-130120740D01*
X128103390Y-129461665D01*
X128141195Y-130199945D01*
X128581999Y-129271300D01*
X129259078Y-130437558D02*
X128700137Y-130318751D01*
X128979608Y-130378155D02*
X129187519Y-129400007D01*
X129064661Y-129519941D01*
X128951703Y-129593297D01*
X128848645Y-129620074D01*
X130351981Y-129647521D02*
X129886196Y-129548515D01*
X129740612Y-130004399D01*
X129797091Y-129967721D01*
X129900149Y-129940944D01*
X130133041Y-129990447D01*
X130216297Y-130056826D01*
X130252975Y-130113305D01*
X130279753Y-130216363D01*
X130230250Y-130449255D01*
X130163870Y-130532512D01*
X130107391Y-130569189D01*
X130004334Y-130595967D01*
X129771441Y-130546464D01*
X129688185Y-130480084D01*
X129651507Y-130423605D01*
G04 #@! TO.C,SW53*
X211550427Y-86104749D02*
X211700063Y-86121625D01*
X211932955Y-86072123D01*
X212016211Y-86005743D01*
X212052889Y-85949264D01*
X212079667Y-85846206D01*
X212059866Y-85753050D01*
X211993486Y-85669793D01*
X211937007Y-85633115D01*
X211833950Y-85606338D01*
X211637735Y-85599362D01*
X211534678Y-85572584D01*
X211478199Y-85535906D01*
X211411819Y-85452650D01*
X211392018Y-85359493D01*
X211418795Y-85256436D01*
X211455473Y-85199957D01*
X211538730Y-85133577D01*
X211771622Y-85084074D01*
X211921258Y-85100951D01*
X212237406Y-84985069D02*
X212678210Y-85913714D01*
X212716016Y-85175435D01*
X213050838Y-85834509D01*
X213075819Y-84806859D01*
X213914231Y-84628649D02*
X213448446Y-84727654D01*
X213500873Y-85203339D01*
X213537551Y-85146860D01*
X213620808Y-85080481D01*
X213853700Y-85030978D01*
X213956757Y-85057755D01*
X214013236Y-85094433D01*
X214079616Y-85177690D01*
X214129119Y-85410582D01*
X214102341Y-85513639D01*
X214065664Y-85570118D01*
X213982407Y-85636498D01*
X213749515Y-85686001D01*
X213646457Y-85659223D01*
X213589978Y-85622546D01*
X214286859Y-84549444D02*
X214892378Y-84420737D01*
X214645534Y-84862669D01*
X214785269Y-84832967D01*
X214888327Y-84859744D01*
X214944806Y-84896422D01*
X215011185Y-84979679D01*
X215060688Y-85212571D01*
X215033911Y-85315628D01*
X214997233Y-85372107D01*
X214913976Y-85438487D01*
X214634506Y-85497890D01*
X214531448Y-85471113D01*
X214474969Y-85434435D01*
G04 #@! TO.C,SW43*
X195711019Y-98161414D02*
X195860655Y-98178290D01*
X196093547Y-98128788D01*
X196176803Y-98062408D01*
X196213481Y-98005929D01*
X196240259Y-97902871D01*
X196220458Y-97809715D01*
X196154078Y-97726458D01*
X196097599Y-97689780D01*
X195994542Y-97663003D01*
X195798327Y-97656027D01*
X195695270Y-97629249D01*
X195638791Y-97592571D01*
X195572411Y-97509315D01*
X195552610Y-97416158D01*
X195579387Y-97313101D01*
X195616065Y-97256622D01*
X195699322Y-97190242D01*
X195932214Y-97140739D01*
X196081850Y-97157616D01*
X196397998Y-97041734D02*
X196838802Y-97970379D01*
X196876608Y-97232100D01*
X197211430Y-97891174D01*
X197236411Y-96863524D01*
X198097548Y-97021264D02*
X198236156Y-97673362D01*
X197785452Y-96698139D02*
X197701068Y-97446318D01*
X198306588Y-97317611D01*
X198447451Y-96606109D02*
X199052970Y-96477402D01*
X198806126Y-96919334D01*
X198945861Y-96889632D01*
X199048919Y-96916409D01*
X199105398Y-96953087D01*
X199171777Y-97036344D01*
X199221280Y-97269236D01*
X199194503Y-97372293D01*
X199157825Y-97428772D01*
X199074568Y-97495152D01*
X198795098Y-97554555D01*
X198692040Y-97527778D01*
X198635561Y-97491100D01*
G04 #@! TO.C,SW36*
X100283516Y-80780462D02*
X100413351Y-80856742D01*
X100646243Y-80906245D01*
X100749301Y-80879468D01*
X100805780Y-80842790D01*
X100872160Y-80759534D01*
X100891961Y-80666377D01*
X100865183Y-80563319D01*
X100828505Y-80506840D01*
X100745249Y-80440461D01*
X100568836Y-80354280D01*
X100485579Y-80287900D01*
X100448902Y-80231421D01*
X100422124Y-80128364D01*
X100441925Y-80035207D01*
X100508305Y-79951951D01*
X100564784Y-79915273D01*
X100667841Y-79888495D01*
X100900734Y-79937998D01*
X101030568Y-80014278D01*
X101366518Y-80037004D02*
X101391499Y-81064654D01*
X101726321Y-80405579D01*
X101764126Y-81143859D01*
X102204930Y-80215214D01*
X102484401Y-80274617D02*
X103089921Y-80403324D01*
X102684667Y-80706648D01*
X102824403Y-80736350D01*
X102907659Y-80802729D01*
X102944337Y-80859208D01*
X102971114Y-80962266D01*
X102921612Y-81195158D01*
X102855232Y-81278414D01*
X102798753Y-81315092D01*
X102695696Y-81341870D01*
X102416225Y-81282466D01*
X102332969Y-81216087D01*
X102296291Y-81159608D01*
X103928333Y-80581534D02*
X103742020Y-80541932D01*
X103638962Y-80568709D01*
X103582483Y-80605387D01*
X103459624Y-80725322D01*
X103373444Y-80901735D01*
X103294239Y-81274362D01*
X103321017Y-81377420D01*
X103357695Y-81433899D01*
X103440951Y-81500279D01*
X103627265Y-81539881D01*
X103730322Y-81513103D01*
X103786801Y-81476426D01*
X103853181Y-81393169D01*
X103902684Y-81160277D01*
X103875906Y-81057219D01*
X103839228Y-81000740D01*
X103755972Y-80934361D01*
X103569658Y-80894759D01*
X103466601Y-80921536D01*
X103410122Y-80958214D01*
X103343742Y-81041470D01*
G04 #@! TO.C,SW12*
X169237908Y-147306581D02*
X169387544Y-147323457D01*
X169620436Y-147273955D01*
X169703692Y-147207575D01*
X169740370Y-147151096D01*
X169767148Y-147048038D01*
X169747347Y-146954882D01*
X169680967Y-146871625D01*
X169624488Y-146834947D01*
X169521431Y-146808170D01*
X169325216Y-146801194D01*
X169222159Y-146774416D01*
X169165680Y-146737738D01*
X169099300Y-146654482D01*
X169079499Y-146561325D01*
X169106276Y-146458268D01*
X169142954Y-146401789D01*
X169226211Y-146335409D01*
X169459103Y-146285906D01*
X169608739Y-146302783D01*
X169924887Y-146186901D02*
X170365691Y-147115546D01*
X170403497Y-146377267D01*
X170738319Y-147036341D01*
X170763300Y-146008691D01*
X171856202Y-146798728D02*
X171297261Y-146917535D01*
X171576731Y-146858131D02*
X171368820Y-145879984D01*
X171305364Y-146039520D01*
X171232009Y-146152478D01*
X171148752Y-146218858D01*
X172040719Y-145834533D02*
X172077397Y-145778054D01*
X172160653Y-145711674D01*
X172393546Y-145662171D01*
X172496603Y-145688949D01*
X172553082Y-145725627D01*
X172619462Y-145808883D01*
X172639263Y-145902040D01*
X172622386Y-146051676D01*
X172182251Y-146729424D01*
X172787771Y-146600717D01*
G04 #@! TO.C,SW83*
X266137647Y-83191772D02*
X266287283Y-83208648D01*
X266520175Y-83159146D01*
X266603431Y-83092766D01*
X266640109Y-83036287D01*
X266666887Y-82933229D01*
X266647086Y-82840073D01*
X266580706Y-82756816D01*
X266524227Y-82720138D01*
X266421170Y-82693361D01*
X266224955Y-82686385D01*
X266121898Y-82659607D01*
X266065419Y-82622929D01*
X265999039Y-82539673D01*
X265979238Y-82446516D01*
X266006015Y-82343459D01*
X266042693Y-82286980D01*
X266125950Y-82220600D01*
X266358842Y-82171097D01*
X266508478Y-82187974D01*
X266824626Y-82072092D02*
X267265430Y-83000737D01*
X267303236Y-82262458D01*
X267638058Y-82921532D01*
X267663039Y-81893882D01*
X268264507Y-82204182D02*
X268161449Y-82177404D01*
X268104970Y-82140727D01*
X268038591Y-82057470D01*
X268028690Y-82010892D01*
X268055467Y-81907834D01*
X268092145Y-81851355D01*
X268175402Y-81784976D01*
X268361715Y-81745373D01*
X268464773Y-81772151D01*
X268521252Y-81808829D01*
X268587632Y-81892085D01*
X268597532Y-81938664D01*
X268570755Y-82041721D01*
X268534077Y-82098200D01*
X268450821Y-82164580D01*
X268264507Y-82204182D01*
X268181250Y-82270561D01*
X268144572Y-82327040D01*
X268117795Y-82430098D01*
X268157397Y-82616412D01*
X268223777Y-82699668D01*
X268280256Y-82736346D01*
X268383313Y-82763123D01*
X268569627Y-82723521D01*
X268652884Y-82657141D01*
X268689561Y-82600662D01*
X268716339Y-82497605D01*
X268676737Y-82311291D01*
X268610357Y-82228035D01*
X268553878Y-82191357D01*
X268450821Y-82164580D01*
X268874079Y-81636467D02*
X269479598Y-81507760D01*
X269232754Y-81949692D01*
X269372489Y-81919990D01*
X269475547Y-81946767D01*
X269532026Y-81983445D01*
X269598405Y-82066702D01*
X269647908Y-82299594D01*
X269621131Y-82402651D01*
X269584453Y-82459130D01*
X269501196Y-82525510D01*
X269221726Y-82584913D01*
X269118668Y-82558136D01*
X269062189Y-82521458D01*
G04 #@! TO.C,SW87*
X26322389Y-82439329D02*
X26452224Y-82515609D01*
X26685116Y-82565112D01*
X26788174Y-82538335D01*
X26844653Y-82501657D01*
X26911033Y-82418401D01*
X26930834Y-82325244D01*
X26904056Y-82222186D01*
X26867378Y-82165707D01*
X26784122Y-82099328D01*
X26607709Y-82013147D01*
X26524452Y-81946767D01*
X26487775Y-81890288D01*
X26460997Y-81787231D01*
X26480798Y-81694074D01*
X26547178Y-81610818D01*
X26603657Y-81574140D01*
X26706714Y-81547362D01*
X26939607Y-81596865D01*
X27069441Y-81673145D01*
X27405391Y-81695871D02*
X27430372Y-82723521D01*
X27765194Y-82064446D01*
X27802999Y-82802726D01*
X28243803Y-81874081D01*
X28667061Y-82402193D02*
X28583805Y-82335813D01*
X28547127Y-82279334D01*
X28520350Y-82176277D01*
X28530250Y-82129698D01*
X28596630Y-82046442D01*
X28653109Y-82009764D01*
X28756166Y-81982987D01*
X28942480Y-82022589D01*
X29025737Y-82088969D01*
X29062415Y-82145448D01*
X29089192Y-82248505D01*
X29079291Y-82295084D01*
X29012912Y-82378340D01*
X28956433Y-82415018D01*
X28853375Y-82441795D01*
X28667061Y-82402193D01*
X28564004Y-82428970D01*
X28507525Y-82465648D01*
X28441145Y-82548905D01*
X28401543Y-82735218D01*
X28428321Y-82838276D01*
X28464998Y-82894755D01*
X28548255Y-82961134D01*
X28734569Y-83000737D01*
X28837626Y-82973959D01*
X28894105Y-82937281D01*
X28960485Y-82854025D01*
X29000087Y-82667711D01*
X28973310Y-82564654D01*
X28936632Y-82508175D01*
X28853375Y-82441795D01*
X29454843Y-82131495D02*
X30106942Y-82270103D01*
X29479824Y-83159146D01*
G04 #@! TO.C,SW32*
X176337113Y-93589569D02*
X176486749Y-93606445D01*
X176719641Y-93556943D01*
X176802897Y-93490563D01*
X176839575Y-93434084D01*
X176866353Y-93331026D01*
X176846552Y-93237870D01*
X176780172Y-93154613D01*
X176723693Y-93117935D01*
X176620636Y-93091158D01*
X176424421Y-93084182D01*
X176321364Y-93057404D01*
X176264885Y-93020726D01*
X176198505Y-92937470D01*
X176178704Y-92844313D01*
X176205481Y-92741256D01*
X176242159Y-92684777D01*
X176325416Y-92618397D01*
X176558308Y-92568894D01*
X176707944Y-92585771D01*
X177024092Y-92469889D02*
X177464896Y-93398534D01*
X177502702Y-92660255D01*
X177837524Y-93319329D01*
X177862505Y-92291679D01*
X178141975Y-92232275D02*
X178747495Y-92103568D01*
X178500651Y-92545500D01*
X178640386Y-92515798D01*
X178743443Y-92542575D01*
X178799922Y-92579253D01*
X178866302Y-92662510D01*
X178915805Y-92895402D01*
X178889027Y-92998459D01*
X178852350Y-93054938D01*
X178769093Y-93121318D01*
X178489622Y-93180721D01*
X178386565Y-93153944D01*
X178330086Y-93117266D01*
X179139924Y-92117521D02*
X179176602Y-92061042D01*
X179259858Y-91994662D01*
X179492751Y-91945159D01*
X179595808Y-91971937D01*
X179652287Y-92008615D01*
X179718667Y-92091871D01*
X179738468Y-92185028D01*
X179721591Y-92334664D01*
X179281456Y-93012412D01*
X179886976Y-92883705D01*
G04 #@! TO.C,SW84*
X269672145Y-99820281D02*
X269821781Y-99837157D01*
X270054673Y-99787655D01*
X270137929Y-99721275D01*
X270174607Y-99664796D01*
X270201385Y-99561738D01*
X270181584Y-99468582D01*
X270115204Y-99385325D01*
X270058725Y-99348647D01*
X269955668Y-99321870D01*
X269759453Y-99314894D01*
X269656396Y-99288116D01*
X269599917Y-99251438D01*
X269533537Y-99168182D01*
X269513736Y-99075025D01*
X269540513Y-98971968D01*
X269577191Y-98915489D01*
X269660448Y-98849109D01*
X269893340Y-98799606D01*
X270042976Y-98816483D01*
X270359124Y-98700601D02*
X270799928Y-99629246D01*
X270837734Y-98890967D01*
X271172556Y-99550041D01*
X271197537Y-98522391D01*
X271799005Y-98832691D02*
X271695947Y-98805913D01*
X271639468Y-98769236D01*
X271573089Y-98685979D01*
X271563188Y-98639401D01*
X271589965Y-98536343D01*
X271626643Y-98479864D01*
X271709900Y-98413485D01*
X271896213Y-98373882D01*
X271999271Y-98400660D01*
X272055750Y-98437338D01*
X272122130Y-98520594D01*
X272132030Y-98567173D01*
X272105253Y-98670230D01*
X272068575Y-98726709D01*
X271985319Y-98793089D01*
X271799005Y-98832691D01*
X271715748Y-98899070D01*
X271679070Y-98955549D01*
X271652293Y-99058607D01*
X271691895Y-99244921D01*
X271758275Y-99328177D01*
X271814754Y-99364855D01*
X271917811Y-99391632D01*
X272104125Y-99352030D01*
X272187382Y-99285650D01*
X272224059Y-99229171D01*
X272250837Y-99126114D01*
X272211235Y-98939800D01*
X272144855Y-98856544D01*
X272088376Y-98819866D01*
X271985319Y-98793089D01*
X272990243Y-98482119D02*
X273128851Y-99134218D01*
X272678147Y-98158995D02*
X272593763Y-98907174D01*
X273199283Y-98778467D01*
G04 #@! TO.C,SW34*
X199305518Y-114789922D02*
X199455154Y-114806798D01*
X199688046Y-114757296D01*
X199771302Y-114690916D01*
X199807980Y-114634437D01*
X199834758Y-114531379D01*
X199814957Y-114438223D01*
X199748577Y-114354966D01*
X199692098Y-114318288D01*
X199589041Y-114291511D01*
X199392826Y-114284535D01*
X199289769Y-114257757D01*
X199233290Y-114221079D01*
X199166910Y-114137823D01*
X199147109Y-114044666D01*
X199173886Y-113941609D01*
X199210564Y-113885130D01*
X199293821Y-113818750D01*
X199526713Y-113769247D01*
X199676349Y-113786124D01*
X199992497Y-113670242D02*
X200433301Y-114598887D01*
X200471107Y-113860608D01*
X200805929Y-114519682D01*
X200830910Y-113492032D01*
X201110380Y-113432628D02*
X201715900Y-113303921D01*
X201469056Y-113745853D01*
X201608791Y-113716151D01*
X201711848Y-113742928D01*
X201768327Y-113779606D01*
X201834707Y-113862863D01*
X201884210Y-114095755D01*
X201857432Y-114198812D01*
X201820755Y-114255291D01*
X201737498Y-114321671D01*
X201458027Y-114381074D01*
X201354970Y-114354297D01*
X201298491Y-114317619D01*
X202623616Y-113451760D02*
X202762224Y-114103859D01*
X202311520Y-113128636D02*
X202227136Y-113876815D01*
X202832656Y-113748108D01*
G04 #@! TO.C,SW75*
X50998044Y-52924721D02*
X51127879Y-53001001D01*
X51360771Y-53050504D01*
X51463829Y-53023727D01*
X51520308Y-52987049D01*
X51586688Y-52903793D01*
X51606489Y-52810636D01*
X51579711Y-52707578D01*
X51543033Y-52651099D01*
X51459777Y-52584720D01*
X51283364Y-52498539D01*
X51200107Y-52432159D01*
X51163430Y-52375680D01*
X51136652Y-52272623D01*
X51156453Y-52179466D01*
X51222833Y-52096210D01*
X51279312Y-52059532D01*
X51382369Y-52032754D01*
X51615262Y-52082257D01*
X51745096Y-52158537D01*
X52081046Y-52181263D02*
X52106027Y-53208913D01*
X52440849Y-52549838D01*
X52478654Y-53288118D01*
X52919458Y-52359473D01*
X53198929Y-52418876D02*
X53851028Y-52557484D01*
X53223910Y-53446526D01*
X54689440Y-52735694D02*
X54223655Y-52636688D01*
X54078071Y-53092572D01*
X54134550Y-53055894D01*
X54237608Y-53029117D01*
X54470500Y-53078620D01*
X54553756Y-53144999D01*
X54590434Y-53201478D01*
X54617212Y-53304536D01*
X54567709Y-53537428D01*
X54501329Y-53620685D01*
X54444850Y-53657362D01*
X54341793Y-53684140D01*
X54108900Y-53634637D01*
X54025644Y-53568257D01*
X53988966Y-53511778D01*
G04 #@! TO.C,SW37*
X96749017Y-97408971D02*
X96878852Y-97485251D01*
X97111744Y-97534754D01*
X97214802Y-97507977D01*
X97271281Y-97471299D01*
X97337661Y-97388043D01*
X97357462Y-97294886D01*
X97330684Y-97191828D01*
X97294006Y-97135349D01*
X97210750Y-97068970D01*
X97034337Y-96982789D01*
X96951080Y-96916409D01*
X96914403Y-96859930D01*
X96887625Y-96756873D01*
X96907426Y-96663716D01*
X96973806Y-96580460D01*
X97030285Y-96543782D01*
X97133342Y-96517004D01*
X97366235Y-96566507D01*
X97496069Y-96642787D01*
X97832019Y-96665513D02*
X97857000Y-97693163D01*
X98191822Y-97034088D01*
X98229627Y-97772368D01*
X98670431Y-96843723D01*
X98949902Y-96903126D02*
X99555422Y-97031833D01*
X99150168Y-97335157D01*
X99289904Y-97364859D01*
X99373160Y-97431238D01*
X99409838Y-97487717D01*
X99436615Y-97590775D01*
X99387113Y-97823667D01*
X99320733Y-97906923D01*
X99264254Y-97943601D01*
X99161197Y-97970379D01*
X98881726Y-97910975D01*
X98798470Y-97844596D01*
X98761792Y-97788117D01*
X99881471Y-97101137D02*
X100533570Y-97239745D01*
X99906452Y-98128788D01*
G04 #@! TO.C,SW64*
X233575207Y-103147975D02*
X233724843Y-103164851D01*
X233957735Y-103115349D01*
X234040991Y-103048969D01*
X234077669Y-102992490D01*
X234104447Y-102889432D01*
X234084646Y-102796276D01*
X234018266Y-102713019D01*
X233961787Y-102676341D01*
X233858730Y-102649564D01*
X233662515Y-102642588D01*
X233559458Y-102615810D01*
X233502979Y-102579132D01*
X233436599Y-102495876D01*
X233416798Y-102402719D01*
X233443575Y-102299662D01*
X233480253Y-102243183D01*
X233563510Y-102176803D01*
X233796402Y-102127300D01*
X233946038Y-102144177D01*
X234262186Y-102028295D02*
X234702990Y-102956940D01*
X234740796Y-102218661D01*
X235075618Y-102877735D01*
X235100599Y-101850085D01*
X235892432Y-101681775D02*
X235706119Y-101721378D01*
X235622862Y-101787757D01*
X235586184Y-101844236D01*
X235522729Y-102003773D01*
X235515753Y-102199987D01*
X235594957Y-102572615D01*
X235661337Y-102655871D01*
X235717816Y-102692549D01*
X235820873Y-102719326D01*
X236007187Y-102679724D01*
X236090444Y-102613344D01*
X236127121Y-102556865D01*
X236153899Y-102453808D01*
X236104396Y-102220916D01*
X236038016Y-102137659D01*
X235981537Y-102100981D01*
X235878480Y-102074204D01*
X235692166Y-102113806D01*
X235608910Y-102180186D01*
X235572232Y-102236665D01*
X235545455Y-102339722D01*
X236893305Y-101809813D02*
X237031913Y-102461912D01*
X236581209Y-101486689D02*
X236496825Y-102234868D01*
X237102345Y-102106161D01*
G04 #@! TO.C,SW16*
X123126086Y-146465058D02*
X123255921Y-146541338D01*
X123488813Y-146590841D01*
X123591871Y-146564064D01*
X123648350Y-146527386D01*
X123714730Y-146444130D01*
X123734531Y-146350973D01*
X123707753Y-146247915D01*
X123671075Y-146191436D01*
X123587819Y-146125057D01*
X123411406Y-146038876D01*
X123328149Y-145972496D01*
X123291472Y-145916017D01*
X123264694Y-145812960D01*
X123284495Y-145719803D01*
X123350875Y-145636547D01*
X123407354Y-145599869D01*
X123510411Y-145573091D01*
X123743304Y-145622594D01*
X123873138Y-145698874D01*
X124209088Y-145721600D02*
X124234069Y-146749250D01*
X124568891Y-146090175D01*
X124606696Y-146828455D01*
X125047500Y-145899810D01*
X125724579Y-147066068D02*
X125165638Y-146947261D01*
X125445109Y-147006665D02*
X125653020Y-146028517D01*
X125530162Y-146148451D01*
X125417204Y-146221807D01*
X125314146Y-146248584D01*
X126770903Y-146266130D02*
X126584590Y-146226528D01*
X126481532Y-146253305D01*
X126425053Y-146289983D01*
X126302194Y-146409918D01*
X126216014Y-146586331D01*
X126136809Y-146958958D01*
X126163587Y-147062016D01*
X126200265Y-147118495D01*
X126283521Y-147184875D01*
X126469835Y-147224477D01*
X126572892Y-147197699D01*
X126629371Y-147161022D01*
X126695751Y-147077765D01*
X126745254Y-146844873D01*
X126718476Y-146741815D01*
X126681798Y-146685336D01*
X126598542Y-146618957D01*
X126412228Y-146579355D01*
X126309171Y-146606132D01*
X126252692Y-146642810D01*
X126186312Y-146726066D01*
G04 #@! TO.C,SW62*
X226506210Y-69890956D02*
X226655846Y-69907832D01*
X226888738Y-69858330D01*
X226971994Y-69791950D01*
X227008672Y-69735471D01*
X227035450Y-69632413D01*
X227015649Y-69539257D01*
X226949269Y-69456000D01*
X226892790Y-69419322D01*
X226789733Y-69392545D01*
X226593518Y-69385569D01*
X226490461Y-69358791D01*
X226433982Y-69322113D01*
X226367602Y-69238857D01*
X226347801Y-69145700D01*
X226374578Y-69042643D01*
X226411256Y-68986164D01*
X226494513Y-68919784D01*
X226727405Y-68870281D01*
X226877041Y-68887158D01*
X227193189Y-68771276D02*
X227633993Y-69699921D01*
X227671799Y-68961642D01*
X228006621Y-69620716D01*
X228031602Y-68593066D01*
X228823435Y-68424756D02*
X228637122Y-68464359D01*
X228553865Y-68530738D01*
X228517187Y-68587217D01*
X228453732Y-68746754D01*
X228446756Y-68942968D01*
X228525960Y-69315596D01*
X228592340Y-69398852D01*
X228648819Y-69435530D01*
X228751876Y-69462307D01*
X228938190Y-69422705D01*
X229021447Y-69356325D01*
X229058124Y-69299846D01*
X229084902Y-69196789D01*
X229035399Y-68963897D01*
X228969019Y-68880640D01*
X228912540Y-68843962D01*
X228809483Y-68817185D01*
X228623169Y-68856787D01*
X228539913Y-68923167D01*
X228503235Y-68979646D01*
X228476458Y-69082703D01*
X229309021Y-68418908D02*
X229345699Y-68362429D01*
X229428955Y-68296049D01*
X229661848Y-68246546D01*
X229764905Y-68273324D01*
X229821384Y-68310002D01*
X229887764Y-68393258D01*
X229907565Y-68486415D01*
X229890688Y-68636051D01*
X229450553Y-69313799D01*
X230056073Y-69185092D01*
G04 #@! TO.C,SW42*
X192176520Y-81532905D02*
X192326156Y-81549781D01*
X192559048Y-81500279D01*
X192642304Y-81433899D01*
X192678982Y-81377420D01*
X192705760Y-81274362D01*
X192685959Y-81181206D01*
X192619579Y-81097949D01*
X192563100Y-81061271D01*
X192460043Y-81034494D01*
X192263828Y-81027518D01*
X192160771Y-81000740D01*
X192104292Y-80964062D01*
X192037912Y-80880806D01*
X192018111Y-80787649D01*
X192044888Y-80684592D01*
X192081566Y-80628113D01*
X192164823Y-80561733D01*
X192397715Y-80512230D01*
X192547351Y-80529107D01*
X192863499Y-80413225D02*
X193304303Y-81341870D01*
X193342109Y-80603591D01*
X193676931Y-81262665D01*
X193701912Y-80235015D01*
X194563049Y-80392755D02*
X194701657Y-81044853D01*
X194250953Y-80069630D02*
X194166569Y-80817809D01*
X194772089Y-80689102D01*
X194979331Y-80060857D02*
X195016009Y-80004378D01*
X195099265Y-79937998D01*
X195332158Y-79888495D01*
X195435215Y-79915273D01*
X195491694Y-79951951D01*
X195558074Y-80035207D01*
X195577875Y-80128364D01*
X195560998Y-80278000D01*
X195120863Y-80955748D01*
X195726383Y-80827041D01*
G04 #@! TO.C,SW27*
X112588425Y-109465636D02*
X112718260Y-109541916D01*
X112951152Y-109591419D01*
X113054210Y-109564642D01*
X113110689Y-109527964D01*
X113177069Y-109444708D01*
X113196870Y-109351551D01*
X113170092Y-109248493D01*
X113133414Y-109192014D01*
X113050158Y-109125635D01*
X112873745Y-109039454D01*
X112790488Y-108973074D01*
X112753811Y-108916595D01*
X112727033Y-108813538D01*
X112746834Y-108720381D01*
X112813214Y-108637125D01*
X112869693Y-108600447D01*
X112972750Y-108573669D01*
X113205643Y-108623172D01*
X113335477Y-108699452D01*
X113671427Y-108722178D02*
X113696408Y-109749828D01*
X114031230Y-109090753D01*
X114069035Y-109829033D01*
X114509839Y-108900388D01*
X114816088Y-109062848D02*
X114872567Y-109026171D01*
X114975624Y-108999393D01*
X115208516Y-109048896D01*
X115291773Y-109115276D01*
X115328451Y-109171755D01*
X115355228Y-109274812D01*
X115335427Y-109367969D01*
X115259147Y-109497804D01*
X114581398Y-109937939D01*
X115186918Y-110066646D01*
X115720879Y-109157802D02*
X116372978Y-109296410D01*
X115745860Y-110185453D01*
G04 #@! TO.C,SW38*
X93214518Y-114037479D02*
X93344353Y-114113759D01*
X93577245Y-114163262D01*
X93680303Y-114136485D01*
X93736782Y-114099807D01*
X93803162Y-114016551D01*
X93822963Y-113923394D01*
X93796185Y-113820336D01*
X93759507Y-113763857D01*
X93676251Y-113697478D01*
X93499838Y-113611297D01*
X93416581Y-113544917D01*
X93379904Y-113488438D01*
X93353126Y-113385381D01*
X93372927Y-113292224D01*
X93439307Y-113208968D01*
X93495786Y-113172290D01*
X93598843Y-113145512D01*
X93831736Y-113195015D01*
X93961570Y-113271295D01*
X94297520Y-113294021D02*
X94322501Y-114321671D01*
X94657323Y-113662596D01*
X94695128Y-114400876D01*
X95135932Y-113472231D01*
X95415403Y-113531634D02*
X96020923Y-113660341D01*
X95615669Y-113963665D01*
X95755405Y-113993367D01*
X95838661Y-114059746D01*
X95875339Y-114116225D01*
X95902116Y-114219283D01*
X95852614Y-114452175D01*
X95786234Y-114535431D01*
X95729755Y-114572109D01*
X95626698Y-114598887D01*
X95347227Y-114539483D01*
X95263971Y-114473104D01*
X95227293Y-114416625D01*
X96490760Y-114198354D02*
X96407503Y-114131974D01*
X96370825Y-114075495D01*
X96344048Y-113972438D01*
X96353949Y-113925860D01*
X96420328Y-113842603D01*
X96476807Y-113805925D01*
X96579865Y-113779148D01*
X96766178Y-113818750D01*
X96849435Y-113885130D01*
X96886113Y-113941609D01*
X96912890Y-114044666D01*
X96902989Y-114091245D01*
X96836610Y-114174501D01*
X96780131Y-114211179D01*
X96677073Y-114237956D01*
X96490760Y-114198354D01*
X96387702Y-114225131D01*
X96331223Y-114261809D01*
X96264844Y-114345066D01*
X96225241Y-114531379D01*
X96252019Y-114634437D01*
X96288697Y-114690916D01*
X96371953Y-114757296D01*
X96558267Y-114796898D01*
X96661324Y-114770120D01*
X96717803Y-114733443D01*
X96784183Y-114650186D01*
X96823785Y-114463872D01*
X96797008Y-114360815D01*
X96760330Y-114304336D01*
X96677073Y-114237956D01*
G04 #@! TO.C,SW47*
X80909609Y-85352306D02*
X81039444Y-85428586D01*
X81272336Y-85478089D01*
X81375394Y-85451312D01*
X81431873Y-85414634D01*
X81498253Y-85331378D01*
X81518054Y-85238221D01*
X81491276Y-85135163D01*
X81454598Y-85078684D01*
X81371342Y-85012305D01*
X81194929Y-84926124D01*
X81111672Y-84859744D01*
X81074995Y-84803265D01*
X81048217Y-84700208D01*
X81068018Y-84607051D01*
X81134398Y-84523795D01*
X81190877Y-84487117D01*
X81293934Y-84460339D01*
X81526827Y-84509842D01*
X81656661Y-84586122D01*
X81992611Y-84608848D02*
X82017592Y-85636498D01*
X82352414Y-84977423D01*
X82390219Y-85715703D01*
X82831023Y-84787058D01*
X83553553Y-85281416D02*
X83414946Y-85933515D01*
X83399865Y-84859286D02*
X83018465Y-85508460D01*
X83623985Y-85637167D01*
X84042063Y-85044472D02*
X84694162Y-85183080D01*
X84067044Y-86072123D01*
G04 #@! TO.C,SW28*
X109053928Y-126094138D02*
X109183763Y-126170418D01*
X109416655Y-126219921D01*
X109519713Y-126193144D01*
X109576192Y-126156466D01*
X109642572Y-126073210D01*
X109662373Y-125980053D01*
X109635595Y-125876995D01*
X109598917Y-125820516D01*
X109515661Y-125754137D01*
X109339248Y-125667956D01*
X109255991Y-125601576D01*
X109219314Y-125545097D01*
X109192536Y-125442040D01*
X109212337Y-125348883D01*
X109278717Y-125265627D01*
X109335196Y-125228949D01*
X109438253Y-125202171D01*
X109671146Y-125251674D01*
X109800980Y-125327954D01*
X110136930Y-125350680D02*
X110161911Y-126378330D01*
X110496733Y-125719255D01*
X110534538Y-126457535D01*
X110975342Y-125528890D01*
X111281591Y-125691350D02*
X111338070Y-125654673D01*
X111441127Y-125627895D01*
X111674019Y-125677398D01*
X111757276Y-125743778D01*
X111793954Y-125800257D01*
X111820731Y-125903314D01*
X111800930Y-125996471D01*
X111724650Y-126126306D01*
X111046901Y-126566441D01*
X111652421Y-126695148D01*
X112330170Y-126255013D02*
X112246913Y-126188633D01*
X112210235Y-126132154D01*
X112183458Y-126029097D01*
X112193359Y-125982519D01*
X112259738Y-125899262D01*
X112316217Y-125862584D01*
X112419275Y-125835807D01*
X112605588Y-125875409D01*
X112688845Y-125941789D01*
X112725523Y-125998268D01*
X112752300Y-126101325D01*
X112742399Y-126147904D01*
X112676020Y-126231160D01*
X112619541Y-126267838D01*
X112516483Y-126294615D01*
X112330170Y-126255013D01*
X112227112Y-126281790D01*
X112170633Y-126318468D01*
X112104254Y-126401725D01*
X112064651Y-126588038D01*
X112091429Y-126691096D01*
X112128107Y-126747575D01*
X112211363Y-126813955D01*
X112397677Y-126853557D01*
X112500734Y-126826779D01*
X112557213Y-126790102D01*
X112623593Y-126706845D01*
X112663195Y-126520531D01*
X112636418Y-126417474D01*
X112599740Y-126360995D01*
X112516483Y-126294615D01*
G04 #@! TO.C,SW58*
X58884829Y-102395532D02*
X59014664Y-102471812D01*
X59247556Y-102521315D01*
X59350614Y-102494538D01*
X59407093Y-102457860D01*
X59473473Y-102374604D01*
X59493274Y-102281447D01*
X59466496Y-102178389D01*
X59429818Y-102121910D01*
X59346562Y-102055531D01*
X59170149Y-101969350D01*
X59086892Y-101902970D01*
X59050215Y-101846491D01*
X59023437Y-101743434D01*
X59043238Y-101650277D01*
X59109618Y-101567021D01*
X59166097Y-101530343D01*
X59269154Y-101503565D01*
X59502047Y-101553068D01*
X59631881Y-101629348D01*
X59967831Y-101652074D02*
X59992812Y-102679724D01*
X60327634Y-102020649D01*
X60365439Y-102758929D01*
X60806243Y-101830284D01*
X61644656Y-102008494D02*
X61178871Y-101909488D01*
X61033287Y-102365372D01*
X61089766Y-102328694D01*
X61192824Y-102301917D01*
X61425716Y-102351420D01*
X61508972Y-102417799D01*
X61545650Y-102474278D01*
X61572427Y-102577336D01*
X61522925Y-102810228D01*
X61456545Y-102893484D01*
X61400066Y-102930162D01*
X61297009Y-102956940D01*
X61064116Y-102907437D01*
X60980860Y-102841057D01*
X60944182Y-102784578D01*
X62161071Y-102556407D02*
X62077814Y-102490027D01*
X62041136Y-102433548D01*
X62014359Y-102330491D01*
X62024260Y-102283913D01*
X62090639Y-102200656D01*
X62147118Y-102163978D01*
X62250176Y-102137201D01*
X62436489Y-102176803D01*
X62519746Y-102243183D01*
X62556424Y-102299662D01*
X62583201Y-102402719D01*
X62573300Y-102449298D01*
X62506921Y-102532554D01*
X62450442Y-102569232D01*
X62347384Y-102596009D01*
X62161071Y-102556407D01*
X62058013Y-102583184D01*
X62001534Y-102619862D01*
X61935155Y-102703119D01*
X61895552Y-102889432D01*
X61922330Y-102992490D01*
X61959008Y-103048969D01*
X62042264Y-103115349D01*
X62228578Y-103154951D01*
X62331635Y-103128173D01*
X62388114Y-103091496D01*
X62454494Y-103008239D01*
X62494096Y-102821925D01*
X62467319Y-102718868D01*
X62430641Y-102662389D01*
X62347384Y-102596009D01*
G04 #@! TO.C,SW18*
X87915471Y-138980228D02*
X88045306Y-139056508D01*
X88278198Y-139106011D01*
X88381256Y-139079234D01*
X88437735Y-139042556D01*
X88504115Y-138959300D01*
X88523916Y-138866143D01*
X88497138Y-138763085D01*
X88460460Y-138706606D01*
X88377204Y-138640227D01*
X88200791Y-138554046D01*
X88117534Y-138487666D01*
X88080857Y-138431187D01*
X88054079Y-138328130D01*
X88073880Y-138234973D01*
X88140260Y-138151717D01*
X88196739Y-138115039D01*
X88299796Y-138088261D01*
X88532689Y-138137764D01*
X88662523Y-138214044D01*
X88998473Y-138236770D02*
X89023454Y-139264420D01*
X89358276Y-138605345D01*
X89396081Y-139343625D01*
X89836885Y-138414980D01*
X90513964Y-139581238D02*
X89955023Y-139462431D01*
X90234494Y-139521835D02*
X90442405Y-138543687D01*
X90319547Y-138663621D01*
X90206589Y-138736977D01*
X90103531Y-138763754D01*
X91191713Y-139141103D02*
X91108456Y-139074723D01*
X91071778Y-139018244D01*
X91045001Y-138915187D01*
X91054902Y-138868609D01*
X91121281Y-138785352D01*
X91177760Y-138748674D01*
X91280818Y-138721897D01*
X91467131Y-138761499D01*
X91550388Y-138827879D01*
X91587066Y-138884358D01*
X91613843Y-138987415D01*
X91603942Y-139033994D01*
X91537563Y-139117250D01*
X91481084Y-139153928D01*
X91378026Y-139180705D01*
X91191713Y-139141103D01*
X91088655Y-139167880D01*
X91032176Y-139204558D01*
X90965797Y-139287815D01*
X90926194Y-139474128D01*
X90952972Y-139577186D01*
X90989650Y-139633665D01*
X91072906Y-139700045D01*
X91259220Y-139739647D01*
X91362277Y-139712869D01*
X91418756Y-139676192D01*
X91485136Y-139592935D01*
X91524738Y-139406621D01*
X91497961Y-139303564D01*
X91461283Y-139247085D01*
X91378026Y-139180705D01*
G04 #@! TO.C,SW78*
X22787891Y-99067838D02*
X22917726Y-99144118D01*
X23150618Y-99193621D01*
X23253676Y-99166844D01*
X23310155Y-99130166D01*
X23376535Y-99046910D01*
X23396336Y-98953753D01*
X23369558Y-98850695D01*
X23332880Y-98794216D01*
X23249624Y-98727837D01*
X23073211Y-98641656D01*
X22989954Y-98575276D01*
X22953277Y-98518797D01*
X22926499Y-98415740D01*
X22946300Y-98322583D01*
X23012680Y-98239327D01*
X23069159Y-98202649D01*
X23172216Y-98175871D01*
X23405109Y-98225374D01*
X23534943Y-98301654D01*
X23870893Y-98324380D02*
X23895874Y-99352030D01*
X24230696Y-98692955D01*
X24268501Y-99431235D01*
X24709305Y-98502590D01*
X24988776Y-98561993D02*
X25640875Y-98700601D01*
X25013757Y-99589643D01*
X26064133Y-99228713D02*
X25980876Y-99162333D01*
X25944198Y-99105854D01*
X25917421Y-99002797D01*
X25927322Y-98956219D01*
X25993701Y-98872962D01*
X26050180Y-98836284D01*
X26153238Y-98809507D01*
X26339551Y-98849109D01*
X26422808Y-98915489D01*
X26459486Y-98971968D01*
X26486263Y-99075025D01*
X26476362Y-99121604D01*
X26409983Y-99204860D01*
X26353504Y-99241538D01*
X26250446Y-99268315D01*
X26064133Y-99228713D01*
X25961075Y-99255490D01*
X25904596Y-99292168D01*
X25838217Y-99375425D01*
X25798614Y-99561738D01*
X25825392Y-99664796D01*
X25862070Y-99721275D01*
X25945326Y-99787655D01*
X26131640Y-99827257D01*
X26234697Y-99800479D01*
X26291176Y-99763802D01*
X26357556Y-99680545D01*
X26397158Y-99494231D01*
X26370381Y-99391174D01*
X26333703Y-99334695D01*
X26250446Y-99268315D01*
G04 #@! TO.C,SW48*
X77375111Y-101980815D02*
X77504946Y-102057095D01*
X77737838Y-102106598D01*
X77840896Y-102079821D01*
X77897375Y-102043143D01*
X77963755Y-101959887D01*
X77983556Y-101866730D01*
X77956778Y-101763672D01*
X77920100Y-101707193D01*
X77836844Y-101640814D01*
X77660431Y-101554633D01*
X77577174Y-101488253D01*
X77540497Y-101431774D01*
X77513719Y-101328717D01*
X77533520Y-101235560D01*
X77599900Y-101152304D01*
X77656379Y-101115626D01*
X77759436Y-101088848D01*
X77992329Y-101138351D01*
X78122163Y-101214631D01*
X78458113Y-101237357D02*
X78483094Y-102265007D01*
X78817916Y-101605932D01*
X78855721Y-102344212D01*
X79296525Y-101415567D01*
X80019055Y-101909925D02*
X79880448Y-102562024D01*
X79865367Y-101487795D02*
X79483967Y-102136969D01*
X80089487Y-102265676D01*
X80651353Y-102141690D02*
X80568096Y-102075310D01*
X80531418Y-102018831D01*
X80504641Y-101915774D01*
X80514542Y-101869196D01*
X80580921Y-101785939D01*
X80637400Y-101749261D01*
X80740458Y-101722484D01*
X80926771Y-101762086D01*
X81010028Y-101828466D01*
X81046706Y-101884945D01*
X81073483Y-101988002D01*
X81063582Y-102034581D01*
X80997203Y-102117837D01*
X80940724Y-102154515D01*
X80837666Y-102181292D01*
X80651353Y-102141690D01*
X80548295Y-102168467D01*
X80491816Y-102205145D01*
X80425437Y-102288402D01*
X80385834Y-102474715D01*
X80412612Y-102577773D01*
X80449290Y-102634252D01*
X80532546Y-102700632D01*
X80718860Y-102740234D01*
X80821917Y-102713456D01*
X80878396Y-102676779D01*
X80944776Y-102593522D01*
X80984378Y-102407208D01*
X80957601Y-102304151D01*
X80920923Y-102247672D01*
X80837666Y-102181292D01*
G04 #@! TO.C,SW41*
X188642022Y-64904396D02*
X188791658Y-64921272D01*
X189024550Y-64871770D01*
X189107806Y-64805390D01*
X189144484Y-64748911D01*
X189171262Y-64645853D01*
X189151461Y-64552697D01*
X189085081Y-64469440D01*
X189028602Y-64432762D01*
X188925545Y-64405985D01*
X188729330Y-64399009D01*
X188626273Y-64372231D01*
X188569794Y-64335553D01*
X188503414Y-64252297D01*
X188483613Y-64159140D01*
X188510390Y-64056083D01*
X188547068Y-63999604D01*
X188630325Y-63933224D01*
X188863217Y-63883721D01*
X189012853Y-63900598D01*
X189329001Y-63784716D02*
X189769805Y-64713361D01*
X189807611Y-63975082D01*
X190142433Y-64634156D01*
X190167414Y-63606506D01*
X191028551Y-63764246D02*
X191167159Y-64416344D01*
X190716455Y-63441121D02*
X190632071Y-64189300D01*
X191237591Y-64060593D01*
X192191885Y-64198532D02*
X191632944Y-64317338D01*
X191912414Y-64257935D02*
X191704503Y-63279787D01*
X191641047Y-63439324D01*
X191567692Y-63552282D01*
X191484435Y-63618662D01*
G04 #@! TO.C,SW13*
X186887908Y-143556581D02*
X187037544Y-143573457D01*
X187270436Y-143523955D01*
X187353692Y-143457575D01*
X187390370Y-143401096D01*
X187417148Y-143298038D01*
X187397347Y-143204882D01*
X187330967Y-143121625D01*
X187274488Y-143084947D01*
X187171431Y-143058170D01*
X186975216Y-143051194D01*
X186872159Y-143024416D01*
X186815680Y-142987738D01*
X186749300Y-142904482D01*
X186729499Y-142811325D01*
X186756276Y-142708268D01*
X186792954Y-142651789D01*
X186876211Y-142585409D01*
X187109103Y-142535906D01*
X187258739Y-142552783D01*
X187574887Y-142436901D02*
X188015691Y-143365546D01*
X188053497Y-142627267D01*
X188388319Y-143286341D01*
X188413300Y-142258691D01*
X189506202Y-143048728D02*
X188947261Y-143167535D01*
X189226731Y-143108131D02*
X189018820Y-142129984D01*
X188955364Y-142289520D01*
X188882009Y-142402478D01*
X188798752Y-142468858D01*
X189624340Y-142001276D02*
X190229859Y-141872569D01*
X189983015Y-142314501D01*
X190122750Y-142284799D01*
X190225808Y-142311576D01*
X190282287Y-142348254D01*
X190348666Y-142431511D01*
X190398169Y-142664403D01*
X190371392Y-142767460D01*
X190334714Y-142823939D01*
X190251457Y-142890319D01*
X189971987Y-142949722D01*
X189868929Y-142922945D01*
X189812450Y-142886267D01*
G04 #@! TO.C,SW26*
X116122923Y-92837126D02*
X116252758Y-92913406D01*
X116485650Y-92962909D01*
X116588708Y-92936132D01*
X116645187Y-92899454D01*
X116711567Y-92816198D01*
X116731368Y-92723041D01*
X116704590Y-92619983D01*
X116667912Y-92563504D01*
X116584656Y-92497125D01*
X116408243Y-92410944D01*
X116324986Y-92344564D01*
X116288309Y-92288085D01*
X116261531Y-92185028D01*
X116281332Y-92091871D01*
X116347712Y-92008615D01*
X116404191Y-91971937D01*
X116507248Y-91945159D01*
X116740141Y-91994662D01*
X116869975Y-92070942D01*
X117205925Y-92093668D02*
X117230906Y-93121318D01*
X117565728Y-92462243D01*
X117603533Y-93200523D01*
X118044337Y-92271878D01*
X118350586Y-92434338D02*
X118407065Y-92397661D01*
X118510122Y-92370883D01*
X118743014Y-92420386D01*
X118826271Y-92486766D01*
X118862949Y-92543245D01*
X118889726Y-92646302D01*
X118869925Y-92739459D01*
X118793645Y-92869294D01*
X118115896Y-93309429D01*
X118721416Y-93438136D01*
X119767740Y-92638198D02*
X119581427Y-92598596D01*
X119478369Y-92625373D01*
X119421890Y-92662051D01*
X119299031Y-92781986D01*
X119212851Y-92958399D01*
X119133646Y-93331026D01*
X119160424Y-93434084D01*
X119197102Y-93490563D01*
X119280358Y-93556943D01*
X119466672Y-93596545D01*
X119569729Y-93569767D01*
X119626208Y-93533090D01*
X119692588Y-93449833D01*
X119742091Y-93216941D01*
X119715313Y-93113883D01*
X119678635Y-93057404D01*
X119595379Y-92991025D01*
X119409065Y-92951423D01*
X119306008Y-92978200D01*
X119249529Y-93014878D01*
X119183149Y-93098134D01*
G04 #@! TO.C,SW63*
X230040708Y-86519466D02*
X230190344Y-86536342D01*
X230423236Y-86486840D01*
X230506492Y-86420460D01*
X230543170Y-86363981D01*
X230569948Y-86260923D01*
X230550147Y-86167767D01*
X230483767Y-86084510D01*
X230427288Y-86047832D01*
X230324231Y-86021055D01*
X230128016Y-86014079D01*
X230024959Y-85987301D01*
X229968480Y-85950623D01*
X229902100Y-85867367D01*
X229882299Y-85774210D01*
X229909076Y-85671153D01*
X229945754Y-85614674D01*
X230029011Y-85548294D01*
X230261903Y-85498791D01*
X230411539Y-85515668D01*
X230727687Y-85399786D02*
X231168491Y-86328431D01*
X231206297Y-85590152D01*
X231541119Y-86249226D01*
X231566100Y-85221576D01*
X232357933Y-85053266D02*
X232171620Y-85092869D01*
X232088363Y-85159248D01*
X232051685Y-85215727D01*
X231988230Y-85375264D01*
X231981254Y-85571478D01*
X232060458Y-85944106D01*
X232126838Y-86027362D01*
X232183317Y-86064040D01*
X232286374Y-86090817D01*
X232472688Y-86051215D01*
X232555945Y-85984835D01*
X232592622Y-85928356D01*
X232619400Y-85825299D01*
X232569897Y-85592407D01*
X232503517Y-85509150D01*
X232447038Y-85472472D01*
X232343981Y-85445695D01*
X232157667Y-85485297D01*
X232074411Y-85551677D01*
X232037733Y-85608156D01*
X232010956Y-85711213D01*
X232777140Y-84964161D02*
X233382659Y-84835454D01*
X233135815Y-85277386D01*
X233275550Y-85247684D01*
X233378608Y-85274461D01*
X233435087Y-85311139D01*
X233501466Y-85394396D01*
X233550969Y-85627288D01*
X233524192Y-85730345D01*
X233487514Y-85786824D01*
X233404257Y-85853204D01*
X233124787Y-85912607D01*
X233021729Y-85885830D01*
X232965250Y-85849152D01*
G04 #@! TO.C,SW54*
X215084925Y-102733258D02*
X215234561Y-102750134D01*
X215467453Y-102700632D01*
X215550709Y-102634252D01*
X215587387Y-102577773D01*
X215614165Y-102474715D01*
X215594364Y-102381559D01*
X215527984Y-102298302D01*
X215471505Y-102261624D01*
X215368448Y-102234847D01*
X215172233Y-102227871D01*
X215069176Y-102201093D01*
X215012697Y-102164415D01*
X214946317Y-102081159D01*
X214926516Y-101988002D01*
X214953293Y-101884945D01*
X214989971Y-101828466D01*
X215073228Y-101762086D01*
X215306120Y-101712583D01*
X215455756Y-101729460D01*
X215771904Y-101613578D02*
X216212708Y-102542223D01*
X216250514Y-101803944D01*
X216585336Y-102463018D01*
X216610317Y-101435368D01*
X217448729Y-101257158D02*
X216982944Y-101356163D01*
X217035371Y-101831848D01*
X217072049Y-101775369D01*
X217155306Y-101708990D01*
X217388198Y-101659487D01*
X217491255Y-101686264D01*
X217547734Y-101722942D01*
X217614114Y-101806199D01*
X217663617Y-102039091D01*
X217636839Y-102142148D01*
X217600162Y-102198627D01*
X217516905Y-102265007D01*
X217284013Y-102314510D01*
X217180955Y-102287732D01*
X217124476Y-102251055D01*
X218403023Y-101395096D02*
X218541631Y-102047195D01*
X218090927Y-101071972D02*
X218006543Y-101820151D01*
X218612063Y-101691444D01*
G04 #@! TO.C,SW68*
X40394548Y-102810248D02*
X40524383Y-102886528D01*
X40757275Y-102936031D01*
X40860333Y-102909254D01*
X40916812Y-102872576D01*
X40983192Y-102789320D01*
X41002993Y-102696163D01*
X40976215Y-102593105D01*
X40939537Y-102536626D01*
X40856281Y-102470247D01*
X40679868Y-102384066D01*
X40596611Y-102317686D01*
X40559934Y-102261207D01*
X40533156Y-102158150D01*
X40552957Y-102064993D01*
X40619337Y-101981737D01*
X40675816Y-101945059D01*
X40778873Y-101918281D01*
X41011766Y-101967784D01*
X41141600Y-102044064D01*
X41477550Y-102066790D02*
X41502531Y-103094440D01*
X41837353Y-102435365D01*
X41875158Y-103173645D01*
X42315962Y-102245000D01*
X43107796Y-102413309D02*
X42921482Y-102373707D01*
X42818425Y-102400484D01*
X42761946Y-102437162D01*
X42639087Y-102557096D01*
X42552907Y-102733510D01*
X42473702Y-103106137D01*
X42500480Y-103209195D01*
X42537157Y-103265674D01*
X42620414Y-103332053D01*
X42806728Y-103371656D01*
X42909785Y-103344878D01*
X42966264Y-103308200D01*
X43032644Y-103224944D01*
X43082146Y-102992052D01*
X43055369Y-102888994D01*
X43018691Y-102832515D01*
X42935435Y-102766136D01*
X42749121Y-102726533D01*
X42646064Y-102753311D01*
X42589585Y-102789989D01*
X42523205Y-102873245D01*
X43670790Y-102971123D02*
X43587533Y-102904743D01*
X43550855Y-102848264D01*
X43524078Y-102745207D01*
X43533979Y-102698629D01*
X43600358Y-102615372D01*
X43656837Y-102578694D01*
X43759895Y-102551917D01*
X43946208Y-102591519D01*
X44029465Y-102657899D01*
X44066143Y-102714378D01*
X44092920Y-102817435D01*
X44083019Y-102864014D01*
X44016640Y-102947270D01*
X43960161Y-102983948D01*
X43857103Y-103010725D01*
X43670790Y-102971123D01*
X43567732Y-102997900D01*
X43511253Y-103034578D01*
X43444874Y-103117835D01*
X43405271Y-103304148D01*
X43432049Y-103407206D01*
X43468727Y-103463685D01*
X43551983Y-103530065D01*
X43738297Y-103569667D01*
X43841354Y-103542889D01*
X43897833Y-103506212D01*
X43964213Y-103422955D01*
X44003815Y-103236641D01*
X43977038Y-103133584D01*
X43940360Y-103077105D01*
X43857103Y-103010725D01*
G04 #@! TO.C,SW56*
X65953826Y-69138513D02*
X66083661Y-69214793D01*
X66316553Y-69264296D01*
X66419611Y-69237519D01*
X66476090Y-69200841D01*
X66542470Y-69117585D01*
X66562271Y-69024428D01*
X66535493Y-68921370D01*
X66498815Y-68864891D01*
X66415559Y-68798512D01*
X66239146Y-68712331D01*
X66155889Y-68645951D01*
X66119212Y-68589472D01*
X66092434Y-68486415D01*
X66112235Y-68393258D01*
X66178615Y-68310002D01*
X66235094Y-68273324D01*
X66338151Y-68246546D01*
X66571044Y-68296049D01*
X66700878Y-68372329D01*
X67036828Y-68395055D02*
X67061809Y-69422705D01*
X67396631Y-68763630D01*
X67434436Y-69501910D01*
X67875240Y-68573265D01*
X68713653Y-68751475D02*
X68247868Y-68652469D01*
X68102284Y-69108353D01*
X68158763Y-69071675D01*
X68261821Y-69044898D01*
X68494713Y-69094401D01*
X68577969Y-69160780D01*
X68614647Y-69217259D01*
X68641424Y-69320317D01*
X68591922Y-69553209D01*
X68525542Y-69636465D01*
X68469063Y-69673143D01*
X68366006Y-69699921D01*
X68133113Y-69650418D01*
X68049857Y-69584038D01*
X68013179Y-69527559D01*
X69598643Y-68939585D02*
X69412330Y-68899983D01*
X69309272Y-68926760D01*
X69252793Y-68963438D01*
X69129934Y-69083373D01*
X69043754Y-69259786D01*
X68964549Y-69632413D01*
X68991327Y-69735471D01*
X69028005Y-69791950D01*
X69111261Y-69858330D01*
X69297575Y-69897932D01*
X69400632Y-69871154D01*
X69457111Y-69834477D01*
X69523491Y-69751220D01*
X69572994Y-69518328D01*
X69546216Y-69415270D01*
X69509538Y-69358791D01*
X69426282Y-69292412D01*
X69239968Y-69252810D01*
X69136911Y-69279587D01*
X69080432Y-69316265D01*
X69014052Y-69399521D01*
G04 #@! TO.C,SW65*
X69488326Y-52510004D02*
X69618161Y-52586284D01*
X69851053Y-52635787D01*
X69954111Y-52609010D01*
X70010590Y-52572332D01*
X70076970Y-52489076D01*
X70096771Y-52395919D01*
X70069993Y-52292861D01*
X70033315Y-52236382D01*
X69950059Y-52170003D01*
X69773646Y-52083822D01*
X69690389Y-52017442D01*
X69653712Y-51960963D01*
X69626934Y-51857906D01*
X69646735Y-51764749D01*
X69713115Y-51681493D01*
X69769594Y-51644815D01*
X69872651Y-51618037D01*
X70105544Y-51667540D01*
X70235378Y-51743820D01*
X70571328Y-51766546D02*
X70596309Y-52794196D01*
X70931131Y-52135121D01*
X70968936Y-52873401D01*
X71409740Y-51944756D01*
X72201574Y-52113065D02*
X72015260Y-52073463D01*
X71912203Y-52100240D01*
X71855724Y-52136918D01*
X71732865Y-52256852D01*
X71646685Y-52433266D01*
X71567480Y-52805893D01*
X71594258Y-52908951D01*
X71630935Y-52965430D01*
X71714192Y-53031809D01*
X71900506Y-53071412D01*
X72003563Y-53044634D01*
X72060042Y-53007956D01*
X72126422Y-52924700D01*
X72175924Y-52691808D01*
X72149147Y-52588750D01*
X72112469Y-52532271D01*
X72029213Y-52465892D01*
X71842899Y-52426289D01*
X71739842Y-52453067D01*
X71683363Y-52489745D01*
X71616983Y-52573001D01*
X73179722Y-52320977D02*
X72713937Y-52221971D01*
X72568353Y-52677855D01*
X72624832Y-52641177D01*
X72727890Y-52614400D01*
X72960782Y-52663903D01*
X73044038Y-52730282D01*
X73080716Y-52786761D01*
X73107494Y-52889819D01*
X73057991Y-53122711D01*
X72991611Y-53205968D01*
X72935132Y-53242645D01*
X72832075Y-53269423D01*
X72599182Y-53219920D01*
X72515926Y-53153540D01*
X72479248Y-53097061D01*
G04 #@! TO.C,SW35*
X103818014Y-64151953D02*
X103947849Y-64228233D01*
X104180741Y-64277736D01*
X104283799Y-64250959D01*
X104340278Y-64214281D01*
X104406658Y-64131025D01*
X104426459Y-64037868D01*
X104399681Y-63934810D01*
X104363003Y-63878331D01*
X104279747Y-63811952D01*
X104103334Y-63725771D01*
X104020077Y-63659391D01*
X103983400Y-63602912D01*
X103956622Y-63499855D01*
X103976423Y-63406698D01*
X104042803Y-63323442D01*
X104099282Y-63286764D01*
X104202339Y-63259986D01*
X104435232Y-63309489D01*
X104565066Y-63385769D01*
X104901016Y-63408495D02*
X104925997Y-64436145D01*
X105260819Y-63777070D01*
X105298624Y-64515350D01*
X105739428Y-63586705D01*
X106018899Y-63646108D02*
X106624419Y-63774815D01*
X106219165Y-64078139D01*
X106358901Y-64107841D01*
X106442157Y-64174220D01*
X106478835Y-64230699D01*
X106505612Y-64333757D01*
X106456110Y-64566649D01*
X106389730Y-64649905D01*
X106333251Y-64686583D01*
X106230194Y-64713361D01*
X105950723Y-64653957D01*
X105867467Y-64587578D01*
X105830789Y-64531099D01*
X107509410Y-63962926D02*
X107043625Y-63863920D01*
X106898041Y-64319804D01*
X106954520Y-64283126D01*
X107057578Y-64256349D01*
X107290470Y-64305852D01*
X107373726Y-64372231D01*
X107410404Y-64428710D01*
X107437182Y-64531768D01*
X107387679Y-64764660D01*
X107321299Y-64847917D01*
X107264820Y-64884594D01*
X107161763Y-64911372D01*
X106928870Y-64861869D01*
X106845614Y-64795489D01*
X106808936Y-64739010D01*
G04 #@! TO.C,SW82*
X262603147Y-66563262D02*
X262752783Y-66580138D01*
X262985675Y-66530636D01*
X263068931Y-66464256D01*
X263105609Y-66407777D01*
X263132387Y-66304719D01*
X263112586Y-66211563D01*
X263046206Y-66128306D01*
X262989727Y-66091628D01*
X262886670Y-66064851D01*
X262690455Y-66057875D01*
X262587398Y-66031097D01*
X262530919Y-65994419D01*
X262464539Y-65911163D01*
X262444738Y-65818006D01*
X262471515Y-65714949D01*
X262508193Y-65658470D01*
X262591450Y-65592090D01*
X262824342Y-65542587D01*
X262973978Y-65559464D01*
X263290126Y-65443582D02*
X263730930Y-66372227D01*
X263768736Y-65633948D01*
X264103558Y-66293022D01*
X264128539Y-65265372D01*
X264730007Y-65575672D02*
X264626949Y-65548894D01*
X264570470Y-65512217D01*
X264504091Y-65428960D01*
X264494190Y-65382382D01*
X264520967Y-65279324D01*
X264557645Y-65222845D01*
X264640902Y-65156466D01*
X264827215Y-65116863D01*
X264930273Y-65143641D01*
X264986752Y-65180319D01*
X265053132Y-65263575D01*
X265063032Y-65310154D01*
X265036255Y-65413211D01*
X264999577Y-65469690D01*
X264916321Y-65536070D01*
X264730007Y-65575672D01*
X264646750Y-65642051D01*
X264610072Y-65698530D01*
X264583295Y-65801588D01*
X264622897Y-65987902D01*
X264689277Y-66071158D01*
X264745756Y-66107836D01*
X264848813Y-66134613D01*
X265035127Y-66095011D01*
X265118384Y-66028631D01*
X265155061Y-65972152D01*
X265181839Y-65869095D01*
X265142237Y-65682781D01*
X265075857Y-65599525D01*
X265019378Y-65562847D01*
X264916321Y-65536070D01*
X265405958Y-65091214D02*
X265442636Y-65034735D01*
X265525892Y-64968355D01*
X265758785Y-64918852D01*
X265861842Y-64945630D01*
X265918321Y-64982308D01*
X265984701Y-65065564D01*
X266004502Y-65158721D01*
X265987625Y-65308357D01*
X265547490Y-65986105D01*
X266153010Y-65857398D01*
G04 #@! TO.C,SW61*
X222971710Y-53262447D02*
X223121346Y-53279323D01*
X223354238Y-53229821D01*
X223437494Y-53163441D01*
X223474172Y-53106962D01*
X223500950Y-53003904D01*
X223481149Y-52910748D01*
X223414769Y-52827491D01*
X223358290Y-52790813D01*
X223255233Y-52764036D01*
X223059018Y-52757060D01*
X222955961Y-52730282D01*
X222899482Y-52693604D01*
X222833102Y-52610348D01*
X222813301Y-52517191D01*
X222840078Y-52414134D01*
X222876756Y-52357655D01*
X222960013Y-52291275D01*
X223192905Y-52241772D01*
X223342541Y-52258649D01*
X223658689Y-52142767D02*
X224099493Y-53071412D01*
X224137299Y-52333133D01*
X224472121Y-52992207D01*
X224497102Y-51964557D01*
X225288935Y-51796247D02*
X225102622Y-51835850D01*
X225019365Y-51902229D01*
X224982687Y-51958708D01*
X224919232Y-52118245D01*
X224912256Y-52314459D01*
X224991460Y-52687087D01*
X225057840Y-52770343D01*
X225114319Y-52807021D01*
X225217376Y-52833798D01*
X225403690Y-52794196D01*
X225486947Y-52727816D01*
X225523624Y-52671337D01*
X225550402Y-52568280D01*
X225500899Y-52335388D01*
X225434519Y-52252131D01*
X225378040Y-52215453D01*
X225274983Y-52188676D01*
X225088669Y-52228278D01*
X225005413Y-52294658D01*
X224968735Y-52351137D01*
X224941958Y-52454194D01*
X226521573Y-52556583D02*
X225962632Y-52675389D01*
X226242102Y-52615986D02*
X226034191Y-51637838D01*
X225970735Y-51797375D01*
X225897380Y-51910333D01*
X225814123Y-51976713D01*
G04 #@! TO.C,SW25*
X119657422Y-76208617D02*
X119787257Y-76284897D01*
X120020149Y-76334400D01*
X120123207Y-76307623D01*
X120179686Y-76270945D01*
X120246066Y-76187689D01*
X120265867Y-76094532D01*
X120239089Y-75991474D01*
X120202411Y-75934995D01*
X120119155Y-75868616D01*
X119942742Y-75782435D01*
X119859485Y-75716055D01*
X119822808Y-75659576D01*
X119796030Y-75556519D01*
X119815831Y-75463362D01*
X119882211Y-75380106D01*
X119938690Y-75343428D01*
X120041747Y-75316650D01*
X120274640Y-75366153D01*
X120404474Y-75442433D01*
X120740424Y-75465159D02*
X120765405Y-76492809D01*
X121100227Y-75833734D01*
X121138032Y-76572014D01*
X121578836Y-75643369D01*
X121885085Y-75805829D02*
X121941564Y-75769152D01*
X122044621Y-75742374D01*
X122277513Y-75791877D01*
X122360770Y-75858257D01*
X122397448Y-75914736D01*
X122424225Y-76017793D01*
X122404424Y-76110950D01*
X122328144Y-76240785D01*
X121650395Y-76680920D01*
X122255915Y-76809627D01*
X123348818Y-76019590D02*
X122883033Y-75920584D01*
X122737449Y-76376468D01*
X122793928Y-76339790D01*
X122896986Y-76313013D01*
X123129878Y-76362516D01*
X123213134Y-76428895D01*
X123249812Y-76485374D01*
X123276590Y-76588432D01*
X123227087Y-76821324D01*
X123160707Y-76904581D01*
X123104228Y-76941258D01*
X123001171Y-76968036D01*
X122768278Y-76918533D01*
X122685022Y-76852153D01*
X122648344Y-76795674D01*
G04 #@! TO.C,SW73*
X248530989Y-86934182D02*
X248680625Y-86951058D01*
X248913517Y-86901556D01*
X248996773Y-86835176D01*
X249033451Y-86778697D01*
X249060229Y-86675639D01*
X249040428Y-86582483D01*
X248974048Y-86499226D01*
X248917569Y-86462548D01*
X248814512Y-86435771D01*
X248618297Y-86428795D01*
X248515240Y-86402017D01*
X248458761Y-86365339D01*
X248392381Y-86282083D01*
X248372580Y-86188926D01*
X248399357Y-86085869D01*
X248436035Y-86029390D01*
X248519292Y-85963010D01*
X248752184Y-85913507D01*
X248901820Y-85930384D01*
X249217968Y-85814502D02*
X249658772Y-86743147D01*
X249696578Y-86004868D01*
X250031400Y-86663942D01*
X250056381Y-85636292D01*
X250335851Y-85576888D02*
X250987950Y-85438281D01*
X250776655Y-86505533D01*
X251267421Y-85378877D02*
X251872940Y-85250170D01*
X251626096Y-85692102D01*
X251765831Y-85662400D01*
X251868889Y-85689177D01*
X251925368Y-85725855D01*
X251991747Y-85809112D01*
X252041250Y-86042004D01*
X252014473Y-86145061D01*
X251977795Y-86201540D01*
X251894538Y-86267920D01*
X251615068Y-86327323D01*
X251512010Y-86300546D01*
X251455531Y-86263868D01*
D12*
G04 #@! TO.C,D260*
X190755000Y-141300000D02*
X190755000Y-141300000D01*
X189455000Y-141300000D02*
X189455000Y-141300000D01*
G04 #@! TO.C,D259*
X173400000Y-145250000D02*
X173400000Y-145250000D01*
X172100000Y-145250000D02*
X172100000Y-145250000D01*
G04 #@! TO.C,D258*
X109900000Y-144750000D02*
X109900000Y-144750000D01*
X108600000Y-144750000D02*
X108600000Y-144750000D01*
G04 #@! TO.C,D257*
X91900000Y-140750000D02*
X91900000Y-140750000D01*
X90600000Y-140750000D02*
X90600000Y-140750000D01*
G04 #@! TO.C,D256*
X205900000Y-129750000D02*
X205900000Y-129750000D01*
X204600000Y-129750000D02*
X204600000Y-129750000D01*
G04 #@! TO.C,D255*
X197900000Y-131250000D02*
X197900000Y-131250000D01*
X196600000Y-131250000D02*
X196600000Y-131250000D01*
G04 #@! TO.C,D254*
X188400000Y-133250000D02*
X188400000Y-133250000D01*
X187100000Y-133250000D02*
X187100000Y-133250000D01*
G04 #@! TO.C,D253*
X180400000Y-135250000D02*
X180400000Y-135250000D01*
X179100000Y-135250000D02*
X179100000Y-135250000D01*
G04 #@! TO.C,D252*
X170900000Y-137000000D02*
X170900000Y-137000000D01*
X169600000Y-137000000D02*
X169600000Y-137000000D01*
G04 #@! TO.C,D251*
X163400000Y-138750000D02*
X163400000Y-138750000D01*
X162100000Y-138750000D02*
X162100000Y-138750000D01*
G04 #@! TO.C,D250*
X128400000Y-138750000D02*
X128400000Y-138750000D01*
X127100000Y-138750000D02*
X127100000Y-138750000D01*
G04 #@! TO.C,D249*
X119400000Y-136500000D02*
X119400000Y-136500000D01*
X118100000Y-136500000D02*
X118100000Y-136500000D01*
G04 #@! TO.C,D248*
X110600000Y-134750000D02*
X110600000Y-134750000D01*
X109300000Y-134750000D02*
X109300000Y-134750000D01*
G04 #@! TO.C,D247*
X101900000Y-133250000D02*
X101900000Y-133250000D01*
X100600000Y-133250000D02*
X100600000Y-133250000D01*
G04 #@! TO.C,D246*
X92900000Y-130750000D02*
X92900000Y-130750000D01*
X91600000Y-130750000D02*
X91600000Y-130750000D01*
G04 #@! TO.C,D245*
X84900000Y-129750000D02*
X84900000Y-129750000D01*
X83600000Y-129750000D02*
X83600000Y-129750000D01*
G04 #@! TO.C,D244*
X186900000Y-124250000D02*
X186900000Y-124250000D01*
X185600000Y-124250000D02*
X185600000Y-124250000D01*
G04 #@! TO.C,D243*
X169900000Y-128600000D02*
X169900000Y-128600000D01*
X168600000Y-128600000D02*
X168600000Y-128600000D01*
G04 #@! TO.C,D242*
X130900000Y-130750000D02*
X130900000Y-130750000D01*
X129600000Y-130750000D02*
X129600000Y-130750000D01*
G04 #@! TO.C,D241*
X112900000Y-126900000D02*
X112900000Y-126900000D01*
X111600000Y-126900000D02*
X111600000Y-126900000D01*
G04 #@! TO.C,D240*
X202900000Y-112750000D02*
X202900000Y-112750000D01*
X201600000Y-112750000D02*
X201600000Y-112750000D01*
G04 #@! TO.C,D239*
X184400000Y-115750000D02*
X184400000Y-115750000D01*
X183100000Y-115750000D02*
X183100000Y-115750000D01*
G04 #@! TO.C,D238*
X176400000Y-117750000D02*
X176400000Y-117750000D01*
X175100000Y-117750000D02*
X175100000Y-117750000D01*
G04 #@! TO.C,D237*
X167400000Y-119250000D02*
X167400000Y-119250000D01*
X166100000Y-119250000D02*
X166100000Y-119250000D01*
G04 #@! TO.C,D236*
X158900000Y-121250000D02*
X158900000Y-121250000D01*
X157600000Y-121250000D02*
X157600000Y-121250000D01*
G04 #@! TO.C,D235*
X131400000Y-120750000D02*
X131400000Y-120750000D01*
X130100000Y-120750000D02*
X130100000Y-120750000D01*
G04 #@! TO.C,D234*
X123400000Y-119750000D02*
X123400000Y-119750000D01*
X122100000Y-119750000D02*
X122100000Y-119750000D01*
G04 #@! TO.C,D233*
X114400000Y-117250000D02*
X114400000Y-117250000D01*
X113100000Y-117250000D02*
X113100000Y-117250000D01*
G04 #@! TO.C,D232*
X106400000Y-116250000D02*
X106400000Y-116250000D01*
X105100000Y-116250000D02*
X105100000Y-116250000D01*
G04 #@! TO.C,D231*
X97400000Y-115250000D02*
X97400000Y-115250000D01*
X96100000Y-115250000D02*
X96100000Y-115250000D01*
G04 #@! TO.C,D230*
X273400000Y-97750000D02*
X273400000Y-97750000D01*
X272100000Y-97750000D02*
X272100000Y-97750000D01*
G04 #@! TO.C,D229*
X256400000Y-101750000D02*
X256400000Y-101750000D01*
X255100000Y-101750000D02*
X255100000Y-101750000D01*
G04 #@! TO.C,D228*
X237400000Y-101250000D02*
X237400000Y-101250000D01*
X236100000Y-101250000D02*
X236100000Y-101250000D01*
G04 #@! TO.C,D227*
X218900000Y-100750000D02*
X218900000Y-100750000D01*
X217600000Y-100750000D02*
X217600000Y-100750000D01*
G04 #@! TO.C,D226*
X200400000Y-104250000D02*
X200400000Y-104250000D01*
X199100000Y-104250000D02*
X199100000Y-104250000D01*
G04 #@! TO.C,D225*
X192400000Y-106250000D02*
X192400000Y-106250000D01*
X191100000Y-106250000D02*
X191100000Y-106250000D01*
G04 #@! TO.C,D224*
X183900000Y-108250000D02*
X183900000Y-108250000D01*
X182600000Y-108250000D02*
X182600000Y-108250000D01*
G04 #@! TO.C,D223*
X116400000Y-110750000D02*
X116400000Y-110750000D01*
X115100000Y-110750000D02*
X115100000Y-110750000D01*
G04 #@! TO.C,D222*
X98900000Y-106250000D02*
X98900000Y-106250000D01*
X97600000Y-106250000D02*
X97600000Y-106250000D01*
G04 #@! TO.C,D221*
X89900000Y-104250000D02*
X89900000Y-104250000D01*
X88600000Y-104250000D02*
X88600000Y-104250000D01*
G04 #@! TO.C,D220*
X81400000Y-103250000D02*
X81400000Y-103250000D01*
X80100000Y-103250000D02*
X80100000Y-103250000D01*
G04 #@! TO.C,D219*
X62900000Y-103250000D02*
X62900000Y-103250000D01*
X61600000Y-103250000D02*
X61600000Y-103250000D01*
G04 #@! TO.C,D218*
X44400000Y-103750000D02*
X44400000Y-103750000D01*
X43100000Y-103750000D02*
X43100000Y-103750000D01*
G04 #@! TO.C,D217*
X26900000Y-100250000D02*
X26900000Y-100250000D01*
X25600000Y-100250000D02*
X25600000Y-100250000D01*
G04 #@! TO.C,D216*
X271400000Y-89250000D02*
X271400000Y-89250000D01*
X270100000Y-89250000D02*
X270100000Y-89250000D01*
G04 #@! TO.C,D215*
X262900000Y-91250000D02*
X262900000Y-91250000D01*
X261600000Y-91250000D02*
X261600000Y-91250000D01*
G04 #@! TO.C,D214*
X253400000Y-93250000D02*
X253400000Y-93250000D01*
X252100000Y-93250000D02*
X252100000Y-93250000D01*
G04 #@! TO.C,D213*
X245400000Y-94750000D02*
X245400000Y-94750000D01*
X244100000Y-94750000D02*
X244100000Y-94750000D01*
G04 #@! TO.C,D212*
X234900000Y-92750000D02*
X234900000Y-92750000D01*
X233600000Y-92750000D02*
X233600000Y-92750000D01*
G04 #@! TO.C,D211*
X226900000Y-93750000D02*
X226900000Y-93750000D01*
X225600000Y-93750000D02*
X225600000Y-93750000D01*
G04 #@! TO.C,D210*
X217400000Y-92250000D02*
X217400000Y-92250000D01*
X216100000Y-92250000D02*
X216100000Y-92250000D01*
G04 #@! TO.C,D209*
X208400000Y-94250000D02*
X208400000Y-94250000D01*
X207100000Y-94250000D02*
X207100000Y-94250000D01*
G04 #@! TO.C,D208*
X199900000Y-96250000D02*
X199900000Y-96250000D01*
X198600000Y-96250000D02*
X198600000Y-96250000D01*
G04 #@! TO.C,D207*
X181400000Y-99750000D02*
X181400000Y-99750000D01*
X180100000Y-99750000D02*
X180100000Y-99750000D01*
G04 #@! TO.C,D206*
X173400000Y-101750000D02*
X173400000Y-101750000D01*
X172100000Y-101750000D02*
X172100000Y-101750000D01*
G04 #@! TO.C,D205*
X117900000Y-101250000D02*
X117900000Y-101250000D01*
X116600000Y-101250000D02*
X116600000Y-101250000D01*
G04 #@! TO.C,D204*
X109400000Y-99750000D02*
X109400000Y-99750000D01*
X108100000Y-99750000D02*
X108100000Y-99750000D01*
G04 #@! TO.C,D203*
X101400000Y-98250000D02*
X101400000Y-98250000D01*
X100100000Y-98250000D02*
X100100000Y-98250000D01*
G04 #@! TO.C,D202*
X82400000Y-93250000D02*
X82400000Y-93250000D01*
X81100000Y-93250000D02*
X81100000Y-93250000D01*
G04 #@! TO.C,D201*
X73400000Y-92250000D02*
X73400000Y-92250000D01*
X72100000Y-92250000D02*
X72100000Y-92250000D01*
G04 #@! TO.C,D200*
X63400000Y-93750000D02*
X63400000Y-93750000D01*
X62100000Y-93750000D02*
X62100000Y-93750000D01*
G04 #@! TO.C,D199*
X55400000Y-92750000D02*
X55400000Y-92750000D01*
X54100000Y-92750000D02*
X54100000Y-92750000D01*
G04 #@! TO.C,D198*
X45900000Y-94750000D02*
X45900000Y-94750000D01*
X44600000Y-94750000D02*
X44600000Y-94750000D01*
G04 #@! TO.C,D197*
X36900000Y-92750000D02*
X36900000Y-92750000D01*
X35600000Y-92750000D02*
X35600000Y-92750000D01*
G04 #@! TO.C,D196*
X27900000Y-90750000D02*
X27900000Y-90750000D01*
X26600000Y-90750000D02*
X26600000Y-90750000D01*
G04 #@! TO.C,D195*
X19400000Y-89250000D02*
X19400000Y-89250000D01*
X18100000Y-89250000D02*
X18100000Y-89250000D01*
G04 #@! TO.C,D194*
X269400000Y-80750000D02*
X269400000Y-80750000D01*
X268100000Y-80750000D02*
X268100000Y-80750000D01*
G04 #@! TO.C,D193*
X251900000Y-84750000D02*
X251900000Y-84750000D01*
X250600000Y-84750000D02*
X250600000Y-84750000D01*
G04 #@! TO.C,D192*
X234400000Y-84750000D02*
X234400000Y-84750000D01*
X233100000Y-84750000D02*
X233100000Y-84750000D01*
G04 #@! TO.C,D191*
X215900000Y-84250000D02*
X215900000Y-84250000D01*
X214600000Y-84250000D02*
X214600000Y-84250000D01*
G04 #@! TO.C,D190*
X196900000Y-87750000D02*
X196900000Y-87750000D01*
X195600000Y-87750000D02*
X195600000Y-87750000D01*
G04 #@! TO.C,D189*
X189400000Y-89250000D02*
X189400000Y-89250000D01*
X188100000Y-89250000D02*
X188100000Y-89250000D01*
G04 #@! TO.C,D188*
X180400000Y-91750000D02*
X180400000Y-91750000D01*
X179100000Y-91750000D02*
X179100000Y-91750000D01*
G04 #@! TO.C,D187*
X120400000Y-93750000D02*
X120400000Y-93750000D01*
X119100000Y-93750000D02*
X119100000Y-93750000D01*
G04 #@! TO.C,D186*
X102900000Y-89750000D02*
X102900000Y-89750000D01*
X101600000Y-89750000D02*
X101600000Y-89750000D01*
G04 #@! TO.C,D185*
X94400000Y-87750000D02*
X94400000Y-87750000D01*
X93100000Y-87750000D02*
X93100000Y-87750000D01*
G04 #@! TO.C,D184*
X84900000Y-86250000D02*
X84900000Y-86250000D01*
X83600000Y-86250000D02*
X83600000Y-86250000D01*
G04 #@! TO.C,D183*
X66400000Y-86750000D02*
X66400000Y-86750000D01*
X65100000Y-86750000D02*
X65100000Y-86750000D01*
G04 #@! TO.C,D182*
X47900000Y-87250000D02*
X47900000Y-87250000D01*
X46600000Y-87250000D02*
X46600000Y-87250000D01*
G04 #@! TO.C,D181*
X30400000Y-83750000D02*
X30400000Y-83750000D01*
X29100000Y-83750000D02*
X29100000Y-83750000D01*
G04 #@! TO.C,D180*
X267900000Y-72750000D02*
X267900000Y-72750000D01*
X266600000Y-72750000D02*
X266600000Y-72750000D01*
G04 #@! TO.C,D179*
X259900000Y-74750000D02*
X259900000Y-74750000D01*
X258600000Y-74750000D02*
X258600000Y-74750000D01*
G04 #@! TO.C,D178*
X249900000Y-76750000D02*
X249900000Y-76750000D01*
X248600000Y-76750000D02*
X248600000Y-76750000D01*
G04 #@! TO.C,D177*
X242400000Y-77750000D02*
X242400000Y-77750000D01*
X241100000Y-77750000D02*
X241100000Y-77750000D01*
G04 #@! TO.C,D176*
X231400000Y-76250000D02*
X231400000Y-76250000D01*
X230100000Y-76250000D02*
X230100000Y-76250000D01*
G04 #@! TO.C,D175*
X223400000Y-77250000D02*
X223400000Y-77250000D01*
X222100000Y-77250000D02*
X222100000Y-77250000D01*
G04 #@! TO.C,D174*
X212900000Y-75250000D02*
X212900000Y-75250000D01*
X211600000Y-75250000D02*
X211600000Y-75250000D01*
G04 #@! TO.C,D173*
X204900000Y-77750000D02*
X204900000Y-77750000D01*
X203600000Y-77750000D02*
X203600000Y-77750000D01*
G04 #@! TO.C,D172*
X196400000Y-79750000D02*
X196400000Y-79750000D01*
X195100000Y-79750000D02*
X195100000Y-79750000D01*
G04 #@! TO.C,D171*
X177900000Y-83250000D02*
X177900000Y-83250000D01*
X176600000Y-83250000D02*
X176600000Y-83250000D01*
G04 #@! TO.C,D170*
X169400000Y-85000000D02*
X169400000Y-85000000D01*
X168100000Y-85000000D02*
X168100000Y-85000000D01*
G04 #@! TO.C,D169*
X121400000Y-84750000D02*
X121400000Y-84750000D01*
X120100000Y-84750000D02*
X120100000Y-84750000D01*
G04 #@! TO.C,D168*
X112900000Y-82750000D02*
X112900000Y-82750000D01*
X111600000Y-82750000D02*
X111600000Y-82750000D01*
G04 #@! TO.C,D167*
X104700000Y-82250000D02*
X104700000Y-82250000D01*
X103400000Y-82250000D02*
X103400000Y-82250000D01*
G04 #@! TO.C,D166*
X85900000Y-77250000D02*
X85900000Y-77250000D01*
X84600000Y-77250000D02*
X84600000Y-77250000D01*
G04 #@! TO.C,D165*
X76900000Y-75250000D02*
X76900000Y-75250000D01*
X75600000Y-75250000D02*
X75600000Y-75250000D01*
G04 #@! TO.C,D164*
X67900000Y-77250000D02*
X67900000Y-77250000D01*
X66600000Y-77250000D02*
X66600000Y-77250000D01*
G04 #@! TO.C,D163*
X58900000Y-76250000D02*
X58900000Y-76250000D01*
X57600000Y-76250000D02*
X57600000Y-76250000D01*
G04 #@! TO.C,D162*
X48900000Y-77750000D02*
X48900000Y-77750000D01*
X47600000Y-77750000D02*
X47600000Y-77750000D01*
G04 #@! TO.C,D161*
X40400000Y-76250000D02*
X40400000Y-76250000D01*
X39100000Y-76250000D02*
X39100000Y-76250000D01*
G04 #@! TO.C,D160*
X31900000Y-73750000D02*
X31900000Y-73750000D01*
X30600000Y-73750000D02*
X30600000Y-73750000D01*
G04 #@! TO.C,D159*
X22900000Y-72750000D02*
X22900000Y-72750000D01*
X21600000Y-72750000D02*
X21600000Y-72750000D01*
G04 #@! TO.C,D158*
X266400000Y-64250000D02*
X266400000Y-64250000D01*
X265100000Y-64250000D02*
X265100000Y-64250000D01*
G04 #@! TO.C,D157*
X248400000Y-68250000D02*
X248400000Y-68250000D01*
X247100000Y-68250000D02*
X247100000Y-68250000D01*
G04 #@! TO.C,D156*
X229900000Y-67750000D02*
X229900000Y-67750000D01*
X228600000Y-67750000D02*
X228600000Y-67750000D01*
G04 #@! TO.C,D155*
X211400000Y-67250000D02*
X211400000Y-67250000D01*
X210100000Y-67250000D02*
X210100000Y-67250000D01*
G04 #@! TO.C,D154*
X193900000Y-71250000D02*
X193900000Y-71250000D01*
X192600000Y-71250000D02*
X192600000Y-71250000D01*
G04 #@! TO.C,D153*
X185200000Y-72750000D02*
X185200000Y-72750000D01*
X183900000Y-72750000D02*
X183900000Y-72750000D01*
G04 #@! TO.C,D152*
X176400000Y-74750000D02*
X176400000Y-74750000D01*
X175100000Y-74750000D02*
X175100000Y-74750000D01*
G04 #@! TO.C,D151*
X123900000Y-77250000D02*
X123900000Y-77250000D01*
X122600000Y-77250000D02*
X122600000Y-77250000D01*
G04 #@! TO.C,D150*
X105400000Y-71750000D02*
X105400000Y-71750000D01*
X104100000Y-71750000D02*
X104100000Y-71750000D01*
G04 #@! TO.C,D149*
X97400000Y-70750000D02*
X97400000Y-70750000D01*
X96100000Y-70750000D02*
X96100000Y-70750000D01*
G04 #@! TO.C,D148*
X88400000Y-69750000D02*
X88400000Y-69750000D01*
X87100000Y-69750000D02*
X87100000Y-69750000D01*
G04 #@! TO.C,D147*
X69900000Y-70250000D02*
X69900000Y-70250000D01*
X68600000Y-70250000D02*
X68600000Y-70250000D01*
G04 #@! TO.C,D146*
X51900000Y-71250000D02*
X51900000Y-71250000D01*
X50600000Y-71250000D02*
X50600000Y-71250000D01*
G04 #@! TO.C,D145*
X33900000Y-67250000D02*
X33900000Y-67250000D01*
X32600000Y-67250000D02*
X32600000Y-67250000D01*
G04 #@! TO.C,D144*
X263900000Y-56250000D02*
X263900000Y-56250000D01*
X262600000Y-56250000D02*
X262600000Y-56250000D01*
G04 #@! TO.C,D143*
X256400000Y-58250000D02*
X256400000Y-58250000D01*
X255100000Y-58250000D02*
X255100000Y-58250000D01*
G04 #@! TO.C,D142*
X246400000Y-59750000D02*
X246400000Y-59750000D01*
X245100000Y-59750000D02*
X245100000Y-59750000D01*
G04 #@! TO.C,D141*
X238900000Y-61750000D02*
X238900000Y-61750000D01*
X237600000Y-61750000D02*
X237600000Y-61750000D01*
G04 #@! TO.C,D140*
X228400000Y-59250000D02*
X228400000Y-59250000D01*
X227100000Y-59250000D02*
X227100000Y-59250000D01*
G04 #@! TO.C,D139*
X219900000Y-61250000D02*
X219900000Y-61250000D01*
X218600000Y-61250000D02*
X218600000Y-61250000D01*
G04 #@! TO.C,D138*
X209900000Y-58750000D02*
X209900000Y-58750000D01*
X208600000Y-58750000D02*
X208600000Y-58750000D01*
G04 #@! TO.C,D137*
X201400000Y-60750000D02*
X201400000Y-60750000D01*
X200100000Y-60750000D02*
X200100000Y-60750000D01*
G04 #@! TO.C,D136*
X193400000Y-63250000D02*
X193400000Y-63250000D01*
X192100000Y-63250000D02*
X192100000Y-63250000D01*
G04 #@! TO.C,D135*
X174400000Y-66750000D02*
X174400000Y-66750000D01*
X173100000Y-66750000D02*
X173100000Y-66750000D01*
G04 #@! TO.C,D134*
X165900000Y-68750000D02*
X165900000Y-68750000D01*
X164600000Y-68750000D02*
X164600000Y-68750000D01*
G04 #@! TO.C,D133*
X125400000Y-68250000D02*
X125400000Y-68250000D01*
X124100000Y-68250000D02*
X124100000Y-68250000D01*
G04 #@! TO.C,D132*
X116400000Y-66250000D02*
X116400000Y-66250000D01*
X115100000Y-66250000D02*
X115100000Y-66250000D01*
G04 #@! TO.C,D131*
X107900000Y-64250000D02*
X107900000Y-64250000D01*
X106600000Y-64250000D02*
X106600000Y-64250000D01*
G04 #@! TO.C,D130*
X89400000Y-60250000D02*
X89400000Y-60250000D01*
X88100000Y-60250000D02*
X88100000Y-60250000D01*
G04 #@! TO.C,D129*
X80900000Y-58750000D02*
X80900000Y-58750000D01*
X79600000Y-58750000D02*
X79600000Y-58750000D01*
G04 #@! TO.C,D128*
X70900000Y-60750000D02*
X70900000Y-60750000D01*
X69600000Y-60750000D02*
X69600000Y-60750000D01*
G04 #@! TO.C,D127*
X62400000Y-59250000D02*
X62400000Y-59250000D01*
X61100000Y-59250000D02*
X61100000Y-59250000D01*
G04 #@! TO.C,D126*
X52400000Y-61250000D02*
X52400000Y-61250000D01*
X51100000Y-61250000D02*
X51100000Y-61250000D01*
G04 #@! TO.C,D125*
X44400000Y-60250000D02*
X44400000Y-60250000D01*
X43100000Y-60250000D02*
X43100000Y-60250000D01*
G04 #@! TO.C,D124*
X34900000Y-57750000D02*
X34900000Y-57750000D01*
X33600000Y-57750000D02*
X33600000Y-57750000D01*
G04 #@! TO.C,D123*
X26400000Y-56250000D02*
X26400000Y-56250000D01*
X25100000Y-56250000D02*
X25100000Y-56250000D01*
G04 #@! TO.C,D122*
X246400000Y-51750000D02*
X246400000Y-51750000D01*
X245100000Y-51750000D02*
X245100000Y-51750000D01*
G04 #@! TO.C,D121*
X226900000Y-51250000D02*
X226900000Y-51250000D01*
X225600000Y-51250000D02*
X225600000Y-51250000D01*
G04 #@! TO.C,D120*
X207400000Y-50750000D02*
X207400000Y-50750000D01*
X206100000Y-50750000D02*
X206100000Y-50750000D01*
G04 #@! TO.C,D119*
X190400000Y-54250000D02*
X190400000Y-54250000D01*
X189100000Y-54250000D02*
X189100000Y-54250000D01*
G04 #@! TO.C,D118*
X182400000Y-56250000D02*
X182400000Y-56250000D01*
X181100000Y-56250000D02*
X181100000Y-56250000D01*
G04 #@! TO.C,D117*
X108900000Y-55750000D02*
X108900000Y-55750000D01*
X107600000Y-55750000D02*
X107600000Y-55750000D01*
G04 #@! TO.C,D116*
X100400000Y-54250000D02*
X100400000Y-54250000D01*
X99100000Y-54250000D02*
X99100000Y-54250000D01*
G04 #@! TO.C,D115*
X92400000Y-53250000D02*
X92400000Y-53250000D01*
X91100000Y-53250000D02*
X91100000Y-53250000D01*
G04 #@! TO.C,D114*
X73900000Y-53750000D02*
X73900000Y-53750000D01*
X72600000Y-53750000D02*
X72600000Y-53750000D01*
G04 #@! TO.C,D113*
X55400000Y-54250000D02*
X55400000Y-54250000D01*
X54100000Y-54250000D02*
X54100000Y-54250000D01*
G04 #@! TO.C,D112*
X242900000Y-43250000D02*
X242900000Y-43250000D01*
X241600000Y-43250000D02*
X241600000Y-43250000D01*
G04 #@! TO.C,D111*
X234900000Y-45250000D02*
X234900000Y-45250000D01*
X233600000Y-45250000D02*
X233600000Y-45250000D01*
G04 #@! TO.C,D110*
X224400000Y-42750000D02*
X224400000Y-42750000D01*
X223100000Y-42750000D02*
X223100000Y-42750000D01*
G04 #@! TO.C,D109*
X216400000Y-44750000D02*
X216400000Y-44750000D01*
X215100000Y-44750000D02*
X215100000Y-44750000D01*
G04 #@! TO.C,D108*
X205900000Y-42750000D02*
X205900000Y-42750000D01*
X204600000Y-42750000D02*
X204600000Y-42750000D01*
G04 #@! TO.C,D107*
X197900000Y-44250000D02*
X197900000Y-44250000D01*
X196600000Y-44250000D02*
X196600000Y-44250000D01*
G04 #@! TO.C,D106*
X93400000Y-43750000D02*
X93400000Y-43750000D01*
X92100000Y-43750000D02*
X92100000Y-43750000D01*
G04 #@! TO.C,D105*
X84400000Y-42250000D02*
X84400000Y-42250000D01*
X83100000Y-42250000D02*
X83100000Y-42250000D01*
G04 #@! TO.C,D104*
X74400000Y-44250000D02*
X74400000Y-44250000D01*
X73100000Y-44250000D02*
X73100000Y-44250000D01*
G04 #@! TO.C,D103*
X65900000Y-42750000D02*
X65900000Y-42750000D01*
X64600000Y-42750000D02*
X64600000Y-42750000D01*
G04 #@! TO.C,D102*
X55900000Y-44750000D02*
X55900000Y-44750000D01*
X54600000Y-44750000D02*
X54600000Y-44750000D01*
G04 #@! TO.C,D101*
X47400000Y-43250000D02*
X47400000Y-43250000D01*
X46100000Y-43250000D02*
X46100000Y-43250000D01*
G04 #@! TO.C,D99*
X160900000Y-109750000D02*
X160900000Y-109750000D01*
X159600000Y-109750000D02*
X159600000Y-109750000D01*
G04 #@! TO.C,D97*
X129900000Y-109250000D02*
X129900000Y-109250000D01*
X128600000Y-109250000D02*
X128600000Y-109250000D01*
G04 #@! TD*
%LPC*%
D13*
G04 #@! TO.C,C1*
X150500000Y-112750000D03*
X145500000Y-112750000D03*
G04 #@! TD*
D14*
G04 #@! TO.C,H12*
X144145000Y-99695000D03*
G04 #@! TD*
G04 #@! TO.C,H11*
X151765000Y-99695000D03*
G04 #@! TD*
D15*
G04 #@! TO.C,D260*
X193355000Y-142800000D03*
G04 #@! TD*
G04 #@! TO.C,D259*
X176000000Y-146750000D03*
G04 #@! TD*
G04 #@! TO.C,D258*
X112500000Y-146250000D03*
G04 #@! TD*
G04 #@! TO.C,D257*
X94500000Y-142250000D03*
G04 #@! TD*
G04 #@! TO.C,D256*
X208500000Y-131250000D03*
G04 #@! TD*
G04 #@! TO.C,D255*
X200500000Y-132750000D03*
G04 #@! TD*
G04 #@! TO.C,D254*
X191000000Y-134750000D03*
G04 #@! TD*
G04 #@! TO.C,D253*
X183000000Y-136750000D03*
G04 #@! TD*
G04 #@! TO.C,D252*
X173500000Y-138500000D03*
G04 #@! TD*
G04 #@! TO.C,D251*
X166000000Y-140250000D03*
G04 #@! TD*
G04 #@! TO.C,D250*
X131000000Y-140250000D03*
G04 #@! TD*
G04 #@! TO.C,D249*
X122000000Y-138000000D03*
G04 #@! TD*
G04 #@! TO.C,D248*
X113200000Y-136250000D03*
G04 #@! TD*
G04 #@! TO.C,D247*
X104500000Y-134750000D03*
G04 #@! TD*
G04 #@! TO.C,D246*
X95500000Y-132250000D03*
G04 #@! TD*
G04 #@! TO.C,D245*
X87500000Y-131250000D03*
G04 #@! TD*
G04 #@! TO.C,D244*
X189500000Y-125750000D03*
G04 #@! TD*
G04 #@! TO.C,D243*
X172500000Y-130100000D03*
G04 #@! TD*
G04 #@! TO.C,D242*
X133500000Y-132250000D03*
G04 #@! TD*
G04 #@! TO.C,D241*
X115500000Y-128400000D03*
G04 #@! TD*
G04 #@! TO.C,D240*
X205500000Y-114250000D03*
G04 #@! TD*
G04 #@! TO.C,D239*
X187000000Y-117250000D03*
G04 #@! TD*
G04 #@! TO.C,D238*
X179000000Y-119250000D03*
G04 #@! TD*
G04 #@! TO.C,D237*
X170000000Y-120750000D03*
G04 #@! TD*
G04 #@! TO.C,D236*
X161500000Y-122750000D03*
G04 #@! TD*
G04 #@! TO.C,D235*
X134000000Y-122250000D03*
G04 #@! TD*
G04 #@! TO.C,D234*
X126000000Y-121250000D03*
G04 #@! TD*
G04 #@! TO.C,D233*
X117000000Y-118750000D03*
G04 #@! TD*
G04 #@! TO.C,D232*
X109000000Y-117750000D03*
G04 #@! TD*
G04 #@! TO.C,D231*
X100000000Y-116750000D03*
G04 #@! TD*
G04 #@! TO.C,D230*
X276000000Y-99250000D03*
G04 #@! TD*
G04 #@! TO.C,D229*
X259000000Y-103250000D03*
G04 #@! TD*
G04 #@! TO.C,D228*
X240000000Y-102750000D03*
G04 #@! TD*
G04 #@! TO.C,D227*
X221500000Y-102250000D03*
G04 #@! TD*
G04 #@! TO.C,D226*
X203000000Y-105750000D03*
G04 #@! TD*
G04 #@! TO.C,D225*
X195000000Y-107750000D03*
G04 #@! TD*
G04 #@! TO.C,D224*
X186500000Y-109750000D03*
G04 #@! TD*
G04 #@! TO.C,D223*
X119000000Y-112250000D03*
G04 #@! TD*
G04 #@! TO.C,D222*
X101500000Y-107750000D03*
G04 #@! TD*
G04 #@! TO.C,D221*
X92500000Y-105750000D03*
G04 #@! TD*
G04 #@! TO.C,D220*
X84000000Y-104750000D03*
G04 #@! TD*
G04 #@! TO.C,D219*
X65500000Y-104750000D03*
G04 #@! TD*
G04 #@! TO.C,D218*
X47000000Y-105250000D03*
G04 #@! TD*
G04 #@! TO.C,D217*
X29500000Y-101750000D03*
G04 #@! TD*
G04 #@! TO.C,D216*
X274000000Y-90750000D03*
G04 #@! TD*
G04 #@! TO.C,D215*
X265500000Y-92750000D03*
G04 #@! TD*
G04 #@! TO.C,D214*
X256000000Y-94750000D03*
G04 #@! TD*
G04 #@! TO.C,D213*
X248000000Y-96250000D03*
G04 #@! TD*
G04 #@! TO.C,D212*
X237500000Y-94250000D03*
G04 #@! TD*
G04 #@! TO.C,D211*
X229500000Y-95250000D03*
G04 #@! TD*
G04 #@! TO.C,D210*
X220000000Y-93750000D03*
G04 #@! TD*
G04 #@! TO.C,D209*
X211000000Y-95750000D03*
G04 #@! TD*
G04 #@! TO.C,D208*
X202500000Y-97750000D03*
G04 #@! TD*
G04 #@! TO.C,D207*
X184000000Y-101250000D03*
G04 #@! TD*
G04 #@! TO.C,D206*
X176000000Y-103250000D03*
G04 #@! TD*
G04 #@! TO.C,D205*
X120500000Y-102750000D03*
G04 #@! TD*
G04 #@! TO.C,D204*
X112000000Y-101250000D03*
G04 #@! TD*
G04 #@! TO.C,D203*
X104000000Y-99750000D03*
G04 #@! TD*
G04 #@! TO.C,D202*
X85000000Y-94750000D03*
G04 #@! TD*
G04 #@! TO.C,D201*
X76000000Y-93750000D03*
G04 #@! TD*
G04 #@! TO.C,D200*
X66000000Y-95250000D03*
G04 #@! TD*
G04 #@! TO.C,D199*
X58000000Y-94250000D03*
G04 #@! TD*
G04 #@! TO.C,D198*
X48500000Y-96250000D03*
G04 #@! TD*
G04 #@! TO.C,D197*
X39500000Y-94250000D03*
G04 #@! TD*
G04 #@! TO.C,D196*
X30500000Y-92250000D03*
G04 #@! TD*
G04 #@! TO.C,D195*
X22000000Y-90750000D03*
G04 #@! TD*
G04 #@! TO.C,D194*
X272000000Y-82250000D03*
G04 #@! TD*
G04 #@! TO.C,D193*
X254500000Y-86250000D03*
G04 #@! TD*
G04 #@! TO.C,D192*
X237000000Y-86250000D03*
G04 #@! TD*
G04 #@! TO.C,D191*
X218500000Y-85750000D03*
G04 #@! TD*
G04 #@! TO.C,D190*
X199500000Y-89250000D03*
G04 #@! TD*
G04 #@! TO.C,D189*
X192000000Y-90750000D03*
G04 #@! TD*
G04 #@! TO.C,D188*
X183000000Y-93250000D03*
G04 #@! TD*
G04 #@! TO.C,D187*
X123000000Y-95250000D03*
G04 #@! TD*
G04 #@! TO.C,D186*
X105500000Y-91250000D03*
G04 #@! TD*
G04 #@! TO.C,D185*
X97000000Y-89250000D03*
G04 #@! TD*
G04 #@! TO.C,D184*
X87500000Y-87750000D03*
G04 #@! TD*
G04 #@! TO.C,D183*
X69000000Y-88250000D03*
G04 #@! TD*
G04 #@! TO.C,D182*
X50500000Y-88750000D03*
G04 #@! TD*
G04 #@! TO.C,D181*
X33000000Y-85250000D03*
G04 #@! TD*
G04 #@! TO.C,D180*
X270500000Y-74250000D03*
G04 #@! TD*
G04 #@! TO.C,D179*
X262500000Y-76250000D03*
G04 #@! TD*
G04 #@! TO.C,D178*
X252500000Y-78250000D03*
G04 #@! TD*
G04 #@! TO.C,D177*
X245000000Y-79250000D03*
G04 #@! TD*
G04 #@! TO.C,D176*
X234000000Y-77750000D03*
G04 #@! TD*
G04 #@! TO.C,D175*
X226000000Y-78750000D03*
G04 #@! TD*
G04 #@! TO.C,D174*
X215500000Y-76750000D03*
G04 #@! TD*
G04 #@! TO.C,D173*
X207500000Y-79250000D03*
G04 #@! TD*
G04 #@! TO.C,D172*
X199000000Y-81250000D03*
G04 #@! TD*
G04 #@! TO.C,D171*
X180500000Y-84750000D03*
G04 #@! TD*
G04 #@! TO.C,D170*
X172000000Y-86500000D03*
G04 #@! TD*
G04 #@! TO.C,D169*
X124000000Y-86250000D03*
G04 #@! TD*
G04 #@! TO.C,D168*
X115500000Y-84250000D03*
G04 #@! TD*
G04 #@! TO.C,D167*
X107300000Y-83750000D03*
G04 #@! TD*
G04 #@! TO.C,D166*
X88500000Y-78750000D03*
G04 #@! TD*
G04 #@! TO.C,D165*
X79500000Y-76750000D03*
G04 #@! TD*
G04 #@! TO.C,D164*
X70500000Y-78750000D03*
G04 #@! TD*
G04 #@! TO.C,D163*
X61500000Y-77750000D03*
G04 #@! TD*
G04 #@! TO.C,D162*
X51500000Y-79250000D03*
G04 #@! TD*
G04 #@! TO.C,D161*
X43000000Y-77750000D03*
G04 #@! TD*
G04 #@! TO.C,D160*
X34500000Y-75250000D03*
G04 #@! TD*
G04 #@! TO.C,D159*
X25500000Y-74250000D03*
G04 #@! TD*
G04 #@! TO.C,D158*
X269000000Y-65750000D03*
G04 #@! TD*
G04 #@! TO.C,D157*
X251000000Y-69750000D03*
G04 #@! TD*
G04 #@! TO.C,D156*
X232500000Y-69250000D03*
G04 #@! TD*
G04 #@! TO.C,D155*
X214000000Y-68750000D03*
G04 #@! TD*
G04 #@! TO.C,D154*
X196500000Y-72750000D03*
G04 #@! TD*
G04 #@! TO.C,D153*
X187800000Y-74250000D03*
G04 #@! TD*
G04 #@! TO.C,D152*
X179000000Y-76250000D03*
G04 #@! TD*
G04 #@! TO.C,D151*
X126500000Y-78750000D03*
G04 #@! TD*
G04 #@! TO.C,D150*
X108000000Y-73250000D03*
G04 #@! TD*
G04 #@! TO.C,D149*
X100000000Y-72250000D03*
G04 #@! TD*
G04 #@! TO.C,D148*
X91000000Y-71250000D03*
G04 #@! TD*
G04 #@! TO.C,D147*
X72500000Y-71750000D03*
G04 #@! TD*
G04 #@! TO.C,D146*
X54500000Y-72750000D03*
G04 #@! TD*
G04 #@! TO.C,D145*
X36500000Y-68750000D03*
G04 #@! TD*
G04 #@! TO.C,D144*
X266500000Y-57750000D03*
G04 #@! TD*
G04 #@! TO.C,D143*
X259000000Y-59750000D03*
G04 #@! TD*
G04 #@! TO.C,D142*
X249000000Y-61250000D03*
G04 #@! TD*
G04 #@! TO.C,D141*
X241500000Y-63250000D03*
G04 #@! TD*
G04 #@! TO.C,D140*
X231000000Y-60750000D03*
G04 #@! TD*
G04 #@! TO.C,D139*
X222500000Y-62750000D03*
G04 #@! TD*
G04 #@! TO.C,D138*
X212500000Y-60250000D03*
G04 #@! TD*
G04 #@! TO.C,D137*
X204000000Y-62250000D03*
G04 #@! TD*
G04 #@! TO.C,D136*
X196000000Y-64750000D03*
G04 #@! TD*
G04 #@! TO.C,D135*
X177000000Y-68250000D03*
G04 #@! TD*
G04 #@! TO.C,D134*
X168500000Y-70250000D03*
G04 #@! TD*
G04 #@! TO.C,D133*
X128000000Y-69750000D03*
G04 #@! TD*
G04 #@! TO.C,D132*
X119000000Y-67750000D03*
G04 #@! TD*
G04 #@! TO.C,D131*
X110500000Y-65750000D03*
G04 #@! TD*
G04 #@! TO.C,D130*
X92000000Y-61750000D03*
G04 #@! TD*
G04 #@! TO.C,D129*
X83500000Y-60250000D03*
G04 #@! TD*
G04 #@! TO.C,D128*
X73500000Y-62250000D03*
G04 #@! TD*
G04 #@! TO.C,D127*
X65000000Y-60750000D03*
G04 #@! TD*
G04 #@! TO.C,D126*
X55000000Y-62750000D03*
G04 #@! TD*
G04 #@! TO.C,D125*
X47000000Y-61750000D03*
G04 #@! TD*
G04 #@! TO.C,D124*
X37500000Y-59250000D03*
G04 #@! TD*
G04 #@! TO.C,D123*
X29000000Y-57750000D03*
G04 #@! TD*
G04 #@! TO.C,D122*
X249000000Y-53250000D03*
G04 #@! TD*
G04 #@! TO.C,D121*
X229500000Y-52750000D03*
G04 #@! TD*
G04 #@! TO.C,D120*
X210000000Y-52250000D03*
G04 #@! TD*
G04 #@! TO.C,D119*
X193000000Y-55750000D03*
G04 #@! TD*
G04 #@! TO.C,D118*
X185000000Y-57750000D03*
G04 #@! TD*
G04 #@! TO.C,D117*
X111500000Y-57250000D03*
G04 #@! TD*
G04 #@! TO.C,D116*
X103000000Y-55750000D03*
G04 #@! TD*
G04 #@! TO.C,D115*
X95000000Y-54750000D03*
G04 #@! TD*
G04 #@! TO.C,D114*
X76500000Y-55250000D03*
G04 #@! TD*
G04 #@! TO.C,D113*
X58000000Y-55750000D03*
G04 #@! TD*
G04 #@! TO.C,D112*
X245500000Y-44750000D03*
G04 #@! TD*
G04 #@! TO.C,D111*
X237500000Y-46750000D03*
G04 #@! TD*
G04 #@! TO.C,D110*
X227000000Y-44250000D03*
G04 #@! TD*
G04 #@! TO.C,D109*
X219000000Y-46250000D03*
G04 #@! TD*
G04 #@! TO.C,D108*
X208500000Y-44250000D03*
G04 #@! TD*
G04 #@! TO.C,D107*
X200500000Y-45750000D03*
G04 #@! TD*
G04 #@! TO.C,D106*
X96000000Y-45250000D03*
G04 #@! TD*
G04 #@! TO.C,D105*
X87000000Y-43750000D03*
G04 #@! TD*
G04 #@! TO.C,D104*
X77000000Y-45750000D03*
G04 #@! TD*
G04 #@! TO.C,D103*
X68500000Y-44250000D03*
G04 #@! TD*
G04 #@! TO.C,D102*
X58500000Y-46250000D03*
G04 #@! TD*
G04 #@! TO.C,D101*
X50000000Y-44750000D03*
G04 #@! TD*
G04 #@! TO.C,D99*
X163500000Y-111250000D03*
G04 #@! TD*
G04 #@! TO.C,D97*
X132500000Y-110750000D03*
G04 #@! TD*
D16*
G04 #@! TO.C,SW52*
X214457832Y-64626145D03*
X203698208Y-66913173D03*
D17*
X209078020Y-65769659D03*
D16*
X204977346Y-70526178D03*
X210304699Y-71540730D03*
G04 #@! TD*
G04 #@! TO.C,SW76*
X55321229Y-67742606D03*
X44561605Y-65455578D03*
D17*
X49941417Y-66599092D03*
D16*
X44260615Y-69276494D03*
X48714738Y-72370163D03*
G04 #@! TD*
G04 #@! TO.C,SW86*
X37714573Y-64000195D03*
X26954949Y-61713167D03*
D17*
X32334761Y-62856681D03*
D16*
X26653959Y-65534083D03*
X31108082Y-68627752D03*
G04 #@! TD*
G04 #@! TO.C,SW67*
X51786731Y-84371115D03*
D17*
X46406919Y-83227601D03*
D16*
X41027107Y-82084087D03*
X40726117Y-85905003D03*
X45180240Y-88998672D03*
G04 #@! TD*
D17*
G04 #@! TO.C,SW24*
X184450000Y-123150000D03*
D16*
X179070188Y-124293514D03*
X189829812Y-122006486D03*
X180349326Y-127906519D03*
X185676679Y-128921071D03*
G04 #@! TD*
D17*
G04 #@! TO.C,SW14*
X205500000Y-136100000D03*
D16*
X200120188Y-137243514D03*
X210879812Y-134956486D03*
X201399326Y-140856519D03*
X206726679Y-141871071D03*
G04 #@! TD*
G04 #@! TO.C,SW74*
X247747768Y-100999624D03*
D17*
X253127580Y-99856110D03*
D16*
X258507392Y-98712596D03*
X249026906Y-104612629D03*
X254354259Y-105627181D03*
G04 #@! TD*
G04 #@! TO.C,SW17*
X102620188Y-138624996D03*
D17*
X108000000Y-139768510D03*
D16*
X113379812Y-140912024D03*
X102319198Y-142445912D03*
X106773321Y-145539581D03*
G04 #@! TD*
G04 #@! TO.C,SW71*
X237144272Y-51114097D03*
D17*
X242524084Y-49970583D03*
D16*
X247903896Y-48827069D03*
X238423410Y-54727102D03*
X243750763Y-55741654D03*
G04 #@! TD*
D17*
G04 #@! TO.C,SW31*
X173864706Y-73254479D03*
D16*
X168484894Y-74397993D03*
X179244518Y-72110965D03*
X169764032Y-78010998D03*
X175091385Y-79025550D03*
G04 #@! TD*
D14*
G04 #@! TO.C,H6*
X184250000Y-79500000D03*
G04 #@! TD*
D17*
G04 #@! TO.C,SW21*
X166750000Y-126900000D03*
D16*
X172129812Y-125756486D03*
X161370188Y-128043514D03*
X162649326Y-131656519D03*
X167976679Y-132671071D03*
G04 #@! TD*
D14*
G04 #@! TO.C,H4*
X101250000Y-129750000D03*
G04 #@! TD*
D16*
G04 #@! TO.C,SW57*
X70277012Y-83956399D03*
X59517388Y-81669371D03*
D17*
X64897200Y-82812885D03*
D16*
X59216398Y-85490287D03*
X63670521Y-88583956D03*
G04 #@! TD*
G04 #@! TO.C,SW72*
X240678771Y-67742606D03*
X251438395Y-65455578D03*
D17*
X246058583Y-66599092D03*
D16*
X241957909Y-71355611D03*
X247285262Y-72370163D03*
G04 #@! TD*
G04 #@! TO.C,SW45*
X95836291Y-50284663D03*
D17*
X90456479Y-49141149D03*
D16*
X85076667Y-47997635D03*
X84775677Y-51818551D03*
X89229800Y-54912220D03*
G04 #@! TD*
G04 #@! TO.C,SW46*
X81542168Y-64626145D03*
D17*
X86921980Y-65769659D03*
D16*
X92301792Y-66913173D03*
X81241178Y-68447061D03*
X85695301Y-71540730D03*
G04 #@! TD*
D17*
G04 #@! TO.C,SW23*
X180933703Y-106511498D03*
D16*
X186313515Y-105367984D03*
X175553891Y-107655012D03*
X176833029Y-111268017D03*
X182160382Y-112282569D03*
G04 #@! TD*
D17*
G04 #@! TO.C,SW51*
X205543521Y-49141149D03*
D16*
X210923333Y-47997635D03*
X200163709Y-50284663D03*
X201442847Y-53897668D03*
X206770200Y-54912220D03*
G04 #@! TD*
G04 #@! TO.C,SW15*
X123758645Y-125738896D03*
X134518269Y-128025924D03*
D17*
X129138457Y-126882410D03*
D16*
X123457655Y-129559812D03*
X127911778Y-132653481D03*
G04 #@! TD*
G04 #@! TO.C,SW53*
X207232707Y-83541682D03*
D17*
X212612519Y-82398168D03*
D16*
X217992331Y-81254654D03*
X208511845Y-87154687D03*
X213839198Y-88169239D03*
G04 #@! TD*
D17*
G04 #@! TO.C,SW43*
X196773111Y-94454833D03*
D16*
X202152923Y-93311319D03*
X191393299Y-95598347D03*
X192672437Y-99211352D03*
X197999790Y-100225904D03*
G04 #@! TD*
G04 #@! TO.C,SW36*
X108141200Y-78969838D03*
D17*
X102761388Y-77826324D03*
D16*
X97381576Y-76682810D03*
X97080586Y-80503726D03*
X101534709Y-83597395D03*
G04 #@! TD*
D17*
G04 #@! TO.C,SW12*
X170300000Y-143600000D03*
D16*
X164920188Y-144743514D03*
X175679812Y-142456486D03*
X166199326Y-148356519D03*
X171526679Y-149371071D03*
G04 #@! TD*
D14*
G04 #@! TO.C,H3*
X111500000Y-78750000D03*
G04 #@! TD*
D17*
G04 #@! TO.C,SW83*
X267199739Y-79485191D03*
D16*
X261819927Y-80628705D03*
X272579551Y-78341677D03*
X263099065Y-84241710D03*
X268426418Y-85256262D03*
G04 #@! TD*
G04 #@! TO.C,SW87*
X34180073Y-80628705D03*
D17*
X28800261Y-79485191D03*
D16*
X23420449Y-78341677D03*
X23119459Y-82162593D03*
X27573582Y-85256262D03*
G04 #@! TD*
D14*
G04 #@! TO.C,H2*
X43000000Y-56250000D03*
G04 #@! TD*
D16*
G04 #@! TO.C,SW32*
X182779017Y-88739474D03*
D17*
X177399205Y-89882988D03*
D16*
X172019393Y-91026502D03*
X173298531Y-94639507D03*
X178625884Y-95654059D03*
G04 #@! TD*
G04 #@! TO.C,SW84*
X276114049Y-94970186D03*
D17*
X270734237Y-96113700D03*
D16*
X265354425Y-97257214D03*
X266633563Y-100870219D03*
X271960916Y-101884771D03*
G04 #@! TD*
G04 #@! TO.C,SW34*
X194987798Y-112226855D03*
X205747422Y-109939827D03*
D17*
X200367610Y-111083341D03*
D16*
X196266936Y-115839860D03*
X201594289Y-116854412D03*
G04 #@! TD*
D17*
G04 #@! TO.C,SW75*
X53475916Y-49970583D03*
D16*
X48096104Y-48827069D03*
X58855728Y-51114097D03*
X47795114Y-52647985D03*
X52249237Y-55741654D03*
G04 #@! TD*
G04 #@! TO.C,SW37*
X104606701Y-95598347D03*
D17*
X99226889Y-94454833D03*
D16*
X93847077Y-93311319D03*
X93546087Y-97132235D03*
X98000210Y-100225904D03*
G04 #@! TD*
G04 #@! TO.C,SW64*
X240017111Y-98297880D03*
X229257487Y-100584908D03*
D17*
X234637299Y-99441394D03*
D16*
X230536625Y-104197913D03*
X235863978Y-105212465D03*
G04 #@! TD*
G04 #@! TO.C,SW16*
X120224146Y-142367406D03*
D17*
X125603958Y-143510920D03*
D16*
X130983770Y-144654434D03*
X119923156Y-146188322D03*
X124377279Y-149281991D03*
G04 #@! TD*
D14*
G04 #@! TO.C,H5*
X195250000Y-129500000D03*
G04 #@! TD*
D16*
G04 #@! TO.C,SW62*
X222188490Y-67327889D03*
D17*
X227568302Y-66184375D03*
D16*
X232948114Y-65040861D03*
X223467628Y-70940894D03*
X228794981Y-71955446D03*
G04 #@! TD*
D17*
G04 #@! TO.C,SW42*
X193238612Y-77826324D03*
D16*
X187858800Y-78969838D03*
X198618424Y-76682810D03*
X189137938Y-82582843D03*
X194465291Y-83597395D03*
G04 #@! TD*
G04 #@! TO.C,SW27*
X109686485Y-105367984D03*
D17*
X115066297Y-106511498D03*
D16*
X120446109Y-107655012D03*
X109385495Y-109188900D03*
X113839618Y-112282569D03*
G04 #@! TD*
G04 #@! TO.C,SW38*
X90312578Y-109939827D03*
D17*
X95692390Y-111083341D03*
D16*
X101072202Y-112226855D03*
X90011588Y-113760743D03*
X94465711Y-116854412D03*
G04 #@! TD*
D17*
G04 #@! TO.C,SW47*
X83387481Y-82398168D03*
D16*
X78007669Y-81254654D03*
X88767293Y-83541682D03*
X77706679Y-85075570D03*
X82160802Y-88169239D03*
G04 #@! TD*
G04 #@! TO.C,SW28*
X116911612Y-124283514D03*
D17*
X111531800Y-123140000D03*
D16*
X106151988Y-121996486D03*
X105850998Y-125817402D03*
X110305121Y-128911071D03*
G04 #@! TD*
D17*
G04 #@! TO.C,SW58*
X61362701Y-99441394D03*
D16*
X55982889Y-98297880D03*
X66742513Y-100584908D03*
X55681899Y-102118796D03*
X60136022Y-105212465D03*
G04 #@! TD*
D17*
G04 #@! TO.C,SW18*
X90393343Y-136026090D03*
D16*
X95773155Y-137169604D03*
X85013531Y-134882576D03*
X84712541Y-138703492D03*
X89166664Y-141797161D03*
G04 #@! TD*
G04 #@! TO.C,SW78*
X19885951Y-94970186D03*
X30645575Y-97257214D03*
D17*
X25265763Y-96113700D03*
D16*
X19584961Y-98791102D03*
X24039084Y-101884771D03*
G04 #@! TD*
G04 #@! TO.C,SW48*
X85232795Y-100170191D03*
X74473171Y-97883163D03*
D17*
X79852983Y-99026677D03*
D16*
X74172181Y-101704079D03*
X78626304Y-104797748D03*
G04 #@! TD*
D17*
G04 #@! TO.C,SW41*
X189704114Y-61197815D03*
D16*
X195083926Y-60054301D03*
X184324302Y-62341329D03*
X185603440Y-65954334D03*
X190930793Y-66968886D03*
G04 #@! TD*
G04 #@! TO.C,SW13*
X182570188Y-140993514D03*
D17*
X187950000Y-139850000D03*
D16*
X193329812Y-138706486D03*
X183849326Y-144606519D03*
X189176679Y-145621071D03*
G04 #@! TD*
G04 #@! TO.C,SW26*
X113220983Y-88739474D03*
D17*
X118600795Y-89882988D03*
D16*
X123980607Y-91026502D03*
X112919993Y-92560390D03*
X117374116Y-95654059D03*
G04 #@! TD*
G04 #@! TO.C,SW63*
X225722988Y-83956399D03*
D17*
X231102800Y-82812885D03*
D16*
X236482612Y-81669371D03*
X227002126Y-87569404D03*
X232329479Y-88583956D03*
G04 #@! TD*
D17*
G04 #@! TO.C,SW54*
X216147017Y-99026677D03*
D16*
X221526829Y-97883163D03*
X210767205Y-100170191D03*
X212046343Y-103783196D03*
X217373696Y-104797748D03*
G04 #@! TD*
G04 #@! TO.C,SW68*
X37492608Y-98712596D03*
D17*
X42872420Y-99856110D03*
D16*
X48252232Y-100999624D03*
X37191618Y-102533512D03*
X41645741Y-105627181D03*
G04 #@! TD*
G04 #@! TO.C,SW56*
X63051886Y-65040861D03*
D17*
X68431698Y-66184375D03*
D16*
X73811510Y-67327889D03*
X62750896Y-68861777D03*
X67205019Y-71955446D03*
G04 #@! TD*
D14*
G04 #@! TO.C,H1*
X253250000Y-56750000D03*
G04 #@! TD*
D16*
G04 #@! TO.C,SW65*
X77346010Y-50699380D03*
D17*
X71966198Y-49555866D03*
D16*
X66586386Y-48412352D03*
X66285396Y-52233268D03*
X70739519Y-55326937D03*
G04 #@! TD*
G04 #@! TO.C,SW35*
X111675698Y-62341329D03*
D17*
X106295886Y-61197815D03*
D16*
X100916074Y-60054301D03*
X100615084Y-63875217D03*
X105069207Y-66968886D03*
G04 #@! TD*
D17*
G04 #@! TO.C,SW82*
X263665239Y-62856681D03*
D16*
X258285427Y-64000195D03*
X269045051Y-61713167D03*
X259564565Y-67613200D03*
X264891918Y-68627752D03*
G04 #@! TD*
D17*
G04 #@! TO.C,SW61*
X224033802Y-49555866D03*
D16*
X218653990Y-50699380D03*
X229413614Y-48412352D03*
X219933128Y-54312385D03*
X225260481Y-55326937D03*
G04 #@! TD*
G04 #@! TO.C,SW25*
X116755482Y-72110965D03*
D17*
X122135294Y-73254479D03*
D16*
X127515106Y-74397993D03*
X116454492Y-75931881D03*
X120908615Y-79025550D03*
G04 #@! TD*
D17*
G04 #@! TO.C,SW73*
X249593081Y-83227601D03*
D16*
X254972893Y-82084087D03*
X244213269Y-84371115D03*
X245492407Y-87984120D03*
X250819760Y-88998672D03*
G04 #@! TD*
M02*
