G04 #@! TF.GenerationSoftware,KiCad,Pcbnew,(6.0.9)*
G04 #@! TF.CreationDate,2022-12-10T11:28:18+09:00*
G04 #@! TF.ProjectId,kidoairaku-swallowtail,6b69646f-6169-4726-916b-752d7377616c,rev?*
G04 #@! TF.SameCoordinates,Original*
G04 #@! TF.FileFunction,Profile,NP*
%FSLAX46Y46*%
G04 Gerber Fmt 4.6, Leading zero omitted, Abs format (unit mm)*
G04 Created by KiCad (PCBNEW (6.0.9)) date 2022-12-10 11:28:18*
%MOMM*%
%LPD*%
G01*
G04 APERTURE LIST*
G04 #@! TA.AperFunction,Profile*
%ADD10C,0.264582*%
G04 #@! TD*
G04 #@! TA.AperFunction,Profile*
%ADD11C,0.050000*%
G04 #@! TD*
G04 APERTURE END LIST*
D10*
X212462997Y-110909729D02*
X212239356Y-111301299D01*
X165598420Y-152371726D02*
X165221376Y-152235099D01*
X211497338Y-112957530D02*
X211353205Y-113385505D01*
X127943784Y-60431573D02*
X124289504Y-56558480D01*
X226520614Y-36388076D02*
X230741882Y-36705503D01*
X85086850Y-115523256D02*
X85114223Y-115938346D01*
X104177745Y-42684913D02*
X99898677Y-40918070D01*
X167315557Y-152533455D02*
X167128733Y-152555881D01*
X15500002Y-98500076D02*
X15467017Y-98688283D01*
X18260516Y-103246972D02*
X18443408Y-103327587D01*
X15447430Y-98879517D02*
X15440820Y-99073268D01*
X80750375Y-139584767D02*
X80802557Y-139772031D01*
X16905566Y-102259178D02*
X17220375Y-102556149D01*
X280505343Y-99664443D02*
X280464262Y-99863175D01*
X222236444Y-36285930D02*
X226520614Y-36388076D01*
X214894085Y-140511008D02*
X214691911Y-140867783D01*
X49999996Y-110000084D02*
X78500000Y-107500076D01*
X280553211Y-99268933D02*
X280535134Y-99466192D01*
X152500107Y-85999985D02*
X143499878Y-86000069D01*
X84163425Y-112114942D02*
X84341303Y-112533497D01*
X210896821Y-116742276D02*
X210936563Y-117127779D01*
X83760613Y-111301387D02*
X83969647Y-111703667D01*
X212030323Y-111703578D02*
X211836544Y-112114852D01*
X83299370Y-110530672D02*
X83536972Y-110909818D01*
X279895927Y-101225067D02*
X279655941Y-101589519D01*
X85000000Y-117500084D02*
X80699997Y-138300079D01*
X81924594Y-108881302D02*
X82222295Y-109172614D01*
X83536972Y-110909818D02*
X83760613Y-111301387D01*
X280559155Y-99073174D02*
X280553211Y-99268933D01*
X280499969Y-98499985D02*
X280532956Y-98688191D01*
X80936194Y-140144530D02*
X81105886Y-140511100D01*
X82456956Y-36779280D02*
X78094703Y-36412079D01*
X15722493Y-100457275D02*
X15804526Y-100652849D01*
X280412310Y-100061881D02*
X280349910Y-100260052D01*
X164853289Y-152066776D02*
X164497532Y-151869026D01*
X215360497Y-107960206D02*
X215026363Y-108150393D01*
X212700599Y-110530583D02*
X212462997Y-110909729D01*
X278779595Y-102556053D02*
X278446586Y-102822389D01*
X124289504Y-56558480D02*
X120491323Y-53068753D01*
X238932074Y-37934475D02*
X246679757Y-39869408D01*
X15467017Y-98688283D02*
X15447430Y-98879517D01*
X85103148Y-116742367D02*
X85063407Y-117127871D01*
X171710480Y-56558399D02*
X175508661Y-53068671D01*
X162499985Y-149499985D02*
X162499985Y-149499985D01*
X245999969Y-109999992D02*
X245999969Y-109999992D01*
X15494633Y-99664538D02*
X15535715Y-99863270D01*
X216050592Y-107670246D02*
X215702123Y-107799585D01*
X17901220Y-103054116D02*
X18079646Y-103155646D01*
X270700104Y-52599995D02*
X280499969Y-98499985D01*
X216765475Y-107512267D02*
X216405258Y-107573902D01*
X213629820Y-142119597D02*
X213318809Y-142369397D01*
X82509270Y-109484921D02*
X82784872Y-109816509D01*
X78500000Y-107500076D02*
X78500000Y-107500076D01*
X84341303Y-112533497D02*
X84502631Y-112957620D01*
X212996747Y-142586202D02*
X212832687Y-142681023D01*
X120491323Y-53068753D02*
X116565149Y-49949463D01*
X215299973Y-138299988D02*
X215299973Y-138299988D01*
X61115644Y-37225366D02*
X57067907Y-37934562D01*
X215342235Y-139024622D02*
X215322452Y-139210533D01*
X279655941Y-101589519D02*
X279387643Y-101935547D01*
X128871252Y-152555973D02*
X129060052Y-152567638D01*
X164497532Y-151869026D02*
X164157476Y-151644119D01*
X210880098Y-116345196D02*
X210896821Y-116742276D01*
X280104232Y-100846264D02*
X279895927Y-101225067D01*
X19000002Y-103500076D02*
X49999996Y-110000084D01*
X143499878Y-86000069D02*
X143499878Y-86000069D01*
X166749578Y-152568734D02*
X166558092Y-152559728D01*
X214204400Y-141536480D02*
X213926208Y-141840669D01*
X131146696Y-152066868D02*
X131502453Y-151869118D01*
X85038400Y-115101733D02*
X85086850Y-115523256D01*
X213543026Y-36779194D02*
X217905279Y-36411992D01*
X80677518Y-139210625D02*
X80708547Y-139397470D01*
X16104047Y-101225165D02*
X16344032Y-101589616D01*
X15535715Y-99863270D02*
X15587666Y-100061977D01*
X215249595Y-139584675D02*
X215197414Y-139771940D01*
X15650066Y-100260148D02*
X15722493Y-100457275D01*
X84000000Y-143000076D02*
X84000000Y-143000076D01*
X95571157Y-39457016D02*
X91211091Y-38288819D01*
X167499985Y-152499985D02*
X167315557Y-152533455D01*
X80802557Y-139772031D02*
X80864645Y-139958780D01*
X30004880Y-48875683D02*
X27525481Y-50707822D01*
X132978273Y-150518392D02*
X133088038Y-150356900D01*
X133281459Y-150023191D02*
X133364273Y-149851543D01*
X215299973Y-138299988D02*
X215329640Y-138477328D01*
X131842508Y-151644210D02*
X132163490Y-151394414D01*
X49999996Y-110000084D02*
X49999996Y-110000084D01*
X108392452Y-44770473D02*
X104177745Y-42684913D01*
X129441893Y-152559820D02*
X129634091Y-152540904D01*
X80297847Y-107799674D02*
X80639472Y-107960295D01*
X277920322Y-103155551D02*
X277739453Y-103246878D01*
X253857665Y-42406864D02*
X260338536Y-45443406D01*
X166365893Y-152540813D02*
X166173406Y-152512271D01*
X213318809Y-142369397D02*
X212996747Y-142586202D01*
X168056200Y-60431492D02*
X171710480Y-56558399D01*
X80699997Y-138300079D02*
X80670330Y-138477420D01*
X280552544Y-98879424D02*
X280559155Y-99073174D01*
X143499878Y-86000069D02*
X140803727Y-80016199D01*
X18627900Y-103396982D02*
X18813572Y-103454648D01*
X132163490Y-151394414D02*
X132462026Y-151122000D01*
X84000000Y-143000076D02*
X128500000Y-152500076D01*
X84880855Y-114246245D02*
X84969519Y-114675492D01*
X211999969Y-142999985D02*
X211999969Y-142999985D01*
X260338536Y-45443406D02*
X265995103Y-48875596D01*
X210885746Y-115938254D02*
X210880098Y-116345196D01*
X280349910Y-100260052D02*
X280277483Y-100457178D01*
X280499969Y-98499985D02*
X280499969Y-98499985D01*
X129250406Y-152568826D02*
X129441893Y-152559820D01*
X130778609Y-152235191D02*
X131146696Y-152066868D01*
X215702123Y-107799585D02*
X215360497Y-107960206D01*
X129060052Y-152567638D02*
X129250406Y-152568826D01*
X163836495Y-151394323D02*
X163537959Y-151121908D01*
X166939933Y-152567546D02*
X166749578Y-152568734D01*
X84502631Y-112957620D02*
X84646764Y-113385595D01*
X215322452Y-139210533D02*
X215291423Y-139397379D01*
X79594711Y-107573991D02*
X79949377Y-107670335D01*
X129826579Y-152512363D02*
X130018935Y-152474479D01*
X143500000Y-118500084D02*
X152500000Y-118499992D01*
X212500745Y-142841087D02*
X212333755Y-142905362D01*
X128500000Y-152500076D02*
X128684427Y-152533547D01*
X83499226Y-142841178D02*
X83666216Y-142905454D01*
X215291423Y-139397379D02*
X215249595Y-139584675D01*
X18079646Y-103155646D02*
X18260516Y-103246972D01*
X128684427Y-152533547D02*
X128871252Y-152555973D01*
X18813572Y-103454648D02*
X19000002Y-103500076D01*
X80699997Y-138300079D02*
X80699997Y-138300079D01*
X212239356Y-111301299D02*
X212030323Y-111703578D01*
X80657735Y-139024714D02*
X80677518Y-139210625D01*
X19000002Y-103500076D02*
X19000002Y-103500076D01*
X133088038Y-150356900D02*
X133189240Y-150191738D01*
X17725658Y-102942893D02*
X17901220Y-103054116D01*
X187607532Y-44770389D02*
X191822238Y-42684828D01*
X217499969Y-107499985D02*
X217499969Y-107499985D01*
X234884337Y-37225279D02*
X238932074Y-37934475D01*
D11*
X24904203Y-54527096D02*
X24904203Y-54527096D01*
D10*
X191822238Y-42684828D02*
X196101305Y-40917986D01*
X196101305Y-40917986D02*
X200428826Y-39456930D01*
X16612329Y-101935644D02*
X16905566Y-102259178D01*
X137884133Y-74480345D02*
X134757007Y-69379576D01*
X210999969Y-117499992D02*
X215299973Y-138299988D01*
X214691911Y-140867783D02*
X214460825Y-141210896D01*
X217499969Y-107499985D02*
X217130594Y-107487057D01*
X280464262Y-99863175D02*
X280412310Y-100061881D01*
X276999969Y-103499985D02*
X276999969Y-103499985D01*
X277556561Y-103327494D02*
X277372070Y-103396889D01*
X214700366Y-108368433D02*
X214383155Y-108612611D01*
X213215097Y-109816421D02*
X212951515Y-110165576D01*
X230741882Y-36705503D02*
X234884337Y-37225279D01*
X15804526Y-100652849D02*
X15895744Y-100846361D01*
X82784872Y-109816509D02*
X83048455Y-110165664D01*
X277186398Y-103454556D02*
X276999969Y-103499985D01*
X163021712Y-150518301D02*
X162911947Y-150356808D01*
X175508661Y-53068671D02*
X179434835Y-49949380D01*
X167499985Y-152499985D02*
X167499985Y-152499985D01*
X213490699Y-109484833D02*
X213215097Y-109816421D01*
X158115851Y-74480267D02*
X161242978Y-69379496D01*
X86834388Y-37400551D02*
X82456956Y-36779280D01*
X265995103Y-48875596D02*
X268474504Y-50707734D01*
X73763537Y-36286017D02*
X69479367Y-36388163D01*
X69479367Y-36388163D02*
X65258100Y-36705590D01*
X132734745Y-150829236D02*
X132978273Y-150518392D01*
X79949377Y-107670335D02*
X80297847Y-107799674D01*
X83969647Y-111703667D02*
X84163425Y-112114942D01*
X99898677Y-40918070D02*
X95571157Y-39457016D01*
X212333755Y-142905362D02*
X212166681Y-142958490D01*
X78869375Y-107487148D02*
X79234495Y-107512358D01*
X82370153Y-142119688D02*
X82681163Y-142369488D01*
X84646764Y-113385595D02*
X84773054Y-113815708D01*
X80708547Y-139397470D02*
X80750375Y-139584767D01*
X81308061Y-140867874D02*
X81539147Y-141210987D01*
X15440820Y-99073268D02*
X15446764Y-99269027D01*
X212951515Y-110165576D02*
X212700599Y-110530583D01*
X17220375Y-102556149D02*
X17553383Y-102822485D01*
X163537959Y-151121908D02*
X163265240Y-150829144D01*
X133500000Y-149500076D02*
X133500000Y-149500076D01*
X210999969Y-117499992D02*
X210999969Y-117499992D01*
X214075375Y-108881214D02*
X213777674Y-109172525D01*
X179434835Y-49949380D02*
X183473095Y-47187596D01*
X217905279Y-36411992D02*
X222236444Y-36285930D01*
X209165594Y-37400465D02*
X213543026Y-36779194D01*
X246679757Y-39869408D02*
X253857665Y-42406864D01*
X214383155Y-108612611D02*
X214075375Y-108881214D01*
X133189240Y-150191738D02*
X133281459Y-150023191D01*
X25299881Y-52600082D02*
X25299881Y-52600082D01*
X82681163Y-142369488D02*
X83003226Y-142586293D01*
X83833289Y-142958581D02*
X84000000Y-143000076D01*
X85114223Y-115938346D02*
X85119871Y-116345287D01*
X215135325Y-139958689D02*
X215063777Y-140144438D01*
X130018935Y-152474479D02*
X130401565Y-152371818D01*
X15587666Y-100061977D02*
X15650066Y-100260148D01*
X211030450Y-114675401D02*
X210961569Y-115101642D01*
X78500000Y-107500076D02*
X78869375Y-107487148D01*
X162718526Y-150023100D02*
X162635712Y-149851452D01*
X215026363Y-108150393D02*
X214700366Y-108368433D01*
X81539147Y-141210987D02*
X81795573Y-141536571D01*
X81795573Y-141536571D02*
X82073765Y-141840761D01*
X213926208Y-141840669D02*
X213629820Y-142119597D01*
X134757007Y-69379576D02*
X131438254Y-64700961D01*
X133364273Y-149851543D02*
X133437260Y-149677077D01*
X162562724Y-149676985D02*
X162499985Y-149499985D01*
X212832687Y-142681023D02*
X212667205Y-142766146D01*
X57067907Y-37934562D02*
X49320225Y-39869495D01*
X161242978Y-69379496D02*
X164561730Y-64700881D01*
X18443408Y-103327587D02*
X18627900Y-103396982D01*
X80864645Y-139958780D02*
X80936194Y-140144530D01*
X217130594Y-107487057D02*
X216765475Y-107512267D01*
X79234495Y-107512358D02*
X79594711Y-107573991D01*
X280277483Y-100457178D02*
X280195449Y-100652752D01*
X116565149Y-49949463D02*
X112526889Y-47187679D01*
X276999969Y-103499985D02*
X245999969Y-109999992D01*
X131502453Y-151869118D02*
X131842508Y-151644210D01*
X164157476Y-151644119D02*
X163836495Y-151394323D01*
X165981050Y-152474387D02*
X165598420Y-152371726D01*
X162635712Y-149851452D02*
X162562724Y-149676985D01*
X82222295Y-109172614D02*
X82509270Y-109484921D01*
X81299603Y-108368522D02*
X81616815Y-108612700D01*
X212667205Y-142766146D02*
X212500745Y-142841087D01*
X83666216Y-142905454D02*
X83833289Y-142958581D01*
X279094404Y-102259082D02*
X278779595Y-102556053D01*
X85063407Y-117127871D02*
X85000000Y-117500084D01*
X81105886Y-140511100D02*
X81308061Y-140867874D01*
X17553383Y-102822485D02*
X17725658Y-102942893D01*
X211353205Y-113385505D02*
X211226915Y-113815618D01*
X42142316Y-42406952D02*
X35661447Y-45443494D01*
X80973607Y-108150482D02*
X81299603Y-108368522D01*
X214460825Y-141210896D02*
X214204400Y-141536480D01*
X162810745Y-150191647D02*
X162718526Y-150023100D01*
X80670330Y-138477420D02*
X80653695Y-138657628D01*
X65258100Y-36705590D02*
X61115644Y-37225366D01*
X278274310Y-102942798D02*
X278098749Y-103054021D01*
X280195449Y-100652752D02*
X280104232Y-100846264D01*
X133437260Y-149677077D02*
X133500000Y-149500076D01*
X280535134Y-99466192D02*
X280505343Y-99664443D01*
X183473095Y-47187596D02*
X187607532Y-44770389D01*
X91211091Y-38288819D02*
X86834388Y-37400551D01*
X211119114Y-114246155D02*
X211030450Y-114675401D01*
X143500000Y-118500084D02*
X143500000Y-118500084D01*
X165221376Y-152235099D02*
X164853289Y-152066776D01*
X215197414Y-139771940D02*
X215135325Y-139958689D01*
X83048455Y-110165664D02*
X83299370Y-110530672D01*
X245999969Y-109999992D02*
X217499969Y-107499985D01*
X84969519Y-114675492D02*
X85038400Y-115101733D01*
X166173406Y-152512271D02*
X165981050Y-152474387D01*
X112526889Y-47187679D02*
X108392452Y-44770473D01*
X211836544Y-112114852D02*
X211658667Y-112533408D01*
X268474504Y-50707734D02*
X270700104Y-52599995D01*
X83332767Y-142766238D02*
X83499226Y-142841178D01*
X80639472Y-107960295D02*
X80973607Y-108150482D01*
X277372070Y-103396889D02*
X277186398Y-103454556D01*
X83003226Y-142586293D02*
X83167285Y-142681115D01*
X15895744Y-100846361D02*
X16104047Y-101225165D01*
X15446764Y-99269027D02*
X15464842Y-99466287D01*
X200428826Y-39456930D02*
X204788892Y-38288733D01*
X140803727Y-80016199D02*
X137884133Y-74480345D01*
X82073765Y-141840761D02*
X82370153Y-142119688D01*
X215063777Y-140144438D02*
X214894085Y-140511008D01*
X280532956Y-98688191D02*
X280552544Y-98879424D01*
X162499985Y-149499985D02*
X152499985Y-118499985D01*
X212166681Y-142958490D02*
X211999969Y-142999985D01*
X270700104Y-52599995D02*
X270700104Y-52599995D01*
X163265240Y-150829144D02*
X163021712Y-150518301D01*
X211658667Y-112533408D02*
X211497338Y-112957530D01*
X130401565Y-152371818D02*
X130778609Y-152235191D01*
X16344032Y-101589616D02*
X16612329Y-101935644D01*
X85119871Y-116345287D02*
X85103148Y-116742367D01*
X215350324Y-138840129D02*
X215342235Y-139024622D01*
X279387643Y-101935547D02*
X279094404Y-102259082D01*
X215329640Y-138477328D02*
X215346275Y-138657536D01*
X133500000Y-149500076D02*
X143500000Y-118500084D01*
X84773054Y-113815708D02*
X84880855Y-114246245D01*
X277739453Y-103246878D02*
X277556561Y-103327494D01*
D11*
X271095797Y-54527096D02*
X271095797Y-54527096D01*
D10*
X211226915Y-113815618D02*
X211119114Y-114246155D01*
X49320225Y-39869495D02*
X42142316Y-42406952D01*
X166558092Y-152559728D02*
X166365893Y-152540813D01*
X27525481Y-50707822D02*
X25299881Y-52600082D01*
X216405258Y-107573902D02*
X216050592Y-107670246D01*
X132462026Y-151122000D02*
X132734745Y-150829236D01*
X204788892Y-38288733D02*
X209165594Y-37400465D01*
X15464842Y-99466287D02*
X15494633Y-99664538D01*
X215346275Y-138657536D02*
X215350324Y-138840129D01*
X278446586Y-102822389D02*
X278274310Y-102942798D01*
X164561730Y-64700881D02*
X168056200Y-60431492D01*
X213777674Y-109172525D02*
X213490699Y-109484833D01*
X81616815Y-108612700D02*
X81924594Y-108881302D01*
X152500107Y-85999992D02*
X155196258Y-80016122D01*
X25299881Y-52600082D02*
X15500002Y-98500076D01*
X210936563Y-117127779D02*
X210999969Y-117499992D01*
X210913119Y-115523165D02*
X210885746Y-115938254D01*
X210961569Y-115101642D02*
X210913119Y-115523165D01*
X78094703Y-36412079D02*
X73763537Y-36286017D01*
X85000000Y-117500084D02*
X85000000Y-117500084D01*
X162911947Y-150356808D02*
X162810745Y-150191647D01*
X15500002Y-98500076D02*
X15500002Y-98500076D01*
X80649645Y-138840220D02*
X80657735Y-139024714D01*
X35661447Y-45443494D02*
X30004880Y-48875683D01*
X83167285Y-142681115D02*
X83332767Y-142766238D01*
X131438254Y-64700961D02*
X127943784Y-60431573D01*
X128500000Y-152500076D02*
X128500000Y-152500076D01*
X167128733Y-152555881D02*
X166939933Y-152567546D01*
X278098749Y-103054021D02*
X277920322Y-103155551D01*
X155196258Y-80016122D02*
X158115851Y-74480267D01*
X211999969Y-142999985D02*
X167499985Y-152499985D01*
X80653695Y-138657628D02*
X80649645Y-138840220D01*
X129634091Y-152540904D02*
X129826579Y-152512363D01*
M02*
