G04 #@! TF.GenerationSoftware,KiCad,Pcbnew,(6.0.9)*
G04 #@! TF.CreationDate,2022-12-10T11:28:18+09:00*
G04 #@! TF.ProjectId,kidoairaku-swallowtail,6b69646f-6169-4726-916b-752d7377616c,rev?*
G04 #@! TF.SameCoordinates,Original*
G04 #@! TF.FileFunction,Soldermask,Bot*
G04 #@! TF.FilePolarity,Negative*
%FSLAX46Y46*%
G04 Gerber Fmt 4.6, Leading zero omitted, Abs format (unit mm)*
G04 Created by KiCad (PCBNEW (6.0.9)) date 2022-12-10 11:28:18*
%MOMM*%
%LPD*%
G01*
G04 APERTURE LIST*
G04 Aperture macros list*
%AMRoundRect*
0 Rectangle with rounded corners*
0 $1 Rounding radius*
0 $2 $3 $4 $5 $6 $7 $8 $9 X,Y pos of 4 corners*
0 Add a 4 corners polygon primitive as box body*
4,1,4,$2,$3,$4,$5,$6,$7,$8,$9,$2,$3,0*
0 Add four circle primitives for the rounded corners*
1,1,$1+$1,$2,$3*
1,1,$1+$1,$4,$5*
1,1,$1+$1,$6,$7*
1,1,$1+$1,$8,$9*
0 Add four rect primitives between the rounded corners*
20,1,$1+$1,$2,$3,$4,$5,0*
20,1,$1+$1,$4,$5,$6,$7,0*
20,1,$1+$1,$6,$7,$8,$9,0*
20,1,$1+$1,$8,$9,$2,$3,0*%
%AMOutline4P*
0 Free polygon, 4 corners , with rotation*
0 The origin of the aperture is its center*
0 number of corners: always 4*
0 $1 to $8 corner X, Y*
0 $9 Rotation angle, in degrees counterclockwise*
0 create outline with 4 corners*
4,1,4,$1,$2,$3,$4,$5,$6,$7,$8,$1,$2,$9*%
%AMFreePoly0*
4,1,22,0.500000,-0.750000,0.000000,-0.750000,0.000000,-0.745033,-0.079941,-0.743568,-0.215256,-0.701293,-0.333266,-0.622738,-0.424486,-0.514219,-0.481581,-0.384460,-0.499164,-0.250000,-0.500000,-0.250000,-0.500000,0.250000,-0.499164,0.250000,-0.499963,0.256109,-0.478152,0.396186,-0.417904,0.524511,-0.324060,0.630769,-0.204165,0.706417,-0.067858,0.745374,0.000000,0.744959,0.000000,0.750000,
0.500000,0.750000,0.500000,-0.750000,0.500000,-0.750000,$1*%
%AMFreePoly1*
4,1,20,0.000000,0.744959,0.073905,0.744508,0.209726,0.703889,0.328688,0.626782,0.421226,0.519385,0.479903,0.390333,0.500000,0.250000,0.500000,-0.250000,0.499851,-0.262216,0.476331,-0.402017,0.414519,-0.529596,0.319384,-0.634700,0.198574,-0.708877,0.061801,-0.746166,0.000000,-0.745033,0.000000,-0.750000,-0.500000,-0.750000,-0.500000,0.750000,0.000000,0.750000,0.000000,0.744959,
0.000000,0.744959,$1*%
G04 Aperture macros list end*
%ADD10C,1.600000*%
%ADD11C,2.200000*%
%ADD12C,4.300000*%
%ADD13Outline4P,-0.350000X-0.410000X0.350000X-0.410000X0.650000X0.410000X-0.650000X0.410000X0.000000*%
%ADD14Outline4P,-0.650000X-0.410000X0.650000X-0.410000X0.350000X0.410000X-0.350000X0.410000X180.000000*%
%ADD15Outline4P,-0.350000X-0.410000X0.350000X-0.410000X0.650000X0.410000X-0.650000X0.410000X180.000000*%
%ADD16Outline4P,-0.650000X-0.410000X0.650000X-0.410000X0.350000X0.410000X-0.350000X0.410000X0.000000*%
%ADD17C,1.900000*%
%ADD18C,3.400000*%
%ADD19R,1.200000X0.900000*%
%ADD20FreePoly0,90.000000*%
%ADD21FreePoly1,90.000000*%
%ADD22RoundRect,0.150000X0.587500X0.150000X-0.587500X0.150000X-0.587500X-0.150000X0.587500X-0.150000X0*%
%ADD23RoundRect,0.476250X1.428750X0.476250X-1.428750X0.476250X-1.428750X-0.476250X1.428750X-0.476250X0*%
%ADD24RoundRect,0.476250X-1.428750X-0.476250X1.428750X-0.476250X1.428750X0.476250X-1.428750X0.476250X0*%
%ADD25RoundRect,0.250000X0.625000X-0.400000X0.625000X0.400000X-0.625000X0.400000X-0.625000X-0.400000X0*%
%ADD26RoundRect,0.250000X-0.625000X0.400000X-0.625000X-0.400000X0.625000X-0.400000X0.625000X0.400000X0*%
G04 APERTURE END LIST*
D10*
G04 #@! TO.C,C1*
X150500000Y-112750000D03*
X145500000Y-112750000D03*
G04 #@! TD*
D11*
G04 #@! TO.C,H12*
X144145000Y-99695000D03*
G04 #@! TD*
G04 #@! TO.C,H11*
X151765000Y-99695000D03*
G04 #@! TD*
D12*
G04 #@! TO.C,D260*
X193355000Y-142800000D03*
D13*
X196155000Y-142050000D03*
D14*
X190555000Y-142050000D03*
D15*
X190555000Y-143550000D03*
D16*
X196155000Y-143550000D03*
G04 #@! TD*
D12*
G04 #@! TO.C,D259*
X176000000Y-146750000D03*
D13*
X178800000Y-146000000D03*
D14*
X173200000Y-146000000D03*
D15*
X173200000Y-147500000D03*
D16*
X178800000Y-147500000D03*
G04 #@! TD*
D12*
G04 #@! TO.C,D258*
X112500000Y-146250000D03*
D13*
X115300000Y-145500000D03*
D14*
X109700000Y-145500000D03*
D15*
X109700000Y-147000000D03*
D16*
X115300000Y-147000000D03*
G04 #@! TD*
D12*
G04 #@! TO.C,D257*
X94500000Y-142250000D03*
D13*
X97300000Y-141500000D03*
D14*
X91700000Y-141500000D03*
D15*
X91700000Y-143000000D03*
D16*
X97300000Y-143000000D03*
G04 #@! TD*
D12*
G04 #@! TO.C,D256*
X208500000Y-131250000D03*
D13*
X211300000Y-130500000D03*
D14*
X205700000Y-130500000D03*
D15*
X205700000Y-132000000D03*
D16*
X211300000Y-132000000D03*
G04 #@! TD*
D12*
G04 #@! TO.C,D255*
X200500000Y-132750000D03*
D13*
X203300000Y-132000000D03*
D14*
X197700000Y-132000000D03*
D15*
X197700000Y-133500000D03*
D16*
X203300000Y-133500000D03*
G04 #@! TD*
D12*
G04 #@! TO.C,D254*
X191000000Y-134750000D03*
D13*
X193800000Y-134000000D03*
D14*
X188200000Y-134000000D03*
D15*
X188200000Y-135500000D03*
D16*
X193800000Y-135500000D03*
G04 #@! TD*
D12*
G04 #@! TO.C,D253*
X183000000Y-136750000D03*
D13*
X185800000Y-136000000D03*
D14*
X180200000Y-136000000D03*
D15*
X180200000Y-137500000D03*
D16*
X185800000Y-137500000D03*
G04 #@! TD*
D12*
G04 #@! TO.C,D252*
X173500000Y-138500000D03*
D13*
X176300000Y-137750000D03*
D14*
X170700000Y-137750000D03*
D15*
X170700000Y-139250000D03*
D16*
X176300000Y-139250000D03*
G04 #@! TD*
D12*
G04 #@! TO.C,D251*
X166000000Y-140250000D03*
D13*
X168800000Y-139500000D03*
D14*
X163200000Y-139500000D03*
D15*
X163200000Y-141000000D03*
D16*
X168800000Y-141000000D03*
G04 #@! TD*
D12*
G04 #@! TO.C,D250*
X131000000Y-140250000D03*
D13*
X133800000Y-139500000D03*
D14*
X128200000Y-139500000D03*
D15*
X128200000Y-141000000D03*
D16*
X133800000Y-141000000D03*
G04 #@! TD*
D12*
G04 #@! TO.C,D249*
X122000000Y-138000000D03*
D13*
X124800000Y-137250000D03*
D14*
X119200000Y-137250000D03*
D15*
X119200000Y-138750000D03*
D16*
X124800000Y-138750000D03*
G04 #@! TD*
D12*
G04 #@! TO.C,D248*
X113200000Y-136250000D03*
D13*
X116000000Y-135500000D03*
D14*
X110400000Y-135500000D03*
D15*
X110400000Y-137000000D03*
D16*
X116000000Y-137000000D03*
G04 #@! TD*
D12*
G04 #@! TO.C,D247*
X104500000Y-134750000D03*
D13*
X107300000Y-134000000D03*
D14*
X101700000Y-134000000D03*
D15*
X101700000Y-135500000D03*
D16*
X107300000Y-135500000D03*
G04 #@! TD*
D12*
G04 #@! TO.C,D246*
X95500000Y-132250000D03*
D13*
X98300000Y-131500000D03*
D14*
X92700000Y-131500000D03*
D15*
X92700000Y-133000000D03*
D16*
X98300000Y-133000000D03*
G04 #@! TD*
D12*
G04 #@! TO.C,D245*
X87500000Y-131250000D03*
D13*
X90300000Y-130500000D03*
D14*
X84700000Y-130500000D03*
D15*
X84700000Y-132000000D03*
D16*
X90300000Y-132000000D03*
G04 #@! TD*
D12*
G04 #@! TO.C,D244*
X189500000Y-125750000D03*
D13*
X192300000Y-125000000D03*
D14*
X186700000Y-125000000D03*
D15*
X186700000Y-126500000D03*
D16*
X192300000Y-126500000D03*
G04 #@! TD*
D12*
G04 #@! TO.C,D243*
X172500000Y-130100000D03*
D13*
X175300000Y-129350000D03*
D14*
X169700000Y-129350000D03*
D15*
X169700000Y-130850000D03*
D16*
X175300000Y-130850000D03*
G04 #@! TD*
D12*
G04 #@! TO.C,D242*
X133500000Y-132250000D03*
D13*
X136300000Y-131500000D03*
D14*
X130700000Y-131500000D03*
D15*
X130700000Y-133000000D03*
D16*
X136300000Y-133000000D03*
G04 #@! TD*
D12*
G04 #@! TO.C,D241*
X115500000Y-128400000D03*
D13*
X118300000Y-127650000D03*
D14*
X112700000Y-127650000D03*
D15*
X112700000Y-129150000D03*
D16*
X118300000Y-129150000D03*
G04 #@! TD*
D12*
G04 #@! TO.C,D240*
X205500000Y-114250000D03*
D13*
X208300000Y-113500000D03*
D14*
X202700000Y-113500000D03*
D15*
X202700000Y-115000000D03*
D16*
X208300000Y-115000000D03*
G04 #@! TD*
D12*
G04 #@! TO.C,D239*
X187000000Y-117250000D03*
D13*
X189800000Y-116500000D03*
D14*
X184200000Y-116500000D03*
D15*
X184200000Y-118000000D03*
D16*
X189800000Y-118000000D03*
G04 #@! TD*
D12*
G04 #@! TO.C,D238*
X179000000Y-119250000D03*
D13*
X181800000Y-118500000D03*
D14*
X176200000Y-118500000D03*
D15*
X176200000Y-120000000D03*
D16*
X181800000Y-120000000D03*
G04 #@! TD*
D12*
G04 #@! TO.C,D237*
X170000000Y-120750000D03*
D13*
X172800000Y-120000000D03*
D14*
X167200000Y-120000000D03*
D15*
X167200000Y-121500000D03*
D16*
X172800000Y-121500000D03*
G04 #@! TD*
D12*
G04 #@! TO.C,D236*
X161500000Y-122750000D03*
D13*
X164300000Y-122000000D03*
D14*
X158700000Y-122000000D03*
D15*
X158700000Y-123500000D03*
D16*
X164300000Y-123500000D03*
G04 #@! TD*
D12*
G04 #@! TO.C,D235*
X134000000Y-122250000D03*
D13*
X136800000Y-121500000D03*
D14*
X131200000Y-121500000D03*
D15*
X131200000Y-123000000D03*
D16*
X136800000Y-123000000D03*
G04 #@! TD*
D12*
G04 #@! TO.C,D234*
X126000000Y-121250000D03*
D13*
X128800000Y-120500000D03*
D14*
X123200000Y-120500000D03*
D15*
X123200000Y-122000000D03*
D16*
X128800000Y-122000000D03*
G04 #@! TD*
D12*
G04 #@! TO.C,D233*
X117000000Y-118750000D03*
D13*
X119800000Y-118000000D03*
D14*
X114200000Y-118000000D03*
D15*
X114200000Y-119500000D03*
D16*
X119800000Y-119500000D03*
G04 #@! TD*
D12*
G04 #@! TO.C,D232*
X109000000Y-117750000D03*
D13*
X111800000Y-117000000D03*
D14*
X106200000Y-117000000D03*
D15*
X106200000Y-118500000D03*
D16*
X111800000Y-118500000D03*
G04 #@! TD*
D12*
G04 #@! TO.C,D231*
X100000000Y-116750000D03*
D13*
X102800000Y-116000000D03*
D14*
X97200000Y-116000000D03*
D15*
X97200000Y-117500000D03*
D16*
X102800000Y-117500000D03*
G04 #@! TD*
D12*
G04 #@! TO.C,D230*
X276000000Y-99250000D03*
D13*
X278800000Y-98500000D03*
D14*
X273200000Y-98500000D03*
D15*
X273200000Y-100000000D03*
D16*
X278800000Y-100000000D03*
G04 #@! TD*
D12*
G04 #@! TO.C,D229*
X259000000Y-103250000D03*
D13*
X261800000Y-102500000D03*
D14*
X256200000Y-102500000D03*
D15*
X256200000Y-104000000D03*
D16*
X261800000Y-104000000D03*
G04 #@! TD*
D12*
G04 #@! TO.C,D228*
X240000000Y-102750000D03*
D13*
X242800000Y-102000000D03*
D14*
X237200000Y-102000000D03*
D15*
X237200000Y-103500000D03*
D16*
X242800000Y-103500000D03*
G04 #@! TD*
D12*
G04 #@! TO.C,D227*
X221500000Y-102250000D03*
D13*
X224300000Y-101500000D03*
D14*
X218700000Y-101500000D03*
D15*
X218700000Y-103000000D03*
D16*
X224300000Y-103000000D03*
G04 #@! TD*
D12*
G04 #@! TO.C,D226*
X203000000Y-105750000D03*
D13*
X205800000Y-105000000D03*
D14*
X200200000Y-105000000D03*
D15*
X200200000Y-106500000D03*
D16*
X205800000Y-106500000D03*
G04 #@! TD*
D12*
G04 #@! TO.C,D225*
X195000000Y-107750000D03*
D13*
X197800000Y-107000000D03*
D14*
X192200000Y-107000000D03*
D15*
X192200000Y-108500000D03*
D16*
X197800000Y-108500000D03*
G04 #@! TD*
D12*
G04 #@! TO.C,D224*
X186500000Y-109750000D03*
D13*
X189300000Y-109000000D03*
D14*
X183700000Y-109000000D03*
D15*
X183700000Y-110500000D03*
D16*
X189300000Y-110500000D03*
G04 #@! TD*
D12*
G04 #@! TO.C,D223*
X119000000Y-112250000D03*
D13*
X121800000Y-111500000D03*
D14*
X116200000Y-111500000D03*
D15*
X116200000Y-113000000D03*
D16*
X121800000Y-113000000D03*
G04 #@! TD*
D12*
G04 #@! TO.C,D222*
X101500000Y-107750000D03*
D13*
X104300000Y-107000000D03*
D14*
X98700000Y-107000000D03*
D15*
X98700000Y-108500000D03*
D16*
X104300000Y-108500000D03*
G04 #@! TD*
D12*
G04 #@! TO.C,D221*
X92500000Y-105750000D03*
D13*
X95300000Y-105000000D03*
D14*
X89700000Y-105000000D03*
D15*
X89700000Y-106500000D03*
D16*
X95300000Y-106500000D03*
G04 #@! TD*
D12*
G04 #@! TO.C,D220*
X84000000Y-104750000D03*
D13*
X86800000Y-104000000D03*
D14*
X81200000Y-104000000D03*
D15*
X81200000Y-105500000D03*
D16*
X86800000Y-105500000D03*
G04 #@! TD*
D12*
G04 #@! TO.C,D219*
X65500000Y-104750000D03*
D13*
X68300000Y-104000000D03*
D14*
X62700000Y-104000000D03*
D15*
X62700000Y-105500000D03*
D16*
X68300000Y-105500000D03*
G04 #@! TD*
D12*
G04 #@! TO.C,D218*
X47000000Y-105250000D03*
D13*
X49800000Y-104500000D03*
D14*
X44200000Y-104500000D03*
D15*
X44200000Y-106000000D03*
D16*
X49800000Y-106000000D03*
G04 #@! TD*
D12*
G04 #@! TO.C,D217*
X29500000Y-101750000D03*
D13*
X32300000Y-101000000D03*
D14*
X26700000Y-101000000D03*
D15*
X26700000Y-102500000D03*
D16*
X32300000Y-102500000D03*
G04 #@! TD*
D12*
G04 #@! TO.C,D216*
X274000000Y-90750000D03*
D13*
X276800000Y-90000000D03*
D14*
X271200000Y-90000000D03*
D15*
X271200000Y-91500000D03*
D16*
X276800000Y-91500000D03*
G04 #@! TD*
D12*
G04 #@! TO.C,D215*
X265500000Y-92750000D03*
D13*
X268300000Y-92000000D03*
D14*
X262700000Y-92000000D03*
D15*
X262700000Y-93500000D03*
D16*
X268300000Y-93500000D03*
G04 #@! TD*
D12*
G04 #@! TO.C,D214*
X256000000Y-94750000D03*
D13*
X258800000Y-94000000D03*
D14*
X253200000Y-94000000D03*
D15*
X253200000Y-95500000D03*
D16*
X258800000Y-95500000D03*
G04 #@! TD*
D12*
G04 #@! TO.C,D213*
X248000000Y-96250000D03*
D13*
X250800000Y-95500000D03*
D14*
X245200000Y-95500000D03*
D15*
X245200000Y-97000000D03*
D16*
X250800000Y-97000000D03*
G04 #@! TD*
D12*
G04 #@! TO.C,D212*
X237500000Y-94250000D03*
D13*
X240300000Y-93500000D03*
D14*
X234700000Y-93500000D03*
D15*
X234700000Y-95000000D03*
D16*
X240300000Y-95000000D03*
G04 #@! TD*
D12*
G04 #@! TO.C,D211*
X229500000Y-95250000D03*
D13*
X232300000Y-94500000D03*
D14*
X226700000Y-94500000D03*
D15*
X226700000Y-96000000D03*
D16*
X232300000Y-96000000D03*
G04 #@! TD*
D12*
G04 #@! TO.C,D210*
X220000000Y-93750000D03*
D13*
X222800000Y-93000000D03*
D14*
X217200000Y-93000000D03*
D15*
X217200000Y-94500000D03*
D16*
X222800000Y-94500000D03*
G04 #@! TD*
D12*
G04 #@! TO.C,D209*
X211000000Y-95750000D03*
D13*
X213800000Y-95000000D03*
D14*
X208200000Y-95000000D03*
D15*
X208200000Y-96500000D03*
D16*
X213800000Y-96500000D03*
G04 #@! TD*
D12*
G04 #@! TO.C,D208*
X202500000Y-97750000D03*
D13*
X205300000Y-97000000D03*
D14*
X199700000Y-97000000D03*
D15*
X199700000Y-98500000D03*
D16*
X205300000Y-98500000D03*
G04 #@! TD*
D12*
G04 #@! TO.C,D207*
X184000000Y-101250000D03*
D13*
X186800000Y-100500000D03*
D14*
X181200000Y-100500000D03*
D15*
X181200000Y-102000000D03*
D16*
X186800000Y-102000000D03*
G04 #@! TD*
D12*
G04 #@! TO.C,D206*
X176000000Y-103250000D03*
D13*
X178800000Y-102500000D03*
D14*
X173200000Y-102500000D03*
D15*
X173200000Y-104000000D03*
D16*
X178800000Y-104000000D03*
G04 #@! TD*
D12*
G04 #@! TO.C,D205*
X120500000Y-102750000D03*
D13*
X123300000Y-102000000D03*
D14*
X117700000Y-102000000D03*
D15*
X117700000Y-103500000D03*
D16*
X123300000Y-103500000D03*
G04 #@! TD*
D12*
G04 #@! TO.C,D204*
X112000000Y-101250000D03*
D13*
X114800000Y-100500000D03*
D14*
X109200000Y-100500000D03*
D15*
X109200000Y-102000000D03*
D16*
X114800000Y-102000000D03*
G04 #@! TD*
D12*
G04 #@! TO.C,D203*
X104000000Y-99750000D03*
D13*
X106800000Y-99000000D03*
D14*
X101200000Y-99000000D03*
D15*
X101200000Y-100500000D03*
D16*
X106800000Y-100500000D03*
G04 #@! TD*
D12*
G04 #@! TO.C,D202*
X85000000Y-94750000D03*
D13*
X87800000Y-94000000D03*
D14*
X82200000Y-94000000D03*
D15*
X82200000Y-95500000D03*
D16*
X87800000Y-95500000D03*
G04 #@! TD*
D12*
G04 #@! TO.C,D201*
X76000000Y-93750000D03*
D13*
X78800000Y-93000000D03*
D14*
X73200000Y-93000000D03*
D15*
X73200000Y-94500000D03*
D16*
X78800000Y-94500000D03*
G04 #@! TD*
D12*
G04 #@! TO.C,D200*
X66000000Y-95250000D03*
D13*
X68800000Y-94500000D03*
D14*
X63200000Y-94500000D03*
D15*
X63200000Y-96000000D03*
D16*
X68800000Y-96000000D03*
G04 #@! TD*
D12*
G04 #@! TO.C,D199*
X58000000Y-94250000D03*
D13*
X60800000Y-93500000D03*
D14*
X55200000Y-93500000D03*
D15*
X55200000Y-95000000D03*
D16*
X60800000Y-95000000D03*
G04 #@! TD*
D12*
G04 #@! TO.C,D198*
X48500000Y-96250000D03*
D13*
X51300000Y-95500000D03*
D14*
X45700000Y-95500000D03*
D15*
X45700000Y-97000000D03*
D16*
X51300000Y-97000000D03*
G04 #@! TD*
D12*
G04 #@! TO.C,D197*
X39500000Y-94250000D03*
D13*
X42300000Y-93500000D03*
D14*
X36700000Y-93500000D03*
D15*
X36700000Y-95000000D03*
D16*
X42300000Y-95000000D03*
G04 #@! TD*
D12*
G04 #@! TO.C,D196*
X30500000Y-92250000D03*
D13*
X33300000Y-91500000D03*
D14*
X27700000Y-91500000D03*
D15*
X27700000Y-93000000D03*
D16*
X33300000Y-93000000D03*
G04 #@! TD*
D12*
G04 #@! TO.C,D195*
X22000000Y-90750000D03*
D13*
X24800000Y-90000000D03*
D14*
X19200000Y-90000000D03*
D15*
X19200000Y-91500000D03*
D16*
X24800000Y-91500000D03*
G04 #@! TD*
D12*
G04 #@! TO.C,D194*
X272000000Y-82250000D03*
D13*
X274800000Y-81500000D03*
D14*
X269200000Y-81500000D03*
D15*
X269200000Y-83000000D03*
D16*
X274800000Y-83000000D03*
G04 #@! TD*
D12*
G04 #@! TO.C,D193*
X254500000Y-86250000D03*
D13*
X257300000Y-85500000D03*
D14*
X251700000Y-85500000D03*
D15*
X251700000Y-87000000D03*
D16*
X257300000Y-87000000D03*
G04 #@! TD*
D12*
G04 #@! TO.C,D192*
X237000000Y-86250000D03*
D13*
X239800000Y-85500000D03*
D14*
X234200000Y-85500000D03*
D15*
X234200000Y-87000000D03*
D16*
X239800000Y-87000000D03*
G04 #@! TD*
D12*
G04 #@! TO.C,D191*
X218500000Y-85750000D03*
D13*
X221300000Y-85000000D03*
D14*
X215700000Y-85000000D03*
D15*
X215700000Y-86500000D03*
D16*
X221300000Y-86500000D03*
G04 #@! TD*
D12*
G04 #@! TO.C,D190*
X199500000Y-89250000D03*
D13*
X202300000Y-88500000D03*
D14*
X196700000Y-88500000D03*
D15*
X196700000Y-90000000D03*
D16*
X202300000Y-90000000D03*
G04 #@! TD*
D12*
G04 #@! TO.C,D189*
X192000000Y-90750000D03*
D13*
X194800000Y-90000000D03*
D14*
X189200000Y-90000000D03*
D15*
X189200000Y-91500000D03*
D16*
X194800000Y-91500000D03*
G04 #@! TD*
D12*
G04 #@! TO.C,D188*
X183000000Y-93250000D03*
D13*
X185800000Y-92500000D03*
D14*
X180200000Y-92500000D03*
D15*
X180200000Y-94000000D03*
D16*
X185800000Y-94000000D03*
G04 #@! TD*
D12*
G04 #@! TO.C,D187*
X123000000Y-95250000D03*
D13*
X125800000Y-94500000D03*
D14*
X120200000Y-94500000D03*
D15*
X120200000Y-96000000D03*
D16*
X125800000Y-96000000D03*
G04 #@! TD*
D12*
G04 #@! TO.C,D186*
X105500000Y-91250000D03*
D13*
X108300000Y-90500000D03*
D14*
X102700000Y-90500000D03*
D15*
X102700000Y-92000000D03*
D16*
X108300000Y-92000000D03*
G04 #@! TD*
D12*
G04 #@! TO.C,D185*
X97000000Y-89250000D03*
D13*
X99800000Y-88500000D03*
D14*
X94200000Y-88500000D03*
D15*
X94200000Y-90000000D03*
D16*
X99800000Y-90000000D03*
G04 #@! TD*
D12*
G04 #@! TO.C,D184*
X87500000Y-87750000D03*
D13*
X90300000Y-87000000D03*
D14*
X84700000Y-87000000D03*
D15*
X84700000Y-88500000D03*
D16*
X90300000Y-88500000D03*
G04 #@! TD*
D12*
G04 #@! TO.C,D183*
X69000000Y-88250000D03*
D13*
X71800000Y-87500000D03*
D14*
X66200000Y-87500000D03*
D15*
X66200000Y-89000000D03*
D16*
X71800000Y-89000000D03*
G04 #@! TD*
D12*
G04 #@! TO.C,D182*
X50500000Y-88750000D03*
D13*
X53300000Y-88000000D03*
D14*
X47700000Y-88000000D03*
D15*
X47700000Y-89500000D03*
D16*
X53300000Y-89500000D03*
G04 #@! TD*
D12*
G04 #@! TO.C,D181*
X33000000Y-85250000D03*
D13*
X35800000Y-84500000D03*
D14*
X30200000Y-84500000D03*
D15*
X30200000Y-86000000D03*
D16*
X35800000Y-86000000D03*
G04 #@! TD*
D12*
G04 #@! TO.C,D180*
X270500000Y-74250000D03*
D13*
X273300000Y-73500000D03*
D14*
X267700000Y-73500000D03*
D15*
X267700000Y-75000000D03*
D16*
X273300000Y-75000000D03*
G04 #@! TD*
D12*
G04 #@! TO.C,D179*
X262500000Y-76250000D03*
D13*
X265300000Y-75500000D03*
D14*
X259700000Y-75500000D03*
D15*
X259700000Y-77000000D03*
D16*
X265300000Y-77000000D03*
G04 #@! TD*
D12*
G04 #@! TO.C,D178*
X252500000Y-78250000D03*
D13*
X255300000Y-77500000D03*
D14*
X249700000Y-77500000D03*
D15*
X249700000Y-79000000D03*
D16*
X255300000Y-79000000D03*
G04 #@! TD*
D12*
G04 #@! TO.C,D177*
X245000000Y-79250000D03*
D13*
X247800000Y-78500000D03*
D14*
X242200000Y-78500000D03*
D15*
X242200000Y-80000000D03*
D16*
X247800000Y-80000000D03*
G04 #@! TD*
D12*
G04 #@! TO.C,D176*
X234000000Y-77750000D03*
D13*
X236800000Y-77000000D03*
D14*
X231200000Y-77000000D03*
D15*
X231200000Y-78500000D03*
D16*
X236800000Y-78500000D03*
G04 #@! TD*
D12*
G04 #@! TO.C,D175*
X226000000Y-78750000D03*
D13*
X228800000Y-78000000D03*
D14*
X223200000Y-78000000D03*
D15*
X223200000Y-79500000D03*
D16*
X228800000Y-79500000D03*
G04 #@! TD*
D12*
G04 #@! TO.C,D174*
X215500000Y-76750000D03*
D13*
X218300000Y-76000000D03*
D14*
X212700000Y-76000000D03*
D15*
X212700000Y-77500000D03*
D16*
X218300000Y-77500000D03*
G04 #@! TD*
D12*
G04 #@! TO.C,D173*
X207500000Y-79250000D03*
D13*
X210300000Y-78500000D03*
D14*
X204700000Y-78500000D03*
D15*
X204700000Y-80000000D03*
D16*
X210300000Y-80000000D03*
G04 #@! TD*
D12*
G04 #@! TO.C,D172*
X199000000Y-81250000D03*
D13*
X201800000Y-80500000D03*
D14*
X196200000Y-80500000D03*
D15*
X196200000Y-82000000D03*
D16*
X201800000Y-82000000D03*
G04 #@! TD*
D12*
G04 #@! TO.C,D171*
X180500000Y-84750000D03*
D13*
X183300000Y-84000000D03*
D14*
X177700000Y-84000000D03*
D15*
X177700000Y-85500000D03*
D16*
X183300000Y-85500000D03*
G04 #@! TD*
D12*
G04 #@! TO.C,D170*
X172000000Y-86500000D03*
D13*
X174800000Y-85750000D03*
D14*
X169200000Y-85750000D03*
D15*
X169200000Y-87250000D03*
D16*
X174800000Y-87250000D03*
G04 #@! TD*
D12*
G04 #@! TO.C,D169*
X124000000Y-86250000D03*
D13*
X126800000Y-85500000D03*
D14*
X121200000Y-85500000D03*
D15*
X121200000Y-87000000D03*
D16*
X126800000Y-87000000D03*
G04 #@! TD*
D12*
G04 #@! TO.C,D168*
X115500000Y-84250000D03*
D13*
X118300000Y-83500000D03*
D14*
X112700000Y-83500000D03*
D15*
X112700000Y-85000000D03*
D16*
X118300000Y-85000000D03*
G04 #@! TD*
D12*
G04 #@! TO.C,D167*
X107300000Y-83750000D03*
D13*
X110100000Y-83000000D03*
D14*
X104500000Y-83000000D03*
D15*
X104500000Y-84500000D03*
D16*
X110100000Y-84500000D03*
G04 #@! TD*
D12*
G04 #@! TO.C,D166*
X88500000Y-78750000D03*
D13*
X91300000Y-78000000D03*
D14*
X85700000Y-78000000D03*
D15*
X85700000Y-79500000D03*
D16*
X91300000Y-79500000D03*
G04 #@! TD*
D12*
G04 #@! TO.C,D165*
X79500000Y-76750000D03*
D13*
X82300000Y-76000000D03*
D14*
X76700000Y-76000000D03*
D15*
X76700000Y-77500000D03*
D16*
X82300000Y-77500000D03*
G04 #@! TD*
D12*
G04 #@! TO.C,D164*
X70500000Y-78750000D03*
D13*
X73300000Y-78000000D03*
D14*
X67700000Y-78000000D03*
D15*
X67700000Y-79500000D03*
D16*
X73300000Y-79500000D03*
G04 #@! TD*
D12*
G04 #@! TO.C,D163*
X61500000Y-77750000D03*
D13*
X64300000Y-77000000D03*
D14*
X58700000Y-77000000D03*
D15*
X58700000Y-78500000D03*
D16*
X64300000Y-78500000D03*
G04 #@! TD*
D12*
G04 #@! TO.C,D162*
X51500000Y-79250000D03*
D13*
X54300000Y-78500000D03*
D14*
X48700000Y-78500000D03*
D15*
X48700000Y-80000000D03*
D16*
X54300000Y-80000000D03*
G04 #@! TD*
D12*
G04 #@! TO.C,D161*
X43000000Y-77750000D03*
D13*
X45800000Y-77000000D03*
D14*
X40200000Y-77000000D03*
D15*
X40200000Y-78500000D03*
D16*
X45800000Y-78500000D03*
G04 #@! TD*
D12*
G04 #@! TO.C,D160*
X34500000Y-75250000D03*
D13*
X37300000Y-74500000D03*
D14*
X31700000Y-74500000D03*
D15*
X31700000Y-76000000D03*
D16*
X37300000Y-76000000D03*
G04 #@! TD*
D12*
G04 #@! TO.C,D159*
X25500000Y-74250000D03*
D13*
X28300000Y-73500000D03*
D14*
X22700000Y-73500000D03*
D15*
X22700000Y-75000000D03*
D16*
X28300000Y-75000000D03*
G04 #@! TD*
D12*
G04 #@! TO.C,D158*
X269000000Y-65750000D03*
D13*
X271800000Y-65000000D03*
D14*
X266200000Y-65000000D03*
D15*
X266200000Y-66500000D03*
D16*
X271800000Y-66500000D03*
G04 #@! TD*
D12*
G04 #@! TO.C,D157*
X251000000Y-69750000D03*
D13*
X253800000Y-69000000D03*
D14*
X248200000Y-69000000D03*
D15*
X248200000Y-70500000D03*
D16*
X253800000Y-70500000D03*
G04 #@! TD*
D12*
G04 #@! TO.C,D156*
X232500000Y-69250000D03*
D13*
X235300000Y-68500000D03*
D14*
X229700000Y-68500000D03*
D15*
X229700000Y-70000000D03*
D16*
X235300000Y-70000000D03*
G04 #@! TD*
D12*
G04 #@! TO.C,D155*
X214000000Y-68750000D03*
D13*
X216800000Y-68000000D03*
D14*
X211200000Y-68000000D03*
D15*
X211200000Y-69500000D03*
D16*
X216800000Y-69500000D03*
G04 #@! TD*
D12*
G04 #@! TO.C,D154*
X196500000Y-72750000D03*
D13*
X199300000Y-72000000D03*
D14*
X193700000Y-72000000D03*
D15*
X193700000Y-73500000D03*
D16*
X199300000Y-73500000D03*
G04 #@! TD*
D12*
G04 #@! TO.C,D153*
X187800000Y-74250000D03*
D13*
X190600000Y-73500000D03*
D14*
X185000000Y-73500000D03*
D15*
X185000000Y-75000000D03*
D16*
X190600000Y-75000000D03*
G04 #@! TD*
D12*
G04 #@! TO.C,D152*
X179000000Y-76250000D03*
D13*
X181800000Y-75500000D03*
D14*
X176200000Y-75500000D03*
D15*
X176200000Y-77000000D03*
D16*
X181800000Y-77000000D03*
G04 #@! TD*
D12*
G04 #@! TO.C,D151*
X126500000Y-78750000D03*
D13*
X129300000Y-78000000D03*
D14*
X123700000Y-78000000D03*
D15*
X123700000Y-79500000D03*
D16*
X129300000Y-79500000D03*
G04 #@! TD*
D12*
G04 #@! TO.C,D150*
X108000000Y-73250000D03*
D13*
X110800000Y-72500000D03*
D14*
X105200000Y-72500000D03*
D15*
X105200000Y-74000000D03*
D16*
X110800000Y-74000000D03*
G04 #@! TD*
D12*
G04 #@! TO.C,D149*
X100000000Y-72250000D03*
D13*
X102800000Y-71500000D03*
D14*
X97200000Y-71500000D03*
D15*
X97200000Y-73000000D03*
D16*
X102800000Y-73000000D03*
G04 #@! TD*
D12*
G04 #@! TO.C,D148*
X91000000Y-71250000D03*
D13*
X93800000Y-70500000D03*
D14*
X88200000Y-70500000D03*
D15*
X88200000Y-72000000D03*
D16*
X93800000Y-72000000D03*
G04 #@! TD*
D12*
G04 #@! TO.C,D147*
X72500000Y-71750000D03*
D13*
X75300000Y-71000000D03*
D14*
X69700000Y-71000000D03*
D15*
X69700000Y-72500000D03*
D16*
X75300000Y-72500000D03*
G04 #@! TD*
D12*
G04 #@! TO.C,D146*
X54500000Y-72750000D03*
D13*
X57300000Y-72000000D03*
D14*
X51700000Y-72000000D03*
D15*
X51700000Y-73500000D03*
D16*
X57300000Y-73500000D03*
G04 #@! TD*
D12*
G04 #@! TO.C,D145*
X36500000Y-68750000D03*
D13*
X39300000Y-68000000D03*
D14*
X33700000Y-68000000D03*
D15*
X33700000Y-69500000D03*
D16*
X39300000Y-69500000D03*
G04 #@! TD*
D12*
G04 #@! TO.C,D144*
X266500000Y-57750000D03*
D13*
X269300000Y-57000000D03*
D14*
X263700000Y-57000000D03*
D15*
X263700000Y-58500000D03*
D16*
X269300000Y-58500000D03*
G04 #@! TD*
D12*
G04 #@! TO.C,D143*
X259000000Y-59750000D03*
D13*
X261800000Y-59000000D03*
D14*
X256200000Y-59000000D03*
D15*
X256200000Y-60500000D03*
D16*
X261800000Y-60500000D03*
G04 #@! TD*
D12*
G04 #@! TO.C,D142*
X249000000Y-61250000D03*
D13*
X251800000Y-60500000D03*
D14*
X246200000Y-60500000D03*
D15*
X246200000Y-62000000D03*
D16*
X251800000Y-62000000D03*
G04 #@! TD*
D12*
G04 #@! TO.C,D141*
X241500000Y-63250000D03*
D13*
X244300000Y-62500000D03*
D14*
X238700000Y-62500000D03*
D15*
X238700000Y-64000000D03*
D16*
X244300000Y-64000000D03*
G04 #@! TD*
D12*
G04 #@! TO.C,D140*
X231000000Y-60750000D03*
D13*
X233800000Y-60000000D03*
D14*
X228200000Y-60000000D03*
D15*
X228200000Y-61500000D03*
D16*
X233800000Y-61500000D03*
G04 #@! TD*
D12*
G04 #@! TO.C,D139*
X222500000Y-62750000D03*
D13*
X225300000Y-62000000D03*
D14*
X219700000Y-62000000D03*
D15*
X219700000Y-63500000D03*
D16*
X225300000Y-63500000D03*
G04 #@! TD*
D12*
G04 #@! TO.C,D138*
X212500000Y-60250000D03*
D13*
X215300000Y-59500000D03*
D14*
X209700000Y-59500000D03*
D15*
X209700000Y-61000000D03*
D16*
X215300000Y-61000000D03*
G04 #@! TD*
D12*
G04 #@! TO.C,D137*
X204000000Y-62250000D03*
D13*
X206800000Y-61500000D03*
D14*
X201200000Y-61500000D03*
D15*
X201200000Y-63000000D03*
D16*
X206800000Y-63000000D03*
G04 #@! TD*
D12*
G04 #@! TO.C,D136*
X196000000Y-64750000D03*
D13*
X198800000Y-64000000D03*
D14*
X193200000Y-64000000D03*
D15*
X193200000Y-65500000D03*
D16*
X198800000Y-65500000D03*
G04 #@! TD*
D12*
G04 #@! TO.C,D135*
X177000000Y-68250000D03*
D13*
X179800000Y-67500000D03*
D14*
X174200000Y-67500000D03*
D15*
X174200000Y-69000000D03*
D16*
X179800000Y-69000000D03*
G04 #@! TD*
D12*
G04 #@! TO.C,D134*
X168500000Y-70250000D03*
D13*
X171300000Y-69500000D03*
D14*
X165700000Y-69500000D03*
D15*
X165700000Y-71000000D03*
D16*
X171300000Y-71000000D03*
G04 #@! TD*
D12*
G04 #@! TO.C,D133*
X128000000Y-69750000D03*
D13*
X130800000Y-69000000D03*
D14*
X125200000Y-69000000D03*
D15*
X125200000Y-70500000D03*
D16*
X130800000Y-70500000D03*
G04 #@! TD*
D12*
G04 #@! TO.C,D132*
X119000000Y-67750000D03*
D13*
X121800000Y-67000000D03*
D14*
X116200000Y-67000000D03*
D15*
X116200000Y-68500000D03*
D16*
X121800000Y-68500000D03*
G04 #@! TD*
D12*
G04 #@! TO.C,D131*
X110500000Y-65750000D03*
D13*
X113300000Y-65000000D03*
D14*
X107700000Y-65000000D03*
D15*
X107700000Y-66500000D03*
D16*
X113300000Y-66500000D03*
G04 #@! TD*
D12*
G04 #@! TO.C,D130*
X92000000Y-61750000D03*
D13*
X94800000Y-61000000D03*
D14*
X89200000Y-61000000D03*
D15*
X89200000Y-62500000D03*
D16*
X94800000Y-62500000D03*
G04 #@! TD*
D12*
G04 #@! TO.C,D129*
X83500000Y-60250000D03*
D13*
X86300000Y-59500000D03*
D14*
X80700000Y-59500000D03*
D15*
X80700000Y-61000000D03*
D16*
X86300000Y-61000000D03*
G04 #@! TD*
D12*
G04 #@! TO.C,D128*
X73500000Y-62250000D03*
D13*
X76300000Y-61500000D03*
D14*
X70700000Y-61500000D03*
D15*
X70700000Y-63000000D03*
D16*
X76300000Y-63000000D03*
G04 #@! TD*
D12*
G04 #@! TO.C,D127*
X65000000Y-60750000D03*
D13*
X67800000Y-60000000D03*
D14*
X62200000Y-60000000D03*
D15*
X62200000Y-61500000D03*
D16*
X67800000Y-61500000D03*
G04 #@! TD*
D12*
G04 #@! TO.C,D126*
X55000000Y-62750000D03*
D13*
X57800000Y-62000000D03*
D14*
X52200000Y-62000000D03*
D15*
X52200000Y-63500000D03*
D16*
X57800000Y-63500000D03*
G04 #@! TD*
D12*
G04 #@! TO.C,D125*
X47000000Y-61750000D03*
D13*
X49800000Y-61000000D03*
D14*
X44200000Y-61000000D03*
D15*
X44200000Y-62500000D03*
D16*
X49800000Y-62500000D03*
G04 #@! TD*
D12*
G04 #@! TO.C,D124*
X37500000Y-59250000D03*
D13*
X40300000Y-58500000D03*
D14*
X34700000Y-58500000D03*
D15*
X34700000Y-60000000D03*
D16*
X40300000Y-60000000D03*
G04 #@! TD*
D12*
G04 #@! TO.C,D123*
X29000000Y-57750000D03*
D13*
X31800000Y-57000000D03*
D14*
X26200000Y-57000000D03*
D15*
X26200000Y-58500000D03*
D16*
X31800000Y-58500000D03*
G04 #@! TD*
D12*
G04 #@! TO.C,D122*
X249000000Y-53250000D03*
D13*
X251800000Y-52500000D03*
D14*
X246200000Y-52500000D03*
D15*
X246200000Y-54000000D03*
D16*
X251800000Y-54000000D03*
G04 #@! TD*
D12*
G04 #@! TO.C,D121*
X229500000Y-52750000D03*
D13*
X232300000Y-52000000D03*
D14*
X226700000Y-52000000D03*
D15*
X226700000Y-53500000D03*
D16*
X232300000Y-53500000D03*
G04 #@! TD*
D12*
G04 #@! TO.C,D120*
X210000000Y-52250000D03*
D13*
X212800000Y-51500000D03*
D14*
X207200000Y-51500000D03*
D15*
X207200000Y-53000000D03*
D16*
X212800000Y-53000000D03*
G04 #@! TD*
D12*
G04 #@! TO.C,D119*
X193000000Y-55750000D03*
D13*
X195800000Y-55000000D03*
D14*
X190200000Y-55000000D03*
D15*
X190200000Y-56500000D03*
D16*
X195800000Y-56500000D03*
G04 #@! TD*
D12*
G04 #@! TO.C,D118*
X185000000Y-57750000D03*
D13*
X187800000Y-57000000D03*
D14*
X182200000Y-57000000D03*
D15*
X182200000Y-58500000D03*
D16*
X187800000Y-58500000D03*
G04 #@! TD*
D12*
G04 #@! TO.C,D117*
X111500000Y-57250000D03*
D13*
X114300000Y-56500000D03*
D14*
X108700000Y-56500000D03*
D15*
X108700000Y-58000000D03*
D16*
X114300000Y-58000000D03*
G04 #@! TD*
D12*
G04 #@! TO.C,D116*
X103000000Y-55750000D03*
D13*
X105800000Y-55000000D03*
D14*
X100200000Y-55000000D03*
D15*
X100200000Y-56500000D03*
D16*
X105800000Y-56500000D03*
G04 #@! TD*
D12*
G04 #@! TO.C,D115*
X95000000Y-54750000D03*
D13*
X97800000Y-54000000D03*
D14*
X92200000Y-54000000D03*
D15*
X92200000Y-55500000D03*
D16*
X97800000Y-55500000D03*
G04 #@! TD*
D12*
G04 #@! TO.C,D114*
X76500000Y-55250000D03*
D13*
X79300000Y-54500000D03*
D14*
X73700000Y-54500000D03*
D15*
X73700000Y-56000000D03*
D16*
X79300000Y-56000000D03*
G04 #@! TD*
D12*
G04 #@! TO.C,D113*
X58000000Y-55750000D03*
D13*
X60800000Y-55000000D03*
D14*
X55200000Y-55000000D03*
D15*
X55200000Y-56500000D03*
D16*
X60800000Y-56500000D03*
G04 #@! TD*
D12*
G04 #@! TO.C,D112*
X245500000Y-44750000D03*
D13*
X248300000Y-44000000D03*
D14*
X242700000Y-44000000D03*
D15*
X242700000Y-45500000D03*
D16*
X248300000Y-45500000D03*
G04 #@! TD*
D12*
G04 #@! TO.C,D111*
X237500000Y-46750000D03*
D13*
X240300000Y-46000000D03*
D14*
X234700000Y-46000000D03*
D15*
X234700000Y-47500000D03*
D16*
X240300000Y-47500000D03*
G04 #@! TD*
D12*
G04 #@! TO.C,D110*
X227000000Y-44250000D03*
D13*
X229800000Y-43500000D03*
D14*
X224200000Y-43500000D03*
D15*
X224200000Y-45000000D03*
D16*
X229800000Y-45000000D03*
G04 #@! TD*
D12*
G04 #@! TO.C,D109*
X219000000Y-46250000D03*
D13*
X221800000Y-45500000D03*
D14*
X216200000Y-45500000D03*
D15*
X216200000Y-47000000D03*
D16*
X221800000Y-47000000D03*
G04 #@! TD*
D12*
G04 #@! TO.C,D108*
X208500000Y-44250000D03*
D13*
X211300000Y-43500000D03*
D14*
X205700000Y-43500000D03*
D15*
X205700000Y-45000000D03*
D16*
X211300000Y-45000000D03*
G04 #@! TD*
D12*
G04 #@! TO.C,D107*
X200500000Y-45750000D03*
D13*
X203300000Y-45000000D03*
D14*
X197700000Y-45000000D03*
D15*
X197700000Y-46500000D03*
D16*
X203300000Y-46500000D03*
G04 #@! TD*
D12*
G04 #@! TO.C,D106*
X96000000Y-45250000D03*
D13*
X98800000Y-44500000D03*
D14*
X93200000Y-44500000D03*
D15*
X93200000Y-46000000D03*
D16*
X98800000Y-46000000D03*
G04 #@! TD*
D12*
G04 #@! TO.C,D105*
X87000000Y-43750000D03*
D13*
X89800000Y-43000000D03*
D14*
X84200000Y-43000000D03*
D15*
X84200000Y-44500000D03*
D16*
X89800000Y-44500000D03*
G04 #@! TD*
D12*
G04 #@! TO.C,D104*
X77000000Y-45750000D03*
D13*
X79800000Y-45000000D03*
D14*
X74200000Y-45000000D03*
D15*
X74200000Y-46500000D03*
D16*
X79800000Y-46500000D03*
G04 #@! TD*
D12*
G04 #@! TO.C,D103*
X68500000Y-44250000D03*
D13*
X71300000Y-43500000D03*
D14*
X65700000Y-43500000D03*
D15*
X65700000Y-45000000D03*
D16*
X71300000Y-45000000D03*
G04 #@! TD*
D12*
G04 #@! TO.C,D102*
X58500000Y-46250000D03*
D13*
X61300000Y-45500000D03*
D14*
X55700000Y-45500000D03*
D15*
X55700000Y-47000000D03*
D16*
X61300000Y-47000000D03*
G04 #@! TD*
D12*
G04 #@! TO.C,D101*
X50000000Y-44750000D03*
D13*
X52800000Y-44000000D03*
D14*
X47200000Y-44000000D03*
D15*
X47200000Y-45500000D03*
D16*
X52800000Y-45500000D03*
G04 #@! TD*
D12*
G04 #@! TO.C,D99*
X163500000Y-111250000D03*
D13*
X166300000Y-110500000D03*
D14*
X160700000Y-110500000D03*
D15*
X160700000Y-112000000D03*
D16*
X166300000Y-112000000D03*
G04 #@! TD*
D12*
G04 #@! TO.C,D97*
X132500000Y-110750000D03*
D13*
X135300000Y-110000000D03*
D14*
X129700000Y-110000000D03*
D15*
X129700000Y-111500000D03*
D16*
X135300000Y-111500000D03*
G04 #@! TD*
D17*
G04 #@! TO.C,SW52*
X214457832Y-64626145D03*
X203698208Y-66913173D03*
D18*
X209078020Y-65769659D03*
D17*
X204977346Y-70526178D03*
X210304699Y-71540730D03*
G04 #@! TD*
G04 #@! TO.C,SW76*
X55321229Y-67742606D03*
X44561605Y-65455578D03*
D18*
X49941417Y-66599092D03*
D17*
X44260615Y-69276494D03*
X48714738Y-72370163D03*
G04 #@! TD*
G04 #@! TO.C,SW86*
X37714573Y-64000195D03*
X26954949Y-61713167D03*
D18*
X32334761Y-62856681D03*
D17*
X26653959Y-65534083D03*
X31108082Y-68627752D03*
G04 #@! TD*
G04 #@! TO.C,SW67*
X51786731Y-84371115D03*
D18*
X46406919Y-83227601D03*
D17*
X41027107Y-82084087D03*
X40726117Y-85905003D03*
X45180240Y-88998672D03*
G04 #@! TD*
D18*
G04 #@! TO.C,SW24*
X184450000Y-123150000D03*
D17*
X179070188Y-124293514D03*
X189829812Y-122006486D03*
X180349326Y-127906519D03*
X185676679Y-128921071D03*
G04 #@! TD*
D18*
G04 #@! TO.C,SW14*
X205500000Y-136100000D03*
D17*
X200120188Y-137243514D03*
X210879812Y-134956486D03*
X201399326Y-140856519D03*
X206726679Y-141871071D03*
G04 #@! TD*
G04 #@! TO.C,SW74*
X247747768Y-100999624D03*
D18*
X253127580Y-99856110D03*
D17*
X258507392Y-98712596D03*
X249026906Y-104612629D03*
X254354259Y-105627181D03*
G04 #@! TD*
G04 #@! TO.C,SW17*
X102620188Y-138624996D03*
D18*
X108000000Y-139768510D03*
D17*
X113379812Y-140912024D03*
X102319198Y-142445912D03*
X106773321Y-145539581D03*
G04 #@! TD*
G04 #@! TO.C,SW71*
X237144272Y-51114097D03*
D18*
X242524084Y-49970583D03*
D17*
X247903896Y-48827069D03*
X238423410Y-54727102D03*
X243750763Y-55741654D03*
G04 #@! TD*
D18*
G04 #@! TO.C,SW31*
X173864706Y-73254479D03*
D17*
X168484894Y-74397993D03*
X179244518Y-72110965D03*
X169764032Y-78010998D03*
X175091385Y-79025550D03*
G04 #@! TD*
D11*
G04 #@! TO.C,H6*
X184250000Y-79500000D03*
G04 #@! TD*
D18*
G04 #@! TO.C,SW21*
X166750000Y-126900000D03*
D17*
X172129812Y-125756486D03*
X161370188Y-128043514D03*
X162649326Y-131656519D03*
X167976679Y-132671071D03*
G04 #@! TD*
D11*
G04 #@! TO.C,H4*
X101250000Y-129750000D03*
G04 #@! TD*
D17*
G04 #@! TO.C,SW57*
X70277012Y-83956399D03*
X59517388Y-81669371D03*
D18*
X64897200Y-82812885D03*
D17*
X59216398Y-85490287D03*
X63670521Y-88583956D03*
G04 #@! TD*
G04 #@! TO.C,SW72*
X240678771Y-67742606D03*
X251438395Y-65455578D03*
D18*
X246058583Y-66599092D03*
D17*
X241957909Y-71355611D03*
X247285262Y-72370163D03*
G04 #@! TD*
G04 #@! TO.C,SW45*
X95836291Y-50284663D03*
D18*
X90456479Y-49141149D03*
D17*
X85076667Y-47997635D03*
X84775677Y-51818551D03*
X89229800Y-54912220D03*
G04 #@! TD*
G04 #@! TO.C,SW46*
X81542168Y-64626145D03*
D18*
X86921980Y-65769659D03*
D17*
X92301792Y-66913173D03*
X81241178Y-68447061D03*
X85695301Y-71540730D03*
G04 #@! TD*
D18*
G04 #@! TO.C,SW23*
X180933703Y-106511498D03*
D17*
X186313515Y-105367984D03*
X175553891Y-107655012D03*
X176833029Y-111268017D03*
X182160382Y-112282569D03*
G04 #@! TD*
D18*
G04 #@! TO.C,SW51*
X205543521Y-49141149D03*
D17*
X210923333Y-47997635D03*
X200163709Y-50284663D03*
X201442847Y-53897668D03*
X206770200Y-54912220D03*
G04 #@! TD*
G04 #@! TO.C,SW15*
X123758645Y-125738896D03*
X134518269Y-128025924D03*
D18*
X129138457Y-126882410D03*
D17*
X123457655Y-129559812D03*
X127911778Y-132653481D03*
G04 #@! TD*
G04 #@! TO.C,SW53*
X207232707Y-83541682D03*
D18*
X212612519Y-82398168D03*
D17*
X217992331Y-81254654D03*
X208511845Y-87154687D03*
X213839198Y-88169239D03*
G04 #@! TD*
D18*
G04 #@! TO.C,SW43*
X196773111Y-94454833D03*
D17*
X202152923Y-93311319D03*
X191393299Y-95598347D03*
X192672437Y-99211352D03*
X197999790Y-100225904D03*
G04 #@! TD*
G04 #@! TO.C,SW36*
X108141200Y-78969838D03*
D18*
X102761388Y-77826324D03*
D17*
X97381576Y-76682810D03*
X97080586Y-80503726D03*
X101534709Y-83597395D03*
G04 #@! TD*
D18*
G04 #@! TO.C,SW12*
X170300000Y-143600000D03*
D17*
X164920188Y-144743514D03*
X175679812Y-142456486D03*
X166199326Y-148356519D03*
X171526679Y-149371071D03*
G04 #@! TD*
D11*
G04 #@! TO.C,H3*
X111500000Y-78750000D03*
G04 #@! TD*
D18*
G04 #@! TO.C,SW83*
X267199739Y-79485191D03*
D17*
X261819927Y-80628705D03*
X272579551Y-78341677D03*
X263099065Y-84241710D03*
X268426418Y-85256262D03*
G04 #@! TD*
G04 #@! TO.C,SW87*
X34180073Y-80628705D03*
D18*
X28800261Y-79485191D03*
D17*
X23420449Y-78341677D03*
X23119459Y-82162593D03*
X27573582Y-85256262D03*
G04 #@! TD*
D11*
G04 #@! TO.C,H2*
X43000000Y-56250000D03*
G04 #@! TD*
D17*
G04 #@! TO.C,SW32*
X182779017Y-88739474D03*
D18*
X177399205Y-89882988D03*
D17*
X172019393Y-91026502D03*
X173298531Y-94639507D03*
X178625884Y-95654059D03*
G04 #@! TD*
G04 #@! TO.C,SW84*
X276114049Y-94970186D03*
D18*
X270734237Y-96113700D03*
D17*
X265354425Y-97257214D03*
X266633563Y-100870219D03*
X271960916Y-101884771D03*
G04 #@! TD*
G04 #@! TO.C,SW34*
X194987798Y-112226855D03*
X205747422Y-109939827D03*
D18*
X200367610Y-111083341D03*
D17*
X196266936Y-115839860D03*
X201594289Y-116854412D03*
G04 #@! TD*
D18*
G04 #@! TO.C,SW75*
X53475916Y-49970583D03*
D17*
X48096104Y-48827069D03*
X58855728Y-51114097D03*
X47795114Y-52647985D03*
X52249237Y-55741654D03*
G04 #@! TD*
G04 #@! TO.C,SW37*
X104606701Y-95598347D03*
D18*
X99226889Y-94454833D03*
D17*
X93847077Y-93311319D03*
X93546087Y-97132235D03*
X98000210Y-100225904D03*
G04 #@! TD*
G04 #@! TO.C,SW64*
X240017111Y-98297880D03*
X229257487Y-100584908D03*
D18*
X234637299Y-99441394D03*
D17*
X230536625Y-104197913D03*
X235863978Y-105212465D03*
G04 #@! TD*
G04 #@! TO.C,SW16*
X120224146Y-142367406D03*
D18*
X125603958Y-143510920D03*
D17*
X130983770Y-144654434D03*
X119923156Y-146188322D03*
X124377279Y-149281991D03*
G04 #@! TD*
D11*
G04 #@! TO.C,H5*
X195250000Y-129500000D03*
G04 #@! TD*
D17*
G04 #@! TO.C,SW62*
X222188490Y-67327889D03*
D18*
X227568302Y-66184375D03*
D17*
X232948114Y-65040861D03*
X223467628Y-70940894D03*
X228794981Y-71955446D03*
G04 #@! TD*
D18*
G04 #@! TO.C,SW42*
X193238612Y-77826324D03*
D17*
X187858800Y-78969838D03*
X198618424Y-76682810D03*
X189137938Y-82582843D03*
X194465291Y-83597395D03*
G04 #@! TD*
G04 #@! TO.C,SW27*
X109686485Y-105367984D03*
D18*
X115066297Y-106511498D03*
D17*
X120446109Y-107655012D03*
X109385495Y-109188900D03*
X113839618Y-112282569D03*
G04 #@! TD*
G04 #@! TO.C,SW38*
X90312578Y-109939827D03*
D18*
X95692390Y-111083341D03*
D17*
X101072202Y-112226855D03*
X90011588Y-113760743D03*
X94465711Y-116854412D03*
G04 #@! TD*
D18*
G04 #@! TO.C,SW47*
X83387481Y-82398168D03*
D17*
X78007669Y-81254654D03*
X88767293Y-83541682D03*
X77706679Y-85075570D03*
X82160802Y-88169239D03*
G04 #@! TD*
G04 #@! TO.C,SW28*
X116911612Y-124283514D03*
D18*
X111531800Y-123140000D03*
D17*
X106151988Y-121996486D03*
X105850998Y-125817402D03*
X110305121Y-128911071D03*
G04 #@! TD*
D18*
G04 #@! TO.C,SW58*
X61362701Y-99441394D03*
D17*
X55982889Y-98297880D03*
X66742513Y-100584908D03*
X55681899Y-102118796D03*
X60136022Y-105212465D03*
G04 #@! TD*
D18*
G04 #@! TO.C,SW18*
X90393343Y-136026090D03*
D17*
X95773155Y-137169604D03*
X85013531Y-134882576D03*
X84712541Y-138703492D03*
X89166664Y-141797161D03*
G04 #@! TD*
G04 #@! TO.C,SW78*
X19885951Y-94970186D03*
X30645575Y-97257214D03*
D18*
X25265763Y-96113700D03*
D17*
X19584961Y-98791102D03*
X24039084Y-101884771D03*
G04 #@! TD*
G04 #@! TO.C,SW48*
X85232795Y-100170191D03*
X74473171Y-97883163D03*
D18*
X79852983Y-99026677D03*
D17*
X74172181Y-101704079D03*
X78626304Y-104797748D03*
G04 #@! TD*
D18*
G04 #@! TO.C,SW41*
X189704114Y-61197815D03*
D17*
X195083926Y-60054301D03*
X184324302Y-62341329D03*
X185603440Y-65954334D03*
X190930793Y-66968886D03*
G04 #@! TD*
G04 #@! TO.C,SW13*
X182570188Y-140993514D03*
D18*
X187950000Y-139850000D03*
D17*
X193329812Y-138706486D03*
X183849326Y-144606519D03*
X189176679Y-145621071D03*
G04 #@! TD*
G04 #@! TO.C,SW26*
X113220983Y-88739474D03*
D18*
X118600795Y-89882988D03*
D17*
X123980607Y-91026502D03*
X112919993Y-92560390D03*
X117374116Y-95654059D03*
G04 #@! TD*
G04 #@! TO.C,SW63*
X225722988Y-83956399D03*
D18*
X231102800Y-82812885D03*
D17*
X236482612Y-81669371D03*
X227002126Y-87569404D03*
X232329479Y-88583956D03*
G04 #@! TD*
D18*
G04 #@! TO.C,SW54*
X216147017Y-99026677D03*
D17*
X221526829Y-97883163D03*
X210767205Y-100170191D03*
X212046343Y-103783196D03*
X217373696Y-104797748D03*
G04 #@! TD*
G04 #@! TO.C,SW68*
X37492608Y-98712596D03*
D18*
X42872420Y-99856110D03*
D17*
X48252232Y-100999624D03*
X37191618Y-102533512D03*
X41645741Y-105627181D03*
G04 #@! TD*
G04 #@! TO.C,SW56*
X63051886Y-65040861D03*
D18*
X68431698Y-66184375D03*
D17*
X73811510Y-67327889D03*
X62750896Y-68861777D03*
X67205019Y-71955446D03*
G04 #@! TD*
D11*
G04 #@! TO.C,H1*
X253250000Y-56750000D03*
G04 #@! TD*
D17*
G04 #@! TO.C,SW65*
X77346010Y-50699380D03*
D18*
X71966198Y-49555866D03*
D17*
X66586386Y-48412352D03*
X66285396Y-52233268D03*
X70739519Y-55326937D03*
G04 #@! TD*
G04 #@! TO.C,SW35*
X111675698Y-62341329D03*
D18*
X106295886Y-61197815D03*
D17*
X100916074Y-60054301D03*
X100615084Y-63875217D03*
X105069207Y-66968886D03*
G04 #@! TD*
D18*
G04 #@! TO.C,SW82*
X263665239Y-62856681D03*
D17*
X258285427Y-64000195D03*
X269045051Y-61713167D03*
X259564565Y-67613200D03*
X264891918Y-68627752D03*
G04 #@! TD*
D18*
G04 #@! TO.C,SW61*
X224033802Y-49555866D03*
D17*
X218653990Y-50699380D03*
X229413614Y-48412352D03*
X219933128Y-54312385D03*
X225260481Y-55326937D03*
G04 #@! TD*
G04 #@! TO.C,SW25*
X116755482Y-72110965D03*
D18*
X122135294Y-73254479D03*
D17*
X127515106Y-74397993D03*
X116454492Y-75931881D03*
X120908615Y-79025550D03*
G04 #@! TD*
D18*
G04 #@! TO.C,SW73*
X249593081Y-83227601D03*
D17*
X254972893Y-82084087D03*
X244213269Y-84371115D03*
X245492407Y-87984120D03*
X250819760Y-88998672D03*
G04 #@! TD*
D19*
G04 #@! TO.C,D21*
X159500000Y-133750000D03*
X159500000Y-130450000D03*
G04 #@! TD*
D20*
G04 #@! TO.C,JP1*
X147450000Y-110750000D03*
D21*
X147450000Y-109450000D03*
G04 #@! TD*
D19*
G04 #@! TO.C,D71*
X235500000Y-57050000D03*
X235500000Y-53750000D03*
G04 #@! TD*
G04 #@! TO.C,D37*
X91000000Y-93100000D03*
X91000000Y-96400000D03*
G04 #@! TD*
G04 #@! TO.C,D24*
X178000000Y-132200000D03*
X178000000Y-128900000D03*
G04 #@! TD*
G04 #@! TO.C,D63*
X223500000Y-89050000D03*
X223500000Y-85750000D03*
G04 #@! TD*
G04 #@! TO.C,D83*
X260000000Y-88050000D03*
X260000000Y-84750000D03*
G04 #@! TD*
D22*
G04 #@! TO.C,Q1*
X139437500Y-110000000D03*
X139437500Y-111900000D03*
X137562500Y-110950000D03*
G04 #@! TD*
D19*
G04 #@! TO.C,D17*
X99500000Y-139000000D03*
X99500000Y-142300000D03*
G04 #@! TD*
G04 #@! TO.C,D68*
X35000000Y-98750000D03*
X35000000Y-102050000D03*
G04 #@! TD*
G04 #@! TO.C,D34*
X192500000Y-119900000D03*
X192500000Y-116600000D03*
G04 #@! TD*
G04 #@! TO.C,D6*
X119500000Y-59100000D03*
X119500000Y-62400000D03*
G04 #@! TD*
G04 #@! TO.C,D46*
X78000000Y-65250000D03*
X78000000Y-68550000D03*
G04 #@! TD*
G04 #@! TO.C,D48*
X71500000Y-100450000D03*
X71500000Y-103750000D03*
G04 #@! TD*
G04 #@! TO.C,D41*
X176500000Y-61050000D03*
X176500000Y-57750000D03*
G04 #@! TD*
G04 #@! TO.C,D14*
X198500000Y-142900000D03*
X198500000Y-139600000D03*
G04 #@! TD*
G04 #@! TO.C,D13*
X180000000Y-143900000D03*
X180000000Y-140600000D03*
G04 #@! TD*
G04 #@! TO.C,D5*
X159800000Y-106600000D03*
X159800000Y-103300000D03*
G04 #@! TD*
G04 #@! TO.C,D57*
X56000000Y-81750000D03*
X56000000Y-85050000D03*
G04 #@! TD*
G04 #@! TO.C,D72*
X238500000Y-74050000D03*
X238500000Y-70750000D03*
G04 #@! TD*
G04 #@! TO.C,D86*
X24000000Y-65250000D03*
X24000000Y-68550000D03*
G04 #@! TD*
D23*
G04 #@! TO.C,U1*
X156382000Y-82790000D03*
X156382000Y-85330000D03*
X156382000Y-87870000D03*
X156382000Y-90410000D03*
X156382000Y-92950000D03*
X156382000Y-95490000D03*
X156382000Y-98030000D03*
D24*
X139618000Y-98030000D03*
X139618000Y-95490000D03*
X139618000Y-92950000D03*
X139618000Y-90410000D03*
X139618000Y-87870000D03*
X139618000Y-85330000D03*
X139618000Y-82790000D03*
G04 #@! TD*
D19*
G04 #@! TO.C,D18*
X97250000Y-122100000D03*
X97250000Y-125400000D03*
G04 #@! TD*
D25*
G04 #@! TO.C,R1*
X142250000Y-112600000D03*
X142250000Y-109500000D03*
G04 #@! TD*
D19*
G04 #@! TO.C,D75*
X45000000Y-47100000D03*
X45000000Y-50400000D03*
G04 #@! TD*
G04 #@! TO.C,D78*
X22000000Y-96100000D03*
X22000000Y-99400000D03*
G04 #@! TD*
G04 #@! TO.C,D98*
X135250000Y-114500000D03*
X135250000Y-117800000D03*
G04 #@! TD*
G04 #@! TO.C,D73*
X242000000Y-89900000D03*
X242000000Y-86600000D03*
G04 #@! TD*
G04 #@! TO.C,D87*
X20500000Y-80250000D03*
X20500000Y-83550000D03*
G04 #@! TD*
G04 #@! TO.C,D74*
X246000000Y-107800000D03*
X246000000Y-104500000D03*
G04 #@! TD*
G04 #@! TO.C,D54*
X209000000Y-107050000D03*
X209000000Y-103750000D03*
G04 #@! TD*
G04 #@! TO.C,D51*
X198000000Y-57750000D03*
X198000000Y-54450000D03*
G04 #@! TD*
G04 #@! TO.C,D62*
X220000000Y-73400000D03*
X220000000Y-70100000D03*
G04 #@! TD*
G04 #@! TO.C,D65*
X63000000Y-50600000D03*
X63000000Y-53900000D03*
G04 #@! TD*
G04 #@! TO.C,D58*
X53000000Y-101450000D03*
X53000000Y-104750000D03*
G04 #@! TD*
G04 #@! TO.C,D31*
X166000000Y-80900000D03*
X166000000Y-77600000D03*
G04 #@! TD*
G04 #@! TO.C,D4*
X166500000Y-100300000D03*
X166500000Y-97000000D03*
G04 #@! TD*
G04 #@! TO.C,D61*
X217000000Y-56550000D03*
X217000000Y-53250000D03*
G04 #@! TD*
G04 #@! TO.C,D53*
X206000000Y-90900000D03*
X206000000Y-87600000D03*
G04 #@! TD*
G04 #@! TO.C,D67*
X38250000Y-81600000D03*
X38250000Y-84900000D03*
G04 #@! TD*
G04 #@! TO.C,D3*
X164500000Y-89900000D03*
X164500000Y-86600000D03*
G04 #@! TD*
G04 #@! TO.C,D12*
X163000000Y-146750000D03*
X163000000Y-143450000D03*
G04 #@! TD*
G04 #@! TO.C,D76*
X41500000Y-64950000D03*
X41500000Y-68250000D03*
G04 #@! TD*
G04 #@! TO.C,D42*
X186000000Y-86400000D03*
X186000000Y-83100000D03*
G04 #@! TD*
G04 #@! TO.C,D28*
X102500000Y-122100000D03*
X102500000Y-125400000D03*
G04 #@! TD*
D22*
G04 #@! TO.C,Q51*
X154750000Y-110100000D03*
X154750000Y-112000000D03*
X152875000Y-111050000D03*
G04 #@! TD*
D19*
G04 #@! TO.C,D47*
X75000000Y-83100000D03*
X75000000Y-86400000D03*
G04 #@! TD*
G04 #@! TO.C,D64*
X227000000Y-106050000D03*
X227000000Y-102750000D03*
G04 #@! TD*
G04 #@! TO.C,D36*
X94500000Y-76600000D03*
X94500000Y-79900000D03*
G04 #@! TD*
G04 #@! TO.C,D2*
X169500000Y-105900000D03*
X169500000Y-102600000D03*
G04 #@! TD*
G04 #@! TO.C,D45*
X82000000Y-49250000D03*
X82000000Y-52550000D03*
G04 #@! TD*
G04 #@! TO.C,D84*
X262500000Y-100550000D03*
X262500000Y-97250000D03*
G04 #@! TD*
G04 #@! TO.C,D82*
X256500000Y-71500000D03*
X256500000Y-68200000D03*
G04 #@! TD*
G04 #@! TO.C,D32*
X170500000Y-97550000D03*
X170500000Y-94250000D03*
G04 #@! TD*
G04 #@! TO.C,D35*
X98000000Y-59600000D03*
X98000000Y-62900000D03*
G04 #@! TD*
G04 #@! TO.C,D7*
X49300000Y-55650000D03*
X49300000Y-58950000D03*
G04 #@! TD*
G04 #@! TO.C,D23*
X174000000Y-114400000D03*
X174000000Y-111100000D03*
G04 #@! TD*
G04 #@! TO.C,D38*
X87000000Y-110100000D03*
X87000000Y-113400000D03*
G04 #@! TD*
G04 #@! TO.C,D52*
X202500000Y-74400000D03*
X202500000Y-71100000D03*
G04 #@! TD*
G04 #@! TO.C,D26*
X110500000Y-88600000D03*
X110500000Y-91900000D03*
G04 #@! TD*
G04 #@! TO.C,D25*
X114000000Y-72100000D03*
X114000000Y-75400000D03*
G04 #@! TD*
G04 #@! TO.C,D16*
X117500000Y-141600000D03*
X117500000Y-144900000D03*
G04 #@! TD*
G04 #@! TO.C,D56*
X60000000Y-66100000D03*
X60000000Y-69400000D03*
G04 #@! TD*
G04 #@! TO.C,D15*
X121000000Y-124100000D03*
X121000000Y-127400000D03*
G04 #@! TD*
D26*
G04 #@! TO.C,R51*
X157250000Y-109650000D03*
X157250000Y-112750000D03*
G04 #@! TD*
D19*
G04 #@! TO.C,D43*
X190000000Y-103050000D03*
X190000000Y-99750000D03*
G04 #@! TD*
G04 #@! TO.C,D8*
X129750000Y-95750000D03*
X129750000Y-99050000D03*
G04 #@! TD*
G04 #@! TO.C,D1*
X211100000Y-141050000D03*
X211100000Y-137750000D03*
G04 #@! TD*
G04 #@! TO.C,D27*
X106750000Y-105100000D03*
X106750000Y-108400000D03*
G04 #@! TD*
M02*
