G04 #@! TF.GenerationSoftware,KiCad,Pcbnew,(6.0.9)*
G04 #@! TF.CreationDate,2022-12-10T11:28:17+09:00*
G04 #@! TF.ProjectId,kidoairaku-swallowtail,6b69646f-6169-4726-916b-752d7377616c,rev?*
G04 #@! TF.SameCoordinates,Original*
G04 #@! TF.FileFunction,Copper,L1,Top*
G04 #@! TF.FilePolarity,Positive*
%FSLAX46Y46*%
G04 Gerber Fmt 4.6, Leading zero omitted, Abs format (unit mm)*
G04 Created by KiCad (PCBNEW (6.0.9)) date 2022-12-10 11:28:17*
%MOMM*%
%LPD*%
G01*
G04 APERTURE LIST*
G04 #@! TA.AperFunction,ComponentPad*
%ADD10C,1.600000*%
G04 #@! TD*
G04 #@! TA.AperFunction,ComponentPad*
%ADD11C,1.900000*%
G04 #@! TD*
G04 #@! TA.AperFunction,ViaPad*
%ADD12C,0.800000*%
G04 #@! TD*
G04 #@! TA.AperFunction,Conductor*
%ADD13C,0.500000*%
G04 #@! TD*
G04 #@! TA.AperFunction,Conductor*
%ADD14C,0.254000*%
G04 #@! TD*
G04 APERTURE END LIST*
D10*
G04 #@! TO.P,C1,1*
G04 #@! TO.N,Net-(U1-Pad12)*
X150500000Y-112750000D03*
G04 #@! TO.P,C1,2*
G04 #@! TO.N,Net-(U1-Pad11)*
X145500000Y-112750000D03*
G04 #@! TD*
D11*
G04 #@! TO.P,SW52,1,1*
G04 #@! TO.N,Net-(D52-Pad2)*
X204977346Y-70526178D03*
G04 #@! TO.P,SW52,2,2*
G04 #@! TO.N,Net-(D5-Pad1)*
X210304699Y-71540730D03*
G04 #@! TD*
G04 #@! TO.P,SW76,1,1*
G04 #@! TO.N,Net-(D76-Pad2)*
X44260615Y-69276494D03*
G04 #@! TO.P,SW76,2,2*
G04 #@! TO.N,Net-(D7-Pad1)*
X48714738Y-72370163D03*
G04 #@! TD*
G04 #@! TO.P,SW86,1,1*
G04 #@! TO.N,Net-(D86-Pad2)*
X26653959Y-65534083D03*
G04 #@! TO.P,SW86,2,2*
G04 #@! TO.N,Net-(D8-Pad1)*
X31108082Y-68627752D03*
G04 #@! TD*
G04 #@! TO.P,SW67,1,1*
G04 #@! TO.N,Net-(D67-Pad2)*
X40726117Y-85905003D03*
G04 #@! TO.P,SW67,2,2*
G04 #@! TO.N,Net-(D6-Pad1)*
X45180240Y-88998672D03*
G04 #@! TD*
G04 #@! TO.P,SW24,1,1*
G04 #@! TO.N,Net-(D24-Pad2)*
X180349326Y-127906519D03*
G04 #@! TO.P,SW24,2,2*
G04 #@! TO.N,Net-(D2-Pad1)*
X185676679Y-128921071D03*
G04 #@! TD*
G04 #@! TO.P,SW14,1,1*
G04 #@! TO.N,Net-(D14-Pad2)*
X201399326Y-140856519D03*
G04 #@! TO.P,SW14,2,2*
G04 #@! TO.N,Net-(D1-Pad1)*
X206726679Y-141871071D03*
G04 #@! TD*
G04 #@! TO.P,SW74,1,1*
G04 #@! TO.N,Net-(D74-Pad2)*
X249026906Y-104612629D03*
G04 #@! TO.P,SW74,2,2*
G04 #@! TO.N,Net-(D7-Pad1)*
X254354259Y-105627181D03*
G04 #@! TD*
G04 #@! TO.P,SW17,1,1*
G04 #@! TO.N,Net-(D17-Pad2)*
X102319198Y-142445912D03*
G04 #@! TO.P,SW17,2,2*
G04 #@! TO.N,Net-(D1-Pad1)*
X106773321Y-145539581D03*
G04 #@! TD*
G04 #@! TO.P,SW71,1,1*
G04 #@! TO.N,Net-(D71-Pad2)*
X238423410Y-54727102D03*
G04 #@! TO.P,SW71,2,2*
G04 #@! TO.N,Net-(D7-Pad1)*
X243750763Y-55741654D03*
G04 #@! TD*
G04 #@! TO.P,SW31,1,1*
G04 #@! TO.N,Net-(D31-Pad2)*
X169764032Y-78010998D03*
G04 #@! TO.P,SW31,2,2*
G04 #@! TO.N,Net-(D3-Pad1)*
X175091385Y-79025550D03*
G04 #@! TD*
G04 #@! TO.P,SW21,1,1*
G04 #@! TO.N,Net-(D21-Pad2)*
X162649326Y-131656519D03*
G04 #@! TO.P,SW21,2,2*
G04 #@! TO.N,Net-(D2-Pad1)*
X167976679Y-132671071D03*
G04 #@! TD*
G04 #@! TO.P,SW57,1,1*
G04 #@! TO.N,Net-(D57-Pad2)*
X59216398Y-85490287D03*
G04 #@! TO.P,SW57,2,2*
G04 #@! TO.N,Net-(D5-Pad1)*
X63670521Y-88583956D03*
G04 #@! TD*
G04 #@! TO.P,SW72,1,1*
G04 #@! TO.N,Net-(D72-Pad2)*
X241957909Y-71355611D03*
G04 #@! TO.P,SW72,2,2*
G04 #@! TO.N,Net-(D7-Pad1)*
X247285262Y-72370163D03*
G04 #@! TD*
G04 #@! TO.P,SW45,1,1*
G04 #@! TO.N,Net-(D45-Pad2)*
X84775677Y-51818551D03*
G04 #@! TO.P,SW45,2,2*
G04 #@! TO.N,Net-(D4-Pad1)*
X89229800Y-54912220D03*
G04 #@! TD*
G04 #@! TO.P,SW46,1,1*
G04 #@! TO.N,Net-(D46-Pad2)*
X81241178Y-68447061D03*
G04 #@! TO.P,SW46,2,2*
G04 #@! TO.N,Net-(D4-Pad1)*
X85695301Y-71540730D03*
G04 #@! TD*
G04 #@! TO.P,SW23,1,1*
G04 #@! TO.N,Net-(D23-Pad2)*
X176833029Y-111268017D03*
G04 #@! TO.P,SW23,2,2*
G04 #@! TO.N,Net-(D2-Pad1)*
X182160382Y-112282569D03*
G04 #@! TD*
G04 #@! TO.P,SW51,1,1*
G04 #@! TO.N,Net-(D51-Pad2)*
X201442847Y-53897668D03*
G04 #@! TO.P,SW51,2,2*
G04 #@! TO.N,Net-(D5-Pad1)*
X206770200Y-54912220D03*
G04 #@! TD*
G04 #@! TO.P,SW15,1,1*
G04 #@! TO.N,Net-(D15-Pad2)*
X123457655Y-129559812D03*
G04 #@! TO.P,SW15,2,2*
G04 #@! TO.N,Net-(D1-Pad1)*
X127911778Y-132653481D03*
G04 #@! TD*
G04 #@! TO.P,SW53,1,1*
G04 #@! TO.N,Net-(D53-Pad2)*
X208511845Y-87154687D03*
G04 #@! TO.P,SW53,2,2*
G04 #@! TO.N,Net-(D5-Pad1)*
X213839198Y-88169239D03*
G04 #@! TD*
G04 #@! TO.P,SW43,1,1*
G04 #@! TO.N,Net-(D43-Pad2)*
X192672437Y-99211352D03*
G04 #@! TO.P,SW43,2,2*
G04 #@! TO.N,Net-(D4-Pad1)*
X197999790Y-100225904D03*
G04 #@! TD*
G04 #@! TO.P,SW36,1,1*
G04 #@! TO.N,Net-(D36-Pad2)*
X97080586Y-80503726D03*
G04 #@! TO.P,SW36,2,2*
G04 #@! TO.N,Net-(D3-Pad1)*
X101534709Y-83597395D03*
G04 #@! TD*
G04 #@! TO.P,SW12,1,1*
G04 #@! TO.N,Net-(D12-Pad2)*
X166199326Y-148356519D03*
G04 #@! TO.P,SW12,2,2*
G04 #@! TO.N,Net-(D1-Pad1)*
X171526679Y-149371071D03*
G04 #@! TD*
G04 #@! TO.P,SW83,1,1*
G04 #@! TO.N,Net-(D83-Pad2)*
X263099065Y-84241710D03*
G04 #@! TO.P,SW83,2,2*
G04 #@! TO.N,Net-(D8-Pad1)*
X268426418Y-85256262D03*
G04 #@! TD*
G04 #@! TO.P,SW87,1,1*
G04 #@! TO.N,Net-(D87-Pad2)*
X23119459Y-82162593D03*
G04 #@! TO.P,SW87,2,2*
G04 #@! TO.N,Net-(D8-Pad1)*
X27573582Y-85256262D03*
G04 #@! TD*
G04 #@! TO.P,SW32,1,1*
G04 #@! TO.N,Net-(D32-Pad2)*
X173298531Y-94639507D03*
G04 #@! TO.P,SW32,2,2*
G04 #@! TO.N,Net-(D3-Pad1)*
X178625884Y-95654059D03*
G04 #@! TD*
G04 #@! TO.P,SW84,1,1*
G04 #@! TO.N,Net-(D84-Pad2)*
X266633563Y-100870219D03*
G04 #@! TO.P,SW84,2,2*
G04 #@! TO.N,Net-(D8-Pad1)*
X271960916Y-101884771D03*
G04 #@! TD*
G04 #@! TO.P,SW34,1,1*
G04 #@! TO.N,Net-(D34-Pad2)*
X196266936Y-115839860D03*
G04 #@! TO.P,SW34,2,2*
G04 #@! TO.N,Net-(D3-Pad1)*
X201594289Y-116854412D03*
G04 #@! TD*
G04 #@! TO.P,SW75,1,1*
G04 #@! TO.N,Net-(D75-Pad2)*
X47795114Y-52647985D03*
G04 #@! TO.P,SW75,2,2*
G04 #@! TO.N,Net-(D7-Pad1)*
X52249237Y-55741654D03*
G04 #@! TD*
G04 #@! TO.P,SW37,1,1*
G04 #@! TO.N,Net-(D37-Pad2)*
X93546087Y-97132235D03*
G04 #@! TO.P,SW37,2,2*
G04 #@! TO.N,Net-(D3-Pad1)*
X98000210Y-100225904D03*
G04 #@! TD*
G04 #@! TO.P,SW64,1,1*
G04 #@! TO.N,Net-(D64-Pad2)*
X230536625Y-104197913D03*
G04 #@! TO.P,SW64,2,2*
G04 #@! TO.N,Net-(D6-Pad1)*
X235863978Y-105212465D03*
G04 #@! TD*
G04 #@! TO.P,SW16,1,1*
G04 #@! TO.N,Net-(D16-Pad2)*
X119923156Y-146188322D03*
G04 #@! TO.P,SW16,2,2*
G04 #@! TO.N,Net-(D1-Pad1)*
X124377279Y-149281991D03*
G04 #@! TD*
G04 #@! TO.P,SW62,1,1*
G04 #@! TO.N,Net-(D62-Pad2)*
X223467628Y-70940894D03*
G04 #@! TO.P,SW62,2,2*
G04 #@! TO.N,Net-(D6-Pad1)*
X228794981Y-71955446D03*
G04 #@! TD*
G04 #@! TO.P,SW42,1,1*
G04 #@! TO.N,Net-(D42-Pad2)*
X189137938Y-82582843D03*
G04 #@! TO.P,SW42,2,2*
G04 #@! TO.N,Net-(D4-Pad1)*
X194465291Y-83597395D03*
G04 #@! TD*
G04 #@! TO.P,SW27,1,1*
G04 #@! TO.N,Net-(D27-Pad2)*
X109385495Y-109188900D03*
G04 #@! TO.P,SW27,2,2*
G04 #@! TO.N,Net-(D2-Pad1)*
X113839618Y-112282569D03*
G04 #@! TD*
G04 #@! TO.P,SW38,1,1*
G04 #@! TO.N,Net-(D38-Pad2)*
X90011588Y-113760743D03*
G04 #@! TO.P,SW38,2,2*
G04 #@! TO.N,Net-(D3-Pad1)*
X94465711Y-116854412D03*
G04 #@! TD*
G04 #@! TO.P,SW47,1,1*
G04 #@! TO.N,Net-(D47-Pad2)*
X77706679Y-85075570D03*
G04 #@! TO.P,SW47,2,2*
G04 #@! TO.N,Net-(D4-Pad1)*
X82160802Y-88169239D03*
G04 #@! TD*
G04 #@! TO.P,SW28,1,1*
G04 #@! TO.N,Net-(D28-Pad2)*
X105850998Y-125817402D03*
G04 #@! TO.P,SW28,2,2*
G04 #@! TO.N,Net-(D2-Pad1)*
X110305121Y-128911071D03*
G04 #@! TD*
G04 #@! TO.P,SW58,1,1*
G04 #@! TO.N,Net-(D58-Pad2)*
X55681899Y-102118796D03*
G04 #@! TO.P,SW58,2,2*
G04 #@! TO.N,Net-(D5-Pad1)*
X60136022Y-105212465D03*
G04 #@! TD*
G04 #@! TO.P,SW18,1,1*
G04 #@! TO.N,Net-(D18-Pad2)*
X84712541Y-138703492D03*
G04 #@! TO.P,SW18,2,2*
G04 #@! TO.N,Net-(D1-Pad1)*
X89166664Y-141797161D03*
G04 #@! TD*
G04 #@! TO.P,SW78,1,1*
G04 #@! TO.N,Net-(D78-Pad2)*
X19584961Y-98791102D03*
G04 #@! TO.P,SW78,2,2*
G04 #@! TO.N,Net-(D7-Pad1)*
X24039084Y-101884771D03*
G04 #@! TD*
G04 #@! TO.P,SW48,1,1*
G04 #@! TO.N,Net-(D48-Pad2)*
X74172181Y-101704079D03*
G04 #@! TO.P,SW48,2,2*
G04 #@! TO.N,Net-(D4-Pad1)*
X78626304Y-104797748D03*
G04 #@! TD*
G04 #@! TO.P,SW41,1,1*
G04 #@! TO.N,Net-(D41-Pad2)*
X185603440Y-65954334D03*
G04 #@! TO.P,SW41,2,2*
G04 #@! TO.N,Net-(D4-Pad1)*
X190930793Y-66968886D03*
G04 #@! TD*
G04 #@! TO.P,SW13,1,1*
G04 #@! TO.N,Net-(D13-Pad2)*
X183849326Y-144606519D03*
G04 #@! TO.P,SW13,2,2*
G04 #@! TO.N,Net-(D1-Pad1)*
X189176679Y-145621071D03*
G04 #@! TD*
G04 #@! TO.P,SW26,1,1*
G04 #@! TO.N,Net-(D26-Pad2)*
X112919993Y-92560390D03*
G04 #@! TO.P,SW26,2,2*
G04 #@! TO.N,Net-(D2-Pad1)*
X117374116Y-95654059D03*
G04 #@! TD*
G04 #@! TO.P,SW63,1,1*
G04 #@! TO.N,Net-(D63-Pad2)*
X227002126Y-87569404D03*
G04 #@! TO.P,SW63,2,2*
G04 #@! TO.N,Net-(D6-Pad1)*
X232329479Y-88583956D03*
G04 #@! TD*
G04 #@! TO.P,SW54,1,1*
G04 #@! TO.N,Net-(D54-Pad2)*
X212046343Y-103783196D03*
G04 #@! TO.P,SW54,2,2*
G04 #@! TO.N,Net-(D5-Pad1)*
X217373696Y-104797748D03*
G04 #@! TD*
G04 #@! TO.P,SW68,1,1*
G04 #@! TO.N,Net-(D68-Pad2)*
X37191618Y-102533512D03*
G04 #@! TO.P,SW68,2,2*
G04 #@! TO.N,Net-(D6-Pad1)*
X41645741Y-105627181D03*
G04 #@! TD*
G04 #@! TO.P,SW56,1,1*
G04 #@! TO.N,Net-(D56-Pad2)*
X62750896Y-68861777D03*
G04 #@! TO.P,SW56,2,2*
G04 #@! TO.N,Net-(D5-Pad1)*
X67205019Y-71955446D03*
G04 #@! TD*
G04 #@! TO.P,SW65,1,1*
G04 #@! TO.N,Net-(D65-Pad2)*
X66285396Y-52233268D03*
G04 #@! TO.P,SW65,2,2*
G04 #@! TO.N,Net-(D6-Pad1)*
X70739519Y-55326937D03*
G04 #@! TD*
G04 #@! TO.P,SW35,1,1*
G04 #@! TO.N,Net-(D35-Pad2)*
X100615084Y-63875217D03*
G04 #@! TO.P,SW35,2,2*
G04 #@! TO.N,Net-(D3-Pad1)*
X105069207Y-66968886D03*
G04 #@! TD*
G04 #@! TO.P,SW82,1,1*
G04 #@! TO.N,Net-(D82-Pad2)*
X259564565Y-67613200D03*
G04 #@! TO.P,SW82,2,2*
G04 #@! TO.N,Net-(D8-Pad1)*
X264891918Y-68627752D03*
G04 #@! TD*
G04 #@! TO.P,SW61,1,1*
G04 #@! TO.N,Net-(D61-Pad2)*
X219933128Y-54312385D03*
G04 #@! TO.P,SW61,2,2*
G04 #@! TO.N,Net-(D6-Pad1)*
X225260481Y-55326937D03*
G04 #@! TD*
G04 #@! TO.P,SW25,1,1*
G04 #@! TO.N,Net-(D25-Pad2)*
X116454492Y-75931881D03*
G04 #@! TO.P,SW25,2,2*
G04 #@! TO.N,Net-(D2-Pad1)*
X120908615Y-79025550D03*
G04 #@! TD*
G04 #@! TO.P,SW73,1,1*
G04 #@! TO.N,Net-(D73-Pad2)*
X245492407Y-87984120D03*
G04 #@! TO.P,SW73,2,2*
G04 #@! TO.N,Net-(D7-Pad1)*
X250819760Y-88998672D03*
G04 #@! TD*
D12*
G04 #@! TO.N,GND*
X147320000Y-97155000D03*
G04 #@! TO.N,+5V*
X149860000Y-109220000D03*
G04 #@! TO.N,Net-(U1-Pad12)*
X146050000Y-96520000D03*
G04 #@! TO.N,NEOPIXEL*
X147955000Y-113030000D03*
G04 #@! TO.N,+5V*
X149225000Y-96520000D03*
G04 #@! TO.N,GND*
X190500000Y-138750000D03*
X186800000Y-122100000D03*
X190500000Y-114250000D03*
X123750000Y-113000000D03*
X26000000Y-70750000D03*
X155500000Y-114000000D03*
X114500000Y-123250000D03*
X42000000Y-45750000D03*
X173500000Y-143250000D03*
X32500000Y-98750000D03*
X120825001Y-116424999D03*
X242000000Y-92750000D03*
X24500000Y-87750000D03*
X238500000Y-82250000D03*
X161250000Y-119250000D03*
X94500000Y-128250000D03*
X171000000Y-136250000D03*
X36000000Y-91250000D03*
X239000000Y-76750000D03*
X239250000Y-61000000D03*
X186250000Y-134000000D03*
X93500000Y-137750000D03*
X182500000Y-117250000D03*
X245000000Y-103000000D03*
X36000000Y-65750000D03*
X25500000Y-83250000D03*
X237000000Y-68250000D03*
X240500000Y-52750000D03*
X183500000Y-106250000D03*
X240000000Y-43250000D03*
X33500000Y-54250000D03*
G04 #@! TO.N,Net-(D1-Pad1)*
X165500000Y-135250000D03*
X159500000Y-135250000D03*
G04 #@! TO.N,/P1*
X205000000Y-127600000D03*
X165000000Y-131750000D03*
X180000000Y-60750000D03*
X166500000Y-79750000D03*
X209300000Y-137700000D03*
X198000000Y-59250000D03*
G04 #@! TO.N,Net-(D2-Pad1)*
X134600000Y-98600000D03*
X159750000Y-96500000D03*
X184600000Y-132469500D03*
X166500000Y-106500000D03*
X163977000Y-100750000D03*
X117750000Y-99169500D03*
G04 #@! TO.N,Net-(D3-Pad1)*
X162500000Y-90000000D03*
X132369000Y-82869000D03*
X99000000Y-77250000D03*
X176500000Y-92250000D03*
X170027001Y-89027001D03*
G04 #@! TO.N,Net-(D4-Pad1)*
X195000000Y-101000000D03*
X133801897Y-105622397D03*
X105000000Y-103750000D03*
X111500000Y-105250000D03*
X82500000Y-98250000D03*
X161500000Y-99750000D03*
X173000000Y-99500000D03*
G04 #@! TO.N,Net-(D5-Pad1)*
X173500000Y-106750000D03*
X119500000Y-125250000D03*
X214750000Y-102250000D03*
X122000000Y-125250000D03*
X188500000Y-104250000D03*
X109000000Y-122750000D03*
X89000000Y-121250000D03*
X126750000Y-108250000D03*
G04 #@! TO.N,Net-(D6-Pad1)*
X88000000Y-57750000D03*
X72760481Y-58489519D03*
X93000000Y-48750000D03*
X121500000Y-59500000D03*
G04 #@! TO.N,/P2*
X186000000Y-88250000D03*
X169500000Y-98750000D03*
X202000000Y-84750000D03*
X201000000Y-75750000D03*
X168250000Y-90750000D03*
X163000000Y-145250000D03*
X169500000Y-101500000D03*
X188500000Y-96250000D03*
G04 #@! TO.N,/P3*
X205500000Y-92750000D03*
X178000000Y-143750000D03*
X197000000Y-112750000D03*
X168500000Y-94250000D03*
X191500000Y-103750000D03*
X176000000Y-114750000D03*
X166500000Y-84750000D03*
X206000000Y-100750000D03*
G04 #@! TO.N,Net-(D7-Pad1)*
X197000000Y-60500000D03*
X130000000Y-87500000D03*
X162750000Y-74500000D03*
X136250000Y-88250000D03*
X193500000Y-61500000D03*
G04 #@! TO.N,/P4*
X225000000Y-106250000D03*
X207500000Y-119750000D03*
X188500000Y-113250000D03*
X168000000Y-96750000D03*
X195150000Y-119900000D03*
X202500000Y-136750000D03*
X248000000Y-108250000D03*
X211500000Y-108250000D03*
X168000000Y-114750000D03*
X264000000Y-100750000D03*
G04 #@! TO.N,/P5*
X158000000Y-102600000D03*
X158000000Y-100100000D03*
X119000000Y-124250000D03*
X125000000Y-101250000D03*
X83500000Y-66250000D03*
X98000000Y-57750000D03*
X113500000Y-70250000D03*
X112500000Y-81750000D03*
X98000000Y-67750000D03*
X82000000Y-47750000D03*
X121500000Y-83250000D03*
G04 #@! TO.N,/P6*
X135000000Y-99750000D03*
X78000000Y-66750000D03*
X106000000Y-79250000D03*
X115500000Y-62250000D03*
X111500000Y-89750000D03*
X109500000Y-97250000D03*
X115500000Y-140750000D03*
X77500000Y-73250000D03*
G04 #@! TO.N,/P7*
X87000000Y-83750000D03*
X99500000Y-137250000D03*
X107000000Y-103750000D03*
X89000000Y-101750000D03*
X108500000Y-94750000D03*
X47600000Y-58700000D03*
X36500000Y-79250000D03*
X91000000Y-91750000D03*
G04 #@! TO.N,NEOPIXEL_EN*
X159000000Y-109250000D03*
X151000000Y-96500000D03*
G04 #@! TO.N,Net-(D8-Pad1)*
X94000000Y-86250000D03*
X253250000Y-64250000D03*
X134500000Y-95500000D03*
X161250000Y-96500000D03*
X181500000Y-71500000D03*
X238750000Y-66750000D03*
X201301897Y-66301897D03*
X95500000Y-93750000D03*
X27500000Y-89250000D03*
X175000000Y-97000000D03*
X256000000Y-64250000D03*
X234500000Y-63500000D03*
G04 #@! TO.N,Net-(D106-Pad1)*
X193000000Y-46750000D03*
X134000000Y-73250000D03*
G04 #@! TO.N,Net-(D112-Pad1)*
X80000000Y-52250000D03*
X128500000Y-90000000D03*
X165000000Y-93750000D03*
X161750000Y-93750000D03*
X171250000Y-72500000D03*
X69000000Y-57250000D03*
X170250000Y-74750000D03*
X180000000Y-56500000D03*
X89051897Y-52301897D03*
X133500000Y-91500000D03*
G04 #@! TO.N,NEOPIXEL*
X151750000Y-109500000D03*
X132500000Y-115500000D03*
X154500000Y-100000000D03*
G04 #@! TO.N,Net-(D122-Pad1)*
X95000000Y-67250000D03*
X209000000Y-58250000D03*
X237198103Y-59198103D03*
X35551897Y-62698103D03*
X241750000Y-57750000D03*
X245000000Y-50500000D03*
X128000000Y-91500000D03*
X160250000Y-93750000D03*
X112000000Y-70250000D03*
X173500000Y-92000000D03*
X65000000Y-69750000D03*
X199750000Y-60250000D03*
X80000000Y-66250000D03*
X90500000Y-66750000D03*
X46500000Y-67250000D03*
X133250000Y-92750000D03*
G04 #@! TO.N,Net-(D133-Pad1)*
X131500000Y-105421500D03*
X163250000Y-105500000D03*
X132500000Y-72250000D03*
X164250000Y-75250000D03*
G04 #@! TO.N,Net-(D144-Pad1)*
X131000000Y-77000000D03*
X201750000Y-67500000D03*
X237000000Y-60500000D03*
X133000000Y-81250000D03*
X44500000Y-72750000D03*
X162750000Y-84250000D03*
X183000000Y-71500000D03*
X179250000Y-80250000D03*
G04 #@! TO.N,Net-(D151-Pad1)*
X164250000Y-104750000D03*
X165750000Y-75750000D03*
X131000000Y-78750000D03*
X128500000Y-104879396D03*
G04 #@! TO.N,Net-(D158-Pad1)*
X53500000Y-86000000D03*
X50000000Y-83000000D03*
X100250000Y-77750000D03*
X82500000Y-73250000D03*
X117500000Y-79461501D03*
X42501172Y-81403500D03*
X133012000Y-75988000D03*
X199750000Y-75250000D03*
X119000000Y-74000000D03*
X195750000Y-76500000D03*
X160250000Y-86250000D03*
X68500000Y-84250000D03*
X40000000Y-80750000D03*
X105250000Y-77000000D03*
G04 #@! TO.N,Net-(D169-Pad1)*
X126500000Y-102250000D03*
X167438893Y-102561107D03*
X128750000Y-85500000D03*
X167750000Y-87250000D03*
G04 #@! TO.N,Net-(D180-Pad1)*
X196250000Y-77750000D03*
X72250000Y-90500000D03*
X68750000Y-92000000D03*
X133250000Y-85250000D03*
X110500000Y-86500000D03*
X200500000Y-77500000D03*
X80750000Y-84500000D03*
X115500000Y-88000000D03*
X163000000Y-85500000D03*
X66250000Y-91188499D03*
G04 #@! TO.N,Net-(D187-Pad1)*
X129250000Y-93750000D03*
X165000000Y-95750000D03*
X128250000Y-102250000D03*
X165000000Y-101750000D03*
G04 #@! TO.N,Net-(D194-Pad1)*
X37250000Y-89500000D03*
X91250000Y-82500000D03*
X185250000Y-95469500D03*
X53118871Y-91368871D03*
X161250000Y-91750000D03*
X203750000Y-92250000D03*
X195329757Y-96338500D03*
X106750000Y-95003499D03*
X33750000Y-89000000D03*
X86250000Y-82000000D03*
X125500000Y-92250000D03*
X133009603Y-90000000D03*
X61250000Y-89750000D03*
X115000000Y-97838500D03*
X46280500Y-93000000D03*
X44403500Y-93236129D03*
X79500000Y-83250000D03*
X30250000Y-88108500D03*
X98250000Y-84219500D03*
X178000000Y-92750000D03*
G04 #@! TO.N,/NeoPixel/NeoPixel*
X64500000Y-48250000D03*
X165780500Y-87750000D03*
X160750000Y-88250000D03*
X130250000Y-74500000D03*
X134000000Y-80500000D03*
X166250000Y-109250000D03*
G04 #@! TO.N,Net-(D216-Pad1)*
X100000000Y-103688499D03*
X204000000Y-93750000D03*
X126558500Y-98358500D03*
X29000000Y-96750000D03*
X87500000Y-99750000D03*
X36000000Y-97250000D03*
X33500000Y-95250000D03*
X200000000Y-94750000D03*
X136550000Y-96950000D03*
X82500000Y-99750000D03*
X39500000Y-98750000D03*
X111500000Y-106750000D03*
X160600000Y-98600000D03*
X118551897Y-107301897D03*
G04 #@! TO.N,VDD*
X203849999Y-81900001D03*
X68000000Y-55250000D03*
X105000000Y-138750000D03*
X43000000Y-88250000D03*
X208500000Y-47750000D03*
X206500000Y-108250000D03*
X155000000Y-107750000D03*
X201000000Y-64500000D03*
X211250000Y-89500000D03*
X174000000Y-117500000D03*
X207500000Y-72000000D03*
X177300001Y-121900001D03*
X184500000Y-140250000D03*
X181000000Y-147250000D03*
X165000000Y-117750000D03*
X42000000Y-96750000D03*
X45500000Y-80250000D03*
X104000000Y-110750000D03*
X60000000Y-62750000D03*
X207750000Y-98500000D03*
X174000000Y-123250000D03*
X203750000Y-56500000D03*
X130250000Y-117750000D03*
X137800000Y-107500000D03*
X104500000Y-144750000D03*
X38000000Y-105250000D03*
X69000000Y-48750000D03*
X104000000Y-119750000D03*
X49250000Y-75030500D03*
X183000000Y-129750000D03*
G04 #@! TO.N,Net-(U1-Pad11)*
X134000000Y-100750000D03*
X137850000Y-100750000D03*
X135250000Y-93750000D03*
G04 #@! TO.N,Net-(D223-Pad1)*
X123403500Y-111500000D03*
X124000000Y-104750000D03*
G04 #@! TO.N,Net-(D230-Pad1)*
X215750000Y-101500000D03*
X188250000Y-106000000D03*
X241750000Y-99250000D03*
X251844875Y-102014003D03*
X223250000Y-98500000D03*
X103000000Y-113750000D03*
X208653500Y-101250000D03*
X123500000Y-108000000D03*
X260750000Y-98619000D03*
X116000000Y-115196499D03*
X212500000Y-100500000D03*
X99000000Y-112750000D03*
X237250000Y-100000000D03*
X177051774Y-108396635D03*
G04 #@! TO.N,/P8*
X107500000Y-130250000D03*
X51500000Y-102250000D03*
X100700000Y-122200000D03*
X87000000Y-108250000D03*
X46500000Y-100750000D03*
X83500000Y-100750000D03*
X130248921Y-91942499D03*
X130248921Y-100501079D03*
X119300000Y-134400000D03*
G04 #@! TO.N,Net-(D97-Pad1)*
X136750000Y-112500000D03*
X135300000Y-108600000D03*
G04 #@! TO.N,Net-(D18-Pad2)*
X87175000Y-127075000D03*
G04 #@! TO.N,Net-(D117-Pad1)*
X122500000Y-60750000D03*
X177000000Y-59250000D03*
G04 #@! TO.N,Net-(D84-Pad2)*
X262500000Y-96250000D03*
G04 #@! TO.N,Net-(D242-Pad1)*
X136500000Y-126250000D03*
X138000000Y-119750000D03*
G04 #@! TO.N,Net-(D244-Pad1)*
X157272500Y-123750000D03*
X129000000Y-137750000D03*
X169000000Y-125250000D03*
X105500000Y-129250000D03*
X91500000Y-126750000D03*
X174500000Y-125250000D03*
X87500000Y-135250000D03*
X103500000Y-127300000D03*
G04 #@! TO.N,Net-(D250-Pad1)*
X161500000Y-138250000D03*
X139500000Y-121750000D03*
X160500000Y-132250000D03*
X134000000Y-137750000D03*
G04 #@! TO.N,Net-(D256-Pad1)*
X165500000Y-107500000D03*
X170698103Y-111051897D03*
X92250000Y-138750000D03*
X128780500Y-107250500D03*
X197000000Y-121530500D03*
X122250000Y-107250000D03*
X175000000Y-132250000D03*
X110250000Y-113469500D03*
X104500000Y-123750000D03*
X105500000Y-112500000D03*
X93750000Y-123750000D03*
X197250000Y-119250000D03*
G04 #@! TO.N,Net-(D258-Pad1)*
X167500000Y-135250000D03*
X160500000Y-136250000D03*
X121950000Y-144250000D03*
X171500000Y-147250000D03*
G04 #@! TO.N,Net-(D240-Pad1)*
X120100000Y-132200000D03*
X127000000Y-115250000D03*
X185000000Y-112250000D03*
X197174583Y-110853159D03*
G04 #@! TD*
D13*
G04 #@! TO.N,GND*
X147320000Y-101600000D02*
X147320000Y-108585000D01*
X147320000Y-101600000D02*
X147320000Y-97155000D01*
D14*
G04 #@! TO.N,Net-(U1-Pad12)*
X150500000Y-112750000D02*
X146050000Y-108300000D01*
X146050000Y-108300000D02*
X146050000Y-96520000D01*
D13*
G04 #@! TO.N,GND*
X147320000Y-108585000D02*
X149860000Y-111125000D01*
X149860000Y-111125000D02*
X152625000Y-111125000D01*
X152625000Y-111125000D02*
X155500000Y-114000000D01*
G04 #@! TO.N,+5V*
X149860000Y-97155000D02*
X149860000Y-109220000D01*
X149225000Y-96520000D02*
X149860000Y-97155000D01*
D14*
G04 #@! TO.N,NEOPIXEL*
X145985000Y-115000000D02*
X147955000Y-113030000D01*
X134000000Y-115000000D02*
X145480000Y-115000000D01*
X145480000Y-115000000D02*
X145985000Y-115000000D01*
X132500000Y-115500000D02*
X133500000Y-115500000D01*
X133500000Y-115500000D02*
X134000000Y-115000000D01*
D13*
G04 #@! TO.N,GND*
X35500000Y-65750000D02*
X34500000Y-66750000D01*
X36000000Y-95250000D02*
X32500000Y-98750000D01*
X240324083Y-46074083D02*
X240324083Y-52574083D01*
X238500000Y-62500000D02*
X238500000Y-64500000D01*
X31000000Y-65750000D02*
X31500000Y-65750000D01*
X238500000Y-64500000D02*
X237000000Y-66000000D01*
X186750000Y-125450000D02*
X186750000Y-127050000D01*
X42000000Y-45750000D02*
X33500000Y-54250000D01*
X28250000Y-68500000D02*
X26000000Y-70750000D01*
X36000000Y-65750000D02*
X35500000Y-65750000D01*
X190500000Y-138750000D02*
X186250000Y-134500000D01*
X25500000Y-83250000D02*
X25500000Y-86750000D01*
X93500000Y-134300000D02*
X92750000Y-133550000D01*
X242000000Y-85750000D02*
X242000000Y-92750000D01*
X28250000Y-68500000D02*
X28250000Y-76000000D01*
X155500000Y-114000000D02*
X157000000Y-114000000D01*
X186750000Y-125450000D02*
X186750000Y-122150000D01*
X188000000Y-132250000D02*
X186250000Y-134000000D01*
X237000000Y-74750000D02*
X239000000Y-76750000D01*
X33500000Y-57284761D02*
X33500000Y-54250000D01*
X118000000Y-121750000D02*
X120000000Y-119750000D01*
X240000000Y-43250000D02*
X240000000Y-45750000D01*
X157000000Y-114000000D02*
X161250000Y-118250000D01*
X237000000Y-67750000D02*
X237000000Y-66000000D01*
X114500000Y-123250000D02*
X116000000Y-121750000D01*
X183500000Y-107250000D02*
X180706382Y-110043618D01*
X187500000Y-120750000D02*
X190500000Y-117750000D01*
X28250000Y-68500000D02*
X31000000Y-65750000D01*
X238500000Y-62500000D02*
X239250000Y-61750000D01*
X161250000Y-118250000D02*
X161250000Y-119250000D01*
X237000000Y-67750000D02*
X237000000Y-74750000D01*
X240324083Y-52574083D02*
X240500000Y-52750000D01*
X180706382Y-115456382D02*
X182500000Y-117250000D01*
X242000000Y-93250000D02*
X242000000Y-92750000D01*
X186800000Y-121450000D02*
X187500000Y-120750000D01*
X245000000Y-103000000D02*
X245000000Y-96250000D01*
X25500000Y-78750000D02*
X25500000Y-83250000D01*
X183500000Y-106250000D02*
X183500000Y-107250000D01*
X31500000Y-65750000D02*
X32500000Y-66750000D01*
X123750000Y-113000000D02*
X123750000Y-113500000D01*
X240500000Y-59750000D02*
X240500000Y-52750000D01*
X25500000Y-86750000D02*
X24500000Y-87750000D01*
X245000000Y-96250000D02*
X242000000Y-93250000D01*
X240000000Y-45750000D02*
X240324083Y-46074083D01*
X186750000Y-122150000D02*
X186800000Y-122100000D01*
X120000000Y-117250000D02*
X120825001Y-116424999D01*
X239000000Y-81750000D02*
X238500000Y-82250000D01*
X186750000Y-127050000D02*
X188000000Y-128300000D01*
X120825001Y-116424999D02*
X122500000Y-114750000D01*
X120000000Y-119750000D02*
X120000000Y-117250000D01*
X190500000Y-117750000D02*
X190500000Y-114250000D01*
X170750000Y-140000000D02*
X173500000Y-142750000D01*
X28250000Y-76000000D02*
X25500000Y-78750000D01*
X122500000Y-114750000D02*
X123250000Y-114000000D01*
X188000000Y-128300000D02*
X188000000Y-132250000D01*
X238500000Y-82250000D02*
X242000000Y-85750000D01*
X239250000Y-61750000D02*
X239250000Y-61000000D01*
X123750000Y-113500000D02*
X123250000Y-114000000D01*
X92750000Y-130000000D02*
X94500000Y-128250000D01*
X116000000Y-121750000D02*
X118000000Y-121750000D01*
X170750000Y-136500000D02*
X170750000Y-140000000D01*
X31500000Y-65750000D02*
X29500000Y-63750000D01*
X93500000Y-137750000D02*
X93500000Y-134300000D01*
X29500000Y-63750000D02*
X29500000Y-61284761D01*
X239250000Y-61000000D02*
X240500000Y-59750000D01*
X34500000Y-66750000D02*
X32500000Y-66750000D01*
X36000000Y-91250000D02*
X36000000Y-95250000D01*
X186800000Y-122100000D02*
X186800000Y-121450000D01*
X186250000Y-134500000D02*
X186250000Y-134000000D01*
X173500000Y-142750000D02*
X173500000Y-143250000D01*
X29500000Y-61284761D02*
X33500000Y-57284761D01*
X180706382Y-110043618D02*
X180706382Y-115456382D01*
X171000000Y-136250000D02*
X170750000Y-136500000D01*
X239000000Y-76750000D02*
X239000000Y-81750000D01*
X92750000Y-133550000D02*
X92750000Y-130000000D01*
D14*
G04 #@! TO.N,Net-(D1-Pad1)*
X119922999Y-143722999D02*
X121900000Y-145700000D01*
X103028660Y-146028660D02*
X96722999Y-139722999D01*
X121900000Y-145700000D02*
X121900000Y-146804712D01*
X168000000Y-146044392D02*
X168000000Y-142250000D01*
X108972325Y-143722999D02*
X119922999Y-143722999D01*
X134992000Y-116258000D02*
X157008000Y-116258000D01*
X195941076Y-140191076D02*
X192108924Y-140191076D01*
X124273321Y-149771071D02*
X128015731Y-146028661D01*
X169000000Y-141250000D02*
X169000000Y-138750000D01*
X192108924Y-140191076D02*
X189176679Y-143123321D01*
X128015731Y-132164414D02*
X131500000Y-128680146D01*
X158435071Y-124693071D02*
X158443071Y-124693071D01*
X158992000Y-125242000D02*
X158992000Y-134742000D01*
X131500000Y-128680146D02*
X131500000Y-124250000D01*
X169000000Y-138750000D02*
X165500000Y-135250000D01*
X96722999Y-139722999D02*
X91240826Y-139722999D01*
X128015731Y-139265731D02*
X128015731Y-132164414D01*
X205976243Y-143250000D02*
X199000000Y-143250000D01*
X158992000Y-134742000D02*
X159500000Y-135250000D01*
X91240826Y-139722999D02*
X89166664Y-141797161D01*
X206939993Y-142286250D02*
X205976243Y-143250000D01*
X157008000Y-116258000D02*
X158435071Y-117685071D01*
X158443071Y-124693071D02*
X158992000Y-125242000D01*
X121900000Y-146804712D02*
X124377279Y-149281991D01*
X199000000Y-143250000D02*
X195941076Y-140191076D01*
X130016000Y-121234000D02*
X134992000Y-116258000D01*
X130016000Y-122766000D02*
X130016000Y-121234000D01*
X189176679Y-143123321D02*
X189176679Y-145621071D01*
X168000000Y-142250000D02*
X169000000Y-141250000D01*
X103028660Y-146028660D02*
X106666664Y-146028660D01*
X106666664Y-146028660D02*
X108972325Y-143722999D01*
X171726679Y-149771071D02*
X168000000Y-146044392D01*
X128015731Y-146028661D02*
X128015731Y-139265731D01*
X158435071Y-117685071D02*
X158435071Y-124693071D01*
X124273321Y-149249206D02*
X124273321Y-149771071D01*
X131500000Y-124250000D02*
X130016000Y-122766000D01*
G04 #@! TO.N,/P1*
X209300000Y-137700000D02*
X209300000Y-136500000D01*
X186000000Y-60750000D02*
X180000000Y-60750000D01*
X165508000Y-85758000D02*
X166753304Y-87003304D01*
X166492000Y-122258000D02*
X166492000Y-110758000D01*
X174472999Y-69500000D02*
X174472999Y-69277001D01*
X165508000Y-80742000D02*
X165508000Y-85758000D01*
X166500000Y-79750000D02*
X165508000Y-80742000D01*
X163000000Y-125750000D02*
X166492000Y-122258000D01*
X170750000Y-79750000D02*
X171218420Y-79750000D01*
X168000000Y-109250000D02*
X168000000Y-105000000D01*
X174861499Y-69888501D02*
X174736499Y-69763501D01*
X171218420Y-79750000D02*
X176508000Y-74460420D01*
X165000000Y-131000000D02*
X163000000Y-129000000D01*
X163000000Y-129000000D02*
X163000000Y-125750000D01*
X188972999Y-58277001D02*
X188472999Y-58277001D01*
X176508000Y-74460420D02*
X176508000Y-71535002D01*
X174472999Y-69027001D02*
X174472999Y-66277001D01*
X167750000Y-79750000D02*
X170750000Y-79750000D01*
X174472999Y-69277001D02*
X174472999Y-69027001D01*
X197027001Y-58277001D02*
X189527001Y-58277001D01*
X176508000Y-71535002D02*
X174861499Y-69888501D01*
X174472999Y-69500001D02*
X174472999Y-69277001D01*
X166406999Y-103406999D02*
X166406999Y-88593001D01*
X209300000Y-136500000D02*
X205000000Y-132200000D01*
X166500000Y-79750000D02*
X167750000Y-79750000D01*
X198000000Y-59250000D02*
X197027001Y-58277001D01*
X188472999Y-58277001D02*
X186000000Y-60750000D01*
X166492000Y-110758000D02*
X168000000Y-109250000D01*
X205000000Y-132200000D02*
X205000000Y-127600000D01*
X165000000Y-131750000D02*
X165000000Y-131000000D01*
X174472999Y-69500001D02*
X174736499Y-69763501D01*
X166406999Y-88593001D02*
X166753304Y-88246696D01*
X174861499Y-69888501D02*
X174472999Y-69500001D01*
X168000000Y-105000000D02*
X166406999Y-103406999D01*
X189527001Y-58277001D02*
X188972999Y-58277001D01*
X166753304Y-88246696D02*
X166753304Y-87003304D01*
X174472999Y-69027001D02*
X174472999Y-69500001D01*
X174472999Y-66277001D02*
X180000000Y-60750000D01*
X174472999Y-69564706D02*
X174472999Y-69277001D01*
X174736499Y-69763501D02*
X174472999Y-69500000D01*
G04 #@! TO.N,Net-(D2-Pad1)*
X138218000Y-93782000D02*
X155532000Y-93782000D01*
X117374116Y-95654059D02*
X117374116Y-98793616D01*
X184780500Y-132469500D02*
X185000000Y-132250000D01*
X110409075Y-128422005D02*
X107838110Y-125851040D01*
X114595941Y-95654059D02*
X113375000Y-96875000D01*
X106203845Y-113546155D02*
X109000000Y-110750000D01*
X164030500Y-102530500D02*
X164000000Y-102500000D01*
X166500000Y-105000000D02*
X164030500Y-102530500D01*
X182300000Y-120200000D02*
X183825000Y-118675000D01*
X166500000Y-106500000D02*
X166500000Y-105000000D01*
X182160382Y-115410382D02*
X183825000Y-117075000D01*
X164000000Y-102500000D02*
X164000000Y-101750000D01*
X112500000Y-104516297D02*
X114527001Y-102489296D01*
X113839618Y-112282569D02*
X112500000Y-110942951D01*
X182160382Y-112282569D02*
X182160382Y-115410382D01*
X114527001Y-99777001D02*
X113375000Y-98625000D01*
X120908615Y-79025550D02*
X119750000Y-80184165D01*
X182300000Y-124300000D02*
X182300000Y-120200000D01*
X112307049Y-110750000D02*
X113839618Y-112282569D01*
X106203845Y-118796155D02*
X106203845Y-113546155D01*
X117374116Y-95654059D02*
X114595941Y-95654059D01*
X114527001Y-102489296D02*
X114527001Y-99777001D01*
X157032000Y-93782000D02*
X159750000Y-96500000D01*
X117374116Y-98793616D02*
X117750000Y-99169500D01*
X120750000Y-88500000D02*
X120750000Y-92278175D01*
X185676679Y-127676679D02*
X182300000Y-124300000D01*
X134600000Y-97400000D02*
X134600000Y-98600000D01*
X185590925Y-131659075D02*
X185000000Y-132250000D01*
X185676679Y-128921071D02*
X185676679Y-127676679D01*
X135000000Y-97000000D02*
X138218000Y-93782000D01*
X107838110Y-125851040D02*
X107838110Y-120430419D01*
X183825000Y-118675000D02*
X183825000Y-117075000D01*
X119750000Y-87500000D02*
X120750000Y-88500000D01*
X119750000Y-80184165D02*
X119750000Y-87500000D01*
X112500000Y-110942951D02*
X112500000Y-104516297D01*
X185590925Y-128422005D02*
X185590925Y-131659075D01*
X109000000Y-110750000D02*
X112307049Y-110750000D01*
X113375000Y-96875000D02*
X113375000Y-98625000D01*
X120750000Y-92278175D02*
X117374116Y-95654059D01*
X184600000Y-132469500D02*
X184780500Y-132469500D01*
X135000000Y-97000000D02*
X134600000Y-97400000D01*
X155532000Y-93782000D02*
X157032000Y-93782000D01*
X164000000Y-101750000D02*
X164000000Y-101000000D01*
X107838110Y-120430419D02*
X106203845Y-118796155D01*
G04 #@! TO.N,Net-(D3-Pad1)*
X180191991Y-97220166D02*
X178625884Y-95654059D01*
X201534289Y-113497291D02*
X203500000Y-111531580D01*
X135492000Y-91242000D02*
X159758000Y-91242000D01*
X101534709Y-96691405D02*
X101534709Y-93034709D01*
X100000000Y-91500000D02*
X101534709Y-93034709D01*
X201313466Y-108758000D02*
X199500000Y-106944534D01*
X98963744Y-77713744D02*
X98963744Y-77347966D01*
X203500000Y-111531580D02*
X203500000Y-110250000D01*
X99093657Y-81156343D02*
X96750000Y-83500000D01*
X132369000Y-82869000D02*
X132369000Y-88103000D01*
X98000210Y-113319913D02*
X98000210Y-100225904D01*
X99093657Y-81156343D02*
X98963744Y-81026430D01*
X101534709Y-74777001D02*
X103277001Y-74777001D01*
X171000000Y-80500000D02*
X169250000Y-82250000D01*
X105069207Y-72984795D02*
X105069207Y-66968886D01*
X96750000Y-83500000D02*
X96750000Y-85250000D01*
X199500000Y-106944534D02*
X199500000Y-103750000D01*
X199500000Y-103750000D02*
X192970166Y-97220166D01*
X98963744Y-77713744D02*
X99000000Y-77677488D01*
X100000000Y-88500000D02*
X100000000Y-91500000D01*
X98963744Y-81026430D02*
X98963744Y-77713744D01*
X96750000Y-85250000D02*
X100000000Y-88500000D01*
X201534289Y-116854412D02*
X201534289Y-113497291D01*
X176500000Y-93528175D02*
X176500000Y-92250000D01*
X192970166Y-97220166D02*
X180191991Y-97220166D01*
X103277001Y-74777001D02*
X105069207Y-72984795D01*
X159758000Y-91242000D02*
X160500000Y-90500000D01*
X99000000Y-77677488D02*
X99000000Y-77250000D01*
X135492000Y-91226000D02*
X135492000Y-91242000D01*
X169250000Y-88250000D02*
X170027001Y-89027001D01*
X98000210Y-100225904D02*
X101534709Y-96691405D01*
X99093657Y-81156343D02*
X101534709Y-83597395D01*
X173616935Y-80500000D02*
X171000000Y-80500000D01*
X94465711Y-116854412D02*
X98000210Y-113319913D01*
X160500000Y-90500000D02*
X162000000Y-90500000D01*
X178625884Y-95654059D02*
X176500000Y-93528175D01*
X202008000Y-108758000D02*
X201313466Y-108758000D01*
X175091385Y-79025550D02*
X173616935Y-80500000D01*
X203500000Y-110250000D02*
X202008000Y-108758000D01*
X162000000Y-90500000D02*
X162500000Y-90000000D01*
X98963744Y-77347966D02*
X101534709Y-74777001D01*
X132369000Y-88103000D02*
X135492000Y-91226000D01*
X169250000Y-82250000D02*
X169250000Y-88250000D01*
G04 #@! TO.N,Net-(D4-Pad1)*
X105000000Y-103750000D02*
X106000000Y-104750000D01*
X186100000Y-98100000D02*
X189000000Y-101000000D01*
X159675000Y-99425000D02*
X159500000Y-99250000D01*
X89229800Y-59520200D02*
X89229800Y-54912220D01*
X135750000Y-103674294D02*
X133801897Y-105622397D01*
X195500000Y-92277001D02*
X195500000Y-84632104D01*
X84500000Y-66750000D02*
X84500000Y-64250000D01*
X107500000Y-104750000D02*
X108472999Y-103777001D01*
X84500000Y-64250000D02*
X89229800Y-59520200D01*
X176900000Y-98100000D02*
X186100000Y-98100000D01*
X135750000Y-100000000D02*
X135750000Y-103674294D01*
X85695301Y-71540730D02*
X85695301Y-67945301D01*
X85464482Y-77464482D02*
X85375000Y-77375000D01*
X110027001Y-103777001D02*
X111500000Y-105250000D01*
X82500000Y-96750000D02*
X82500000Y-98250000D01*
X176900000Y-98100000D02*
X174400000Y-98100000D01*
X137750000Y-98000000D02*
X135750000Y-100000000D01*
X139452000Y-94798000D02*
X137750000Y-96500000D01*
X82160802Y-92589198D02*
X82160802Y-88169239D01*
X80250000Y-94500000D02*
X82160802Y-92589198D01*
X159000000Y-98750000D02*
X155048000Y-94798000D01*
X77250000Y-103421444D02*
X77250000Y-97500000D01*
X159500000Y-99250000D02*
X160000000Y-99750000D01*
X190930793Y-66968886D02*
X190930793Y-81368107D01*
X197999790Y-100225904D02*
X194500000Y-96726114D01*
X190930793Y-81368107D02*
X193812686Y-84250000D01*
X85695301Y-67945301D02*
X84500000Y-66750000D01*
X155048000Y-94798000D02*
X139452000Y-94798000D01*
X137750000Y-96500000D02*
X137750000Y-98000000D01*
X193812686Y-84250000D02*
X194465291Y-83597395D01*
X106000000Y-104750000D02*
X107500000Y-104750000D01*
X189000000Y-101000000D02*
X195000000Y-101000000D01*
X78626304Y-104797748D02*
X77250000Y-103421444D01*
X77250000Y-97500000D02*
X80250000Y-94500000D01*
X173000000Y-99500000D02*
X174250000Y-98250000D01*
X82160802Y-88169239D02*
X85464482Y-84865559D01*
X174400000Y-98100000D02*
X174250000Y-98250000D01*
X160000000Y-99750000D02*
X161500000Y-99750000D01*
X195500000Y-84632104D02*
X194465291Y-83597395D01*
X85695301Y-77054699D02*
X85375000Y-77375000D01*
X159675000Y-99425000D02*
X159850000Y-99600000D01*
X194500000Y-93277001D02*
X195500000Y-92277001D01*
X85464482Y-84865559D02*
X85464482Y-77464482D01*
X108472999Y-103777001D02*
X110027001Y-103777001D01*
X194500000Y-96726114D02*
X194500000Y-93277001D01*
X85695301Y-71540730D02*
X85695301Y-77054699D01*
X80250000Y-94500000D02*
X82500000Y-96750000D01*
X159500000Y-99250000D02*
X159000000Y-98750000D01*
G04 #@! TO.N,Net-(D5-Pad1)*
X109000000Y-124057780D02*
X109000000Y-122750000D01*
X217373696Y-104797748D02*
X213839198Y-101263250D01*
X86500000Y-118750000D02*
X86500000Y-111750000D01*
X110642220Y-125700000D02*
X109000000Y-124057780D01*
X185125000Y-103875000D02*
X179375000Y-103875000D01*
X62423557Y-107500000D02*
X70000000Y-107500000D01*
X177375000Y-105875000D02*
X174375000Y-105875000D01*
X122008000Y-118714999D02*
X122008000Y-125242000D01*
X57500000Y-102576443D02*
X57500000Y-97250000D01*
X206770200Y-63270200D02*
X206770200Y-54912220D01*
X210304699Y-71540730D02*
X212500000Y-73736031D01*
X188500000Y-104250000D02*
X187500000Y-103250000D01*
X185750000Y-103250000D02*
X185125000Y-103875000D01*
X56777001Y-96777001D02*
X55250000Y-95250000D01*
X55250000Y-95250000D02*
X55250000Y-90250000D01*
X204500000Y-73250000D02*
X202142368Y-73250000D01*
X179375000Y-103875000D02*
X177375000Y-105875000D01*
X55250000Y-90250000D02*
X56916044Y-88583956D01*
X204665400Y-65375000D02*
X206770200Y-63270200D01*
X84972999Y-110250000D02*
X81351004Y-106628005D01*
X67205019Y-85049458D02*
X67205019Y-71955446D01*
X126486500Y-114236500D02*
X122008000Y-118714999D01*
X122008000Y-125242000D02*
X122000000Y-125250000D01*
X174375000Y-105875000D02*
X173500000Y-106750000D01*
X85000000Y-110250000D02*
X86500000Y-111750000D01*
X63670521Y-88583956D02*
X67002239Y-85252239D01*
X201125000Y-65375000D02*
X204665400Y-65375000D01*
X119500000Y-125250000D02*
X119050000Y-125700000D01*
X215000000Y-87008437D02*
X213839198Y-88169239D01*
X200131000Y-71238632D02*
X200131000Y-66369000D01*
X84972999Y-110250000D02*
X85000000Y-110250000D01*
X89000000Y-121250000D02*
X86500000Y-118750000D01*
X60136022Y-105212465D02*
X62423557Y-107500000D01*
X207000000Y-70750000D02*
X204500000Y-73250000D01*
X119050000Y-125700000D02*
X110642220Y-125700000D01*
X213839198Y-100410802D02*
X213839198Y-88169239D01*
X209513969Y-70750000D02*
X207000000Y-70750000D01*
X57500000Y-97250000D02*
X57027001Y-96777001D01*
X126486500Y-108513500D02*
X126750000Y-108250000D01*
X212500000Y-79250000D02*
X215000000Y-81750000D01*
X56916044Y-88583956D02*
X63670521Y-88583956D01*
X81351004Y-106628005D02*
X78121995Y-106628005D01*
X215000000Y-81750000D02*
X215000000Y-87008437D01*
X200131000Y-66369000D02*
X201125000Y-65375000D01*
X71000000Y-106500000D02*
X77993990Y-106500000D01*
X77993990Y-106500000D02*
X78121995Y-106628005D01*
X67002239Y-85252239D02*
X67205019Y-85049458D01*
X202142368Y-73250000D02*
X200131000Y-71238632D01*
X210304699Y-71540730D02*
X209513969Y-70750000D01*
X70000000Y-107500000D02*
X71000000Y-106500000D01*
X213839198Y-101263250D02*
X213839198Y-100410802D01*
X187500000Y-103250000D02*
X185750000Y-103250000D01*
X212500000Y-73736031D02*
X212500000Y-79250000D01*
X57027001Y-96777001D02*
X56777001Y-96777001D01*
X60136022Y-105212465D02*
X57500000Y-102576443D01*
X126486500Y-114236500D02*
X126486500Y-108513500D01*
G04 #@! TO.N,Net-(D6-Pad1)*
X236326937Y-55326937D02*
X239000000Y-58000000D01*
X232329479Y-101677966D02*
X232329479Y-88583956D01*
X88000000Y-57750000D02*
X87500000Y-57250000D01*
X205250000Y-43000000D02*
X199250000Y-43000000D01*
X87500000Y-52750000D02*
X89000000Y-51250000D01*
X45500000Y-94750000D02*
X45500000Y-89318432D01*
X181859210Y-54640790D02*
X179390790Y-54640790D01*
X57027001Y-72316434D02*
X62975573Y-66367862D01*
X239000000Y-58000000D02*
X239000000Y-59750000D01*
X51500000Y-75500000D02*
X55750000Y-75500000D01*
X236000000Y-66000000D02*
X236000000Y-70000000D01*
X192875000Y-45375000D02*
X188000000Y-50250000D01*
X188000000Y-50250000D02*
X186250000Y-50250000D01*
X89000000Y-51250000D02*
X91500000Y-51250000D01*
X237869000Y-60881000D02*
X237869000Y-64131000D01*
X55750000Y-75500000D02*
X57027001Y-74222999D01*
X225260481Y-55326937D02*
X226250000Y-54337418D01*
X91500000Y-51250000D02*
X93000000Y-49750000D01*
X135289000Y-71789000D02*
X123000000Y-59500000D01*
X234044554Y-71955446D02*
X228794981Y-71955446D01*
X239000000Y-59750000D02*
X237869000Y-60881000D01*
X226250000Y-54337418D02*
X226250000Y-48500000D01*
X62975573Y-66367862D02*
X64882138Y-66367862D01*
X72760481Y-57347899D02*
X70739519Y-55326937D01*
X123000000Y-59500000D02*
X121500000Y-59500000D01*
X57027001Y-74222999D02*
X57027001Y-72316434D01*
X226250000Y-48500000D02*
X219250000Y-41500000D01*
X93000000Y-49750000D02*
X93000000Y-48750000D01*
X64882138Y-66367862D02*
X72760481Y-58489519D01*
X45500000Y-94750000D02*
X45000000Y-95250000D01*
X199250000Y-43000000D02*
X196875000Y-45375000D01*
X48964456Y-85214456D02*
X48964456Y-78035544D01*
X45000000Y-95250000D02*
X45000000Y-102272922D01*
X136774000Y-84805580D02*
X136774000Y-79524000D01*
X136774000Y-79524000D02*
X135289000Y-78039000D01*
X228794981Y-71955446D02*
X228794981Y-85049458D01*
X135289000Y-78039000D02*
X135289000Y-71789000D01*
X186250000Y-50250000D02*
X181859210Y-54640790D01*
X179390790Y-54640790D02*
X160484002Y-73547578D01*
X235863978Y-105212465D02*
X232329479Y-101677966D01*
X206750000Y-41500000D02*
X205250000Y-43000000D01*
X45500000Y-89318432D02*
X45180240Y-88998672D01*
X225260481Y-55326937D02*
X236326937Y-55326937D01*
X236000000Y-70000000D02*
X234044554Y-71955446D01*
X237869000Y-64131000D02*
X236000000Y-66000000D01*
X160484000Y-81484000D02*
X154790000Y-87178000D01*
X154790000Y-87178000D02*
X139146420Y-87178000D01*
X219250000Y-41500000D02*
X206750000Y-41500000D01*
X160484002Y-73547578D02*
X160484000Y-81484000D01*
X48964456Y-78035544D02*
X51500000Y-75500000D01*
X45180240Y-88998672D02*
X48964456Y-85214456D01*
X45000000Y-102272922D02*
X41645741Y-105627181D01*
X228794981Y-85049458D02*
X232329479Y-88583956D01*
X72760481Y-58489519D02*
X72760481Y-57347899D01*
X196875000Y-45375000D02*
X192875000Y-45375000D01*
X87500000Y-57250000D02*
X87500000Y-52750000D01*
X139146420Y-87178000D02*
X136774000Y-84805580D01*
G04 #@! TO.N,/P2*
X186000000Y-88250000D02*
X186000000Y-93750000D01*
X168250000Y-90750000D02*
X167508000Y-91492000D01*
X166000000Y-132750000D02*
X163000000Y-135750000D01*
X169500000Y-101500000D02*
X169500000Y-98750000D01*
X202000000Y-76750000D02*
X202000000Y-84750000D01*
X163800000Y-128700000D02*
X166000000Y-130900000D01*
X169500000Y-101500000D02*
X169500000Y-116750000D01*
X169500000Y-116750000D02*
X167000000Y-119250000D01*
X163800000Y-125950000D02*
X163800000Y-128700000D01*
X201000000Y-75750000D02*
X202000000Y-76750000D01*
X167000000Y-122750000D02*
X163800000Y-125950000D01*
X169500000Y-96984000D02*
X169500000Y-98750000D01*
X166000000Y-130900000D02*
X166000000Y-132750000D01*
X186000000Y-93750000D02*
X188500000Y-96250000D01*
X167508000Y-94992000D02*
X169500000Y-96984000D01*
X163000000Y-135750000D02*
X163000000Y-145250000D01*
X167000000Y-119250000D02*
X167000000Y-122750000D01*
X167508000Y-91492000D02*
X167508000Y-94992000D01*
G04 #@! TO.N,/P3*
X171000000Y-109750000D02*
X176000000Y-114750000D01*
X171000000Y-96750000D02*
X171000000Y-109750000D01*
X196500000Y-102750000D02*
X192500000Y-102750000D01*
X168742000Y-89742000D02*
X169500000Y-90500000D01*
X176500000Y-133750000D02*
X176000000Y-133250000D01*
X166500000Y-84750000D02*
X167250000Y-84750000D01*
X167250000Y-84750000D02*
X168742000Y-86242000D01*
X169500000Y-93250000D02*
X168500000Y-94250000D01*
X178000000Y-143750000D02*
X178000000Y-135250000D01*
X198000000Y-104250000D02*
X196500000Y-102750000D01*
X169500000Y-90500000D02*
X169500000Y-93250000D01*
X198000000Y-113750000D02*
X197000000Y-112750000D01*
X198000000Y-113750000D02*
X198000000Y-104250000D01*
X176000000Y-133250000D02*
X176000000Y-114750000D01*
X192500000Y-102750000D02*
X191500000Y-103750000D01*
X205500000Y-92750000D02*
X205500000Y-100250000D01*
X168742000Y-86242000D02*
X168742000Y-89742000D01*
X205500000Y-100250000D02*
X206000000Y-100750000D01*
X168500000Y-94250000D02*
X171000000Y-96750000D01*
X178000000Y-135250000D02*
X176500000Y-133750000D01*
G04 #@! TO.N,Net-(D7-Pad1)*
X129000000Y-77854501D02*
X129000000Y-77500000D01*
X83749666Y-49250000D02*
X83749666Y-47015666D01*
X252750000Y-67000000D02*
X254750000Y-65000000D01*
X253250000Y-91428912D02*
X250819760Y-88998672D01*
X247285262Y-85464174D02*
X247285262Y-81964738D01*
X124964999Y-70433419D02*
X122742000Y-68210420D01*
X127750000Y-76250000D02*
X127000000Y-76250000D01*
X88742000Y-47008000D02*
X86000000Y-49750000D01*
X102489242Y-48957662D02*
X94989242Y-48957662D01*
X247285262Y-72370163D02*
X248000000Y-73084901D01*
X251050579Y-98949421D02*
X253250000Y-96750000D01*
X129000000Y-77500000D02*
X127750000Y-76250000D01*
X52249237Y-68835664D02*
X52249237Y-55741654D01*
X253250000Y-96750000D02*
X253250000Y-91428912D01*
X68000000Y-49370353D02*
X67620353Y-49750000D01*
X136250000Y-88250000D02*
X137210000Y-89210000D01*
X247285262Y-69714738D02*
X250000000Y-67000000D01*
X251050579Y-99199421D02*
X251050579Y-98949421D01*
X250930240Y-99319760D02*
X251050579Y-99199421D01*
X250000000Y-67000000D02*
X252750000Y-67000000D01*
X68000000Y-48250000D02*
X68000000Y-49370353D01*
X196000000Y-61500000D02*
X193500000Y-61500000D01*
X118316581Y-60285001D02*
X109816580Y-60285000D01*
X74000000Y-47250000D02*
X70500000Y-47250000D01*
X250819760Y-99319760D02*
X250930240Y-99319760D01*
X63000000Y-52750000D02*
X55240891Y-52750000D01*
X159875000Y-87375000D02*
X160875000Y-87375000D01*
X83749666Y-47015666D02*
X82992000Y-46258000D01*
X31500000Y-98750000D02*
X31500000Y-98645499D01*
X55240891Y-52750000D02*
X52249237Y-55741654D01*
X130492000Y-79346501D02*
X129000000Y-77854501D01*
X68492000Y-47758000D02*
X68000000Y-48250000D01*
X161617000Y-86633000D02*
X161617000Y-83149000D01*
X107992000Y-54460420D02*
X102489242Y-48957662D01*
X70500000Y-47250000D02*
X70000000Y-47750000D01*
X162008000Y-75242000D02*
X162750000Y-74500000D01*
X78624356Y-48844064D02*
X75594064Y-48844064D01*
X158040000Y-89210000D02*
X159875000Y-87375000D01*
X248000000Y-81250000D02*
X247285262Y-81964738D01*
X130492000Y-87008000D02*
X130000000Y-87500000D01*
X36000000Y-81500000D02*
X39000000Y-78500000D01*
X122742000Y-68210420D02*
X122742000Y-64710420D01*
X24039084Y-101884771D02*
X27173854Y-98750000D01*
X36000000Y-86000000D02*
X36000000Y-81500000D01*
X197000000Y-60500000D02*
X196000000Y-61500000D01*
X94989242Y-48957662D02*
X93039580Y-47008000D01*
X130492000Y-86508000D02*
X130492000Y-87008000D01*
X137210000Y-89210000D02*
X158040000Y-89210000D01*
X250819760Y-88998672D02*
X247285262Y-85464174D01*
X254750000Y-63000000D02*
X247491654Y-55741654D01*
X70000000Y-47758000D02*
X68492000Y-47758000D01*
X248000000Y-73084901D02*
X248000000Y-81250000D01*
X82992000Y-46258000D02*
X81210420Y-46258000D01*
X39000000Y-77750000D02*
X42000000Y-74750000D01*
X109816580Y-60285000D02*
X107992000Y-58460420D01*
X130492000Y-86008000D02*
X130492000Y-86508000D01*
X84249666Y-49750000D02*
X83749666Y-49250000D01*
X70000000Y-47750000D02*
X70000000Y-47758000D01*
X46334902Y-74750000D02*
X48714738Y-72370163D01*
X254354259Y-105627181D02*
X250819760Y-102092682D01*
X247285262Y-72370163D02*
X247285262Y-69714738D01*
X107992000Y-58460420D02*
X107992000Y-54460420D01*
X162008000Y-82758000D02*
X162008000Y-75242000D01*
X81210420Y-46258000D02*
X78624356Y-48844064D01*
X39000000Y-78500000D02*
X39000000Y-77750000D01*
X35000000Y-95145499D02*
X35000000Y-87000000D01*
X93039580Y-47008000D02*
X88742000Y-47008000D01*
X250819760Y-102092682D02*
X250819760Y-99319760D01*
X127000000Y-76250000D02*
X124964999Y-74214999D01*
X160875000Y-87375000D02*
X161617000Y-86633000D01*
X254750000Y-65000000D02*
X254750000Y-63000000D01*
X75594064Y-48844064D02*
X74000000Y-47250000D01*
X86000000Y-49750000D02*
X84249666Y-49750000D01*
X66000000Y-49750000D02*
X63000000Y-52750000D01*
X161617000Y-83149000D02*
X162008000Y-82758000D01*
X35000000Y-87000000D02*
X36000000Y-86000000D01*
X67620353Y-49750000D02*
X66000000Y-49750000D01*
X48714738Y-72370163D02*
X52249237Y-68835664D01*
X27173854Y-98750000D02*
X31500000Y-98750000D01*
X247491654Y-55741654D02*
X243750763Y-55741654D01*
X122742000Y-64710420D02*
X118316581Y-60285001D01*
X130492000Y-86008000D02*
X130492000Y-79346501D01*
X42000000Y-74750000D02*
X46334902Y-74750000D01*
X124964999Y-74214999D02*
X124964999Y-70433419D01*
X31500000Y-98645499D02*
X35000000Y-95145499D01*
G04 #@! TO.N,/P4*
X213500000Y-106250000D02*
X211500000Y-108250000D01*
X192000000Y-116750000D02*
X192000000Y-114250000D01*
X191000000Y-113250000D02*
X188500000Y-113250000D01*
X168000000Y-110000000D02*
X168992000Y-109008000D01*
X168992000Y-103742000D02*
X168500000Y-103250000D01*
X203500000Y-123750000D02*
X207500000Y-119750000D01*
X264000000Y-100750000D02*
X264000000Y-102250000D01*
X168500000Y-102000000D02*
X168500000Y-97250000D01*
X225000000Y-106250000D02*
X213500000Y-106250000D01*
X192000000Y-114250000D02*
X191000000Y-113250000D01*
X209500000Y-117750000D02*
X209500000Y-117250000D01*
X209500000Y-110250000D02*
X209500000Y-117250000D01*
X207500000Y-119750000D02*
X209500000Y-117750000D01*
X256000000Y-106250000D02*
X255000000Y-107250000D01*
X195150000Y-119900000D02*
X192000000Y-116750000D01*
X168500000Y-97250000D02*
X168000000Y-96750000D01*
X264000000Y-102250000D02*
X260000000Y-106250000D01*
X203500000Y-134300000D02*
X203500000Y-123750000D01*
X202500000Y-135300000D02*
X203500000Y-134300000D01*
X260000000Y-106250000D02*
X256500000Y-106250000D01*
X255000000Y-107250000D02*
X249000000Y-107250000D01*
X211500000Y-108250000D02*
X209500000Y-110250000D01*
X256500000Y-106250000D02*
X256000000Y-106250000D01*
X249000000Y-107250000D02*
X248000000Y-108250000D01*
X168500000Y-103250000D02*
X168500000Y-102000000D01*
X168000000Y-114750000D02*
X168000000Y-110000000D01*
X202500000Y-136750000D02*
X202500000Y-135300000D01*
X168992000Y-109008000D02*
X168992000Y-103742000D01*
G04 #@! TO.N,/P5*
X83500000Y-64250000D02*
X83500000Y-66250000D01*
X158000000Y-102600000D02*
X158000000Y-100100000D01*
X121472999Y-83277001D02*
X121500000Y-83250000D01*
X121472999Y-87527001D02*
X121472999Y-83277001D01*
X82000000Y-47750000D02*
X82000000Y-53250000D01*
X119000000Y-121750000D02*
X119000000Y-124250000D01*
X120631000Y-118119000D02*
X120631000Y-120119000D01*
X98000000Y-67750000D02*
X98000000Y-57750000D01*
X126000000Y-91250000D02*
X126000000Y-90250000D01*
X86500000Y-57750000D02*
X86500000Y-61250000D01*
X113500000Y-80750000D02*
X112500000Y-81750000D01*
X124875000Y-113875000D02*
X125367000Y-113383000D01*
X113500000Y-70250000D02*
X113500000Y-80750000D01*
X82000000Y-53250000D02*
X86500000Y-57750000D01*
X127525000Y-92775000D02*
X126000000Y-91250000D01*
X126000000Y-90250000D02*
X125000000Y-89250000D01*
X125000000Y-101250000D02*
X127525000Y-98725000D01*
X124875000Y-113875000D02*
X120631000Y-118119000D01*
X86500000Y-61250000D02*
X83500000Y-64250000D01*
X127525000Y-98725000D02*
X127525000Y-92775000D01*
X125000000Y-103266000D02*
X125367000Y-103633000D01*
X125367000Y-113383000D02*
X125367000Y-103633000D01*
X123195998Y-89250000D02*
X121472999Y-87527001D01*
X125000000Y-101250000D02*
X125000000Y-103266000D01*
X120631000Y-120119000D02*
X119000000Y-121750000D01*
X125000000Y-89250000D02*
X123195998Y-89250000D01*
G04 #@! TO.N,/P6*
X115500000Y-64750000D02*
X115500000Y-62250000D01*
X127531000Y-107219000D02*
X128500000Y-106250000D01*
X110500000Y-74750000D02*
X111000000Y-74250000D01*
X104000000Y-82250000D02*
X104000000Y-81250000D01*
X126008000Y-130242000D02*
X126008000Y-125242000D01*
X106000000Y-78250000D02*
X108472999Y-75777001D01*
X110000000Y-91750000D02*
X110000000Y-96750000D01*
X128500000Y-106250000D02*
X132000000Y-106250000D01*
X104000000Y-81250000D02*
X106000000Y-79250000D01*
X104000000Y-84250000D02*
X104000000Y-82250000D01*
X127531000Y-113781000D02*
X127531000Y-107219000D01*
X104000000Y-84250000D02*
X104000000Y-85250000D01*
X77500000Y-73250000D02*
X77500000Y-67250000D01*
X115500000Y-140750000D02*
X126008000Y-130242000D01*
X110000000Y-96750000D02*
X109500000Y-97250000D01*
X77500000Y-67250000D02*
X78000000Y-66750000D01*
X106000000Y-79250000D02*
X106000000Y-78250000D01*
X111500000Y-89750000D02*
X110000000Y-91250000D01*
X109472999Y-75777001D02*
X110500000Y-74750000D01*
X132000000Y-106250000D02*
X135000000Y-103250000D01*
X135000000Y-103250000D02*
X135000000Y-99750000D01*
X129000000Y-122250000D02*
X129000000Y-115250000D01*
X111000000Y-69250000D02*
X115500000Y-64750000D01*
X110000000Y-91250000D02*
X110000000Y-91750000D01*
X104000000Y-85250000D02*
X110000000Y-91250000D01*
X111000000Y-74250000D02*
X111000000Y-69250000D01*
X129000000Y-115250000D02*
X127531000Y-113781000D01*
X108472999Y-75777001D02*
X109472999Y-75777001D01*
X126008000Y-125242000D02*
X129000000Y-122250000D01*
G04 #@! TO.N,/P7*
X47500000Y-54800000D02*
X47600000Y-54900000D01*
X42000000Y-51750000D02*
X44450000Y-51750000D01*
X98700000Y-125500000D02*
X98700000Y-136450000D01*
X36500000Y-79250000D02*
X38000000Y-77750000D01*
X88000000Y-85250000D02*
X89250000Y-85250000D01*
X87000000Y-84250000D02*
X88000000Y-85250000D01*
X87000000Y-83750000D02*
X87000000Y-84250000D01*
X98700000Y-136450000D02*
X99500000Y-137250000D01*
X107000000Y-96250000D02*
X107000000Y-103750000D01*
X34500000Y-62750000D02*
X34500000Y-58250000D01*
X89000000Y-101750000D02*
X89000000Y-105750000D01*
X40000000Y-70250000D02*
X40000000Y-68250000D01*
X38000000Y-77750000D02*
X38000000Y-72250000D01*
X44450000Y-51750000D02*
X47500000Y-54800000D01*
X89250000Y-85250000D02*
X91000000Y-87000000D01*
X91000000Y-91750000D02*
X91000000Y-99750000D01*
X34500000Y-58250000D02*
X41000000Y-51750000D01*
X88000000Y-106750000D02*
X88000000Y-114800000D01*
X108500000Y-94750000D02*
X107000000Y-96250000D01*
X47600000Y-54900000D02*
X47600000Y-58700000D01*
X88000000Y-114800000D02*
X98700000Y-125500000D01*
X41000000Y-51750000D02*
X42000000Y-51750000D01*
X40000000Y-68250000D02*
X34500000Y-62750000D01*
X91000000Y-99750000D02*
X89000000Y-101750000D01*
X91000000Y-87000000D02*
X91000000Y-91750000D01*
X38000000Y-72250000D02*
X40000000Y-70250000D01*
X89000000Y-105750000D02*
X88000000Y-106750000D01*
G04 #@! TO.N,NEOPIXEL_EN*
X151000000Y-96500000D02*
X154800000Y-96500000D01*
X156100000Y-106350000D02*
X159000000Y-109250000D01*
X156100000Y-97800000D02*
X156100000Y-106350000D01*
X154800000Y-96500000D02*
X156100000Y-97800000D01*
G04 #@! TO.N,Net-(D8-Pad1)*
X245527001Y-63777001D02*
X244722999Y-63777001D01*
X252777001Y-63777001D02*
X245527001Y-63777001D01*
X271960916Y-101884771D02*
X268426418Y-98350273D01*
X176250000Y-97000000D02*
X176500000Y-96750000D01*
X264891918Y-68627752D02*
X261764166Y-65500000D01*
X265500000Y-77500000D02*
X264500000Y-78500000D01*
X31108082Y-81721762D02*
X27573582Y-85256262D01*
X200750000Y-68000000D02*
X201750000Y-69000000D01*
X95500000Y-93750000D02*
X95500000Y-91750000D01*
X225750000Y-63500000D02*
X234500000Y-63500000D01*
X264891918Y-68627752D02*
X264891918Y-73641918D01*
X94000000Y-90250000D02*
X94000000Y-86250000D01*
X201750000Y-69000000D02*
X209750000Y-69000000D01*
X264891918Y-73641918D02*
X265500000Y-74250000D01*
X31108082Y-68627752D02*
X31108082Y-81721762D01*
X27573582Y-89176418D02*
X27500000Y-89250000D01*
X209750000Y-69000000D02*
X212750000Y-66000000D01*
X181500000Y-71500000D02*
X182000000Y-72000000D01*
X223250000Y-66000000D02*
X225750000Y-63500000D01*
X244722999Y-63777001D02*
X242500000Y-66000000D01*
X135250000Y-95500000D02*
X134500000Y-95500000D01*
X175250000Y-93250000D02*
X177000000Y-95000000D01*
X158024000Y-93274000D02*
X161250000Y-96500000D01*
X239500000Y-66000000D02*
X238750000Y-66750000D01*
X200750000Y-66853794D02*
X200750000Y-68000000D01*
X180250000Y-79000000D02*
X179250000Y-79000000D01*
X182000000Y-72000000D02*
X182000000Y-77250000D01*
X256000000Y-64750000D02*
X256000000Y-64250000D01*
X264500000Y-81329844D02*
X268426418Y-85256262D01*
X175250000Y-83000000D02*
X175250000Y-93250000D01*
X201301897Y-66301897D02*
X200750000Y-66853794D01*
X27573582Y-85256262D02*
X27573582Y-89176418D01*
X264500000Y-78500000D02*
X264500000Y-81329844D01*
X177000000Y-96250000D02*
X176500000Y-96750000D01*
X177000000Y-95000000D02*
X177000000Y-96250000D01*
X256750000Y-65500000D02*
X256000000Y-64750000D01*
X212750000Y-66000000D02*
X223250000Y-66000000D01*
X136750000Y-94000000D02*
X137476000Y-93274000D01*
X156274000Y-93274000D02*
X158024000Y-93274000D01*
X136750000Y-94000000D02*
X135250000Y-95500000D01*
X239750000Y-66000000D02*
X239500000Y-66000000D01*
X175000000Y-97000000D02*
X176250000Y-97000000D01*
X253250000Y-64250000D02*
X252777001Y-63777001D01*
X137476000Y-93274000D02*
X156274000Y-93274000D01*
X95500000Y-91750000D02*
X94000000Y-90250000D01*
X242500000Y-66000000D02*
X239750000Y-66000000D01*
X182000000Y-77250000D02*
X180250000Y-79000000D01*
X265500000Y-74250000D02*
X265500000Y-77500000D01*
X179250000Y-79000000D02*
X175250000Y-83000000D01*
X268426418Y-98350273D02*
X268426418Y-85256262D01*
X261764166Y-65500000D02*
X256750000Y-65500000D01*
G04 #@! TO.N,Net-(D106-Pad1)*
X135758000Y-85258000D02*
X135758000Y-80008000D01*
X138694000Y-88194000D02*
X135758000Y-85258000D01*
X173964999Y-69964999D02*
X176000000Y-72000000D01*
X161500000Y-82500000D02*
X155806000Y-88194000D01*
X193000000Y-46750000D02*
X188263501Y-51486499D01*
X179000000Y-59222999D02*
X179000000Y-61031580D01*
X161500001Y-73999999D02*
X161500000Y-82500000D01*
X176000000Y-74250000D02*
X174750000Y-75500000D01*
X134000000Y-78250000D02*
X134000000Y-73250000D01*
X169777001Y-72777001D02*
X162722999Y-72777001D01*
X179000000Y-61031580D02*
X173965000Y-66066580D01*
X176000000Y-72000000D02*
X176000000Y-74250000D01*
X173965000Y-66066580D02*
X173964999Y-69964999D01*
X155806000Y-88194000D02*
X138694000Y-88194000D01*
X172500000Y-75500000D02*
X169777001Y-72777001D01*
X174750000Y-75500000D02*
X172500000Y-75500000D01*
X135758000Y-80008000D02*
X134000000Y-78250000D01*
X188263501Y-51486499D02*
X186736499Y-51486499D01*
X162722999Y-72777001D02*
X161500001Y-73999999D01*
X186736499Y-51486499D02*
X179000000Y-59222999D01*
G04 #@! TO.N,Net-(D112-Pad1)*
X169250000Y-75750000D02*
X170250000Y-74750000D01*
X124456999Y-74293001D02*
X124456999Y-70706999D01*
X171250000Y-66500000D02*
X171250000Y-70250000D01*
X167750000Y-75750000D02*
X169250000Y-75750000D01*
X123750000Y-75000000D02*
X124456999Y-74293001D01*
X118106160Y-60793000D02*
X109543000Y-60793000D01*
X128500000Y-90000000D02*
X128242000Y-89742000D01*
X104500000Y-51750000D02*
X93271631Y-51750000D01*
X165000000Y-78500000D02*
X167750000Y-75750000D01*
X123750000Y-79750000D02*
X123750000Y-75000000D01*
X122234000Y-68484000D02*
X122234000Y-64920840D01*
X128242000Y-86742000D02*
X127508000Y-86008000D01*
X171250000Y-70250000D02*
X171250000Y-71246579D01*
X124456999Y-70706999D02*
X122234000Y-68484000D01*
X171250000Y-71246579D02*
X171250000Y-72500000D01*
X70000000Y-51750000D02*
X76000000Y-51750000D01*
X171500000Y-66250000D02*
X171250000Y-66500000D01*
X109543000Y-60793000D02*
X107484000Y-58734000D01*
X69000000Y-57250000D02*
X69000000Y-52750000D01*
X76000000Y-51750000D02*
X76500000Y-52250000D01*
X178250000Y-58250000D02*
X178250000Y-59500000D01*
X127508000Y-83508000D02*
X123750000Y-79750000D01*
X107484000Y-58734000D02*
X107484000Y-54734000D01*
X160258000Y-92258000D02*
X160750000Y-92750000D01*
X122234000Y-64920840D02*
X118106160Y-60793000D01*
X133500000Y-91500000D02*
X134258000Y-92258000D01*
X128242000Y-89742000D02*
X128242000Y-86742000D01*
X160750000Y-92750000D02*
X161750000Y-93750000D01*
X76500000Y-52250000D02*
X80000000Y-52250000D01*
X92719734Y-52301897D02*
X89051897Y-52301897D01*
X165000000Y-93750000D02*
X165000000Y-78500000D01*
X178250000Y-59500000D02*
X171500000Y-66250000D01*
X93271631Y-51750000D02*
X92719734Y-52301897D01*
X127508000Y-86008000D02*
X127508000Y-83508000D01*
X69000000Y-52750000D02*
X70000000Y-51750000D01*
X107484000Y-54734000D02*
X104500000Y-51750000D01*
X134258000Y-92258000D02*
X160258000Y-92258000D01*
X180000000Y-56500000D02*
X178250000Y-58250000D01*
G04 #@! TO.N,NEOPIXEL*
X151750000Y-109500000D02*
X154500000Y-106750000D01*
X154500000Y-106750000D02*
X154500000Y-100000000D01*
G04 #@! TO.N,Net-(D122-Pad1)*
X177016000Y-71984000D02*
X178750000Y-70250000D01*
X159266000Y-92766000D02*
X160250000Y-93750000D01*
X120000000Y-73250000D02*
X115500000Y-68750000D01*
X237198103Y-59198103D02*
X235250000Y-57250000D01*
X133266000Y-92766000D02*
X133250000Y-92750000D01*
X43695186Y-67250000D02*
X46500000Y-67250000D01*
X177015999Y-74670841D02*
X177016000Y-71984000D01*
X35551897Y-62698103D02*
X35576806Y-62673194D01*
X122750000Y-80277742D02*
X122750000Y-77000000D01*
X157734000Y-92766000D02*
X133266000Y-92766000D01*
X197992001Y-62007999D02*
X199750000Y-60250000D01*
X73500000Y-65250000D02*
X79000000Y-65250000D01*
X65000000Y-69750000D02*
X69000000Y-69750000D01*
X181750000Y-69500000D02*
X184500000Y-69500000D01*
X69000000Y-69750000D02*
X73500000Y-65250000D01*
X181000000Y-70250000D02*
X181750000Y-69500000D01*
X209000000Y-58250000D02*
X210500000Y-56750000D01*
X241750000Y-53750000D02*
X241750000Y-57750000D01*
X92000000Y-65250000D02*
X93000000Y-65250000D01*
X194492001Y-62007999D02*
X197992001Y-62007999D01*
X176218420Y-77468420D02*
X176218420Y-75468420D01*
X210500000Y-56750000D02*
X217000000Y-56750000D01*
X178750000Y-70250000D02*
X181000000Y-70250000D01*
X113500000Y-68750000D02*
X112000000Y-70250000D01*
X115500000Y-68750000D02*
X113500000Y-68750000D01*
X120000000Y-74250000D02*
X120000000Y-73250000D01*
X217000000Y-56750000D02*
X217500000Y-57250000D01*
X174742000Y-90758000D02*
X174742000Y-90258000D01*
X127000000Y-84527742D02*
X127000000Y-89500000D01*
X79000000Y-65250000D02*
X80000000Y-66250000D01*
X184500000Y-69500000D02*
X188500000Y-65500000D01*
X122750000Y-77000000D02*
X120000000Y-74250000D01*
X157734000Y-92766000D02*
X159266000Y-92766000D01*
X124486129Y-82013871D02*
X122750000Y-80277742D01*
X235250000Y-57250000D02*
X217500000Y-57250000D01*
X124486129Y-82013871D02*
X127000000Y-84527742D01*
X174742000Y-82242000D02*
X176508000Y-80476000D01*
X245000000Y-50500000D02*
X241750000Y-53750000D01*
X127000000Y-89500000D02*
X127000000Y-90322882D01*
X176508000Y-80476000D02*
X176508000Y-77758000D01*
X176508000Y-77758000D02*
X176218420Y-77468420D01*
X188500000Y-65500000D02*
X191250000Y-65500000D01*
X173500000Y-92000000D02*
X174742000Y-90758000D01*
X174742000Y-90508000D02*
X174742000Y-90258000D01*
X35576806Y-62673194D02*
X39118380Y-62673194D01*
X191250000Y-65500000D02*
X192750000Y-64000000D01*
X90500000Y-66750000D02*
X92000000Y-65250000D01*
X127000000Y-90500000D02*
X128000000Y-91500000D01*
X93000000Y-65250000D02*
X95000000Y-67250000D01*
X174742000Y-90258000D02*
X174742000Y-82242000D01*
X192750000Y-63750000D02*
X194492001Y-62007999D01*
X192750000Y-64000000D02*
X192750000Y-63750000D01*
X39118380Y-62673194D02*
X43695186Y-67250000D01*
X127000000Y-89500000D02*
X127000000Y-90500000D01*
X176218420Y-75468420D02*
X177015999Y-74670841D01*
G04 #@! TO.N,Net-(D133-Pad1)*
X131508000Y-79500000D02*
X131781000Y-79227000D01*
X164250000Y-75250000D02*
X163984000Y-75516000D01*
X131781000Y-79227000D02*
X131781000Y-75219000D01*
X163984000Y-75516000D02*
X163984000Y-91016000D01*
X132229103Y-88729103D02*
X131508000Y-88008000D01*
X132500000Y-74500000D02*
X132500000Y-72250000D01*
X131508000Y-88008000D02*
X131508000Y-79500000D01*
X162688500Y-92311500D02*
X162688500Y-104938500D01*
X131500000Y-105421500D02*
X132229103Y-104692397D01*
X132229103Y-104692397D02*
X132229103Y-88729103D01*
X162688500Y-104938500D02*
X163250000Y-105500000D01*
X131781000Y-75219000D02*
X132500000Y-74500000D01*
X163984000Y-91016000D02*
X162688500Y-92311500D01*
G04 #@! TO.N,Net-(D144-Pad1)*
X216508000Y-57758000D02*
X216008000Y-57258000D01*
X207500000Y-61250000D02*
X207500000Y-64250000D01*
X47500000Y-65750000D02*
X50500000Y-62750000D01*
X161047580Y-89484000D02*
X159234000Y-89484000D01*
X131031000Y-69003999D02*
X131031000Y-76969000D01*
X205500000Y-67750000D02*
X205000000Y-68250000D01*
X158492000Y-90226000D02*
X135944420Y-90226000D01*
X97250000Y-42250000D02*
X102375000Y-47375000D01*
X237000000Y-60500000D02*
X234258000Y-57758000D01*
X159234000Y-89484000D02*
X158492000Y-90226000D01*
X44500000Y-72750000D02*
X47500000Y-69750000D01*
X211492000Y-57258000D02*
X207500000Y-61250000D01*
X88250000Y-40750000D02*
X89750000Y-42250000D01*
X183000000Y-71500000D02*
X183000000Y-77250000D01*
X134211000Y-83789000D02*
X134211000Y-84289000D01*
X202500000Y-68250000D02*
X201750000Y-67500000D01*
X234258000Y-57758000D02*
X216508000Y-57758000D01*
X135944420Y-90226000D02*
X134211000Y-88492580D01*
X205500000Y-66250000D02*
X205500000Y-67750000D01*
X162125000Y-84875000D02*
X162125000Y-88406580D01*
X47500000Y-69750000D02*
X47500000Y-65750000D01*
X129250000Y-67222999D02*
X131031000Y-69003999D01*
X183000000Y-77250000D02*
X180000000Y-80250000D01*
X205000000Y-68250000D02*
X202500000Y-68250000D01*
X134211000Y-84539000D02*
X134211000Y-83789000D01*
X134211000Y-88492580D02*
X134211000Y-84539000D01*
X134211000Y-84289000D02*
X134211000Y-84539000D01*
X131031000Y-76969000D02*
X131000000Y-77000000D01*
X104625000Y-47375000D02*
X111000000Y-53750000D01*
X134211000Y-84539000D02*
X134211000Y-82461000D01*
X102375000Y-47375000D02*
X104625000Y-47375000D01*
X50500000Y-49250000D02*
X59000000Y-40750000D01*
X89750000Y-42250000D02*
X97250000Y-42250000D01*
X50500000Y-62750000D02*
X50500000Y-49250000D01*
X114000000Y-53750000D02*
X127472999Y-67222999D01*
X127472999Y-67222999D02*
X129250000Y-67222999D01*
X134211000Y-82461000D02*
X133000000Y-81250000D01*
X111000000Y-53750000D02*
X114000000Y-53750000D01*
X207500000Y-64250000D02*
X205500000Y-66250000D01*
X216008000Y-57258000D02*
X211492000Y-57258000D01*
X59000000Y-40750000D02*
X88250000Y-40750000D01*
X162750000Y-84250000D02*
X162125000Y-84875000D01*
X180000000Y-80250000D02*
X179250000Y-80250000D01*
X162125000Y-88406580D02*
X161047580Y-89484000D01*
G04 #@! TO.N,Net-(D151-Pad1)*
X129870604Y-104879396D02*
X131721103Y-103028897D01*
X131721103Y-88971103D02*
X131000000Y-88250000D01*
X163196500Y-103696500D02*
X164250000Y-104750000D01*
X164492000Y-77008000D02*
X164492000Y-91258000D01*
X131721103Y-103028897D02*
X131721103Y-88971103D01*
X163196500Y-92553500D02*
X163196500Y-103696500D01*
X131000000Y-88250000D02*
X131000000Y-78750000D01*
X164492000Y-91258000D02*
X163196500Y-92553500D01*
X165750000Y-75750000D02*
X164492000Y-77008000D01*
X128500000Y-104879396D02*
X129870604Y-104879396D01*
G04 #@! TO.N,Net-(D158-Pad1)*
X40000000Y-80750000D02*
X41847672Y-80750000D01*
X135250000Y-85500000D02*
X135250000Y-80250000D01*
X103750000Y-80000000D02*
X105250000Y-78500000D01*
X69951376Y-81500000D02*
X74008998Y-81500000D01*
X156298000Y-88702000D02*
X138452000Y-88702000D01*
X133008000Y-76242000D02*
X133008000Y-78008000D01*
X105250000Y-78500000D02*
X105250000Y-77000000D01*
X41847672Y-80750000D02*
X42501172Y-81403500D01*
X100250000Y-77750000D02*
X100250000Y-78750000D01*
X117500000Y-79461501D02*
X119000000Y-77961501D01*
X197000000Y-75250000D02*
X196500000Y-75750000D01*
X82500000Y-77750000D02*
X82500000Y-73250000D01*
X50000000Y-85000000D02*
X51000000Y-86000000D01*
X157798000Y-88702000D02*
X160250000Y-86250000D01*
X74008998Y-81500000D02*
X76008998Y-79500000D01*
X68500000Y-82951376D02*
X69951376Y-81500000D01*
X68500000Y-84250000D02*
X68500000Y-82951376D01*
X119000000Y-77961501D02*
X119000000Y-74000000D01*
X199750000Y-75250000D02*
X197000000Y-75250000D01*
X196500000Y-75750000D02*
X195750000Y-76500000D01*
X133008000Y-78008000D02*
X135250000Y-80250000D01*
X51000000Y-86000000D02*
X53500000Y-86000000D01*
X101500000Y-80000000D02*
X103750000Y-80000000D01*
X80750000Y-79500000D02*
X82500000Y-77750000D01*
X138452000Y-88702000D02*
X135250000Y-85500000D01*
X133262000Y-75988000D02*
X133008000Y-76242000D01*
X50000000Y-83000000D02*
X50000000Y-85000000D01*
X100250000Y-78750000D02*
X101500000Y-80000000D01*
X156298000Y-88702000D02*
X157798000Y-88702000D01*
X76008998Y-79500000D02*
X80750000Y-79500000D01*
X133012000Y-75988000D02*
X133262000Y-75988000D01*
G04 #@! TO.N,Net-(D169-Pad1)*
X167000000Y-88750000D02*
X167750000Y-88000000D01*
X167000000Y-102122214D02*
X167438893Y-102561107D01*
X167000000Y-91250000D02*
X167000000Y-88750000D01*
X129500000Y-91250000D02*
X128033000Y-92717000D01*
X129500000Y-89000000D02*
X129500000Y-91250000D01*
X167000000Y-101750000D02*
X167000000Y-101931000D01*
X128033000Y-92717000D02*
X128033000Y-100717000D01*
X128750000Y-87250000D02*
X128750000Y-88250000D01*
X167750000Y-88000000D02*
X167750000Y-87250000D01*
X167000000Y-101750000D02*
X167000000Y-102122214D01*
X128750000Y-87250000D02*
X128750000Y-85500000D01*
X167000000Y-91250000D02*
X167000000Y-101750000D01*
X128033000Y-100717000D02*
X126500000Y-102250000D01*
X128750000Y-88250000D02*
X129500000Y-89000000D01*
G04 #@! TO.N,Net-(D180-Pad1)*
X133280500Y-88280500D02*
X133500000Y-88500000D01*
X163000000Y-88250000D02*
X163000000Y-85500000D01*
X72250000Y-90500000D02*
X74750000Y-90500000D01*
X199750000Y-78250000D02*
X196750000Y-78250000D01*
X161258000Y-89992000D02*
X163000000Y-88250000D01*
X196750000Y-78250000D02*
X196250000Y-77750000D01*
X158750000Y-90734000D02*
X159492000Y-89992000D01*
X114000000Y-86500000D02*
X115500000Y-88000000D01*
X200500000Y-77500000D02*
X199750000Y-78250000D01*
X66250000Y-91188499D02*
X67061501Y-92000000D01*
X135734000Y-90734000D02*
X158750000Y-90734000D01*
X159492000Y-89992000D02*
X161258000Y-89992000D01*
X133500000Y-88500000D02*
X135734000Y-90734000D01*
X133250000Y-86000000D02*
X133250000Y-88250000D01*
X133250000Y-85250000D02*
X133250000Y-86000000D01*
X74750000Y-90500000D02*
X80750000Y-84500000D01*
X67061501Y-92000000D02*
X68750000Y-92000000D01*
X110500000Y-86500000D02*
X114000000Y-86500000D01*
X133250000Y-88250000D02*
X133500000Y-88500000D01*
G04 #@! TO.N,Net-(D187-Pad1)*
X128250000Y-102250000D02*
X128750000Y-101750000D01*
X165000000Y-95750000D02*
X165000000Y-101750000D01*
X128750000Y-94250000D02*
X129250000Y-93750000D01*
X128750000Y-101750000D02*
X128750000Y-94500000D01*
X128750000Y-94500000D02*
X128750000Y-94250000D01*
G04 #@! TO.N,Net-(D194-Pad1)*
X61250000Y-89750000D02*
X61750000Y-90250000D01*
X46280500Y-93000000D02*
X51487742Y-93000000D01*
X106750000Y-95000000D02*
X106750000Y-95003499D01*
X200472999Y-91777001D02*
X199000000Y-93250000D01*
X98250000Y-84219500D02*
X101000000Y-86969500D01*
X117161500Y-100000000D02*
X118000000Y-100000000D01*
X77649930Y-83250000D02*
X79500000Y-83250000D01*
X30250000Y-88108500D02*
X32858500Y-88108500D01*
X126000000Y-92750000D02*
X125500000Y-92250000D01*
X32858500Y-88108500D02*
X33750000Y-89000000D01*
X198850112Y-93399888D02*
X198850112Y-95750000D01*
X70000000Y-91000000D02*
X72750000Y-88250000D01*
X160000000Y-91750000D02*
X160750000Y-91750000D01*
X72750000Y-88149930D02*
X77649930Y-83250000D01*
X115000000Y-97838500D02*
X116955750Y-99794250D01*
X199000000Y-93250000D02*
X198850112Y-93399888D01*
X90750000Y-82000000D02*
X91250000Y-82500000D01*
X40750000Y-90750000D02*
X41917371Y-90750000D01*
X185250000Y-95469500D02*
X184719500Y-96000000D01*
X203750000Y-92250000D02*
X203277001Y-91777001D01*
X106000000Y-94250000D02*
X106750000Y-95000000D01*
X67750000Y-91000000D02*
X70000000Y-91000000D01*
X126000000Y-96000000D02*
X126000000Y-92750000D01*
X195523091Y-96531834D02*
X195329757Y-96338500D01*
X41917371Y-90750000D02*
X44403500Y-93236129D01*
X203277001Y-91777001D02*
X200472999Y-91777001D01*
X37250000Y-89500000D02*
X38500000Y-90750000D01*
X118750000Y-100000000D02*
X122000000Y-100000000D01*
X67000000Y-90250000D02*
X67750000Y-91000000D01*
X160000000Y-91750000D02*
X161250000Y-91750000D01*
X116955750Y-99794250D02*
X117161500Y-100000000D01*
X101000000Y-91500000D02*
X103750000Y-94250000D01*
X195781834Y-96531834D02*
X195523091Y-96531834D01*
X181250000Y-96000000D02*
X178000000Y-92750000D01*
X38500000Y-90750000D02*
X40750000Y-90750000D01*
X198068278Y-96531834D02*
X195781834Y-96531834D01*
X61750000Y-90250000D02*
X67000000Y-90250000D01*
X72750000Y-88250000D02*
X72750000Y-88149930D01*
X184719500Y-96000000D02*
X181250000Y-96000000D01*
X122000000Y-100000000D02*
X126000000Y-96000000D01*
X103750000Y-94250000D02*
X106000000Y-94250000D01*
X133250000Y-90000000D02*
X135000000Y-91750000D01*
X101000000Y-86969500D02*
X101000000Y-91500000D01*
X135000000Y-91750000D02*
X160000000Y-91750000D01*
X118000000Y-100000000D02*
X118750000Y-100000000D01*
X86250000Y-82000000D02*
X90750000Y-82000000D01*
X198850112Y-95750000D02*
X198068278Y-96531834D01*
X51487742Y-93000000D02*
X53118871Y-91368871D01*
X133009603Y-90000000D02*
X133250000Y-90000000D01*
G04 #@! TO.N,/NeoPixel/NeoPixel*
X126722999Y-72750000D02*
X126972999Y-73000000D01*
X108500000Y-58250000D02*
X108500000Y-54250000D01*
X125472999Y-70222999D02*
X125472999Y-71500000D01*
X128750000Y-73000000D02*
X130250000Y-74500000D01*
X125472999Y-71500000D02*
X126722999Y-72750000D01*
X165899000Y-103649000D02*
X167492000Y-105242000D01*
X75913935Y-48336065D02*
X73827870Y-46250000D01*
X73827870Y-46250000D02*
X70500000Y-46250000D01*
X110027001Y-59777001D02*
X108500000Y-58250000D01*
X165898999Y-89148999D02*
X165898999Y-87868499D01*
X93250000Y-46500000D02*
X85750000Y-46500000D01*
X137282000Y-89718000D02*
X136154839Y-89717999D01*
X102500000Y-48250000D02*
X95000000Y-48250000D01*
X64500000Y-48250000D02*
X65750000Y-47000000D01*
X165898999Y-87868499D02*
X165780500Y-87750000D01*
X65750000Y-47000000D02*
X67750000Y-47000000D01*
X167492000Y-105242000D02*
X167492000Y-108008000D01*
X95000000Y-48250000D02*
X93250000Y-46500000D01*
X134719000Y-85000000D02*
X134719000Y-81219000D01*
X167492000Y-108008000D02*
X166250000Y-109250000D01*
X123250000Y-64500000D02*
X118527001Y-59777001D01*
X118527001Y-59777001D02*
X110027001Y-59777001D01*
X78413935Y-48336065D02*
X75913935Y-48336065D01*
X85750000Y-46500000D02*
X85000000Y-45750000D01*
X126972999Y-73000000D02*
X128750000Y-73000000D01*
X81000000Y-45750000D02*
X78413935Y-48336065D01*
X158282000Y-89718000D02*
X159750000Y-88250000D01*
X108500000Y-54250000D02*
X102500000Y-48250000D01*
X136154839Y-89717999D02*
X134719000Y-88282160D01*
X85000000Y-45750000D02*
X81000000Y-45750000D01*
X137282000Y-89718000D02*
X158282000Y-89718000D01*
X160750000Y-88250000D02*
X159750000Y-88250000D01*
X70500000Y-46250000D02*
X69750000Y-47000000D01*
X69750000Y-47000000D02*
X67750000Y-47000000D01*
X125472999Y-70222999D02*
X123250000Y-68000000D01*
X123250000Y-68000000D02*
X123250000Y-64500000D01*
X134719000Y-81219000D02*
X134000000Y-80500000D01*
X165898999Y-89148999D02*
X165899000Y-103649000D01*
X134719000Y-88282160D02*
X134719000Y-85000000D01*
G04 #@! TO.N,Net-(D216-Pad1)*
X159250000Y-98000000D02*
X155540000Y-94290000D01*
X121421989Y-106328011D02*
X122872433Y-104877567D01*
X100000000Y-103688499D02*
X103438499Y-103688499D01*
X38000000Y-100250000D02*
X36250000Y-100250000D01*
X118551897Y-107301897D02*
X119525783Y-106328011D01*
X106500000Y-106750000D02*
X111500000Y-106750000D01*
X36250000Y-100250000D02*
X36000000Y-100000000D01*
X103438499Y-103688499D02*
X106000000Y-106250000D01*
X122872433Y-104377567D02*
X124000000Y-103250000D01*
X122872433Y-104877567D02*
X122872433Y-104377567D01*
X106000000Y-106250000D02*
X106500000Y-106750000D01*
X86500000Y-98750000D02*
X87500000Y-99750000D01*
X139210000Y-94290000D02*
X136550000Y-96950000D01*
X39500000Y-98750000D02*
X38000000Y-100250000D01*
X125891500Y-98358500D02*
X126558500Y-98358500D01*
X124000000Y-100250000D02*
X125891500Y-98358500D01*
X29000000Y-96750000D02*
X30500000Y-95250000D01*
X82500000Y-99750000D02*
X83500000Y-98750000D01*
X155540000Y-94290000D02*
X139210000Y-94290000D01*
X204000000Y-93750000D02*
X203000000Y-94750000D01*
X124000000Y-103250000D02*
X124000000Y-100250000D01*
X159850000Y-98600000D02*
X160600000Y-98600000D01*
X119525783Y-106328011D02*
X121421989Y-106328011D01*
X203000000Y-94750000D02*
X200000000Y-94750000D01*
X30500000Y-95250000D02*
X33500000Y-95250000D01*
X36000000Y-100000000D02*
X36000000Y-97250000D01*
X159750000Y-98500000D02*
X159850000Y-98600000D01*
X83500000Y-98750000D02*
X86500000Y-98750000D01*
X159250000Y-98000000D02*
X159750000Y-98500000D01*
D13*
G04 #@! TO.N,VDD*
X40750000Y-97000000D02*
X41750000Y-97000000D01*
X203849999Y-75400001D02*
X205500000Y-73750000D01*
X43000000Y-88250000D02*
X42500000Y-87750000D01*
X181000000Y-124750000D02*
X181000000Y-124200000D01*
X53500000Y-69750000D02*
X57000000Y-69750000D01*
X43000000Y-82750000D02*
X43500000Y-82250000D01*
X38500000Y-105250000D02*
X40500000Y-103250000D01*
X60349999Y-63400001D02*
X60000000Y-63750000D01*
X36000000Y-87250000D02*
X39715912Y-83534088D01*
X42215912Y-83534088D02*
X43000000Y-82750000D01*
X186000000Y-138750000D02*
X186000000Y-135750000D01*
X183000000Y-126750000D02*
X181000000Y-124750000D01*
X60000000Y-63750000D02*
X60000000Y-62750000D01*
X205500000Y-73750000D02*
X207250000Y-72000000D01*
X203750000Y-56500000D02*
X203750000Y-54000000D01*
X174000000Y-117500000D02*
X174000000Y-123250000D01*
X68000000Y-55250000D02*
X68000000Y-50750000D01*
X130250000Y-114950000D02*
X130250000Y-117750000D01*
X129500000Y-109250000D02*
X129500000Y-114200000D01*
X203849999Y-81900001D02*
X203849999Y-75849999D01*
X203750000Y-54000000D02*
X206408850Y-51341150D01*
X49250000Y-75030500D02*
X49250000Y-74000000D01*
X129500000Y-114200000D02*
X130250000Y-114950000D01*
X205500000Y-73750000D02*
X206000000Y-73250000D01*
X203849999Y-75849999D02*
X203849999Y-75400001D01*
X210412518Y-90337482D02*
X207750000Y-93000000D01*
X36754000Y-92496000D02*
X37125000Y-92125000D01*
X184500000Y-141500000D02*
X184500000Y-140250000D01*
X104000000Y-110750000D02*
X104000000Y-119750000D01*
X183000000Y-132750000D02*
X183000000Y-129750000D01*
X49250000Y-74000000D02*
X53500000Y-69750000D01*
X49250000Y-76500000D02*
X49250000Y-75030500D01*
X207750000Y-93000000D02*
X207750000Y-98500000D01*
X37125000Y-92125000D02*
X37125000Y-90875000D01*
X131250000Y-107500000D02*
X129500000Y-109250000D01*
X207250000Y-72000000D02*
X207500000Y-72000000D01*
X43500000Y-82250000D02*
X49250000Y-76500000D01*
X40500000Y-97750000D02*
X40500000Y-97250000D01*
X137800000Y-107500000D02*
X131250000Y-107500000D01*
X68000000Y-55250000D02*
X68000000Y-62357632D01*
X104500000Y-139250000D02*
X105000000Y-138750000D01*
X39715912Y-83534088D02*
X42215912Y-83534088D01*
X181000000Y-124200000D02*
X181000000Y-123500000D01*
X38000000Y-105250000D02*
X38500000Y-105250000D01*
X181000000Y-123500000D02*
X179400000Y-121900000D01*
X201000000Y-64500000D02*
X201000000Y-64000000D01*
X199500000Y-71500000D02*
X199500000Y-67250000D01*
X66957631Y-63400001D02*
X60349999Y-63400001D01*
X203849999Y-75849999D02*
X199500000Y-71500000D01*
X68000000Y-50750000D02*
X69000000Y-49750000D01*
X201000000Y-59250000D02*
X203750000Y-56500000D01*
X206408850Y-51341150D02*
X206908850Y-51341150D01*
X179400000Y-121900000D02*
X177300001Y-121900001D01*
X36000000Y-89750000D02*
X36000000Y-87250000D01*
X210412518Y-90337482D02*
X210412518Y-77662518D01*
X60000000Y-66750000D02*
X60000000Y-63750000D01*
X206904000Y-99346000D02*
X206904000Y-107846000D01*
X206904000Y-107846000D02*
X206500000Y-108250000D01*
X181000000Y-147250000D02*
X181000000Y-145000000D01*
X40500000Y-97250000D02*
X40750000Y-97000000D01*
X186000000Y-135750000D02*
X183000000Y-132750000D01*
X39250000Y-97750000D02*
X36754000Y-95254000D01*
X57000000Y-69750000D02*
X60000000Y-66750000D01*
X208500000Y-49750000D02*
X208500000Y-47750000D01*
X201000000Y-64000000D02*
X201000000Y-59250000D01*
X40500000Y-97750000D02*
X39250000Y-97750000D01*
X184500000Y-140250000D02*
X186000000Y-138750000D01*
X210412518Y-90337482D02*
X211250000Y-89500000D01*
X155000000Y-107750000D02*
X165000000Y-117750000D01*
X68000000Y-62357632D02*
X66957631Y-63400001D01*
X199500000Y-66000000D02*
X201000000Y-64500000D01*
X36754000Y-95254000D02*
X36754000Y-92496000D01*
X42500000Y-83250000D02*
X43000000Y-82750000D01*
X104500000Y-144750000D02*
X104500000Y-139250000D01*
X210412518Y-77662518D02*
X206000000Y-73250000D01*
X37125000Y-90875000D02*
X36000000Y-89750000D01*
X207750000Y-98500000D02*
X206904000Y-99346000D01*
X69000000Y-49750000D02*
X69000000Y-48750000D01*
X183000000Y-129750000D02*
X183000000Y-126750000D01*
X206908850Y-51341150D02*
X208500000Y-49750000D01*
X42500000Y-87750000D02*
X42500000Y-83250000D01*
X40500000Y-103250000D02*
X40500000Y-97750000D01*
X181000000Y-145000000D02*
X184500000Y-141500000D01*
X199500000Y-67250000D02*
X199500000Y-66000000D01*
D14*
G04 #@! TO.N,Net-(U1-Pad11)*
X138800000Y-113700000D02*
X138800000Y-101700000D01*
X143758000Y-114492000D02*
X139592000Y-114492000D01*
X133625000Y-100375000D02*
X134000000Y-100750000D01*
X134250000Y-93750000D02*
X135250000Y-93750000D01*
X138800000Y-101700000D02*
X137850000Y-100750000D01*
X133625000Y-94375000D02*
X133625000Y-100375000D01*
X133625000Y-94375000D02*
X134250000Y-93750000D01*
X139592000Y-114492000D02*
X138800000Y-113700000D01*
X145500000Y-112750000D02*
X143758000Y-114492000D01*
G04 #@! TO.N,Net-(D223-Pad1)*
X124000000Y-104750000D02*
X124701750Y-105451750D01*
X123403500Y-111500000D02*
X123403500Y-110000000D01*
X123403500Y-110000000D02*
X124701750Y-108701750D01*
X124701750Y-105451750D02*
X124701750Y-108701750D01*
G04 #@! TO.N,Net-(D230-Pad1)*
X179882999Y-104382999D02*
X179585421Y-104382999D01*
X120000000Y-115250000D02*
X116053501Y-115250000D01*
X212500000Y-99112942D02*
X211887058Y-98500000D01*
X176880892Y-108225753D02*
X177051774Y-108396635D01*
X211887058Y-98500000D02*
X209750000Y-98500000D01*
X241000000Y-100000000D02*
X237250000Y-100000000D01*
X255500000Y-100500000D02*
X253985997Y-102014003D01*
X217445998Y-101500000D02*
X215750000Y-101500000D01*
X179585421Y-104382999D02*
X177000000Y-106968420D01*
X121869000Y-109631000D02*
X121869000Y-113381000D01*
X185367001Y-104382999D02*
X179882999Y-104382999D01*
X188250000Y-106000000D02*
X187640516Y-105390516D01*
X99000000Y-112750000D02*
X100000000Y-113750000D01*
X209750000Y-98500000D02*
X208653500Y-99596500D01*
X241750000Y-99250000D02*
X241000000Y-100000000D01*
X187640516Y-105390516D02*
X187640516Y-104756921D01*
X208653500Y-99596500D02*
X208653500Y-101250000D01*
X116053501Y-115250000D02*
X116000000Y-115196499D01*
X121869000Y-113381000D02*
X120000000Y-115250000D01*
X122625000Y-108875000D02*
X123500000Y-108000000D01*
X223250000Y-98500000D02*
X222027001Y-99722999D01*
X253985997Y-102014003D02*
X251844875Y-102014003D01*
X187640516Y-104756921D02*
X186883595Y-104000000D01*
X259000000Y-100500000D02*
X255500000Y-100500000D01*
X100000000Y-113750000D02*
X103000000Y-113750000D01*
X222027001Y-99722999D02*
X219222999Y-99722999D01*
X212500000Y-100500000D02*
X212500000Y-99112942D01*
X185750000Y-104000000D02*
X185367001Y-104382999D01*
X219222999Y-99722999D02*
X217445998Y-101500000D01*
X260750000Y-98619000D02*
X260750000Y-98750000D01*
X122625000Y-108875000D02*
X121869000Y-109631000D01*
X177000000Y-106968420D02*
X176880892Y-107087528D01*
X186883595Y-104000000D02*
X185750000Y-104000000D01*
X260750000Y-98750000D02*
X259000000Y-100500000D01*
X176880892Y-107087528D02*
X176880892Y-108225753D01*
G04 #@! TO.N,/P8*
X130248921Y-91942499D02*
X130248921Y-100501079D01*
X119300000Y-133100000D02*
X119300000Y-134400000D01*
X121500000Y-120250000D02*
X120500000Y-121250000D01*
X119000000Y-132800000D02*
X119300000Y-133100000D01*
X107500000Y-129900000D02*
X100700000Y-123100000D01*
X120500000Y-125750000D02*
X119000000Y-127250000D01*
X125875000Y-107875000D02*
X125874999Y-113875001D01*
X125874999Y-113875001D02*
X121500000Y-118250000D01*
X51423375Y-102326625D02*
X51500000Y-102250000D01*
X84500000Y-101750000D02*
X85000000Y-101750000D01*
X130248921Y-101751079D02*
X125875000Y-106125000D01*
X87000000Y-103750000D02*
X85000000Y-101750000D01*
X87000000Y-108250000D02*
X87000000Y-103750000D01*
X120500000Y-121250000D02*
X120500000Y-125750000D01*
X130248921Y-100501079D02*
X130248921Y-101751079D01*
X107500000Y-130250000D02*
X107500000Y-129900000D01*
X83500000Y-100750000D02*
X84500000Y-101750000D01*
X100700000Y-123100000D02*
X100700000Y-122200000D01*
X119000000Y-127250000D02*
X119000000Y-132800000D01*
X125875000Y-106125000D02*
X125875000Y-107875000D01*
X47576625Y-102326625D02*
X51423375Y-102326625D01*
X46500000Y-100750000D02*
X46500000Y-101250000D01*
X121500000Y-118250000D02*
X121500000Y-120250000D01*
X46500000Y-101250000D02*
X47576625Y-102326625D01*
G04 #@! TO.N,Net-(D97-Pad1)*
X136750000Y-112500000D02*
X136750000Y-110850000D01*
X135300000Y-108600000D02*
X136750000Y-110050000D01*
X136750000Y-110050000D02*
X136750000Y-110850000D01*
G04 #@! TO.N,Net-(D18-Pad2)*
X86524233Y-134224233D02*
X86524233Y-137274233D01*
X87175000Y-127075000D02*
X84750000Y-129500000D01*
X84750000Y-132450000D02*
X86524233Y-134224233D01*
X84750000Y-129500000D02*
X84750000Y-132450000D01*
X86524233Y-137274233D02*
X84605884Y-139192581D01*
G04 #@! TO.N,Net-(D117-Pad1)*
X134781000Y-78312580D02*
X134781000Y-72031000D01*
X155314000Y-87686000D02*
X138936000Y-87686000D01*
X123500000Y-60750000D02*
X122500000Y-60750000D01*
X138936000Y-87686000D02*
X136266000Y-85016000D01*
X160992000Y-82008000D02*
X155314000Y-87686000D01*
X177000000Y-59250000D02*
X175500000Y-59250000D01*
X134781000Y-72031000D02*
X123500000Y-60750000D01*
X175500000Y-59250000D02*
X160992001Y-73757999D01*
X136266000Y-79797580D02*
X134781000Y-78312580D01*
X160992001Y-73757999D02*
X160992000Y-82008000D01*
X136266000Y-85016000D02*
X136266000Y-79797580D01*
G04 #@! TO.N,Net-(D84-Pad2)*
X266633563Y-100870219D02*
X262500000Y-96736656D01*
X262500000Y-96736656D02*
X262500000Y-96250000D01*
G04 #@! TO.N,Net-(D242-Pad1)*
X138000000Y-119750000D02*
X138000000Y-124750000D01*
X138000000Y-124750000D02*
X136500000Y-126250000D01*
G04 #@! TO.N,Net-(D244-Pad1)*
X105450000Y-129250000D02*
X103500000Y-127300000D01*
X156016000Y-116766000D02*
X157500000Y-118250000D01*
X171050000Y-127300000D02*
X172800000Y-127300000D01*
X105500000Y-129250000D02*
X105450000Y-129250000D01*
X130500000Y-130750000D02*
X132475000Y-128775000D01*
X172800000Y-127300000D02*
X174500000Y-125600000D01*
X87500000Y-135250000D02*
X90125000Y-132625000D01*
X132475000Y-127725000D02*
X136750000Y-123450000D01*
X91250000Y-126750000D02*
X91500000Y-126750000D01*
X90125000Y-129375000D02*
X90125000Y-127875000D01*
X169000000Y-125250000D02*
X171050000Y-127300000D01*
X130500000Y-136250000D02*
X130500000Y-130750000D01*
X174500000Y-125600000D02*
X174500000Y-125250000D01*
X132475000Y-128775000D02*
X132475000Y-127725000D01*
X129000000Y-137750000D02*
X130500000Y-136250000D01*
X136750000Y-119500000D02*
X139484000Y-116766000D01*
X139484000Y-116766000D02*
X156016000Y-116766000D01*
X136750000Y-123450000D02*
X136750000Y-119500000D01*
X90125000Y-132625000D02*
X90125000Y-129375000D01*
X157500000Y-123522500D02*
X157272500Y-123750000D01*
X157500000Y-118250000D02*
X157500000Y-123522500D01*
X90125000Y-127875000D02*
X91250000Y-126750000D01*
G04 #@! TO.N,Net-(D250-Pad1)*
X137500000Y-134250000D02*
X137500000Y-128250000D01*
X161500000Y-133750000D02*
X161500000Y-133250000D01*
X161500000Y-133250000D02*
X160500000Y-132250000D01*
X137500000Y-128250000D02*
X139500000Y-126250000D01*
X161500000Y-134750000D02*
X161500000Y-133750000D01*
X139500000Y-126250000D02*
X139500000Y-121750000D01*
X161500000Y-138250000D02*
X161500000Y-134750000D01*
X134000000Y-137750000D02*
X137500000Y-134250000D01*
G04 #@! TO.N,Net-(D256-Pad1)*
X129200000Y-106800000D02*
X133950000Y-106800000D01*
X136258000Y-100242000D02*
X138750000Y-97750000D01*
X105500000Y-120000000D02*
X105500000Y-112500000D01*
X93750000Y-123750000D02*
X92802250Y-124697750D01*
X175000000Y-132250000D02*
X175492000Y-131758000D01*
X116472999Y-112277001D02*
X116472999Y-111027001D01*
X92802250Y-124697750D02*
X92802250Y-127552250D01*
X165250000Y-107250000D02*
X165500000Y-107500000D01*
X92250000Y-138750000D02*
X92250000Y-137500000D01*
X104500000Y-121000000D02*
X105250000Y-120250000D01*
X133950000Y-106800000D02*
X136258000Y-104492000D01*
X110250000Y-113469500D02*
X111280500Y-114500000D01*
X139694000Y-95306000D02*
X154837580Y-95306000D01*
X118000000Y-109500000D02*
X121281580Y-109500000D01*
X92250000Y-137500000D02*
X92500000Y-137250000D01*
X105250000Y-120250000D02*
X105500000Y-120000000D01*
X92477250Y-127877250D02*
X92802250Y-127552250D01*
X91500000Y-128854501D02*
X92477250Y-127877250D01*
X159765790Y-100234210D02*
X159765790Y-104015790D01*
X116472999Y-111027001D02*
X118000000Y-109500000D01*
X138750000Y-97750000D02*
X138750000Y-96250000D01*
X128780500Y-107250500D02*
X128780500Y-107219500D01*
X163000000Y-107250000D02*
X165250000Y-107250000D01*
X111280500Y-114500000D02*
X114250000Y-114500000D01*
X128780500Y-107219500D02*
X129200000Y-106800000D01*
X92500000Y-137250000D02*
X92500000Y-134500000D01*
X114250000Y-114500000D02*
X116472999Y-112277001D01*
X122265790Y-107265790D02*
X122250000Y-107250000D01*
X136258000Y-104492000D02*
X136258000Y-100242000D01*
X122265790Y-108515790D02*
X122265790Y-107265790D01*
X121281580Y-109500000D02*
X122265790Y-108515790D01*
X138750000Y-96250000D02*
X139694000Y-95306000D01*
X154837580Y-95306000D02*
X159765790Y-100234210D01*
X92500000Y-134500000D02*
X91500000Y-133500000D01*
X159765790Y-104015790D02*
X163000000Y-107250000D01*
X175492000Y-131758000D02*
X175492000Y-123000000D01*
X197250000Y-121280500D02*
X197000000Y-121530500D01*
X175219000Y-122727000D02*
X175219000Y-115572794D01*
X197250000Y-119250000D02*
X197250000Y-121280500D01*
X104500000Y-123750000D02*
X104500000Y-121000000D01*
X175492000Y-123000000D02*
X175219000Y-122727000D01*
X175219000Y-115572794D02*
X170698103Y-111051897D01*
X91500000Y-133500000D02*
X91500000Y-128854501D01*
G04 #@! TO.N,Net-(D258-Pad1)*
X158943071Y-117193071D02*
X158943071Y-124193071D01*
X129507999Y-122460421D02*
X129508000Y-120742000D01*
X125500000Y-131800000D02*
X126516000Y-130784000D01*
X159500000Y-133250000D02*
X160500000Y-134250000D01*
X167500000Y-135250000D02*
X170000000Y-137750000D01*
X158943071Y-124193071D02*
X159500000Y-124750000D01*
X160500000Y-134250000D02*
X160500000Y-136250000D01*
X170000000Y-140250000D02*
X172719000Y-142969000D01*
X121950000Y-144250000D02*
X123525000Y-142675000D01*
X125500000Y-139250000D02*
X125500000Y-131800000D01*
X123525000Y-141225000D02*
X125500000Y-139250000D01*
X126516000Y-130784000D02*
X126516000Y-125452420D01*
X126516000Y-125452420D02*
X129507999Y-122460421D01*
X157500000Y-115750000D02*
X158943071Y-117193071D01*
X172719000Y-142969000D02*
X172719000Y-145031000D01*
X171500000Y-146250000D02*
X171500000Y-147250000D01*
X159500000Y-124750000D02*
X159500000Y-133250000D01*
X134500000Y-115750000D02*
X157500000Y-115750000D01*
X170000000Y-137750000D02*
X170000000Y-140250000D01*
X129508000Y-120742000D02*
X134500000Y-115750000D01*
X123525000Y-142675000D02*
X123525000Y-141225000D01*
X172719000Y-145031000D02*
X171500000Y-146250000D01*
G04 #@! TO.N,Net-(D240-Pad1)*
X127000000Y-115250000D02*
X126750000Y-115250000D01*
X125500000Y-126200000D02*
X125500000Y-125500000D01*
X197174583Y-110853159D02*
X189396841Y-110853159D01*
X124200000Y-127500000D02*
X125500000Y-126200000D01*
X120100000Y-132200000D02*
X120100000Y-129900000D01*
X122500000Y-127500000D02*
X124200000Y-127500000D01*
X125000000Y-123750000D02*
X125500000Y-124250000D01*
X185250000Y-112500000D02*
X187750000Y-112500000D01*
X122516000Y-119484000D02*
X122516000Y-123266000D01*
X123000000Y-123750000D02*
X125000000Y-123750000D01*
X126750000Y-115250000D02*
X122516000Y-119484000D01*
X189396841Y-110853159D02*
X187750000Y-112500000D01*
X122516000Y-123266000D02*
X123000000Y-123750000D01*
X120100000Y-129900000D02*
X122500000Y-127500000D01*
X125500000Y-124250000D02*
X125500000Y-125500000D01*
X185000000Y-112250000D02*
X185250000Y-112500000D01*
G04 #@! TD*
M02*
